<?xml version="1.0" standalone="no"?>
<!DOCTYPE svg PUBLIC "-//W3C//DTD SVG 1.1//EN" "http://www.w3.org/Graphics/SVG/1.1/DTD/svg11.dtd" >
<svg xmlns="http://www.w3.org/2000/svg" xmlns:xlink="http://www.w3.org/1999/xlink" version="1.1">
<metadata>
Created by FontForge 20161013 at Tue May  5 04:52:49 2009
 By ,,,
This font was russified from original A.C.M.E secret agent comic font by MadMax (OKay comics) 2002 anno digital
</metadata>
<defs>
<font id="ACMENormal" horiz-adv-x="662" >
  <font-face 
    font-family="A.C.M.E"
    font-weight="400"
    font-stretch="normal"
    units-per-em="1000"
    panose-1="2 0 4 0 0 0 0 0 0 0"
    ascent="800"
    descent="-200"
    cap-height="765"
    bbox="-46 -196 1150 1112"
    underline-thickness="20"
    underline-position="-163"
    unicode-range="U+0020-0491"
  />
<missing-glyph horiz-adv-x="500" 
d="M63 0v1112h375v-1112h-375zM125 63h250v987h-250v-987z" />
    <glyph glyph-name=".notdef" horiz-adv-x="500" 
d="M63 0v1112h375v-1112h-375zM125 63h250v987h-250v-987z" />
    <glyph glyph-name=".null" horiz-adv-x="0" 
 />
    <glyph glyph-name="nonmarkingreturn" horiz-adv-x="500" 
 />
    <glyph glyph-name="space" unicode=" " horiz-adv-x="500" 
 />
    <glyph glyph-name="exclam" unicode="!" horiz-adv-x="382" 
d="M166 249q-52 0 -52 38q2 7 6 25q32 124 47 277l28 279q9 85 62 85q24 0 40 -20.5t16 -45.5q0 -12 -2 -37t-2 -38q1 -56 -1 -103q-5 -140 -41 -304q-7 -30 -27 -104q-21 -52 -74 -52zM205 97q0 -34 -28 -60t-62 -26q-26 0 -43 13q-20 14 -20 39q0 34 28.5 58t63.5 24
q61 0 61 -48z" />
    <glyph glyph-name="quotedbl" unicode="&#x22;" horiz-adv-x="487" 
d="M428 679q0 -93 -29 -181q-25 -27 -45 -27q-34 0 -52 84q-12 56 -12 117q0 99 38 177q18 11 33 11q39 0 56 -75q11 -48 11 -106zM218 680q0 -94 -30 -182q-24 -27 -44 -27q-35 0 -52 84q-12 58 -12 119q0 98 37 175q18 11 33 11q68 0 68 -180z" />
    <glyph glyph-name="numbersign" unicode="#" horiz-adv-x="668" 
d="M609 313q0 -31 -19 -42q-11 -7 -46 -12q-16 -4 -45 -12v-37q0 -86 -73 -86q-35 0 -35 26q0 13 -1.5 38t-1.5 38q-49 -8 -102 -11q-1 -10 -2 -29q-11 -57 -69 -57q-35 0 -35 25q0 10 -1 29.5t-1 29.5q-59 0 -82 8q-42 14 -42 62q0 38 28 38q48 0 89 3q-2 16 -10 102
q-48 0 -71 12q-31 17 -31 61q0 30 29 35l61 2q-10 63 -10 94q0 55 47 55q31 0 43 -19q5 -9 12 -47l19 -76q33 2 100 9q-8 43 -8 66q0 63 46 63q30 0 43 -20q7 -10 14 -47l13 -51q15 0 45.5 5t45.5 5q56 0 56 -47q0 -25 -20 -39.5t-46 -14.5q-27 -10 -61 -16q2 -34 8 -102
q9 0 28 3t28 3q57 0 57 -47zM380 341q-3 31 -8 95q-47 -6 -94 -9q6 -58 8 -95q31 2 94 9z" />
    <glyph glyph-name="dollar" unicode="$" horiz-adv-x="408" 
d="M364 222q0 -105 -93 -153q-8 -31 -15 -63q-13 -37 -43 -37q-63 0 -55 69q-50 -5 -40 -5q-12 0 -27 7q-18 8 -18 18q0 24 91 55q3 -1 7 -1q26 0 59 37t33 64q0 41 -55 81q-90 66 -101 78q-54 59 -54 146q0 138 111 183v19v17q-1 6 -1 1q0 82 46 82q45 0 54 -36l8 -71
q13 -2 44 -8q46 -30 46 -57q0 -26 -44 -49q-23 4 -44 4q-94 0 -94 -79q0 -40 25 -81t60 -64l55 -36q30 -23 39 -54q6 -21 6 -67z" />
    <glyph glyph-name="percent" unicode="%" horiz-adv-x="795" 
d="M380 608q0 -48 -37.5 -81.5t-86.5 -33.5q-36 0 -56 22.5t-20 58.5q0 48 38.5 81t86.5 33q35 0 55 -22t20 -58zM751 758q0 -28 -55 -101q-10 -19 -42 -73q-156 -263 -474 -582q-50 -50 -89 -50q-16 0 -30 10t-14 25q0 17 35 56q132 149 269 325q71 93 256 334
q72 94 112 94q32 0 32 -38zM616 175q0 -49 -37 -82.5t-87 -33.5q-76 0 -76 79q0 49 37 81.5t86 32.5q77 0 77 -77z" />
    <glyph glyph-name="ampersand" unicode="&#x26;" horiz-adv-x="556" 
d="M509 404q0 -25 -16 -35q-4 -2 -39 -11q-1 0 -41 -10q-51 -12 -97 -17q-4 -39 -10 -72q-9 -50 -19 -69q-18 -35 -56 -35q-36 0 -36 24q0 -12 4 15l19 126h-14q-21 -1 -18 -1h-33q-104 0 -104 62q0 20 12 25q5 4 28 4q8 0 142 7q5 71 11 137q5 58 43 58q19 0 30.5 -14
t11.5 -33v-137q8 1 66 9q34 5 64 5q52 0 52 -38z" />
    <glyph glyph-name="quotesingle" unicode="'" horiz-adv-x="302" 
d="M187 859q43 0 43 -76q0 -54 -25 -148q-44 -164 -107 -164q-33 0 -33 76q0 178 88 302q18 10 34 10z" />
    <glyph glyph-name="parenleft" unicode="(" horiz-adv-x="349" 
d="M320 792q0 -14 -42 -44q-7 -5 -36 -43q-118 -155 -118 -320q0 -93 49 -197q32 -67 91 -151q49 -69 49 -80q0 -7 -9 -7q-35 0 -98 63q-177 176 -177 346q0 92 48 217t109 196q16 18 45.5 30t55.5 12q33 0 33 -22z" />
    <glyph glyph-name="parenright" unicode=")" horiz-adv-x="406" 
d="M349 359q0 -170 -177 -346q-64 -63 -98 -63q-9 0 -9 7q0 9 49 78q60 84 91 150q49 103 49 199q0 164 -118 321q-18 24 -35 43q-43 27 -43 44q0 22 33 22q26 0 55.5 -12t45.5 -30q61 -71 109 -196t48 -217z" />
    <glyph glyph-name="asterisk" unicode="*" horiz-adv-x="512" 
d="M434 612q-5 0 -12 3q-14 0 -64 8q10 -13 27 -39t17 -45q0 -15 -13 -29t-28 -14q-8 0 -16 17l-87 108q-94 -53 -125 -53q-18 0 -31.5 13t-13.5 31q0 13 39 29q-57 0 -57 32q0 40 52 40q15 0 57 3q-48 53 -48 69q0 12 12.5 21.5t24.5 9.5q16 0 36 -23q25 -22 70 -68l67 41
q51 31 63 31t22 -12.5t10 -24.5q0 -18 -31 -36q-9 -8 -29 -25l51 -14q26 -13 26 -40q0 -33 -19 -33z" />
    <glyph glyph-name="plus" unicode="+" horiz-adv-x="556" 
d="M509 404q0 -25 -16 -35q-4 -2 -39 -11q-1 0 -41 -10q-51 -12 -97 -17q-4 -39 -10 -72q-9 -50 -19 -69q-18 -35 -56 -35q-36 0 -36 24q0 -12 4 15l19 126h-14q-21 -1 -18 -1h-33q-104 0 -104 62q0 20 12 25q5 4 28 4q8 0 142 7q5 71 11 137q5 58 43 58q19 0 30.5 -14
t11.5 -33v-137q8 1 66 9q34 5 64 5q52 0 52 -38z" />
    <glyph glyph-name="comma" unicode="," horiz-adv-x="329" 
d="M107 -196q-32 0 -32 80q0 173 88 298q17 9 33 9q43 0 43 -71q0 -120 -64 -256q-6 -13 -17 -32q-7 -9 -23.5 -18.5t-27.5 -9.5z" />
    <glyph glyph-name="hyphen" unicode="-" horiz-adv-x="677" 
d="M607 422q0 -30 -17 -41q-7 -5 -45 -13l-102 -23q-51 -11 -103 -16q-64 -6 -164 -6q-110 0 -110 72q0 34 28 34q112 0 438 37q9 1 20 1q55 0 55 -45z" />
    <glyph glyph-name="hyphen" unicode="&#x2010;" horiz-adv-x="677" 
d="M607 422q0 -30 -17 -41q-7 -5 -45 -13l-102 -23q-51 -11 -103 -16q-64 -6 -164 -6q-110 0 -110 72q0 34 28 34q112 0 438 37q9 1 20 1q55 0 55 -45z" />
    <glyph glyph-name="period" unicode="." horiz-adv-x="308" 
d="M191 191q43 0 43 -37q0 -30 -26.5 -77.5t-52 -63t-52.5 -15.5q-36 0 -36 38t31 90q33 56 68 63q9 2 25 2z" />
    <glyph glyph-name="slash" unicode="/" horiz-adv-x="751" 
d="M730 783q0 -12 -55 -101q-24 -44 -100 -162q-79 -123 -291 -359q-49 -55 -130 -140q-46 -49 -91 -49q-16 0 -29 10t-13 25q0 16 34 55q150 173 530 665q73 94 111 94q34 0 34 -38z" />
    <glyph glyph-name="zero" unicode="0" horiz-adv-x="872" 
d="M817 543q0 -140 -66 -264.5t-181 -206.5q-151 -107 -286 -107q-117 0 -178 74q-56 68 -56 188q0 144 95 283q89 130 222 203q122 67 229 67q101 0 161 -67.5t60 -169.5zM691 512q0 116 -121 116q-120 0 -248 -107t-140 -225q-2 -19 -2 -39q0 -75 30 -121q35 -55 106 -55
q84 0 179 74q66 52 107 115q31 48 70 140q19 45 19 102z" />
    <glyph glyph-name="one" unicode="1" horiz-adv-x="316" 
d="M265 715q0 -52 -18 -151l-27 -148q-2 -14 -48 -379q-30 -58 -62 -58q-26 0 -41 31q-12 25 -12 54q0 65 34 253q0 4 35 140q25 97 20 139v9q-29 39 -54 78q10 47 37 86q33 48 73 48q32 0 49 -37q14 -29 14 -65z" />
    <glyph glyph-name="two" unicode="2" horiz-adv-x="751" 
d="M717 178q0 -28 -21.5 -51t-49.5 -30q-84 -20 -224 -58q-5 -1 -125 -41q-91 -30 -117 -30q-81 0 -81 80q0 68 23 100l246 345q40 56 42 91l-16 27q-21 4 -40 4q-54 0 -120 -50q-12 -9 -100 -92q-53 -50 -82 -50q-20 0 -20 25q0 82 128 209q65 64 138 107q91 52 164 52
q84 0 134 -72q7 -10 16 -29q1 -4 1 -19q0 -53 -27 -97q-99 -162 -125 -199q-35 -50 -137 -198l-27 -54l25 -9q3 1 289 89q13 4 36 4q70 0 70 -54z" />
    <glyph glyph-name="three" unicode="3" horiz-adv-x="866" 
d="M691 733q0 -43 -77 -116q-87 -83 -98 -112l21 -10q111 0 186 -37q98 -48 98 -147q0 -90 -71 -173q-60 -70 -152 -118q-139 -73 -283 -73q-121 0 -173 22q-91 38 -91 89q0 25 19 39.5t45 14.5q13 0 27 -3q117 -78 208 -78q60 0 139 40q67 34 121 82q29 25 53 68.5t24 77.5
q0 38 -32 67t-70 29q-43 0 -127.5 -21.5t-128.5 -21.5q-26 0 -44 6l-10 33q18 45 65 88q38 35 79 74q21 25 48 59l1 14l-24 6q-40 -14 -137 -34q-101 -20 -138 -20q-38 0 -67 18q-33 20 -33 56q0 35 47 72q49 11 126 17q123 10 241 30q69 12 114 12q94 0 94 -50z" />
    <glyph glyph-name="four" unicode="4" horiz-adv-x="668" 
d="M618 503l-18 -37l-59 -25q-31 -13 -51 -34q-49 -136 -66 -202q-11 -45 -34 -133.5t-58 -115.5q-5 -4 -10 -4q-13 0 -26 26q-12 23 -12 38q0 63 21 172q4 19 25 100q16 61 16 100q0 10 -2 16l-24 14q-127 -23 -176 -23q-75 0 -97 62q0 87 56 264q9 29 39 33q23 -9 23 -49
q0 -17 -2.5 -50.5t-2.5 -50.5q0 -33 7 -66q38 -32 95 -32q85 0 122 51q6 8 49 114q32 77 89 116l41 3l35 -16q3 -14 3 -29q0 -37 -20 -85l-34 -82q4 -21 10 -29t26 -8q24 0 35 -38z" />
    <glyph glyph-name="five" unicode="5" horiz-adv-x="848" 
d="M722 729q-26 -103 -277 -110q-58 -2 -92 -6q-41 -9 -56 -27t-26 -61l3 -32l25 -14l120 26q69 15 122 15q105 0 177 -41q89 -50 89 -148q0 -88 -78 -185q-148 -183 -383 -183q-125 0 -264 96q-37 26 -37 46q0 41 45 41q13 0 77 -23q109 -39 187 -39q50 0 118.5 19
t107.5 46q35 23 60 60q29 41 29 78q0 70 -107 119q-37 17 -69 17q-62 0 -146 -38q-90 -41 -132 -45q-32 33 -37 79q-1 8 -9 89q-2 10 -9 51q-2 11 -15 54q-11 36 -11 55q0 52 78 62l431 56q34 4 52 -10q15 -12 27 -47z" />
    <glyph glyph-name="six" unicode="6" horiz-adv-x="866" 
d="M835 310q0 -4 -12 -41q-44 -134 -138 -200q-137 -95 -304 -95q-124 0 -226 68q-11 7 -30 27q-89 92 -89 224q0 166 109.5 313t268.5 193q28 8 35 8q35 0 71 -14q46 -18 46 -46q0 -24 -28 -61q-186 -53 -252 -98q-115 -78 -121 -229l31 4l95 65q60 41 147 70t157 29
q167 0 237 -153zM685 299q-53 55 -147 55q-99 0 -194 -53q-103 -57 -136 -143q75 -60 211 -60q102 0 175 40q91 50 91 144v17z" />
    <glyph glyph-name="seven" unicode="7" horiz-adv-x="783" 
d="M725 690q-7 -30 -54 -95q-18 -25 -68 -97q-105 -156 -166 -305l-82 -202q-5 -13 -25 -27t-34 -14q-26 0 -26 50q0 65 52 215q39 113 84 211q24 41 61 126l9 48l-35 7q-110 -14 -158 -25q-2 0 -85 -21q-48 -12 -86 -12q-64 0 -64 37q0 32 67 100q88 36 217.5 63t220.5 27
q69 0 104 -12q57 -20 68 -74z" />
    <glyph glyph-name="eight" unicode="8" horiz-adv-x="947" 
d="M335 -39q-94 0 -137 12q-58 16 -99 51q-48 42 -48 96q0 39 32 107q30 65 59 97q38 30 105 99l-16 27q-87 57 -87 120q0 27 13 52q46 91 158 139q96 42 210 42q189 0 258 -152q-6 -39 -24 -74q-11 -20 -43 -65l1 -22q26 -7 74 -24q40 -21 68 -58q31 -41 31 -82
q0 -10 -5 -31q-31 -129 -152 -219q-107 -79 -250 -105q-54 -10 -148 -10zM664 613q-33 59 -140 59q-67 0 -138 -26q-84 -31 -113 -80q49 -80 142 -80q124 0 233 82zM735 306l-35 56q-70 39 -157 39q-67 0 -144 -31t-128 -78q-55 -51 -60 -80l-7 -44l19 -39q82 -58 166 -58
q83 0 181 59q84 50 149 123z" />
    <glyph glyph-name="nine" unicode="9" horiz-adv-x="901" 
d="M325 -5q-48 0 -102 26q-41 20 -41 33q0 19 48 52l56 -1q134 -2 239 52q119 61 163 177l-33 6q-95 -27 -144 -37q-74 -15 -147 -15q-131 0 -211 55q-90 61 -103 186q6 29 17 63q1 4 25 37q120 166 345 166q160 0 279 -85q133 -95 133 -249q0 -125 -86 -237
q-76 -100 -198 -164.5t-240 -64.5zM710 538q-31 51 -126 80q-77 23 -151 23q-89 0 -151 -28q-79 -35 -95 -111q42 -95 190 -95q89 0 181 33q104 37 152 98z" />
    <glyph glyph-name="colon" unicode=":" horiz-adv-x="287" 
d="M150 573q19 5 34 5q43 0 43 -39q0 -33 -26.5 -79t-54.5 -63q-22 -13 -51 -13q-33 0 -33 40q0 86 88 149zM184 191q43 0 43 -37q0 -30 -27 -77.5t-52 -63t-53 -15.5q-35 0 -35 38q0 37 28.5 86.5t61.5 64.5q11 4 34 4z" />
    <glyph glyph-name="semicolon" unicode=";" horiz-adv-x="293" 
d="M153 573q20 5 35 5q41 0 41 -39q0 -34 -26 -79.5t-55 -62.5q-22 -13 -50 -13q-34 0 -34 40q0 86 89 149zM78 -196q-32 0 -32 80q0 173 88 298q16 9 33 9q43 0 43 -71q0 -120 -64 -256q-6 -13 -17 -32q-7 -9 -24 -18.5t-27 -9.5z" />
    <glyph glyph-name="less" unicode="&#x3c;" horiz-adv-x="711" 
d="M624 -108q-21 0 -63 28q-21 9 -43 19q-188 88 -372 233q-66 52 -78 64q-45 44 -45 86q0 12 4 25q-1 6 -1 10q0 17 46 50q18 11 60 44l72 63q96 84 322 284q47 42 80 42q25 0 43 -22.5t18 -48.5q0 -23 -15 -40l-31 -31q-3 -5 -30 -36q-156 -181 -388 -341q79 -56 429 -285
q63 -41 63 -77q0 -26 -22.5 -46.5t-48.5 -20.5z" />
    <glyph glyph-name="equal" unicode="=" horiz-adv-x="646" 
d="M583 508q0 -29 -18 -40q-4 -3 -44 -12q-26 -6 -102 -23q-96 -21 -254 -21q-105 0 -105 68q0 35 25 35q75 0 223 18.5t222 18.5q53 0 53 -44zM579 307q0 -29 -17 -40q-3 -1 -44 -12q-66 -17 -102 -24q-98 -19 -257 -19q-103 0 -103 67q0 33 24 34q78 4 151 9q117 8 275 28
q16 2 22 2q51 0 51 -45z" />
    <glyph glyph-name="greater" unicode="&#x3e;" horiz-adv-x="741" 
d="M703 347q3 -11 3 -23q0 -42 -45 -87q-10 -10 -79 -65q-189 -150 -371 -233q-15 -5 -43 -19q-56 -28 -68 -28q-23 0 -44.5 21.5t-21.5 44.5q0 38 63 78q124 80 429 285q-158 100 -313 259q-42 43 -75 82q-7 10 -31 36l-31 31q-14 17 -14 40q0 26 17.5 48.5t42.5 22.5
q34 0 80 -42q176 -159 333 -293q61 -52 138 -111l15 -9q16 -15 16 -29q0 -4 -1 -9z" />
    <glyph glyph-name="question" unicode="?" horiz-adv-x="610" 
d="M559 727q0 -62 -41 -120q-8 -11 -110 -116q-88 -90 -88 -111q0 -26 56 -26q17 0 52 1.5t52 1.5q66 0 66 -55q0 -42 -54 -42q-51 0 -348 2q-48 21 -48 54q0 40 114 138l150 129q31 27 31 81q0 16 -3 31q-23 26 -59 26q-51 0 -120 -47q-54 -37 -100 -88h-9q-52 0 -52 30
q0 21 19 52q44 72 126 113q77 39 165 39q201 0 201 -93zM295 113q64 0 64 -45q0 -32 -30.5 -55.5t-63.5 -23.5q-66 0 -66 47q0 35 32 57q28 20 64 20z" />
    <glyph glyph-name="at" unicode="@" horiz-adv-x="1207" 
d="M1150 395q0 -125 -70 -237q-96 -153 -265 -230q-154 -70 -348 -70q-163 0 -269 48q-145 66 -145 208q0 18 8 70q31 202 152 390q85 132 247 216q158 83 318 83q230 0 309 -200q63 -160 63 -278zM775 429q0 106 -61 106q-81 0 -152 -100q-66 -93 -66 -178q0 -106 67 -106
q78 0 148 102q64 93 64 176zM1004 387q0 117 -39 202q-50 109 -151 127q-56 10 -115 10q-141 0 -252 -92q-85 -71 -173 -225q-93 -163 -93 -263q0 -94 134 -142q98 -35 214 -35q165 0 287 71q-41 54 -44 122q-101 -115 -208 -115q-83 0 -129 64q-42 57 -42 143q0 128 93 252
q102 136 224 136q83 0 129 -65q40 -56 40 -143q0 -67 -25 -132q7 -101 63 -177q87 93 87 262z" />
    <glyph glyph-name="A" unicode="A" horiz-adv-x="676" 
d="M611 114q0 -70 -42 -70q-25 0 -36 45q-3 24 -8 67q-12 105 -19 154q-133 -12 -315 -90q-13 -38 -33 -97q-24 -80 -28 -90q-25 -62 -54 -62q-26 0 -26 55q0 26 40 158q27 88 54 165q64 182 95 247q87 184 157 184q96 0 166 -342l2 1q45 -8 45 -83q0 -44 -24 -48
q26 -176 26 -194zM487 421q-40 195 -95 195q-58 0 -151 -254q83 15 246 59z" />
    <glyph glyph-name="B" unicode="B" horiz-adv-x="602" 
d="M384 336q128 -36 128 -155q0 -94 -79 -153q-72 -54 -169 -54q-112 0 -194 47q-12 7 -19 30q-7 20 -7 36q0 21 13 21q5 0 10 -3l7 -4q3 62 3 127q0 130 -12 278q-2 29 -13 99q-9 59 -9 99q0 35 42 31q130 45 225 45t167 -44q85 -52 85 -143q0 -153 -178 -257zM358 650
q-75 0 -204 -29q2 -21 2 -45q0 -30 -3 -90t-3 -90q0 -31 2 -58q104 14 197 78q130 89 130 160q0 74 -121 74zM175 58q34 -9 68 -9q56 0 109 26q64 31 64 82q0 53 -81 75q-54 15 -122 15q-25 0 -54 -2q9 -112 16 -187z" />
    <glyph glyph-name="C" unicode="C" 
d="M560 518q-6 0 -6 11q0 9 4 27t4 27q0 20 -12.5 41.5t-31.5 21.5q-6 0 -19 -2q-108 -16 -165 -42q-78 -35 -129 -110q-75 -110 -75 -218q0 -151 132 -205q27 -11 59 -11q52 0 121 35q43 22 105 63q51 34 60 34q16 0 16 -31q0 -49 -34 -70q-72 -45 -156 -74
q-94 -33 -169 -33q-117 0 -177 75q-55 68 -55 188q0 200 131 359q139 167 335 167q80 0 137 -22q32 -12 32 -42q0 -39 -29.5 -97.5t-60.5 -82.5q-12 -9 -17 -9z" />
    <glyph glyph-name="D" unicode="D" horiz-adv-x="702" 
d="M678 595q0 -127 -152 -306q-134 -158 -370 -293q-23 -13 -31 -13q-60 0 -60 87q0 238 -4 347q-2 63 -17 179l-10 79q0 30 37 30q10 0 18 -2q217 68 351 68q95 0 160 -40q78 -47 78 -136zM448 656q-102 0 -290 -54q4 -61 4 -123q0 -41 -4 -123.5t-4 -123.5q0 -57 4 -109
q110 37 236 149q188 167 188 281q0 103 -134 103z" />
    <glyph glyph-name="E" unicode="E" horiz-adv-x="636" 
d="M596 64q0 -28 -26 -28q-19 0 -56.5 4.5t-56.5 4.5q-144 0 -293 -55q-18 -24 -41 -24q-61 0 -61 131q0 14 1 41t1 41q0 142 -8 257q-2 33 -16 155q-7 62 -7 68q0 29 43 30q209 87 354 87q63 0 89 -13q39 -20 39 -77q0 -49 -28 -49q-3 0 -17 3q-44 9 -91 9q-134 0 -273 -68
q4 -103 7 -270q76 10 196 38l195 45q22 -4 36 -33q12 -25 12 -50q0 -49 -30 -49q-6 0 -14 4h-23q-175 0 -370 -78l-1 -29q-1 -26 2 -53q133 31 262 31q89 0 109 -4q66 -13 66 -69z" />
    <glyph glyph-name="F" unicode="F" horiz-adv-x="594" 
d="M557 226q-9 0 -27 2t-27 2q-160 0 -362 -82q5 -92 13 -162q-18 -27 -43 -27q-61 0 -61 130q0 14 1.5 41t1.5 41q0 139 -9 258q-3 34 -13 112q-10 75 -10 111t42 31q209 87 355 87q65 0 90 -13q38 -20 38 -78q0 -49 -27 -49q-5 0 -18 3q-44 10 -90 10q-148 0 -300 -81
l20 -290q71 9 203 39l201 46q22 -3 36 -33q12 -25 12 -51q0 -47 -26 -47z" />
    <glyph glyph-name="G" unicode="G" horiz-adv-x="804" 
d="M284 -11q-117 0 -179 72q-58 67 -58 186q0 195 133 359q141 174 333 174q77 0 138 -24q47 -19 47 -73q0 -30 -14 -62q-18 -40 -42 -40q-9 0 -16 20q-9 26 -17 36q-15 19 -46 19q-11 -2 -48 -7q-16 -1 -63 -8q-134 -23 -220 -127t-86 -241q0 -83 52 -144q55 -64 136 -64
q83 0 199 74q126 81 126 159q0 74 -131 74q-68 0 -133 -18q-36 -10 -126 -46q-20 -8 -28 -8q-13 0 -13 17q0 36 41 68q73 57 111 76q59 30 131 30q100 0 169 -43q83 -51 83 -145q0 -128 -199 -231q-160 -83 -280 -83z" />
    <glyph glyph-name="H" unicode="H" horiz-adv-x="693" 
d="M639 68q-17 -26 -41 -26q-61 0 -61 89q0 21 1 63t1 63v19q-154 -2 -353 -77q2 -98 9 -167q-17 -26 -42 -26q-61 0 -61 129q0 14 1 41t1 41q0 196 -22 399l-9 83q0 30 38 30q26 0 46 -11q23 -14 23 -38q0 -4 -1 -12v-13q0 12 4 -52q3 -47 9 -282q68 9 354 75
q-6 138 -17 232q-2 11 -9 53q-5 31 -5 53q0 31 38 31q27 0 47 -11q24 -13 24 -38q0 -5 -1 -15v-14q0 -27 2 -52l4 -51q2 -30 7 -258q3 -162 13 -258z" />
    <glyph glyph-name="I" unicode="I" horiz-adv-x="623" 
d="M596 36q0 -30 -30 -30q-19 0 -56 4.5t-56 4.5q-149 0 -294 -58q-22 -9 -30 -9q-20 0 -41.5 26t-21.5 47t18 36q99 29 195 41q0 344 -24 545q-38 -12 -152 -69q-14 -7 -23 -7q-23 0 -34 28q-9 22 -9 48q0 48 41 70q17 5 86.5 29t120.5 36q81 20 151 20q62 0 88 -12
q40 -18 40 -73t-27 -55q-3 0 -17 3q-40 9 -89 9q-37 0 -76 -5q5 -186 21 -561l43 1q87 2 109 -2q67 -12 67 -67z" />
    <glyph glyph-name="J" unicode="J" horiz-adv-x="688" 
d="M591 661q11 0 -69 9q18 -146 18 -283q0 -155 -24 -261q-41 -180 -145 -180q-21 0 -43 6q-70 19 -167 129.5t-97 179.5q0 35 29 35q19 0 51 -19q145 -225 220 -225q92 0 92 228q0 171 -43 388q-108 -13 -257 -91q-17 -9 -24 -9q-23 0 -35 30q-9 23 -9 50q0 47 43 69
q106 35 207 64q70 20 152 20q63 0 89 -14q38 -20 38 -77q0 -49 -26 -49z" />
    <glyph glyph-name="K" unicode="K" horiz-adv-x="649" 
d="M614 699q0 -16 -26 -41q-10 -11 -48 -52q-26 -28 -241 -252q177 -144 267 -311q9 -17 9 -30q0 -17 -15.5 -36t-32.5 -19q-13 0 -29 28q-96 167 -278 283q-27 -29 -50 -56q3 -113 10 -189q-17 -25 -40 -25q-63 0 -62 88l1 104q2 213 -22 419q-11 94 -11 81q0 31 39 31
q26 0 46 -12q24 -14 24 -38v-2q-1 -6 -1 -17v-18q0 -20 3 -70l4 -67l5 -149q195 182 340 370q8 11 34 44q9 8 19 8q20 0 37.5 -25.5t17.5 -46.5z" />
    <glyph glyph-name="L" unicode="L" horiz-adv-x="502" 
d="M492 64q0 -27 -20 -27q-15 0 -44.5 4t-44.5 4q-142 0 -250 -58q-22 -8 -29 -8q-23 0 -37 32q-11 25 -11 52q0 396 -24 617l-10 92q0 35 39 35q28 0 49 -15t21 -42q0 -6 -1 -17v-15q0 -17 2 -49l3 -48q5 -76 8 -242l6 -267q100 25 202 25q62 0 76 -2q50 -7 60 -35
q5 -14 5 -36z" />
    <glyph glyph-name="M" unicode="M" horiz-adv-x="892" 
d="M834 47q-17 -26 -41 -26q-56 0 -62 88q-15 228 -18 255q-26 200 -87 200q-73 0 -105 -311q-4 -40 -14 -153q-6 -58 -37 -58q-47 0 -82 62l-1 20q-22 437 -109 437q-60 0 -99 -246q-24 -154 -30 -305q-17 -27 -41 -27q-30 0 -46 31q-14 26 -14 58q0 17 17 121
q31 189 70 326q72 251 151 251q91 0 159 -320q87 285 179 285q140 0 210 -688z" />
    <glyph glyph-name="N" unicode="N" horiz-adv-x="751" 
d="M630 8q-36 0 -104 138l-128 258q-70 139 -122 139q-63 0 -94 -217q-9 -64 -23 -271q-6 -97 -46 -97q-22 0 -38 37q-12 28 -12 56q0 11 4 43l27 217q56 448 174 448q64 0 151 -165q26 -49 100 -226q3 -8 27 -63q29 -68 41 -68q13 0 13 58q0 102 -30 350q-14 116 -14 129
q0 25 16.5 43.5t40.5 18.5q54 0 61 -74q3 -32 9 -243q4 -141 4 -188q0 -323 -57 -323z" />
    <glyph glyph-name="O" unicode="O" horiz-adv-x="883" 
d="M821 467q0 -220 -158 -379q-138 -139 -274 -139q-133 0 -236 139q-94 127 -94 266q0 131 121 255q76 78 175 133q115 64 208 64q118 0 193 -115q65 -99 65 -224zM555 669q-81 0 -184 -61q-86 -51 -147 -119q-77 -87 -77 -167q0 -95 74 -186q77 -96 170 -96q130 0 262 167
q78 99 78 231q0 90 -42 155q-48 76 -134 76z" />
    <glyph glyph-name="P" unicode="P" horiz-adv-x="587" 
d="M158 212q4 -50 13 -149q-25 -75 -58 -75q-42 0 -42 133q0 18 1 50l1 32q3 99 -10 270q-2 26 -13 112q-9 70 -9 110q0 32 32 32q7 0 15 -1q129 45 223 45q97 0 167 -50q80 -56 80 -149q0 -97 -86 -198q-97 -115 -314 -162zM326 659q-75 0 -196 -29q7 -109 22 -328
q100 15 192 89q119 96 119 174q0 51 -46 75q-36 19 -91 19z" />
    <glyph glyph-name="Q" unicode="Q" horiz-adv-x="866" 
d="M706 149q34 -81 109 -241q-5 -55 -53 -55q-38 0 -63 62q-5 13 -61 160q-127 -115 -251 -115q-133 0 -236 139q-94 127 -94 266q0 129 121 254q77 80 173 133q111 62 206 62q125 0 198 -110q63 -95 63 -227q0 -179 -112 -328zM552 678q-81 0 -183 -60q-90 -53 -151 -123
q-72 -83 -72 -161q0 -98 72 -188q77 -96 172 -96q101 0 212 110q-69 154 -114 235q-9 17 -61 114q-4 8 -4 14q0 23 25 38q21 13 46 13q10 0 15 -2q16 -7 35 -52q6 -18 26 -64l35 -73q6 -12 62 -142q63 104 63 207q0 92 -42 156q-48 74 -136 74z" />
    <glyph glyph-name="R" unicode="R" horiz-adv-x="620" 
d="M344 269q50 -115 169 -345q-7 -56 -53 -56q-36 0 -64 63q-38 87 -82 160q-70 117 -112 117q-31 0 -31 -73q0 -33 5 -79q-26 -75 -58 -75q-43 0 -43 137q0 11 1 28q1 22 1 28l1 36q3 98 -9 255q-3 36 -13 112t-10 111q0 31 32 31q7 0 15 -1q127 46 220 46q98 0 170 -50
q80 -56 80 -151q0 -93 -68 -176q-58 -70 -151 -118zM332 651q-75 0 -197 -29l21 -328q102 16 192 89q120 98 120 176q0 49 -46 73q-36 19 -90 19z" />
    <glyph glyph-name="S" unicode="S" horiz-adv-x="503" 
d="M78 -57q-31 0 -31 19q0 13 14 31q295 112 295 211q0 53 -76 109q-37 27 -142 106q-76 59 -76 126q0 118 246 246q40 21 67 21q21 0 40.5 -11.5t19.5 -31.5q0 -27 -66 -64l-93 -53q-61 -50 -61 -96q0 -52 64 -106q32 -26 122 -103q66 -58 66 -121q0 -117 -283 -256
q-55 -27 -106 -27z" />
    <glyph glyph-name="T" unicode="T" horiz-adv-x="542" 
d="M581 693q0 -54 -27 -54q-3 0 -18 3q-39 8 -90 8q-53 0 -106 -9q-2 -3 -1 -28q4 -128 17 -295q10 -129 25 -295q-25 -75 -58 -75q-42 0 -42 131q0 10 1 26q1 21 1 27l1 35q6 195 -29 451q-10 -3 -85 -39q-65 -31 -72 -31q-44 0 -44 77q0 47 42 70q6 3 87 29q170 54 270 54
q64 0 88 -11q40 -18 40 -74z" />
    <glyph glyph-name="U" unicode="U" horiz-adv-x="625" 
d="M565 22q0 -29 -35 -29q-42 0 -50 22q-2 6 -2 56q0 15 -3 45.5t-3 45.5q-138 -80 -169 -96q-121 -63 -173 -63q-48 0 -64 58q-7 26 -7 96q0 67 5 128q12 146 12 292q0 19 -1.5 57t-1.5 57q0 45 10 64q14 26 56 26q48 0 49 -61l-2 -32l-11 -177q-2 -36 -17 -157
q-12 -98 -12 -158q0 -89 46 -89q39 0 139 55q41 22 136 81l-15 220q-1 10 -9 104q-5 57 -5 106q0 55 37 55q64 0 62 -101t-2 -145q0 -194 21 -379z" />
    <glyph glyph-name="V" unicode="V" horiz-adv-x="598" 
d="M537 738q0 -19 -19 -74q-7 -14 -57 -175q-23 -76 -83 -272q-69 -221 -98 -221t-75 219q-34 165 -94 373l-32 106q-22 77 -22 99q0 44 53 44q55 0 72 -85q9 -45 33 -189l29 -174q27 -139 50 -139q21 0 53 121q21 80 90 357q41 48 69 48q31 0 31 -38z" />
    <glyph glyph-name="W" unicode="W" horiz-adv-x="888" 
d="M837 693q0 -12 -19 -126q-30 -183 -71 -322q-72 -248 -151 -248q-91 0 -158 318q-88 -284 -180 -284q-140 0 -207 688q14 26 44 26q75 0 79 -88q3 -75 14 -287q13 -230 71 -230q57 0 82 237q8 77 30 295q6 56 39 56q45 0 86 -66q5 -169 9 -220q10 -127 32 -216
q27 -110 58 -110q56 0 95 286q24 176 33 354q15 27 44 27q32 0 51 -28.5t19 -61.5z" />
    <glyph glyph-name="X" unicode="X" horiz-adv-x="618" 
d="M563 771q0 -34 -30 -89q-50 -93 -177 -342q17 -38 69 -145q2 -4 79 -145q6 -11 6 -21q0 -16 -17.5 -25.5t-35.5 -9.5q-21 0 -36 22q-5 7 -18 41q-17 31 -48 93l-43 90q-33 -89 -97 -233q-10 -23 -28 -23t-36 14.5t-18 32.5q0 16 25 59q4 7 56 122q28 63 54 115
q-71 131 -198 383q-16 32 -16 54q0 47 43 47q35 0 65 -30q25 -25 40 -62q41 -104 114 -285q25 56 145 324q30 66 59 66q19 0 31 -16.5t12 -36.5z" />
    <glyph glyph-name="Y" unicode="Y" horiz-adv-x="688" 
d="M628 738q0 -29 -18 -68q-44 -95 -147 -332q-48 -110 -89 -240q-9 -33 -37 -119q-12 -25 -34 -25t-41.5 18t-19.5 40q0 11 17 44q6 12 54 145q-152 121 -218 377l-23 90q-20 54 -20 64q0 38 46 38q29 0 58 -33q26 -29 34 -60q2 -20 7 -79q25 -246 152 -299q56 165 159 446
q25 68 69 68q25 0 39 -26q12 -22 12 -49z" />
    <glyph glyph-name="Z" unicode="Z" horiz-adv-x="698" 
d="M671 631q0 -68 -122 -186q-23 -22 -225 -191q-122 -102 -122 -139q0 -39 108 -39q78 0 293 40q48 -11 48 -55q0 -40 -49 -49q-108 -20 -301 -20q-266 0 -266 81q0 62 120 160l224 183q120 99 120 152q0 68 -192 68q-28 0 -85 -4.5t-85 -4.5q-74 0 -74 61q0 32 23.5 57.5
t55.5 25.5q11 0 22 -3h59q448 0 448 -137z" />
    <glyph glyph-name="bracketleft" unicode="[" horiz-adv-x="539" 
d="M543 -31q0 -32 -18 -43q-5 -5 -140 -36q-105 -24 -278 -23q-27 -24 -61 -24q-44 0 -44 44q0 10 2 30.5t2 30.5q0 36 1 107t1 107v201q0 67 -3.5 201t-3.5 201q0 43 7 75q-5 16 -5 30q0 33 38 33q75 0 223.5 20t223.5 20q55 0 55 -46q0 -31 -18 -43q-7 -3 -41 -11l-5 -1
q-35 -9 -94 -24q-110 -23 -250 -23q0 -3 -1 -12v-17q0 -24 11 -113q19 -155 19 -340q0 -166 -16 -333q44 4 170 20q110 14 170 14q55 0 55 -45z" />
    <glyph glyph-name="backslash" unicode="\" horiz-adv-x="744" 
d="M683 -28q-40 0 -91 49q-17 17 -113 121q-228 249 -310 379q-23 42 -98 161l-11 17q-43 65 -43 84q0 38 33 38q38 0 111 -94q181 -234 447 -567q22 -26 65 -77q54 -65 54 -75q0 -16 -14 -26t-30 -10z" />
    <glyph glyph-name="bracketright" unicode="]" horiz-adv-x="680" 
d="M597 239q-1 -29 1 -78q3 -57 3 -79q0 -8 1.5 -23.5t1.5 -23.5q0 -28 -19.5 -42.5t-48.5 -14.5q-22 0 -38 10q-148 -45 -268 -53q-32 -1 -104 -4l-27 -2q-35 -3 -35 40q0 53 75 65q88 15 319 56q-17 167 -17 335q0 146 11 275q2 18 12 95q8 64 8 91v23q-149 -42 -242 -46
q-34 -1 -121 -6q-5 0 -11 -1q-34 0 -34 41q0 54 75 67q39 6 214 34q149 24 231 51q19 0 19 -30q0 -15 -4 -30q7 -30 7 -75v-18q0 -378 -6 -564z" />
    <glyph glyph-name="asciicircum" unicode="^" horiz-adv-x="554" 
d="M2 771q-28 19 -28 37q0 11 15 19q40 22 146 112t130 99q9 10 15 10q4 0 17 -11q45 -39 263 -169q33 -20 33 -41q0 -16 -13 -31t-29 -15q-10 0 -105 46q-85 41 -169 115z" />
    <glyph glyph-name="underscore" unicode="_" horiz-adv-x="850" 
d="M777 -33q0 -32 -28 -44q-9 -2 -56 -10q-61 -11 -140 -24q-137 -22 -357 -22q-138 0 -138 74q0 23 16 29l199 10q29 2 215 19q128 12 215 12q74 0 74 -44z" />
    <glyph glyph-name="grave" unicode="`" horiz-adv-x="309" 
d="M235 546q0 -76 -32 -76q-63 0 -106 164q-26 98 -26 148q0 76 43 76q17 0 33 -10q88 -124 88 -302z" />
    <glyph glyph-name="a" unicode="a" horiz-adv-x="480" 
d="M464 998q-110 -128 -233 -213q-70 4 -70 45q0 16 13 37q103 74 156 126q34 33 74 71q22 21 47 21q22 0 22 -34q0 -21 -9 -53zM60 -57q-32 0 -32 19q0 13 13 31q297 112 297 211q0 53 -76 109q-37 27 -143 106q-76 59 -76 126q0 68 92 146q64 54 153 100q41 21 68 21
q22 0 39 -10q21 -13 21 -33q0 -26 -66 -64q-31 -17 -92 -53q-63 -50 -63 -96q0 -51 66 -106q32 -26 122 -103q65 -57 65 -121q0 -117 -284 -256q-55 -27 -104 -27z" />
    <glyph glyph-name="b" unicode="b" horiz-adv-x="883" 
d="M602 1025q-44 -49 -108 -91q-24 -16 -121 -78q-10 0 -30.5 -15.5t-23.5 -15.5q-9 0 -15 10t-6 20q0 19 14 40q102 75 156 126q23 23 74 71q23 20 46 20q21 0 21 -34q0 -20 -7 -53zM821 467q0 -105 -41.5 -204.5t-115.5 -174.5q-138 -139 -275 -139q-133 0 -236 139
q-94 127 -94 266q0 129 122 255q77 80 174 134q113 63 208 63q118 0 193 -115q65 -99 65 -224zM556 669q-83 0 -184 -60q-90 -53 -151 -125q-73 -86 -73 -162q0 -93 74 -185q78 -97 169 -97q132 0 263 167q35 45 56.5 109t21.5 122q0 90 -42 155q-48 76 -134 76z" />
    <glyph glyph-name="c" unicode="c" 
d="M560 518q-6 0 -6 11q0 9 4 27t4 27q0 20 -12.5 41.5t-31.5 21.5q-6 0 -19 -2q-108 -16 -165 -42q-78 -35 -129 -110q-75 -110 -75 -218q0 -151 132 -205q27 -11 59 -11q52 0 121 35q43 22 105 63q51 34 60 34q16 0 16 -31q0 -49 -34 -70q-72 -45 -156 -74
q-94 -33 -169 -33q-117 0 -177 75q-55 68 -55 188q0 200 131 359q139 167 335 167q80 0 137 -22q32 -12 32 -42q0 -39 -29.5 -97.5t-60.5 -82.5q-12 -9 -17 -9zM545 953q-36 -42 -107 -92q-2 -1 -122 -77q-9 0 -29.5 -15.5t-23.5 -15.5q-9 0 -15.5 10.5t-6.5 19.5
q0 19 14 39q87 64 156 126q35 38 74 72q23 20 46 20q22 0 22 -34q0 -21 -8 -53z" />
    <glyph glyph-name="d" unicode="d" horiz-adv-x="699" 
d="M673 61q0 -30 -22 -30q-15 0 -43.5 4t-43.5 4q-115 0 -229 -46l-50 -20q-19 0 -35 30q-15 26 -15 47v30l1 44v75q0 81 -2 148q-40 -3 -74 -3q-58 0 -85 9q-46 15 -46 63q0 35 27 35q64 0 173 10q-3 78 -10 151q-1 15 -10 77q-7 50 -7 78q0 34 38 34q29 0 50.5 -15
t21.5 -43v-15q-1 -11 -1 -16q0 -55 3 -122l5 -121q17 1 98 12q60 8 98 8q54 0 54 -45q0 -30 -16 -42q-10 -6 -46 -11q-7 -2 -58 -15q-58 -15 -127 -22q2 -83 8 -248q97 25 196 25q80 0 96 -4q51 -13 51 -66z" />
    <glyph glyph-name="e" unicode="e" horiz-adv-x="699" 
d="M673 61q0 -30 -22 -30q-15 0 -43.5 4t-43.5 4q-115 0 -229 -46l-50 -20q-19 0 -35 30q-15 26 -15 47v30l1 44v75q0 81 -2 148q-40 -3 -74 -3q-58 0 -85 9q-46 15 -46 63q0 35 27 35q64 0 173 10q-3 78 -10 151q-1 15 -10 77q-7 50 -7 78q0 34 38 34q29 0 50.5 -15
t21.5 -43v-15q-1 -11 -1 -16q0 -55 3 -122l5 -121q17 1 98 12q60 8 98 8q54 0 54 -45q0 -30 -16 -42q-10 -6 -46 -11q-7 -2 -58 -15q-58 -15 -127 -22q2 -83 8 -248q97 25 196 25q80 0 96 -4q51 -13 51 -66z" />
    <glyph glyph-name="f" unicode="f" horiz-adv-x="751" 
d="M495 998q-109 -128 -232 -213q-71 4 -71 45q0 16 13 37q106 77 156 126q16 16 75 71q22 21 45 21q22 0 22 -34q0 -21 -8 -53zM630 8q-36 0 -104 138l-128 258q-70 139 -122 139q-63 0 -94 -217q-9 -64 -23 -271q-6 -97 -46 -97q-22 0 -38 37q-12 28 -12 56q0 11 4 43
l27 217q56 448 174 448q64 0 151 -165q26 -49 100 -226q3 -8 27 -63q29 -68 41 -68q13 0 13 58q0 102 -30 350q-14 116 -14 129q0 25 16.5 43.5t40.5 18.5q54 0 61 -74q3 -32 9 -243q4 -141 4 -188q0 -323 -57 -323z" />
    <glyph glyph-name="g" unicode="g" horiz-adv-x="751" 
d="M495 998q-109 -128 -232 -213q-71 4 -71 45q0 16 13 37q106 77 156 126q16 16 75 71q22 21 45 21q22 0 22 -34q0 -21 -8 -53zM630 8q-36 0 -104 138l-128 258q-70 139 -122 139q-63 0 -94 -217q-9 -64 -23 -271q-6 -97 -46 -97q-22 0 -38 37q-12 28 -12 56q0 11 4 43
l27 217q56 448 174 448q64 0 151 -165q26 -49 100 -226q3 -8 27 -63q29 -68 41 -68q13 0 13 58q0 102 -30 350q-14 116 -14 129q0 25 16.5 43.5t40.5 18.5q54 0 61 -74q3 -32 9 -243q4 -141 4 -188q0 -323 -57 -323z" />
    <glyph glyph-name="h" unicode="h" horiz-adv-x="696" 
d="M591 1017q-110 -128 -233 -213q-70 4 -70 45q0 15 13 37q105 75 156 126q27 27 74 71q22 21 46 21q22 0 22 -35q0 -20 -8 -52zM669 631q0 -68 -122 -186q-23 -22 -225 -191q-122 -102 -122 -139q0 -39 108 -39q78 0 293 40q48 -11 48 -55q0 -40 -49 -49
q-108 -20 -301 -20q-266 0 -266 81q0 62 120 160l224 183q120 99 120 152q0 68 -192 68q-28 0 -85 -4.5t-85 -4.5q-74 0 -74 61q0 32 23.5 57.5t55.5 25.5q11 0 22 -3h59q448 0 448 -137z" />
    <glyph glyph-name="i" unicode="i" horiz-adv-x="698" 
d="M597 1009q-110 -128 -233 -213q-71 4 -71 45q0 15 14 37q105 75 156 126q27 27 74 71q22 21 46 21q21 0 21 -34q0 -21 -7 -53zM670 631q0 -71 -121 -186q-13 -12 -225 -191q-122 -103 -122 -139q0 -39 108 -39q77 0 293 40q48 -11 48 -55q0 -40 -49 -49
q-108 -20 -301 -20q-266 0 -266 81q0 62 120 160l224 183q120 99 120 152q0 68 -192 68q-28 0 -85 -4.5t-85 -4.5q-74 0 -74 61q0 32 23.5 57.5t55.5 25.5q10 0 22 -3h59q447 0 447 -137z" />
    <glyph glyph-name="j" unicode="j" horiz-adv-x="697" 
d="M445 1087q43 0 43 -37q0 -31 -26.5 -78.5t-52 -62.5t-53.5 -15q-35 0 -35 38t29 87t62 63q12 5 33 5zM669 631q0 -70 -121 -186q-7 -7 -226 -191q-121 -102 -121 -139q0 -39 108 -39q77 0 293 40q48 -11 48 -55q0 -40 -49 -49q-108 -20 -302 -20q-265 0 -265 81
q0 62 120 160l224 183q120 99 120 152q0 68 -192 68q-28 0 -85 -4.5t-85 -4.5q-74 0 -74 61q0 33 23 58t56 25q10 0 22 -3h59q160 0 257 -17q190 -33 190 -120z" />
    <glyph glyph-name="bar" unicode="|" horiz-adv-x="297" 
d="M119 -120q-50 0 -50 42q7 48 7 170v154q0 87 -4 261.5t-4 261.5q0 130 64 130q47 0 60 -43q3 -10 10 -80q29 -296 29 -440q0 -249 -18 -356q-7 -39 -30 -67q-27 -33 -64 -33z" />
    <glyph glyph-name="asciitilde" unicode="~" horiz-adv-x="632" 
d="M677 840q0 -22 -15 -36q-101 -68 -129 -84q-91 -53 -138 -53q-17 0 -56 39.5t-72 39.5q-44 0 -136.5 -44t-100.5 -44q-22 0 -38.5 18.5t-16.5 40.5q0 26 24 57q217 117 315 117q43 0 65 -29q5 -6 26 -51q14 -29 34 -29q48 0 189 111q6 1 11 1q38 0 38 -54z" />
    <glyph glyph-name="exclamdown" unicode="&#xa1;" horiz-adv-x="238" 
d="M225 904q0 -35 -28 -60.5t-64 -25.5q-58 0 -58 48q0 35 27 62t62 27q61 0 61 -51zM183 680q0 -4 -4 -25q-3 -16 -11 -143q-7 -115 -16 -418q-3 -90 -53 -90q-32 0 -50 28q-10 15 -14 81q-2 29 -5 88q-5 83 -5 104q0 88 7 177q9 114 16 142q22 89 87 89q17 0 32.5 -9
t15.5 -24z" />
    <glyph glyph-name="cent" unicode="&#xa2;" horiz-adv-x="668" 
d="M372 164q-5 -76 -12 -102q-17 -64 -65 -64q-37 0 -37 28q0 13 2.5 38.5t2.5 38.5v44q-19 -1 -35 -1q-76 0 -124 28q-60 35 -60 106q0 82 71 161q62 69 146 106l-5 86q-6 108 51 108q33 0 43 -31q4 -11 5 -58q1 -19 10 -73q55 11 102 11q49 0 71 -12q29 -17 29 -62
q0 -15 -7 -58q-12 -76 -52 -76q-17 0 -21 48q-1 16 -5 62q-56 -9 -108 -25q4 -106 3 -212q46 12 152 54q45 18 65 18q38 0 38 -38q0 -36 -53 -60q-79 -36 -207 -65zM264 234v38l-1 55v93q-123 -68 -123 -137q0 -51 87 -51q15 0 37 2z" />
    <glyph glyph-name="sterling" unicode="&#xa3;" horiz-adv-x="764" 
d="M740 80q0 -57 -66 -103q-60 -42 -120 -42q-33 0 -98.5 13t-98.5 13q-64 0 -165 -71q-88 22 -88 89q0 58 65 164q3 6 101 158q-145 -12 -170 -12q-69 0 -69 45q0 42 39 49q3 1 39 4q35 7 105 18q-86 79 -86 179q0 93 49 171q56 89 144 89q69 0 118 -89q42 -77 42 -152
q0 -48 -12 -48q-4 0 -32 29q-37 38 -61 56q-39 29 -73 29q-61 0 -61 -65q0 -56 36 -107q32 -46 85 -75q76 5 155 5q86 0 114 -6q70 -15 70 -70q0 -34 -32 -34q-6 0 -18.5 1.5t-18.5 1.5q22 0 -231 -10l-130 -211q43 21 78 21q29 0 92 -28.5t94 -28.5q33 0 96.5 38.5
t65.5 38.5q18 0 31 -22q11 -18 11 -38z" />
    <glyph glyph-name="yen" unicode="&#xa5;" horiz-adv-x="704" 
d="M639 115q0 -31 -24 -31q-6 0 -17.5 1t-17.5 1q-36 0 -101 -5q-92 -7 -101 -7q-11 -42 -38 -117q-10 -20 -31 -20q-22 0 -41.5 17t-19.5 39q0 15 10 37l16 36q-117 -11 -135 -11q-57 0 -57 46q0 39 32 46q5 2 32 5q108 23 171 31v1q-21 17 -36 34l-142 -13q-57 0 -57 46
q0 29 19 41q11 7 45 11q20 5 58 13q-74 113 -111 273q-4 16 -15 62q-20 57 -20 66q0 36 45 36q30 0 59 -32q25 -29 33 -61q1 -18 5 -60q18 -190 88 -270q41 5 86 9l139 390q24 67 69 67q25 0 39 -26q12 -21 12 -48q0 -30 -18 -69q-52 -110 -137 -311h40q121 0 121 -76
q0 -32 -24 -32q-7 0 -19.5 1t-19.5 1q-19 0 -72 -3l-71 -4q-10 -25 -14 -39q49 1 73 1q76 0 96 -6q51 -15 51 -70z" />
    <glyph glyph-name="brokenbar" unicode="&#xa6;" horiz-adv-x="297" 
d="M119 -120q-50 0 -50 42q7 48 7 170v154q0 87 -4 261.5t-4 261.5q0 130 64 130q47 0 60 -43q3 -10 10 -80q29 -296 29 -440q0 -249 -18 -356q-7 -39 -30 -67q-27 -33 -64 -33z" />
    <glyph glyph-name="section" unicode="&#xa7;" horiz-adv-x="341" 
d="M322 1007q43 0 43 -37q0 -30 -26.5 -77.5t-51.5 -63.5t-54 -16q-35 0 -35 39q0 37 29.5 86t61.5 64q11 5 33 5zM78 993q43 0 43 -37q0 -29 -26.5 -77t-51.5 -63.5t-54 -15.5q-35 0 -35 38t29 86.5t62 63.5q11 5 33 5zM205 35q-17 -26 -43 -26q-60 0 -60 130q0 14 1 40.5
t1 40.5q0 216 -22 399l-10 83q0 31 45 31q23 0 43 -13.5t20 -35.5q0 -5 -1 -16v-15q0 -27 2 -53l4 -53q1 -46 6 -256q4 -149 14 -256z" />
    <glyph glyph-name="dieresis" unicode="&#xa8;" horiz-adv-x="883" 
d="M688 1051q43 0 43 -37q0 -33 -26.5 -79.5t-55.5 -63.5q-23 -14 -50 -14q-35 0 -35 39q0 37 29 86.5t61 63.5q12 5 34 5zM443 1037q44 0 44 -37q0 -31 -27.5 -79t-54.5 -64q-22 -13 -51 -13q-34 0 -34 38q0 37 28.5 87t61.5 63q12 5 33 5zM821 467q0 -220 -158 -379
q-138 -139 -274 -139q-133 0 -236 139q-94 127 -94 266q0 131 121 255q76 78 175 133q115 64 208 64q118 0 193 -115q65 -99 65 -224zM556 669q-81 0 -185 -61q-86 -51 -147 -119q-77 -87 -77 -167q0 -95 74 -186q77 -96 170 -96q130 0 262 167q79 100 79 231q0 90 -42 155
q-48 76 -134 76z" />
    <glyph glyph-name="copyright" unicode="&#xa9;" horiz-adv-x="960" 
d="M904 381q0 -70 -21 -121q-61 -147 -209 -224q-132 -69 -303 -69q-129 0 -210 37q-111 50 -111 163q0 75 42 186q36 94 84 171q64 101 194 167q125 64 249 64q176 0 236 -155q49 -126 49 -219zM615 618q-131 0 -201 -26q-137 -51 -210 -247q-28 -76 -28 -128
q0 -141 216 -141q280 0 361 204q17 43 17 86q0 61 -35 150q-40 102 -120 102zM448 144q-110 0 -132 44q-12 24 -12 68q0 110 72 188q69 76 179 96q69 -26 69 -77q0 -28 -25 -58q-13 -5 -23 -5q-19 0 -23 21q4 16 14 41q-17 12 -38 12q-58 0 -110 -75q-49 -70 -49 -131
q0 -63 70 -63t124 64q18 22 22 22q12 0 21.5 -14t9.5 -27q0 -16 -31 -47q-26 -27 -46 -38q-37 -21 -92 -21z" />
    <glyph glyph-name="ordfeminine" unicode="&#xaa;" horiz-adv-x="634" 
d="M510 1018q44 0 44 -38q0 -30 -27 -77.5t-52.5 -63t-53.5 -15.5q-34 0 -34 38t28.5 87.5t61.5 63.5q12 5 33 5zM266 1004q44 0 44 -37q0 -30 -27 -78t-52.5 -63t-53.5 -15q-34 0 -34 38q0 37 28 86.5t61 63.5q12 5 34 5zM593 64q0 -28 -27 -28q-19 0 -56 4.5t-56 4.5
q-143 0 -294 -55q-17 -24 -41 -24q-60 0 -60 131q0 14 1.5 41t1.5 41q0 147 -9 257q-5 62 -16 155l-8 68q0 29 43 30q210 87 355 87q63 0 89 -13q39 -20 39 -77q0 -49 -28 -49q-4 0 -18 3q-44 9 -90 9q-134 0 -273 -68q4 -103 6 -270q75 10 197 38l194 45q23 -5 37 -33
q12 -24 12 -50q0 -49 -29 -49q-7 0 -16 4h-22q-175 0 -371 -78v-29q0 -32 1 -53q134 31 263 31q89 0 109 -4q66 -13 66 -69z" />
    <glyph glyph-name="ordfeminine" unicode="&#x401;" horiz-adv-x="634" 
d="M510 1018q44 0 44 -38q0 -30 -27 -77.5t-52.5 -63t-53.5 -15.5q-34 0 -34 38t28.5 87.5t61.5 63.5q12 5 33 5zM266 1004q44 0 44 -37q0 -30 -27 -78t-52.5 -63t-53.5 -15q-34 0 -34 38q0 37 28 86.5t61 63.5q12 5 34 5zM593 64q0 -28 -27 -28q-19 0 -56 4.5t-56 4.5
q-143 0 -294 -55q-17 -24 -41 -24q-60 0 -60 131q0 14 1.5 41t1.5 41q0 147 -9 257q-5 62 -16 155l-8 68q0 29 43 30q210 87 355 87q63 0 89 -13q39 -20 39 -77q0 -49 -28 -49q-4 0 -18 3q-44 9 -90 9q-134 0 -273 -68q4 -103 6 -270q75 10 197 38l194 45q23 -5 37 -33
q12 -24 12 -50q0 -49 -29 -49q-7 0 -16 4h-22q-175 0 -371 -78v-29q0 -32 1 -53q134 31 263 31q89 0 109 -4q66 -13 66 -69z" />
    <glyph glyph-name="registered" unicode="&#xae;" horiz-adv-x="935" 
d="M889 397q0 -134 -93 -240q-86 -99 -220 -139q-111 -33 -222 -33q-122 0 -201 39q-104 51 -104 161q0 77 40 181q34 88 84 168q64 102 188 166q120 63 243 63q90 0 147 -36t90 -118q48 -118 48 -212zM597 629q-124 0 -194 -28q-88 -35 -145 -126q-85 -135 -85 -247
q0 -72 77 -108q60 -28 140 -28q141 0 246 72q118 81 118 217q0 67 -32 144q-43 104 -118 104h-7zM497 305q0 -9 5 -14q5 -15 50 -55.5t45 -45.5q0 -12 -33 -13q-64 29 -116 99h-11q-27 0 -36 -4q-14 -8 -14 -32q0 -5 1.5 -14t1.5 -14q0 -25 -25 -25q-18 0 -18 24
q0 -35 -6 50.5t-6 94.5q0 100 26 160q37 34 105 34q39 0 78 -23q44 -26 44 -63q0 -24 -45.5 -86t-45.5 -73zM527 457q0 18 -11 34q-22 10 -48 10q-7 0 -41 -6q-45 -8 -45 -107q0 -64 31 -64q26 0 70 53t44 80z" />
    <glyph glyph-name="macron" unicode="&#xaf;" horiz-adv-x="497" 
d="M532 930q0 -31 -17 -41q-20 -12 -216 -48q-54 -10 -198 -10q-109 0 -109 71q0 35 27 35q112 0 438 37q9 1 20 1q55 0 55 -45z" />
    <glyph glyph-name="macron" unicode="&#x2c9;" horiz-adv-x="497" 
d="M532 930q0 -31 -17 -41q-20 -12 -216 -48q-54 -10 -198 -10q-109 0 -109 71q0 35 27 35q112 0 438 37q9 1 20 1q55 0 55 -45z" />
    <glyph glyph-name="degree" unicode="&#xb0;" horiz-adv-x="314" 
d="M337 923q0 -63 -46.5 -104t-109.5 -41q-62 0 -108 40q-49 41 -49 102q0 63 48 104q45 39 109 39q63 0 109.5 -39t46.5 -101zM181 870q62 0 62 51q0 24 -18.5 37.5t-43.5 13.5t-44 -13.5t-19 -37.5q0 -51 63 -51z" />
    <glyph glyph-name="acute" unicode="&#xb4;" horiz-adv-x="375" 
 />
    <glyph glyph-name="mu1" unicode="&#xb5;" horiz-adv-x="872" 
d="M820 832q0 -17 -35 -71q-1 -2 -47 -72q70 -99 70 -232q0 -105 -42 -204.5t-116 -174.5q-139 -140 -268 -140q-64 0 -124 34q-15 -23 -44 -69q-25 -14 -42 -14q-40 0 -40 51q0 40 40 101q-125 151 -125 295q0 139 120 264q76 79 171 132q110 62 204 62q61 0 112 -27
q25 48 68 115q15 24 38 24q26 0 43 -23.5t17 -50.5zM673 590q-123 -181 -366 -543q35 -17 73 -17q131 0 261 167q78 100 78 233q0 93 -46 160zM586 652q-23 6 -48 6q-119 0 -258 -112q-145 -117 -145 -233q0 -96 90 -201q187 256 361 540z" />
    <glyph glyph-name="mu1" unicode="&#x3bc;" horiz-adv-x="872" 
d="M820 832q0 -17 -35 -71q-1 -2 -47 -72q70 -99 70 -232q0 -105 -42 -204.5t-116 -174.5q-139 -140 -268 -140q-64 0 -124 34q-15 -23 -44 -69q-25 -14 -42 -14q-40 0 -40 51q0 40 40 101q-125 151 -125 295q0 139 120 264q76 79 171 132q110 62 204 62q61 0 112 -27
q25 48 68 115q15 24 38 24q26 0 43 -23.5t17 -50.5zM673 590q-123 -181 -366 -543q35 -17 73 -17q131 0 261 167q78 100 78 233q0 93 -46 160zM586 652q-23 6 -48 6q-119 0 -258 -112q-145 -117 -145 -233q0 -96 90 -201q187 256 361 540z" />
    <glyph glyph-name="paragraph" unicode="&#xb6;" horiz-adv-x="620" 
d="M516 1018q43 0 43 -38q0 -30 -26.5 -77.5t-52.5 -63t-53 -15.5q-35 0 -35 38t28.5 87.5t61.5 63.5q12 5 34 5zM271 1004q43 0 43 -37q0 -31 -26.5 -78.5t-52 -62.5t-52.5 -15q-36 0 -36 38t29 87t62 63q12 5 33 5zM564 22q0 -29 -36 -29q-41 0 -49 22q-2 4 -2 56
q0 15 -3 45.5t-3 45.5q-138 -80 -169 -96q-121 -63 -173 -63q-49 0 -64 58q-8 30 -8 96q0 55 6 128q11 134 11 292q0 19 -1.5 57t-1.5 57q0 44 11 64q15 26 56 26q48 0 48 -61q0 -16 -1 -32l-11 -177q-2 -39 -17 -157q-12 -98 -12 -158q0 -89 46 -89q39 0 139 55
q41 22 136 81l-15 220q-2 23 -9 104q-5 60 -5 106q0 55 37 55q63 0 62 -101l-2 -145q-2 -170 21 -379z" />
    <glyph glyph-name="questiondown" unicode="&#xbf;" horiz-adv-x="592" 
d="M373 795q0 -37 -30.5 -58.5t-68.5 -21.5q-58 0 -58 44q0 35 30 58.5t66 23.5q61 0 61 -46zM555 227q0 -22 -17 -53q-43 -77 -125 -123t-172 -46q-78 0 -120 12q-71 20 -71 80q0 59 35 113q7 11 103 122q83 96 83 116q0 23 -46 23q-23 0 -69.5 -5t-69.5 -5q-19 0 -32 16.5
t-13 36.5q0 42 52 45q60 3 347 16q51 -19 51 -52q0 -41 -106 -143q-37 -35 -144 -137q-26 -30 -26 -75q0 -19 5 -39q22 -22 54 -22q51 0 121 52q56 42 97 94q9 1 18 1q45 0 45 -27z" />
    <glyph glyph-name="afii10053" unicode="&#x404;" 
d="M155 274q14 -152 149 -205q28 -11 61 -11q52 0 118 35q40 21 99 63q48 34 58 34q15 0 18 -31q4 -49 -28 -70q-70 -46 -151 -75q-90 -32 -165 -32q-117 0 -183 75q-60 68 -71 188q-3 33 -3 49q0 169 104 309q125 168 318 168q81 0 139 -22q33 -13 36 -42q3 -38 -21 -97.5
t-53 -82.5q-11 -9 -17 -9t-7 11q-1 9 1.5 27t1.5 27q-2 21 -15 40q-15 23 -34 23q-6 0 -19 -2q-107 -16 -161 -42q-85 -40 -135 -138q316 -35 426 -35q28 0 28 -34q0 -72 -110 -72q-163 0 -267 22l-102 23l-9 2q-11 -46 -6 -96z" />
    <glyph glyph-name="afii10055" unicode="&#x406;" horiz-adv-x="623" 
d="M596 36q0 -30 -30 -30q-19 0 -56 4.5t-56 4.5q-149 0 -294 -58q-22 -9 -30 -9q-20 0 -41.5 26t-21.5 47t18 36q99 29 195 41q0 344 -24 545q-38 -12 -152 -69q-14 -7 -23 -7q-23 0 -34 28q-9 22 -9 48q0 48 41 70q17 5 86.5 29t120.5 36q81 20 151 20q62 0 88 -12
q40 -18 40 -73t-27 -55q-3 0 -17 3q-40 9 -89 9q-37 0 -76 -5q5 -186 21 -561l43 1q87 2 109 -2q67 -12 67 -67z" />
    <glyph glyph-name="afii10056" unicode="&#x407;" horiz-adv-x="341" 
d="M322 1007q43 0 43 -37q0 -30 -26.5 -77.5t-51.5 -63.5t-54 -16q-35 0 -35 39q0 37 29.5 86t61.5 64q11 5 33 5zM78 993q43 0 43 -37q0 -29 -26.5 -77t-51.5 -63.5t-54 -15.5q-35 0 -35 38t29 86.5t62 63.5q11 5 33 5zM205 35q-17 -26 -43 -26q-60 0 -60 130q0 14 1 40.5
t1 40.5q0 216 -22 399l-10 83q0 31 45 31q23 0 43 -13.5t20 -35.5q0 -5 -1 -16v-15q0 -27 2 -53l4 -53q1 -46 6 -256q4 -149 14 -256z" />
    <glyph glyph-name="afii10062" unicode="&#x40e;" horiz-adv-x="688" 
d="M628 738q0 -29 -18 -68q-44 -95 -147 -332q-48 -110 -89 -240q-9 -33 -37 -119q-12 -25 -34 -25t-41.5 18t-19.5 40q0 11 17 44q6 12 54 145q-152 121 -218 377l-23 90q-20 54 -20 64q0 38 46 38q29 0 58 -33q26 -29 34 -60q2 -20 7 -79q25 -246 152 -299q56 165 159 446
q25 68 69 68q25 0 39 -26q12 -22 12 -49zM506 832q-1 -14 -13 -25.5t-26 -11.5q-3 0 -60.5 28t-85.5 28q-21 0 -48 -25.5t-38 -25.5q-32 0 -75 28q-86 56 -89 59q-8 9 -7 24q3 34 28 34h5q84 -71 116 -71q13 0 23 18q16 29 20 33q16 18 43 18q63 0 195 -74q14 -20 12 -37z
" />
    <glyph glyph-name="Agrave" unicode="&#x410;" horiz-adv-x="676" 
d="M611 114q0 -70 -42 -70q-25 0 -36 45q-3 24 -8 67q-12 105 -19 154q-133 -12 -315 -90q-13 -38 -33 -97q-24 -80 -28 -90q-25 -62 -54 -62q-26 0 -26 55q0 26 40 158q27 88 54 165q64 182 95 247q87 184 157 184q96 0 166 -342l2 1q45 -8 45 -83q0 -44 -24 -48
q26 -176 26 -194zM487 421q-40 195 -95 195q-58 0 -151 -254q83 15 246 59z" />
    <glyph glyph-name="Agrave" unicode="&#x430;" horiz-adv-x="676" 
d="M611 114q0 -70 -42 -70q-25 0 -36 45q-3 24 -8 67q-12 105 -19 154q-133 -12 -315 -90q-13 -38 -33 -97q-24 -80 -28 -90q-25 -62 -54 -62q-26 0 -26 55q0 26 40 158q27 88 54 165q64 182 95 247q87 184 157 184q96 0 166 -342l2 1q45 -8 45 -83q0 -44 -24 -48
q26 -176 26 -194zM487 421q-40 195 -95 195q-58 0 -151 -254q83 15 246 59z" />
    <glyph glyph-name="Aacute" unicode="&#x411;" horiz-adv-x="671" 
d="M590 220q0 -101 -87 -167q-79 -59 -184 -59q-46 0 -109 14q-72 16 -102 37q-13 9 -21 32t-8 41q0 23 14 23q9 0 20 -8q3 68 3 138q0 154 -13 304q-2 22 -14 98q-9 61 -9 99q0 30 37 30q10 0 78 14q160 33 221 33q47 0 86 -18q49 -23 49 -64q0 -13 -26.5 -24.5
t-42.5 -11.5q-15 0 -43.5 3t-43.5 3q-51 0 -195 -36q2 -24 2 -49q0 -26 -4 -130q-3 -79 0 -129q18 6 110 6q95 0 131 -7q70 -14 110.5 -62.5t40.5 -109.5zM485 195q0 56 -87 81q-57 17 -134 17q-28 0 -59 -2l17 -205q38 -10 75 -10q62 0 119 29q69 34 69 90z" />
    <glyph glyph-name="Aacute" unicode="&#x431;" horiz-adv-x="671" 
d="M590 220q0 -101 -87 -167q-79 -59 -184 -59q-46 0 -109 14q-72 16 -102 37q-13 9 -21 32t-8 41q0 23 14 23q9 0 20 -8q3 68 3 138q0 154 -13 304q-2 22 -14 98q-9 61 -9 99q0 30 37 30q10 0 78 14q160 33 221 33q47 0 86 -18q49 -23 49 -64q0 -13 -26.5 -24.5
t-42.5 -11.5q-15 0 -43.5 3t-43.5 3q-51 0 -195 -36q2 -24 2 -49q0 -26 -4 -130q-3 -79 0 -129q18 6 110 6q95 0 131 -7q70 -14 110.5 -62.5t40.5 -109.5zM485 195q0 56 -87 81q-57 17 -134 17q-28 0 -59 -2l17 -205q38 -10 75 -10q62 0 119 29q69 34 69 90z" />
    <glyph glyph-name="Acircumflex" unicode="&#x412;" horiz-adv-x="602" 
d="M384 336q128 -36 128 -155q0 -94 -79 -153q-72 -54 -169 -54q-112 0 -194 47q-12 7 -19 30q-7 20 -7 36q0 21 13 21q5 0 10 -3l7 -4q3 62 3 127q0 130 -12 278q-2 29 -13 99q-9 59 -9 99q0 35 42 31q130 45 225 45t167 -44q85 -52 85 -143q0 -153 -178 -257zM358 650
q-75 0 -204 -29q2 -21 2 -45q0 -30 -3 -90t-3 -90q0 -31 2 -58q104 14 197 78q130 89 130 160q0 74 -121 74zM175 58q34 -9 68 -9q56 0 109 26q64 31 64 82q0 53 -81 75q-54 15 -122 15q-25 0 -54 -2q9 -112 16 -187z" />
    <glyph glyph-name="Acircumflex" unicode="&#x432;" horiz-adv-x="602" 
d="M384 336q128 -36 128 -155q0 -94 -79 -153q-72 -54 -169 -54q-112 0 -194 47q-12 7 -19 30q-7 20 -7 36q0 21 13 21q5 0 10 -3l7 -4q3 62 3 127q0 130 -12 278q-2 29 -13 99q-9 59 -9 99q0 35 42 31q130 45 225 45t167 -44q85 -52 85 -143q0 -153 -178 -257zM358 650
q-75 0 -204 -29q2 -21 2 -45q0 -30 -3 -90t-3 -90q0 -31 2 -58q104 14 197 78q130 89 130 160q0 74 -121 74zM175 58q34 -9 68 -9q56 0 109 26q64 31 64 82q0 53 -81 75q-54 15 -122 15q-25 0 -54 -2q9 -112 16 -187z" />
    <glyph glyph-name="Atilde" unicode="&#x413;" horiz-adv-x="539" 
d="M154 -14q-18 -27 -43 -27q-61 0 -61 130q0 14 1.5 41t1.5 41q0 139 -9 258q-3 34 -13 112q-10 75 -10 111t42 31q209 87 355 87q65 0 90 -13q38 -20 38 -78q0 -49 -27 -49q-5 0 -18 3q-44 10 -90 10q-148 0 -300 -81q5 -83 20 -290z" />
    <glyph glyph-name="Atilde" unicode="&#x433;" horiz-adv-x="539" 
d="M154 -14q-18 -27 -43 -27q-61 0 -61 130q0 14 1.5 41t1.5 41q0 139 -9 258q-3 34 -13 112q-10 75 -10 111t42 31q209 87 355 87q65 0 90 -13q38 -20 38 -78q0 -49 -27 -49q-5 0 -18 3q-44 10 -90 10q-148 0 -300 -81q5 -83 20 -290z" />
    <glyph glyph-name="Adieresis" unicode="&#x414;" horiz-adv-x="661" 
d="M194 117q82 5 246 19q-16 105 -53 315q-27 136 -49 136q-21 0 -52 -118q-28 -104 -81 -311l-8 -20zM521 265q13 -43 36 -132q35 -4 59 -21q27 -21 27 -54q0 -29 -18 -35q-6 -2 -43 -3h-28q-15 -8 -36 -8q-15 0 -27 7h-24q-65 0 -194 -10t-194 -10q-64 0 -64 46
q0 49 84 59q8 22 26 100q20 83 57 204q32 102 63 203q14 56 47 167q21 58 60 58q44 0 89 -176q2 -9 45 -223z" />
    <glyph glyph-name="Adieresis" unicode="&#x434;" horiz-adv-x="661" 
d="M194 117q82 5 246 19q-16 105 -53 315q-27 136 -49 136q-21 0 -52 -118q-28 -104 -81 -311l-8 -20zM521 265q13 -43 36 -132q35 -4 59 -21q27 -21 27 -54q0 -29 -18 -35q-6 -2 -43 -3h-28q-15 -8 -36 -8q-15 0 -27 7h-24q-65 0 -194 -10t-194 -10q-64 0 -64 46
q0 49 84 59q8 22 26 100q20 83 57 204q32 102 63 203q14 56 47 167q21 58 60 58q44 0 89 -176q2 -9 45 -223z" />
    <glyph glyph-name="Aring" unicode="&#x415;" horiz-adv-x="636" 
d="M596 64q0 -28 -26 -28q-19 0 -56.5 4.5t-56.5 4.5q-144 0 -293 -55q-18 -24 -41 -24q-61 0 -61 131q0 14 1 41t1 41q0 142 -8 257q-2 33 -16 155q-7 62 -7 68q0 29 43 30q209 87 354 87q63 0 89 -13q39 -20 39 -77q0 -49 -28 -49q-3 0 -17 3q-44 9 -91 9q-134 0 -273 -68
q4 -103 7 -270q76 10 196 38l195 45q22 -4 36 -33q12 -25 12 -50q0 -49 -30 -49q-6 0 -14 4h-23q-175 0 -370 -78l-1 -29q-1 -26 2 -53q133 31 262 31q89 0 109 -4q66 -13 66 -69z" />
    <glyph glyph-name="Aring" unicode="&#x435;" horiz-adv-x="636" 
d="M596 64q0 -28 -26 -28q-19 0 -56.5 4.5t-56.5 4.5q-144 0 -293 -55q-18 -24 -41 -24q-61 0 -61 131q0 14 1 41t1 41q0 142 -8 257q-2 33 -16 155q-7 62 -7 68q0 29 43 30q209 87 354 87q63 0 89 -13q39 -20 39 -77q0 -49 -28 -49q-3 0 -17 3q-44 9 -91 9q-134 0 -273 -68
q4 -103 7 -270q76 10 196 38l195 45q22 -4 36 -33q12 -25 12 -50q0 -49 -30 -49q-6 0 -14 4h-23q-175 0 -370 -78l-1 -29q-1 -26 2 -53q133 31 262 31q89 0 109 -4q66 -13 66 -69z" />
    <glyph glyph-name="AE" unicode="&#x416;" horiz-adv-x="1020" 
d="M402 748v-1v1zM988 760q0 -18 -27 -47q-83 -90 -298 -314q194 -158 276 -320q9 -18 9 -31q0 -18 -16 -37.5t-33 -19.5q-12 0 -30 29q-106 175 -287 291q-18 -19 -51 -57q2 -106 10 -195q-18 -26 -42 -26q-64 0 -63 91l1 150q-175 -113 -284 -290q-17 -28 -31 -28
q-17 0 -33 19t-16 37q0 13 9 31q82 164 276 320l-298 314q-27 29 -27 43q0 22 18 48t39 26q9 0 19 -9q3 -2 36 -45q135 -173 288 -323q-5 135 -19 246l-7 57q-2 14 -5 28v-1v1q0 30 41 30q27 0 48 -12q24 -15 24 -40q0 -60 5 -166q5 -118 6 -166q194 180 350 381
q11 17 36 46q8 8 19 8q19 0 38 -24.5t19 -44.5z" />
    <glyph glyph-name="AE" unicode="&#x436;" horiz-adv-x="1020" 
d="M402 748v-1v1zM988 760q0 -18 -27 -47q-83 -90 -298 -314q194 -158 276 -320q9 -18 9 -31q0 -18 -16 -37.5t-33 -19.5q-12 0 -30 29q-106 175 -287 291q-18 -19 -51 -57q2 -106 10 -195q-18 -26 -42 -26q-64 0 -63 91l1 150q-175 -113 -284 -290q-17 -28 -31 -28
q-17 0 -33 19t-16 37q0 13 9 31q82 164 276 320l-298 314q-27 29 -27 43q0 22 18 48t39 26q9 0 19 -9q3 -2 36 -45q135 -173 288 -323q-5 135 -19 246l-7 57q-2 14 -5 28v-1v1q0 30 41 30q27 0 48 -12q24 -15 24 -40q0 -60 5 -166q5 -118 6 -166q194 180 350 381
q11 17 36 46q8 8 19 8q19 0 38 -24.5t19 -44.5z" />
    <glyph glyph-name="Ccedilla" unicode="&#x417;" horiz-adv-x="653" 
d="M573 639q0 -88 -30 -140q-34 -59 -126 -113q62 -17 100 -61t38 -107q0 -102 -85 -166q-78 -58 -183 -58q-119 0 -209 50q-13 7 -22 32q-7 21 -7 40q0 10 9.5 24t18.5 14q6 0 12 -4l7 -5q49 -35 79 -50q40 -20 90 -20q59 0 117 28q70 34 70 89q0 58 -87 82q-57 16 -133 16
q-28 0 -58 -3q-16 -8 -30 -8q-20 0 -32.5 14.5t-12.5 34.5q0 54 67 60q105 9 213 84q64 44 80 78q10 20 10 67q0 43 -46 64q-36 17 -84 17q-45 0 -102 -11q-133 -27 -170 -27q-17 0 -18 5q-15 9 -12 72v7q0 39 45 34q110 38 216 38q105 0 182 -48q51 -32 70 -54
q23 -29 23 -75z" />
    <glyph glyph-name="Ccedilla" unicode="&#x437;" horiz-adv-x="653" 
d="M573 639q0 -88 -30 -140q-34 -59 -126 -113q62 -17 100 -61t38 -107q0 -102 -85 -166q-78 -58 -183 -58q-119 0 -209 50q-13 7 -22 32q-7 21 -7 40q0 10 9.5 24t18.5 14q6 0 12 -4l7 -5q49 -35 79 -50q40 -20 90 -20q59 0 117 28q70 34 70 89q0 58 -87 82q-57 16 -133 16
q-28 0 -58 -3q-16 -8 -30 -8q-20 0 -32.5 14.5t-12.5 34.5q0 54 67 60q105 9 213 84q64 44 80 78q10 20 10 67q0 43 -46 64q-36 17 -84 17q-45 0 -102 -11q-133 -27 -170 -27q-17 0 -18 5q-15 9 -12 72v7q0 39 45 34q110 38 216 38q105 0 182 -48q51 -32 70 -54
q23 -29 23 -75z" />
    <glyph glyph-name="Egrave" unicode="&#x418;" horiz-adv-x="712" 
d="M659 51q-3 -27 -18 -57q-18 -36 -40 -36q-40 0 -38 97q4 233 2 271q-11 217 -77 217q-46 0 -134 -139l-17 -27q-42 -66 -83 -139l-50 -92q-79 -138 -116 -138t-37 144q0 72 9 179q5 58 20 188q25 216 30 243q13 74 67 74q25 0 40 -18.5t13 -43.5l-26 -129
q-14 -63 -40 -189q-22 -111 -22 -191q0 -28 8 -28q11 0 48 68q18 33 33 63q89 175 120 226q101 165 165 165q73 0 109 -195q22 -116 26 -253l7 -217q1 -40 1 -43z" />
    <glyph glyph-name="Egrave" unicode="&#x438;" horiz-adv-x="712" 
d="M659 51q-3 -27 -18 -57q-18 -36 -40 -36q-40 0 -38 97q4 233 2 271q-11 217 -77 217q-46 0 -134 -139l-17 -27q-42 -66 -83 -139l-50 -92q-79 -138 -116 -138t-37 144q0 72 9 179q5 58 20 188q25 216 30 243q13 74 67 74q25 0 40 -18.5t13 -43.5l-26 -129
q-14 -63 -40 -189q-22 -111 -22 -191q0 -28 8 -28q11 0 48 68q18 33 33 63q89 175 120 226q101 165 165 165q73 0 109 -195q22 -116 26 -253l7 -217q1 -40 1 -43z" />
    <glyph glyph-name="Eacute" unicode="&#x419;" horiz-adv-x="712" 
d="M606 893q-1 -14 -13 -25.5t-26 -11.5q-3 0 -60.5 28t-85.5 28q-21 0 -48 -25.5t-38 -25.5q-32 0 -75 28q-86 56 -89 59q-8 9 -7 24q3 34 28 34h5q84 -71 116 -71q13 0 23 18q16 29 20 33q16 18 43 18q63 0 195 -74q14 -20 12 -37zM659 51q-3 -27 -18 -57q-18 -36 -40 -36
q-40 0 -38 97q4 233 2 271q-11 217 -77 217q-50 0 -134 -139l-17 -28q-9 -14 -133 -230q-80 -138 -116 -138q-37 0 -37 143q0 73 9 180q5 57 20 188q25 216 30 243q13 74 67 74q25 0 40 -18.5t13 -43.5l-26 -129q-14 -63 -40 -189q-22 -111 -22 -191q0 -28 8 -28q11 0 48 68
q18 33 33 63q89 175 120 226q101 165 165 165q73 0 109 -195q22 -116 26 -253l7 -217q1 -40 1 -43z" />
    <glyph glyph-name="Eacute" unicode="&#x439;" horiz-adv-x="712" 
d="M606 893q-1 -14 -13 -25.5t-26 -11.5q-3 0 -60.5 28t-85.5 28q-21 0 -48 -25.5t-38 -25.5q-32 0 -75 28q-86 56 -89 59q-8 9 -7 24q3 34 28 34h5q84 -71 116 -71q13 0 23 18q16 29 20 33q16 18 43 18q63 0 195 -74q14 -20 12 -37zM659 51q-3 -27 -18 -57q-18 -36 -40 -36
q-40 0 -38 97q4 233 2 271q-11 217 -77 217q-50 0 -134 -139l-17 -28q-9 -14 -133 -230q-80 -138 -116 -138q-37 0 -37 143q0 73 9 180q5 57 20 188q25 216 30 243q13 74 67 74q25 0 40 -18.5t13 -43.5l-26 -129q-14 -63 -40 -189q-22 -111 -22 -191q0 -28 8 -28q11 0 48 68
q18 33 33 63q89 175 120 226q101 165 165 165q73 0 109 -195q22 -116 26 -253l7 -217q1 -40 1 -43z" />
    <glyph glyph-name="Ecircumflex" unicode="&#x41a;" horiz-adv-x="649" 
d="M614 699q0 -16 -26 -41q-10 -11 -48 -52q-26 -28 -241 -252q177 -144 267 -311q9 -17 9 -30q0 -17 -15.5 -36t-32.5 -19q-13 0 -29 28q-96 167 -278 283q-27 -29 -50 -56q3 -113 10 -189q-17 -25 -40 -25q-63 0 -62 88l1 104q2 213 -22 419q-11 94 -11 81q0 31 39 31
q26 0 46 -12q24 -14 24 -38v-2q-1 -6 -1 -17v-18q0 -20 3 -70l4 -67l5 -149q195 182 340 370q8 11 34 44q9 8 19 8q20 0 37.5 -25.5t17.5 -46.5z" />
    <glyph glyph-name="Ecircumflex" unicode="&#x43a;" horiz-adv-x="649" 
d="M614 699q0 -16 -26 -41q-10 -11 -48 -52q-26 -28 -241 -252q177 -144 267 -311q9 -17 9 -30q0 -17 -15.5 -36t-32.5 -19q-13 0 -29 28q-96 167 -278 283q-27 -29 -50 -56q3 -113 10 -189q-17 -25 -40 -25q-63 0 -62 88l1 104q2 213 -22 419q-11 94 -11 81q0 31 39 31
q26 0 46 -12q24 -14 24 -38v-2q-1 -6 -1 -17v-18q0 -20 3 -70l4 -67l5 -149q195 182 340 370q8 11 34 44q9 8 19 8q20 0 37.5 -25.5t17.5 -46.5z" />
    <glyph glyph-name="Edieresis" unicode="&#x41b;" horiz-adv-x="597" 
d="M46 46q0 11 21 72q16 53 67 216q24 74 84 267q14 54 44 161q15 54 56 55q30 1 42 -53t34 -161q35 -159 97 -367q16 -52 33 -104q23 -76 23 -97q0 -42 -55 -42t-73 83q-20 119 -64 356q-29 136 -51 136q-23 0 -54 -118q-25 -101 -101 -394q-42 -48 -70 -48q-33 0 -33 38z
" />
    <glyph glyph-name="Edieresis" unicode="&#x43b;" horiz-adv-x="597" 
d="M46 46q0 11 21 72q16 53 67 216q24 74 84 267q14 54 44 161q15 54 56 55q30 1 42 -53t34 -161q35 -159 97 -367q16 -52 33 -104q23 -76 23 -97q0 -42 -55 -42t-73 83q-20 119 -64 356q-29 136 -51 136q-23 0 -54 -118q-25 -101 -101 -394q-42 -48 -70 -48q-33 0 -33 38z
" />
    <glyph glyph-name="Igrave" unicode="&#x41c;" horiz-adv-x="875" 
d="M834 47q-17 -26 -41 -26q-56 0 -62 88q-15 228 -18 255q-26 200 -87 200q-73 0 -105 -311q-4 -40 -14 -153q-6 -58 -37 -58q-47 0 -82 62l-1 20q-22 437 -109 437q-60 0 -99 -246q-24 -154 -30 -305q-17 -27 -41 -27q-30 0 -46 31q-14 26 -14 58q0 17 17 121
q31 189 70 326q72 251 151 251q91 0 159 -320q87 285 179 285q140 0 210 -688z" />
    <glyph glyph-name="Igrave" unicode="&#x43c;" horiz-adv-x="875" 
d="M834 47q-17 -26 -41 -26q-56 0 -62 88q-15 228 -18 255q-26 200 -87 200q-73 0 -105 -311q-4 -40 -14 -153q-6 -58 -37 -58q-47 0 -82 62l-1 20q-22 437 -109 437q-60 0 -99 -246q-24 -154 -30 -305q-17 -27 -41 -27q-30 0 -46 31q-14 26 -14 58q0 17 17 121
q31 189 70 326q72 251 151 251q91 0 159 -320q87 285 179 285q140 0 210 -688z" />
    <glyph glyph-name="Iacute" unicode="&#x41d;" horiz-adv-x="693" 
d="M639 68q-17 -26 -41 -26q-61 0 -61 89q0 21 1 63t1 63v19q-154 -2 -353 -77q2 -98 9 -167q-17 -26 -42 -26q-61 0 -61 129q0 14 1 41t1 41q0 196 -22 399l-9 83q0 30 38 30q26 0 46 -11q23 -14 23 -38q0 -4 -1 -12v-13q0 12 4 -52q3 -47 9 -282q68 9 354 75
q-6 138 -17 232q-2 11 -9 53q-5 31 -5 53q0 31 38 31q27 0 47 -11q24 -13 24 -38q0 -5 -1 -15v-14q0 -27 2 -52l4 -51q2 -30 7 -258q3 -162 13 -258z" />
    <glyph glyph-name="Iacute" unicode="&#x43d;" horiz-adv-x="693" 
d="M639 68q-17 -26 -41 -26q-61 0 -61 89q0 21 1 63t1 63v19q-154 -2 -353 -77q2 -98 9 -167q-17 -26 -42 -26q-61 0 -61 129q0 14 1 41t1 41q0 196 -22 399l-9 83q0 30 38 30q26 0 46 -11q23 -14 23 -38q0 -4 -1 -12v-13q0 12 4 -52q3 -47 9 -282q68 9 354 75
q-6 138 -17 232q-2 11 -9 53q-5 31 -5 53q0 31 38 31q27 0 47 -11q24 -13 24 -38q0 -5 -1 -15v-14q0 -27 2 -52l4 -51q2 -30 7 -258q3 -162 13 -258z" />
    <glyph glyph-name="Icircumflex" unicode="&#x41e;" horiz-adv-x="883" 
d="M821 467q0 -220 -158 -379q-138 -139 -274 -139q-133 0 -236 139q-94 127 -94 266q0 131 121 255q76 78 175 133q115 64 208 64q118 0 193 -115q65 -99 65 -224zM555 669q-81 0 -184 -61q-86 -51 -147 -119q-77 -87 -77 -167q0 -95 74 -186q77 -96 170 -96q130 0 262 167
q78 99 78 231q0 90 -42 155q-48 76 -134 76z" />
    <glyph glyph-name="Icircumflex" unicode="&#x43e;" horiz-adv-x="883" 
d="M821 467q0 -220 -158 -379q-138 -139 -274 -139q-133 0 -236 139q-94 127 -94 266q0 131 121 255q76 78 175 133q115 64 208 64q118 0 193 -115q65 -99 65 -224zM555 669q-81 0 -184 -61q-86 -51 -147 -119q-77 -87 -77 -167q0 -95 74 -186q77 -96 170 -96q130 0 262 167
q78 99 78 231q0 90 -42 155q-48 76 -134 76z" />
    <glyph glyph-name="Idieresis" unicode="&#x41f;" horiz-adv-x="699" 
d="M543 765q23 2 47 -11t24 -38q0 -5 -1 -15v-14q0 -27 2 -52l4 -51q2 -30 7 -258q3 -162 13 -258q-17 -26 -41 -26q-61 0 -61 89q0 42 -9 135q-8 88 -7 136q1 53 0 63l-10 205q-24 0 -71 1t-71 1q-127 0 -220 -34q3 -66 22 -311l24 -295q-17 -26 -42 -26q-61 0 -61 129
q0 14 1 41t1 41q0 196 -22 399l-9 83q0 27 38 30z" />
    <glyph glyph-name="Idieresis" unicode="&#x43f;" horiz-adv-x="699" 
d="M543 765q23 2 47 -11t24 -38q0 -5 -1 -15v-14q0 -27 2 -52l4 -51q2 -30 7 -258q3 -162 13 -258q-17 -26 -41 -26q-61 0 -61 89q0 42 -9 135q-8 88 -7 136q1 53 0 63l-10 205q-24 0 -71 1t-71 1q-127 0 -220 -34q3 -66 22 -311l24 -295q-17 -26 -42 -26q-61 0 -61 129
q0 14 1 41t1 41q0 196 -22 399l-9 83q0 27 38 30z" />
    <glyph glyph-name="Eth" unicode="&#x420;" horiz-adv-x="585" 
d="M155 212q5 -50 13 -149q-24 -75 -58 -75q-41 0 -41 133q0 18 1 50l1 32q3 104 -9 270q-2 22 -14 112q-10 73 -10 110q0 32 32 32q7 0 15 -1q130 45 224 45q97 0 167 -50q80 -56 80 -149q0 -97 -86 -198q-97 -115 -315 -162zM324 659q-75 0 -197 -29q8 -109 22 -328
q101 15 192 89q120 98 120 174q0 51 -46 75q-36 19 -91 19z" />
    <glyph glyph-name="Eth" unicode="&#x440;" horiz-adv-x="585" 
d="M155 212q5 -50 13 -149q-24 -75 -58 -75q-41 0 -41 133q0 18 1 50l1 32q3 104 -9 270q-2 22 -14 112q-10 73 -10 110q0 32 32 32q7 0 15 -1q130 45 224 45q97 0 167 -50q80 -56 80 -149q0 -97 -86 -198q-97 -115 -315 -162zM324 659q-75 0 -197 -29q8 -109 22 -328
q101 15 192 89q120 98 120 174q0 51 -46 75q-36 19 -91 19z" />
    <glyph glyph-name="Ntilde" unicode="&#x421;" 
d="M560 518q-6 0 -6 11q0 9 4 27t4 27q0 20 -12.5 41.5t-31.5 21.5q-6 0 -19 -2q-108 -16 -165 -42q-78 -35 -129 -110q-75 -110 -75 -218q0 -151 132 -205q27 -11 59 -11q52 0 121 35q43 22 105 63q51 34 60 34q16 0 16 -31q0 -49 -34 -70q-72 -45 -156 -74
q-94 -33 -169 -33q-117 0 -177 75q-55 68 -55 188q0 200 131 359q139 167 335 167q80 0 137 -22q32 -12 32 -42q0 -39 -29.5 -97.5t-60.5 -82.5q-12 -9 -17 -9z" />
    <glyph glyph-name="Ntilde" unicode="&#x441;" 
d="M560 518q-6 0 -6 11q0 9 4 27t4 27q0 20 -12.5 41.5t-31.5 21.5q-6 0 -19 -2q-108 -16 -165 -42q-78 -35 -129 -110q-75 -110 -75 -218q0 -151 132 -205q27 -11 59 -11q52 0 121 35q43 22 105 63q51 34 60 34q16 0 16 -31q0 -49 -34 -70q-72 -45 -156 -74
q-94 -33 -169 -33q-117 0 -177 75q-55 68 -55 188q0 200 131 359q139 167 335 167q80 0 137 -22q32 -12 32 -42q0 -39 -29.5 -97.5t-60.5 -82.5q-12 -9 -17 -9z" />
    <glyph glyph-name="Ograve" unicode="&#x422;" horiz-adv-x="618" 
d="M582 693q0 -54 -27 -54q-3 0 -18 3q-40 8 -90 8q-53 0 -106 -9q-3 -4 -1 -28l6 -95q13 -204 36 -495q-26 -75 -58 -75q-42 0 -42 131q0 18 1 53l1 35q5 188 -28 451q-10 -3 -85 -39q-65 -31 -72 -31q-45 0 -45 77q0 47 43 69q6 4 87 30q74 24 119 35q77 19 150 19
q63 0 88 -11q41 -18 41 -74z" />
    <glyph glyph-name="Ograve" unicode="&#x442;" horiz-adv-x="618" 
d="M582 693q0 -54 -27 -54q-3 0 -18 3q-40 8 -90 8q-53 0 -106 -9q-3 -4 -1 -28l6 -95q13 -204 36 -495q-26 -75 -58 -75q-42 0 -42 131q0 18 1 53l1 35q5 188 -28 451q-10 -3 -85 -39q-65 -31 -72 -31q-45 0 -45 77q0 47 43 69q6 4 87 30q74 24 119 35q77 19 150 19
q63 0 88 -11q41 -18 41 -74z" />
    <glyph glyph-name="Oacute" unicode="&#x423;" horiz-adv-x="688" 
d="M628 738q0 -29 -18 -68q-44 -95 -147 -332q-48 -110 -89 -240q-9 -33 -37 -119q-12 -25 -34 -25t-41.5 18t-19.5 40q0 11 17 44q6 12 54 145q-152 121 -218 377l-23 90q-20 54 -20 64q0 38 46 38q29 0 58 -33q26 -29 34 -60q2 -20 7 -79q25 -246 152 -299q56 165 159 446
q25 68 69 68q25 0 39 -26q12 -22 12 -49z" />
    <glyph glyph-name="Oacute" unicode="&#x443;" horiz-adv-x="688" 
d="M628 738q0 -29 -18 -68q-44 -95 -147 -332q-48 -110 -89 -240q-9 -33 -37 -119q-12 -25 -34 -25t-41.5 18t-19.5 40q0 11 17 44q6 12 54 145q-152 121 -218 377l-23 90q-20 54 -20 64q0 38 46 38q29 0 58 -33q26 -29 34 -60q2 -20 7 -79q25 -246 152 -299q56 165 159 446
q25 68 69 68q25 0 39 -26q12 -22 12 -49z" />
    <glyph glyph-name="Ocircumflex" unicode="&#x424;" horiz-adv-x="983" 
d="M977 623q0 -157 -150 -272q-122 -93 -296 -130l14 -166q-28 -84 -65 -84q-46 0 -46 148q0 -4 3 86q-69 -11 -126 -11q-119 0 -190 47q-116 77 -116 193q0 90 76 179q117 138 331 176q14 9 36 5q62 17 125 34q71 17 128 17q108 0 187 -56q89 -62 89 -166zM872 615
q0 55 -52 83q-41 22 -101 22q-83 0 -220 -33q9 -123 25 -366q111 17 213 100q135 110 135 194zM438 304q-4 179 -31 360q-295 -67 -295 -203q0 -75 102 -122q83 -39 168 -39q28 0 56 4z" />
    <glyph glyph-name="Ocircumflex" unicode="&#x444;" horiz-adv-x="983" 
d="M977 623q0 -157 -150 -272q-122 -93 -296 -130l14 -166q-28 -84 -65 -84q-46 0 -46 148q0 -4 3 86q-69 -11 -126 -11q-119 0 -190 47q-116 77 -116 193q0 90 76 179q117 138 331 176q14 9 36 5q62 17 125 34q71 17 128 17q108 0 187 -56q89 -62 89 -166zM872 615
q0 55 -52 83q-41 22 -101 22q-83 0 -220 -33q9 -123 25 -366q111 17 213 100q135 110 135 194zM438 304q-4 179 -31 360q-295 -67 -295 -203q0 -75 102 -122q83 -39 168 -39q28 0 56 4z" />
    <glyph glyph-name="Otilde" unicode="&#x425;" horiz-adv-x="622" 
d="M563 771q0 -35 -29 -89q-61 -114 -177 -342q17 -38 69 -145q2 -4 79 -145q6 -11 6 -21q0 -16 -17.5 -25.5t-35.5 -9.5q-22 0 -35 22q-6 14 -19 41l-91 183q-33 -89 -97 -233q-10 -23 -28 -23t-36 14.5t-18 32.5q0 17 25 59q7 11 57 122q20 44 53 115q-93 174 -198 383
q-15 30 -15 54q0 19 11.5 33t30.5 14q35 0 65 -30q25 -25 40 -62q41 -104 114 -285l145 324q30 66 59 66q20 0 31 -16t11 -37z" />
    <glyph glyph-name="Otilde" unicode="&#x445;" horiz-adv-x="622" 
d="M563 771q0 -35 -29 -89q-61 -114 -177 -342q17 -38 69 -145q2 -4 79 -145q6 -11 6 -21q0 -16 -17.5 -25.5t-35.5 -9.5q-22 0 -35 22q-6 14 -19 41l-91 183q-33 -89 -97 -233q-10 -23 -28 -23t-36 14.5t-18 32.5q0 17 25 59q7 11 57 122q20 44 53 115q-93 174 -198 383
q-15 30 -15 54q0 19 11.5 33t30.5 14q35 0 65 -30q25 -25 40 -62q41 -104 114 -285l145 324q30 66 59 66q20 0 31 -16t11 -37z" />
    <glyph glyph-name="Odieresis" unicode="&#x426;" horiz-adv-x="689" 
d="M629 -118q-19 0 -44 5q-33 6 -35.5 16t-2.5 18q0 29 34 69t34 51q0 37 -142 83q-53 -31 -172 -96.5t-177 -65.5q-48 0 -64 58q-7 25 -7 41l-1 82q0 40 5 106q13 157 13 298q0 20 -1.5 58.5t-1.5 58.5q0 46 10 64q14 27 56 27q55 0 50 -62l-2 -32l-11 -181
q-3 -45 -17 -161q-12 -97 -12 -161q0 -90 47 -90q40 0 141 56q48 26 139 83l-15 224q-2 23 -9 106q-6 67 -6 108q0 56 38 56q66 0 64 -102q-2 -86 -2 -148q0 -158 12 -261q1 -8 77 -32t79.5 -28.5t3.5 -15.5q0 -37 -28 -130q-31 -102 -53 -102z" />
    <glyph glyph-name="Odieresis" unicode="&#x446;" horiz-adv-x="689" 
d="M629 -118q-19 0 -44 5q-33 6 -35.5 16t-2.5 18q0 29 34 69t34 51q0 37 -142 83q-53 -31 -172 -96.5t-177 -65.5q-48 0 -64 58q-7 25 -7 41l-1 82q0 40 5 106q13 157 13 298q0 20 -1.5 58.5t-1.5 58.5q0 46 10 64q14 27 56 27q55 0 50 -62l-2 -32l-11 -181
q-3 -45 -17 -161q-12 -97 -12 -161q0 -90 47 -90q40 0 141 56q48 26 139 83l-15 224q-2 23 -9 106q-6 67 -6 108q0 56 38 56q66 0 64 -102q-2 -86 -2 -148q0 -158 12 -261q1 -8 77 -32t79.5 -28.5t3.5 -15.5q0 -37 -28 -130q-31 -102 -53 -102z" />
    <glyph glyph-name="multiply" unicode="&#x427;" horiz-adv-x="597" 
d="M570 19q0 -32 -39 -32q-47 0 -55 23q-2 45 -6 110q-4 42 -4 178q-42 -23 -124 -44q-94 -23 -173 -23q-132 0 -152 72q-9 32 -9 105q0 12 6 88q3 43 10 57q3 7 3 67q0 20 -1.5 61.5t-1.5 62.5q0 49 11 68q16 29 62 29q59 0 54 -67q-2 -9 -3 -33q-4 -57 -24 -145
q-19 -82 -19 -146q0 -113 155 -113q119 0 200 49l-16 110q-1 2 -10 113q-6 69 -6 114q0 60 41 60q71 0 69 -109q-1 -45 -1 -157q0 -223 22 -412q11 -95 11 -86z" />
    <glyph glyph-name="multiply" unicode="&#x447;" horiz-adv-x="597" 
d="M570 19q0 -32 -39 -32q-47 0 -55 23q-2 45 -6 110q-4 42 -4 178q-42 -23 -124 -44q-94 -23 -173 -23q-132 0 -152 72q-9 32 -9 105q0 12 6 88q3 43 10 57q3 7 3 67q0 20 -1.5 61.5t-1.5 62.5q0 49 11 68q16 29 62 29q59 0 54 -67q-2 -9 -3 -33q-4 -57 -24 -145
q-19 -82 -19 -146q0 -113 155 -113q119 0 200 49l-16 110q-1 2 -10 113q-6 69 -6 114q0 60 41 60q71 0 69 -109q-1 -45 -1 -157q0 -223 22 -412q11 -95 11 -86z" />
    <glyph glyph-name="Oslash" unicode="&#x428;" horiz-adv-x="889" 
d="M111 -4q-47 0 -62 55q-8 29 -8 94q0 51 6 126q11 140 11 284q0 19 -1 56t-1 56q0 44 9 62q14 25 55 25q52 0 48 -60q-1 -6 -2 -30l-11 -173q-3 -48 -16 -154q-11 -94 -11 -153q0 -50 3 -65q5 -24 23 -33q33 -15 108 -10q10 1 61 0q34 0 42 5q3 129 3 191q0 47 2.5 145.5
t2.5 145.5q0 19 -1.5 56t-1.5 56q0 43 10 62q14 25 54 25q52 0 48 -60q0 -6 -2 -30l-10 -174q-4 -54 -17 -153q-5 -42 -5 -157q0 -116 33 -116q196 0 266 7q18 1 17 79l-20 294q-1 11 -9 102q-7 69 -7 103q0 53 38 53q63 0 61 -98q-2 -83 -2 -141q0 -163 20 -330
q7 -66 7 -87q0 -40 -25 -40q-13 0 -30.5 -1t-34.5 -1zM425 3z" />
    <glyph glyph-name="Oslash" unicode="&#x448;" horiz-adv-x="889" 
d="M111 -4q-47 0 -62 55q-8 29 -8 94q0 51 6 126q11 140 11 284q0 19 -1 56t-1 56q0 44 9 62q14 25 55 25q52 0 48 -60q-1 -6 -2 -30l-11 -173q-3 -48 -16 -154q-11 -94 -11 -153q0 -50 3 -65q5 -24 23 -33q33 -15 108 -10q10 1 61 0q34 0 42 5q3 129 3 191q0 47 2.5 145.5
t2.5 145.5q0 19 -1.5 56t-1.5 56q0 43 10 62q14 25 54 25q52 0 48 -60q0 -6 -2 -30l-10 -174q-4 -54 -17 -153q-5 -42 -5 -157q0 -116 33 -116q196 0 266 7q18 1 17 79l-20 294q-1 11 -9 102q-7 69 -7 103q0 53 38 53q63 0 61 -98q-2 -83 -2 -141q0 -163 20 -330
q7 -66 7 -87q0 -40 -25 -40q-13 0 -30.5 -1t-34.5 -1zM425 3z" />
    <glyph glyph-name="Ugrave" unicode="&#x429;" horiz-adv-x="951" 
d="M121 -7q-48 -3 -64 54q-8 32 -8 97q0 52 6 126q11 147 11 286q0 19 -1.5 56.5t-1.5 56.5q0 42 11 61q15 27 55 27q50 0 50 -53q0 -7 -1.5 -20t-1.5 -18q-12 -213 -27 -330q-12 -94 -12 -154q0 -66 29 -81q16 -9 89 -9q66 0 106 17q18 8 18 62q0 14 -2 43t-2 43
q0 51 6 153t6 153q0 19 -1.5 56.5t-1.5 56.5q0 45 10 63q15 25 56 25q48 0 48 -51q0 -3 -2 -40q-6 -110 -27 -329q-12 -99 -12 -155q0 -65 27 -80q17 -10 87 -10q33 0 109 8.5t111 15.5l-26 329l-10 102q-6 62 -6 103q0 54 39 54q63 0 62 -98q-1 -74 -1 -142q0 -221 21 -355
q1 -9 47 -20.5t51 -17.5q18 -22 18 -73q0 -50 -20 -98q-14 -32 -24 -32q-18 0 -53 12q-38 13 -43 26q44 87 44 108q0 8 -49 21z" />
    <glyph glyph-name="Ugrave" unicode="&#x449;" horiz-adv-x="951" 
d="M121 -7q-48 -3 -64 54q-8 32 -8 97q0 52 6 126q11 147 11 286q0 19 -1.5 56.5t-1.5 56.5q0 42 11 61q15 27 55 27q50 0 50 -53q0 -7 -1.5 -20t-1.5 -18q-12 -213 -27 -330q-12 -94 -12 -154q0 -66 29 -81q16 -9 89 -9q66 0 106 17q18 8 18 62q0 14 -2 43t-2 43
q0 51 6 153t6 153q0 19 -1.5 56.5t-1.5 56.5q0 45 10 63q15 25 56 25q48 0 48 -51q0 -3 -2 -40q-6 -110 -27 -329q-12 -99 -12 -155q0 -65 27 -80q17 -10 87 -10q33 0 109 8.5t111 15.5l-26 329l-10 102q-6 62 -6 103q0 54 39 54q63 0 62 -98q-1 -74 -1 -142q0 -221 21 -355
q1 -9 47 -20.5t51 -17.5q18 -22 18 -73q0 -50 -20 -98q-14 -32 -24 -32q-18 0 -53 12q-38 13 -43 26q44 87 44 108q0 8 -49 21z" />
    <glyph glyph-name="Uacute" unicode="&#x42a;" horiz-adv-x="610" 
d="M567 220q0 -100 -81 -165q-75 -62 -177 -62q-115 0 -202 51q-12 7 -20 34q-7 22 -7 39q0 24 13 24q4 0 11 -3l7 -6q3 69 3 140q0 175 -8 269q-1 17 -13 110q-2 22 -31 22q-12 0 -36 -6.5t-36 -6.5q-7 0 -8 18q-1 12 -1 24q-4 32 -4 50q0 44 16 43q25 21 70 21
q57 0 96 -29q44 -32 44 -87q0 -16 -4 -33q1 -14 2 -50q1 -22 -3 -98q-1 -24 -4.5 -38.5t-3.5 -23.5q0 -35 3 -64q-8 4 12 5h28q29 2 65 2q70 0 135 -10q63 -17 98.5 -62t35.5 -108zM467 194q0 58 -84 83q-55 15 -127 15q-27 0 -57 -2q10 -123 17 -205q36 -9 71 -9
q58 0 114 28q66 34 66 90z" />
    <glyph glyph-name="Uacute" unicode="&#x44a;" horiz-adv-x="610" 
d="M567 220q0 -100 -81 -165q-75 -62 -177 -62q-115 0 -202 51q-12 7 -20 34q-7 22 -7 39q0 24 13 24q4 0 11 -3l7 -6q3 69 3 140q0 175 -8 269q-1 17 -13 110q-2 22 -31 22q-12 0 -36 -6.5t-36 -6.5q-7 0 -8 18q-1 12 -1 24q-4 32 -4 50q0 44 16 43q25 21 70 21
q57 0 96 -29q44 -32 44 -87q0 -16 -4 -33q1 -14 2 -50q1 -22 -3 -98q-1 -24 -4.5 -38.5t-3.5 -23.5q0 -35 3 -64q-8 4 12 5h28q29 2 65 2q70 0 135 -10q63 -17 98.5 -62t35.5 -108zM467 194q0 58 -84 83q-55 15 -127 15q-27 0 -57 -2q10 -123 17 -205q36 -9 71 -9
q58 0 114 28q66 34 66 90z" />
    <glyph glyph-name="Ucircumflex" unicode="&#x42b;" horiz-adv-x="826" 
d="M752 56q-18 -27 -42 -27q-62 0 -62 130q0 14 1 40.5t1 40.5q0 38 2 166q2 151 3 140q-2 107 -8 158l-10 83q0 31 45 31q23 0 42.5 -13.5t19.5 -36.5q0 -4 -1 -15v-15q0 -16 3 -51.5t3 -54.5q-11 -223 -10 -320q1 -134 13 -256zM603 218q0 -107 -91 -175q-82 -62 -193 -62
q-129 0 -222 54q-13 8 -22 34q-8 23 -8 42q0 24 14 24q6 0 13 -3l7 -6q4 72 4 146q0 126 -12 272q-4 38 -14.5 117t-10.5 111q0 17 18 27q15 8 34 8q37 0 58 -27t21 -66q0 -17 -4 -37q3 -25 3 -52q0 -34 -4 -103q-1 -25 -3 -35.5t-2 -20.5q0 -36 2 -67q-2 2 12 3
q129 12 254 -6q66 -17 106 -64t40 -114zM494 191q0 62 -93 87q-59 16 -140 16q-30 0 -62 -2q10 -129 18 -215q39 -10 78 -10q63 0 125 30q74 36 74 94z" />
    <glyph glyph-name="Ucircumflex" unicode="&#x44b;" horiz-adv-x="826" 
d="M752 56q-18 -27 -42 -27q-62 0 -62 130q0 14 1 40.5t1 40.5q0 38 2 166q2 151 3 140q-2 107 -8 158l-10 83q0 31 45 31q23 0 42.5 -13.5t19.5 -36.5q0 -4 -1 -15v-15q0 -16 3 -51.5t3 -54.5q-11 -223 -10 -320q1 -134 13 -256zM603 218q0 -107 -91 -175q-82 -62 -193 -62
q-129 0 -222 54q-13 8 -22 34q-8 23 -8 42q0 24 14 24q6 0 13 -3l7 -6q4 72 4 146q0 126 -12 272q-4 38 -14.5 117t-10.5 111q0 17 18 27q15 8 34 8q37 0 58 -27t21 -66q0 -17 -4 -37q3 -25 3 -52q0 -34 -4 -103q-1 -25 -3 -35.5t-2 -20.5q0 -36 2 -67q-2 2 12 3
q129 12 254 -6q66 -17 106 -64t40 -114zM494 191q0 62 -93 87q-59 16 -140 16q-30 0 -62 -2q10 -129 18 -215q39 -10 78 -10q63 0 125 30q74 36 74 94z" />
    <glyph glyph-name="Udieresis" unicode="&#x42c;" horiz-adv-x="653" 
d="M603 218q0 -107 -91 -175q-82 -62 -193 -62q-129 0 -222 54q-13 8 -22 34q-8 23 -8 42q0 24 14 24q6 0 13 -3l7 -6q4 72 4 146q0 125 -14 290q-3 38 -14 117t-11 111q0 17 18 27q15 8 34 8q38 0 58.5 -27t20.5 -66q0 -17 -4 -37q3 -25 3 -52q0 -34 -3.5 -101.5
t-3.5 -75.5q0 -36 2 -67q-2 2 12 3q129 12 254 -6q66 -17 106 -64t40 -114zM494 191q0 62 -93 87q-59 16 -140 16q-30 0 -62 -2q10 -129 18 -215q39 -10 78 -10q63 0 125 30q74 36 74 94z" />
    <glyph glyph-name="Udieresis" unicode="&#x44c;" horiz-adv-x="653" 
d="M603 218q0 -107 -91 -175q-82 -62 -193 -62q-129 0 -222 54q-13 8 -22 34q-8 23 -8 42q0 24 14 24q6 0 13 -3l7 -6q4 72 4 146q0 125 -14 290q-3 38 -14 117t-11 111q0 17 18 27q15 8 34 8q38 0 58.5 -27t20.5 -66q0 -17 -4 -37q3 -25 3 -52q0 -34 -3.5 -101.5
t-3.5 -75.5q0 -36 2 -67q-2 2 12 3q129 12 254 -6q66 -17 106 -64t40 -114zM494 191q0 62 -93 87q-59 16 -140 16q-30 0 -62 -2q10 -129 18 -215q39 -10 78 -10q63 0 125 30q74 36 74 94z" />
    <glyph glyph-name="Yacute" unicode="&#x42d;" 
d="M554 370l-9 -2l-102 -23q-104 -22 -267 -22q-110 0 -110 72q0 34 28 34q110 0 426 35q-50 98 -135 138q-54 26 -161 42q-13 2 -19 2q-19 0 -34 -23q-13 -19 -15 -40q-1 -9 1.5 -27t1.5 -27q-1 -11 -7 -11t-17 9q-29 23 -53 82.5t-21 97.5q3 29 36 42q58 22 139 22
q193 0 318 -168q104 -140 104 -309q0 -16 -3 -49q-11 -120 -71 -188q-66 -75 -183 -75q-75 0 -165 32q-81 29 -151 75q-32 21 -28 70q3 31 18 31q10 0 58 -34q59 -42 99 -63q66 -35 118 -35q33 0 61 11q135 53 149 205q5 50 -6 96z" />
    <glyph glyph-name="Yacute" unicode="&#x44d;" 
d="M554 370l-9 -2l-102 -23q-104 -22 -267 -22q-110 0 -110 72q0 34 28 34q110 0 426 35q-50 98 -135 138q-54 26 -161 42q-13 2 -19 2q-19 0 -34 -23q-13 -19 -15 -40q-1 -9 1.5 -27t1.5 -27q-1 -11 -7 -11t-17 9q-29 23 -53 82.5t-21 97.5q3 29 36 42q58 22 139 22
q193 0 318 -168q104 -140 104 -309q0 -16 -3 -49q-11 -120 -71 -188q-66 -75 -183 -75q-75 0 -165 32q-81 29 -151 75q-32 21 -28 70q3 31 18 31q10 0 58 -34q59 -42 99 -63q66 -35 118 -35q33 0 61 11q135 53 149 205q5 50 -6 96z" />
    <glyph glyph-name="Thorn" unicode="&#x42e;" horiz-adv-x="1146" 
d="M197 35q-17 -26 -42 -26q-61 0 -61 130q0 14 1 40.5t1 40.5q0 42 -1 83q-39 13 -39 51q0 27 22 27h15q-6 133 -19 238l-10 83q0 31 45 31q24 0 43.5 -13t19.5 -36q0 -5 -1 -16v-15q0 -20 3 -53q3 -40 3 -53q1 -40 5 -158l135 16q5 111 100 219q70 79 166 134
q108 62 201 62q131 0 216 -132q74 -116 73 -254q-1 -166 -110 -312q-118 -158 -279 -158q-133 0 -248 139q-88 107 -111 221q-28 -6 -105 -22q-27 -5 -36 -5l1 -6q4 -175 12 -256zM984 452q-8 91 -56 156q-55 76 -141 76q-80 0 -177 -60q-87 -54 -142 -125q-65 -84 -58 -162
q8 -96 89 -187q86 -95 179 -95q131 0 248 167q32 46 47.5 109t10.5 121z" />
    <glyph glyph-name="Thorn" unicode="&#x44e;" horiz-adv-x="1146" 
d="M197 35q-17 -26 -42 -26q-61 0 -61 130q0 14 1 40.5t1 40.5q0 42 -1 83q-39 13 -39 51q0 27 22 27h15q-6 133 -19 238l-10 83q0 31 45 31q24 0 43.5 -13t19.5 -36q0 -5 -1 -16v-15q0 -20 3 -53q3 -40 3 -53q1 -40 5 -158l135 16q5 111 100 219q70 79 166 134
q108 62 201 62q131 0 216 -132q74 -116 73 -254q-1 -166 -110 -312q-118 -158 -279 -158q-133 0 -248 139q-88 107 -111 221q-28 -6 -105 -22q-27 -5 -36 -5l1 -6q4 -175 12 -256zM984 452q-8 91 -56 156q-55 76 -141 76q-80 0 -177 -60q-87 -54 -142 -125q-65 -84 -58 -162
q8 -96 89 -187q86 -95 179 -95q131 0 248 167q32 46 47.5 109t10.5 121z" />
    <glyph glyph-name="germandbls" unicode="&#x42f;" horiz-adv-x="620" 
d="M563 688q0 -35 -10 -110q-12 -91 -14 -113q-12 -149 -9 -255l1 -36q0 -6 1 -28q1 -17 1 -28q0 -137 -43 -137q-32 0 -57 75q5 46 5 79q0 73 -32 73q-42 0 -112 -117q-42 -71 -81 -160q-27 -63 -65 -63q-45 0 -52 56q119 230 169 345q-94 48 -152 118q-67 81 -67 176
t80 151q71 50 170 50q93 0 220 -46q7 1 14 1q33 0 33 -31zM474 622q-122 29 -198 29q-53 0 -89 -19q-46 -24 -46 -73q0 -78 120 -176q90 -73 191 -89z" />
    <glyph glyph-name="germandbls" unicode="&#x44f;" horiz-adv-x="620" 
d="M563 688q0 -35 -10 -110q-12 -91 -14 -113q-12 -149 -9 -255l1 -36q0 -6 1 -28q1 -17 1 -28q0 -137 -43 -137q-32 0 -57 75q5 46 5 79q0 73 -32 73q-42 0 -112 -117q-42 -71 -81 -160q-27 -63 -65 -63q-45 0 -52 56q119 230 169 345q-94 48 -152 118q-67 81 -67 176
t80 151q71 50 170 50q93 0 220 -46q7 1 14 1q33 0 33 -31zM474 622q-122 29 -198 29q-53 0 -89 -19q-46 -24 -46 -73q0 -78 120 -176q90 -73 191 -89z" />
    <glyph glyph-name="afii10071" unicode="&#x451;" horiz-adv-x="634" 
d="M510 1018q44 0 44 -38q0 -30 -27 -77.5t-52.5 -63t-53.5 -15.5q-34 0 -34 38t28.5 87.5t61.5 63.5q12 5 33 5zM266 1004q44 0 44 -37q0 -30 -27 -78t-52.5 -63t-53.5 -15q-34 0 -34 38q0 37 28 86.5t61 63.5q12 5 34 5zM593 64q0 -28 -27 -28q-19 0 -56 4.5t-56 4.5
q-143 0 -294 -55q-17 -24 -41 -24q-60 0 -60 131q0 14 1.5 41t1.5 41q0 147 -9 257q-5 62 -16 155l-8 68q0 29 43 30q210 87 355 87q63 0 89 -13q39 -20 39 -77q0 -49 -28 -49q-4 0 -18 3q-44 9 -90 9q-134 0 -273 -68q4 -103 6 -270q75 10 197 38l194 45q23 -5 37 -33
q12 -24 12 -50q0 -49 -29 -49q-7 0 -16 4h-22q-175 0 -371 -78v-29q0 -32 1 -53q134 31 263 31q89 0 109 -4q66 -13 66 -69z" />
    <glyph glyph-name="afii10101" unicode="&#x454;" 
d="M155 274q14 -152 149 -205q28 -11 61 -11q52 0 118 35q40 21 99 63q48 34 58 34q15 0 18 -31q4 -49 -28 -70q-70 -46 -151 -75q-90 -32 -165 -32q-117 0 -183 75q-60 68 -71 188q-3 33 -3 49q0 169 104 309q125 168 318 168q81 0 139 -22q33 -13 36 -42q3 -38 -21 -97.5
t-53 -82.5q-11 -9 -17 -9t-7 11q-1 9 1.5 27t1.5 27q-2 21 -15 40q-15 23 -34 23q-6 0 -19 -2q-107 -16 -161 -42q-85 -40 -135 -138q316 -35 426 -35q28 0 28 -34q0 -72 -110 -72q-163 0 -267 22l-102 23l-9 2q-11 -46 -6 -96z" />
    <glyph glyph-name="afii10103" unicode="&#x456;" horiz-adv-x="341" 
d="M205 35q-17 -26 -43 -26q-60 0 -60 130q0 14 1 40.5t1 40.5q0 216 -22 399l-10 83q0 31 45 31q23 0 43 -13.5t20 -35.5q0 -5 -1 -16v-15q0 -27 2 -53l4 -53q1 -46 6 -256q4 -149 14 -256z" />
    <glyph glyph-name="afii10104" unicode="&#x457;" horiz-adv-x="341" 
d="M322 1007q43 0 43 -37q0 -30 -26.5 -77.5t-51.5 -63.5t-54 -16q-35 0 -35 39q0 37 29.5 86t61.5 64q11 5 33 5zM78 993q43 0 43 -37q0 -29 -26.5 -77t-51.5 -63.5t-54 -15.5q-35 0 -35 38t29 86.5t62 63.5q11 5 33 5zM205 35q-17 -26 -43 -26q-60 0 -60 130q0 14 1 40.5
t1 40.5q0 216 -22 399l-10 83q0 31 45 31q23 0 43 -13.5t20 -35.5q0 -5 -1 -16v-15q0 -27 2 -53l4 -53q1 -46 6 -256q4 -149 14 -256z" />
    <glyph glyph-name="afii10110" unicode="&#x45e;" horiz-adv-x="688" 
d="M628 738q0 -29 -18 -68q-44 -95 -147 -332q-48 -110 -89 -240q-9 -33 -37 -119q-12 -25 -34 -25t-41.5 18t-19.5 40q0 11 17 44q6 12 54 145q-152 121 -218 377l-23 90q-20 54 -20 64q0 38 46 38q29 0 58 -33q26 -29 34 -60q2 -20 7 -79q25 -246 152 -299q56 165 159 446
q25 68 69 68q25 0 39 -26q12 -22 12 -49zM506 832q-1 -14 -13 -25.5t-26 -11.5q-3 0 -60.5 28t-85.5 28q-21 0 -48 -25.5t-38 -25.5q-32 0 -75 28q-86 56 -89 59q-8 9 -7 24q3 34 28 34h5q84 -71 116 -71q13 0 23 18q16 29 20 33q16 18 43 18q63 0 195 -74q14 -20 12 -37z
" />
    <glyph glyph-name="afii10050" unicode="&#x490;" horiz-adv-x="539" 
d="M154 -14q-18 -27 -43 -27q-61 0 -61 130q0 14 1.5 41t1.5 41q0 139 -9 258q-3 34 -13 112q-10 75 -10 111t42 31q209 87 355 87q65 0 90 -13q38 -20 38 -78q0 -49 -27 -49q-5 0 -18 3q-44 10 -90 10q-148 0 -300 -81q5 -83 20 -290zM562 843q43 0 43 -37
q0 -30 -26.5 -77.5t-52 -63t-52.5 -15.5q-36 0 -36 38t31 90q33 56 68 63q9 2 25 2z" />
    <glyph glyph-name="afii10098" unicode="&#x491;" horiz-adv-x="539" 
d="M154 -14q-18 -27 -43 -27q-61 0 -61 130q0 14 1.5 41t1.5 41q0 139 -9 258q-3 34 -13 112q-10 75 -10 111t42 31q209 87 355 87q65 0 90 -13q38 -20 38 -78q0 -49 -27 -49q-5 0 -18 3q-44 10 -90 10q-148 0 -300 -81q5 -83 20 -290zM562 843q43 0 43 -37
q0 -30 -26.5 -77.5t-52 -63t-52.5 -15.5q-36 0 -36 38t31 90q33 56 68 63q9 2 25 2z" />
    <glyph glyph-name="NULL" horiz-adv-x="0" 
 />
    <glyph glyph-name="glyph127" horiz-adv-x="500" 
 />
    <glyph glyph-name="glyph128" horiz-adv-x="500" 
 />
    </font>
</defs>
</svg>
