<?xml version="1.0" encoding="utf-8"?>
<!-- Generator: Adobe Illustrator 17.0.0, SVG Export Plug-In . SVG Version: 6.00 Build 0)  -->
<!DOCTYPE svg PUBLIC "-//W3C//DTD SVG 1.1//EN" "http://www.w3.org/Graphics/SVG/1.1/DTD/svg11.dtd">
<svg version="1.1" id="Layer_1" xmlns="http://www.w3.org/2000/svg" xmlns:xlink="http://www.w3.org/1999/xlink" x="0px" y="0px"
	 width="754.887px" height="755.24px" viewBox="-1069.002 15 754.887 755.24" enable-background="new -1069.002 15 754.887 755.24"
	 xml:space="preserve">
<g>
	<g>
		<path fill="#F0CCB2" d="M-543.066,15c8.237,4.551,11,11.563,10.14,20.76c-0.585,6.258-0.052,12.616-0.134,18.927
			c-0.107,8.179-6.587,14.432-14.706,14.317c-7.968-0.113-14.184-6.211-14.298-14.205c-0.101-7.142,0.281-14.303-0.111-21.425
			c-0.486-8.838,2.693-15.097,11.11-18.374C-548.399,15-545.732,15-543.066,15z"/>
		<path fill="#F0CCB2" d="M-491.146,83.779c-0.057-3.932,1.475-7.609,4.136-9.892c7.653-6.566,15.413-13.079,23.934-18.533
			c6.394-4.093,13.638-2.785,18.185,2.932c5.179,6.511,5.285,13.847-0.29,19.252c-7.388,7.164-15.715,13.242-24.116,19.151
			c-4.477,3.149-9.478,2.557-14.116,0.074C-488.522,94.028-490.805,89.434-491.146,83.779z"/>
		<path fill="#F0CCB2" d="M-603.953,83.011c-0.187,6.889-3.334,10.955-7.859,13.716c-4.485,2.737-9.662,3.161-14.07-0.067
			c-8.281-6.063-16.459-12.306-24.264-18.963c-5.274-4.498-5.207-13.067-0.667-19.141c4.211-5.634,12.693-7.657,18.751-3.381
			c8.503,6.002,16.602,12.631,24.445,19.482C-605.145,76.814-603.617,80.391-603.953,83.011z"/>
		<path fill="#F0CCB2" d="M-314.88,253.353c-1.065-13.856-3.247-27.345-8.373-40.251c-9.433-23.752-28.845-38.602-55.657-38.206
			c-25.822,0.382-51.654,0.083-77.482,0.083c-8.549,0-8.542,0-8.655-8.325c-0.02-1.497,0.017-3.015-0.214-4.486
			c-3.199-20.33-11.749-37.736-27.444-51.501c-17.19-15.077-37-22.163-59.82-20.74c-20.133,1.255-37.551,8.584-52.173,22.728
			c-15.904,15.383-24.594,33.876-25.387,56c-0.226,6.316-0.089,6.323-6.67,6.324c-33.16,0.007-66.32-0.042-99.479,0.055
			c-8.402,0.025-16.581,1.876-24.026,5.705c-23.155,11.907-35.573,30.811-35.799,57.105c-0.182,21.161-0.191,42.326,0.078,63.485
			c0.061,4.754-1.457,5.757-5.909,5.73c-29.826-0.179-59.654-0.223-89.48-0.014c-11.089,0.077-21.01,4.14-30.029,10.573
			c-12.05,8.595-17.558,21.179-21.859,34.674c-7.256,22.769-14.675,45.486-22.158,68.182c-8.059,24.444-16.754,48.692-24.166,73.328
			c-2.795,9.29-7.906,13.919-16.861,15.443c-0.976,0.167-1.925,0.496-2.889,0.74c-29.597,7.476-49.936,24.565-57.331,55.141
			c-0.418,1.729-0.641,3.652-2.337,4.804c0,1,0,2-0.002,2.999c1.085,2.291,0.265,4.72,0.515,7.067
			c-0.001,26.185,0.012,52.374-0.025,78.564c-0.002,1.784,0.486,3.649-0.49,5.357c0,0.667,0,1.333,0,2
			c1.86,2.068,2.103,4.815,2.926,7.284c5.667,16.997,23.855,31.359,42.77,30.914c20.484-0.481,40.99,0.023,61.483-0.212
			c4.235-0.049,5.974,1.494,6.757,5.362c1.972,9.737,6.334,18.482,12.011,26.522c18.797,26.621,50.831,39.083,80.775,32.566
			c31.958-6.956,52.828-26.624,61.902-58.179c1.444-5.021,3.683-6.283,8.637-6.272c72.151,0.157,144.302,0.107,216.454,0.108
			c1.333,0.001,2.666-0.009,3.999,0.019c2.897,0.061,4.538,1.506,5.212,4.366c4.013,17.027,12.749,31.101,26.211,42.346
			c23.636,19.743,50.455,24.514,78.887,14.22c26.218-9.492,43.418-28.684,50.298-56.171c0.996-3.976,2.729-4.9,6.476-4.855
			c14.162,0.17,28.33,0.235,42.489-0.035c11.747-0.224,21.974-4.674,30.696-12.534c12.222-11.015,16.809-25.302,16.822-41.175
			c0.095-117.475,0.096-234.951-0.004-352.426C-314.214,282.967-313.741,268.176-314.88,253.353z M-601.057,170.472
			c1.601-32.423,30.745-55.874,61.144-50.67c25.48,4.361,42.216,21.923,45.696,47.781c0.922,6.851,0.452,7.395-6.413,7.396
			c-15.664,0.002-31.329,0.001-46.994,0.001c-16.331,0-32.663-0.093-48.993,0.072C-600.173,175.088-601.228,173.936-601.057,170.472
			z M-960.356,498.323c9.958-29.897,19.759-59.846,29.62-89.776c6.232-18.916,12.509-37.816,18.723-56.738
			c2.753-8.385,13.615-15.728,24.011-15.757c28.984-0.082,57.969,0.037,86.952-0.103c4.116-0.02,5.029,1.615,5.013,5.347
			c-0.114,26.152-0.06,52.305-0.06,78.457c0,25.986-0.08,51.972,0.084,77.957c0.025,4.041-0.958,5.413-5.23,5.402
			c-51.971-0.141-103.944-0.144-155.915,0.002C-961.602,503.126-961.519,501.813-960.356,498.323z M-877.873,740.513
			c-27.743,0.003-50.468-22.147-50.237-51.648c0.214-27.279,23.272-50.292,50.983-49.826c27.509,0.464,50.113,22.572,50.128,50.807
			C-827.355,717.972-848.723,740.51-877.873,740.513z M-438.007,690.082c0.572,28.243-22.553,50.862-50.673,50.408
			c-29.415-0.474-50.141-22.526-50.223-51.215c-0.082-28.871,23.79-50.444,51.221-50.205
			C-459.812,639.314-436.91,662.99-438.007,690.082z M-344.076,652.386c-0.004,14.015-8.423,22.402-22.402,22.532
			c-12.996,0.121-25.996-0.114-38.989,0.126c-3.47,0.064-4.443-1.368-5.23-4.329c-8.467-31.873-29.12-52.004-60.911-59.191
			c-26.372-5.962-50.428,0.862-70.709,19.209c-12.019,10.872-20.062,24.239-23.661,40.096c-0.745,3.283-2.289,4.18-5.492,4.177
			c-74.316-0.074-148.632-0.094-222.947,0.043c-4.112,0.008-4.846-2.021-5.675-5.167c-6.099-23.142-19.895-40.523-41.056-51.303
			c-26.091-13.291-52.556-12.283-77.657,2.527c-18.528,10.932-30.976,27.323-36.123,48.585c-0.929,3.839-2.28,5.426-6.555,5.37
			c-19.659-0.256-39.323-0.096-58.985-0.119c-11.758-0.013-18.564-6.797-18.581-18.621c-0.037-25.161-0.065-50.322,0.021-75.482
			c0.069-20.107,13.658-36.573,33.363-41.048c5.157-1.171,10.229-2.867,15.179-4.747c3.484-1.323,6.889-2.138,10.64-2.136
			c87.981,0.053,175.961,0.041,263.94,0.041c88.146,0,176.292,0.002,264.438-0.004c7.775-0.001,12.974-3.249,15.393-9.532
			c3.803-9.88-3.355-19.396-15.349-20.36c-1.49-0.12-2.998-0.031-4.498-0.031c-101.476-0.001-202.952,0-304.428-0.001
			c-6.623,0-6.625-0.004-6.625-6.832c-0.001-85.147-0.003-170.293,0.001-255.44c0.001-22.627,14.055-36.71,36.619-36.71
			c115.806-0.001,231.612,0,347.418,0c18.923,0,28.127,6.875,34.048,25.076c3.166,9.731,4.682,19.79,4.695,29.868
			C-344.018,390.117-344.043,521.252-344.076,652.386z"/>
		<path fill="#F0CCB2" d="M-376.068,518.272c0.042,8.203-6.195,14.612-14.286,14.68c-8.431,0.071-14.773-6.225-14.746-14.638
			c0.026-8.134,6.335-14.443,14.46-14.457C-382.521,503.842-376.11,510.184-376.068,518.272z"/>
		<path fill="#F0CCB2" d="M-454.103,362.369c14.975-9.137,21.744-22.909,19.793-40.035c-1.864-16.358-11.308-27.694-27.024-33.258
			c-2.847-1.008-3.769-2.369-3.853-5.359c-0.382-13.628-5.556-25.179-15.883-34.215c-8.894-7.783-19.55-11.577-31.143-11.118
			c-13.447,0.533-25.054,5.976-33.751,16.635c-1.43,1.752-2.249,1.363-3.445-0.038c-10.422-12.205-23.54-17.772-39.621-16.085
			c-22.667,2.378-39.439,19.804-40.798,43.011c-0.28,4.774-1.874,6.445-6.017,7.962c-11.072,4.054-18.926,12.135-22.817,22.993
			c-7.106,19.83,0.113,38.73,18.151,49.796c2.376,1.457,2.491,2.339,0.808,4.512c-9.301,12.009-13.068,25.892-13.379,38.661
			c-0.062,21.285,6.575,37.849,19.927,51.22c22.258,22.286,53.568,27.045,81.708,12.983c2.874-1.437,5.014-1.406,7.806,0.049
			c14.358,7.482,29.752,10.123,45.458,6.539c29.035-6.625,47.816-24.965,54.656-53.8c4.675-19.712,0.408-38.673-11.679-55.327
			C-457.207,364.738-456.737,363.976-454.103,362.369z M-510.987,267.989c9.361,0.033,16.129,6.827,15.945,16.006
			c-0.185,9.216-7.464,16.135-16.831,15.999c-8.807-0.128-15.307-7.096-15.179-16.272
			C-526.932,275.113-519.627,267.958-510.987,267.989z M-584.124,267.989c8.652-0.008,15.92,7.114,16.049,15.726
			c0.136,9.143-6.728,16.251-15.724,16.284c-9.299,0.034-16.254-6.98-16.286-16.426
			C-600.115,274.897-593.048,267.997-584.124,267.989z M-631.936,327.032c-0.024-5.375,5.86-11.075,11.385-11.03
			c5.787,0.048,10.634,5.27,10.583,11.403c-0.058,6.956-3.866,10.678-10.873,10.627
			C-627.039,337.987-631.908,333.159-631.936,327.032z M-506.531,448.011c-11.776,1.569-21.875-1.833-31.045-8.983
			c-6.672-5.202-12.447-5.469-19.605-0.229c-6.576,4.814-13.469,8.297-21.677,9.263c-13.569,1.597-24.953-2.869-34.053-12.601
			c-19.349-20.692-11.601-52.836,12.256-63.543c7.893-3.542,12.061-8.793,13.682-17.366c3.036-16.058,12.906-26.399,28.596-31.389
			c21.041-6.692,46.867,8.524,50.035,30.396c1.36,9.388,6.004,14.713,14.288,18.556c15.463,7.173,21.748,20.519,22.921,36.826
			C-472.65,430.43-487.38,445.46-506.531,448.011z M-474.889,338.026c-6.647-0.104-10.336-4.157-10.256-11.266
			c0.065-5.758,5.117-10.83,10.711-10.755c5.827,0.079,11.494,5.944,11.281,11.675
			C-463.372,333.555-468.555,338.125-474.889,338.026z"/>
	</g>
</g>
</svg>
