<?xml version="1.0" encoding="utf-8"?>
<!-- Generator: Adobe Illustrator 17.0.0, SVG Export Plug-In . SVG Version: 6.00 Build 0)  -->
<!DOCTYPE svg PUBLIC "-//W3C//DTD SVG 1.1//EN" "http://www.w3.org/Graphics/SVG/1.1/DTD/svg11.dtd">
<svg version="1.1" id="Layer_1" xmlns="http://www.w3.org/2000/svg" xmlns:xlink="http://www.w3.org/1999/xlink" x="0px" y="0px"
	 width="737.759px" height="737.309px" viewBox="-1218.388 14.236 737.759 737.309"
	 enable-background="new -1218.388 14.236 737.759 737.309" xml:space="preserve">
<g>
	<g>
		<path fill="#F5DECD" d="M-1217.446,362.141c-0.358,4.68,1.077,9.481-0.942,14.05c0-4.666,0-9.332,0-13.998
			C-1218.103,361.635-1217.788,361.643-1217.446,362.141z"/>
		<path fill="#F4DBC9" d="M-1218.388,389.189c2.041,4.565,0.575,9.368,0.956,14.046c-0.349,0.594-0.668,0.578-0.956-0.048
			C-1218.388,398.521-1218.388,393.855-1218.388,389.189z"/>
		<path fill="#F5DFCE" d="M-859.433,14.236c-3.538,1.961-7.363,0.608-11.04,0.954c-0.6-0.345-0.586-0.663,0.042-0.954
			C-866.765,14.236-863.099,14.236-859.433,14.236z"/>
		<path fill="#F5DFCE" d="M-829.395,15.19c-3.678-0.346-7.502,1.007-11.04-0.954c3.666,0,7.332,0,10.999,0
			C-828.809,14.527-828.796,14.845-829.395,15.19z"/>
		<path fill="#FBF3EE" d="M-870.432,14.236c-0.002,0.319-0.015,0.637-0.041,0.955c-2.987,0.014-5.973,0.028-8.959,0.042
			c0.002-0.332,0.002-0.665,0.001-0.997C-876.431,14.236-873.431,14.236-870.432,14.236z"/>
		<path fill="#FBF3EE" d="M-829.395,15.19c-0.025-0.317-0.039-0.635-0.042-0.954c3,0,5.999,0,8.999,0
			c-0.001,0.332-0.001,0.665,0.001,0.997C-823.423,15.218-826.409,15.204-829.395,15.19z"/>
		<path fill="#FAF1EA" d="M-1217.446,362.141c-0.314,0.019-0.628,0.036-0.942,0.051c0-2.666,0-5.333,0-7.999
			c0.325-0.004,0.65-0.007,0.975-0.011C-1217.424,356.835-1217.435,359.488-1217.446,362.141z"/>
		<path fill="#FAF1EA" d="M-1218.388,403.187c0.319,0.009,0.638,0.024,0.957,0.047c0.006,2.654,0.012,5.308,0.018,7.962
			c-0.325-0.003-0.65-0.007-0.975-0.011C-1218.388,408.52-1218.388,405.854-1218.388,403.187z"/>
		<path fill="#F0CCB2" d="M-482.221,341.062c-2.921-34.92-12.179-68.482-25.701-100.806c-15.689-37.507-36.928-71.537-63.95-101.99
			c-23.146-26.085-49.116-48.85-78.461-67.666c-32.787-21.023-68.084-36.397-105.778-46.332c-21.337-5.624-42.93-9.173-65.012-9.53
			c-2.78,0-5.563,0-8.345,0c-3.651-0.259-7.352,0.563-10.967-0.502c-6.333,0-12.665,0-18.998,0
			c-3.632,1.065-7.351,0.243-11.02,0.503c-2.775,0-5.548,0-8.325,0c-17.324,0.555-34.423,2.521-51.388,6.334
			c-25.79,5.797-50.723,14.013-74.675,25.096c-38.429,17.782-72.822,41.456-103.111,71.13
			c-20.675,20.255-39.07,42.322-54.615,66.732c-21.473,33.718-37.002,70.024-46.794,108.762c-5.151,20.379-8.351,41.06-8.525,62.135
			c0,2.499,0,5.002,0,7.502c-0.282,4.581,0.595,9.207-0.502,13.761c0,4.332,0,8.665,0,12.998c1.097,4.587,0.22,9.246,0.503,13.863
			c0,2.524,0,5.046,0,7.571c0.257,7.475,0.634,14.941,1.322,22.385c1.601,17.317,5.642,34.143,10.325,50.84
			c12.707,45.309,33.561,86.517,62.16,123.857c15.251,19.912,32.553,37.865,51.324,54.456
			c22.723,20.084,47.709,36.826,74.661,50.652c24.709,12.675,50.59,22.325,77.504,29.112c19.397,4.892,39.052,8.514,59.097,9.155
			c18.292,0.585,36.589,0.571,54.905,0.219c24.323-0.467,48.033-4.271,71.429-10.513c67.327-17.964,125.015-52.239,173.173-102.579
			c21.178-22.137,39.413-46.439,54.415-73.196c25.69-45.821,42.006-94.51,45.615-147.148
			C-480.2,392.259-480.087,366.578-482.221,341.062z M-881.026,717.585c-16.04-1.753-31.996-4.067-47.661-7.861
			c-17.133-4.149-33.913-9.56-50.205-16.376c-34.482-14.427-65.826-33.817-93.758-58.747
			c-38.067-33.977-67.379-74.131-87.316-121.206c-10.378-24.504-17.252-49.931-22.026-75.99c-1.494-8.157-2.303-16.446-3.246-24.695
			c-0.719-6.294-0.347-6.789,5.837-6.44c16.968,0.958,33.567,4.046,50.052,8.234c19.293,4.902,37.707,12.032,55.556,20.617
			c20.874,10.041,40.464,22.279,58.986,36.212c17.863,13.437,34.357,28.421,49.623,44.704c21.352,22.773,39.74,47.738,54.822,75.144
			c12.736,23.142,22.727,47.361,29.278,72.924c3.962,15.458,6.736,31.178,7.603,46.607
			C-873.345,718.766-873.315,718.428-881.026,717.585z M-816.46,717.311c-6.779,1.186-13.651,0.181-20.375,1.584
			c-3.186,0.665-4.539-0.85-4.595-4.093c-0.31-18.032-3.11-35.771-7.253-53.252c-3.799-16.026-9.083-31.605-15.212-46.944
			c-8.931-22.351-20.144-43.451-33.237-63.565c-10.617-16.312-22.434-31.748-35.288-46.387
			c-12.753-14.523-26.356-28.21-40.966-40.83c-19.916-17.203-41.136-32.656-64.051-45.691
			c-24.531-13.954-50.252-25.135-77.397-32.934c-21.648-6.219-43.686-10.255-66.239-10.923c-4.226-0.125-5.926-1.661-5.165-5.674
			c1.403-7.392,0.347-14.958,1.778-22.362c0.538-2.785,0.874-4.376,4.479-4.202c27.224,1.313,53.787,6.155,79.833,14.102
			c33.153,10.115,64.293,24.672,93.53,43.14c19.396,12.252,37.834,25.899,55.093,41.121c24.031,21.195,45.859,44.367,65.04,70.056
			c19.396,25.977,35.862,53.634,48.78,83.39c11.639,26.812,20.012,54.619,24.905,83.41c1.806,10.626,2.428,21.453,3.268,29.212
			C-809.281,716.46-809.349,716.067-816.46,717.311z M-524.286,467.947c-4.593,15.808-9.547,31.449-16.022,46.632
			c-11.031,25.865-25.134,49.867-42.148,72.215c-11.011,14.463-23.147,27.904-36.416,40.308
			c-22.33,20.874-46.801,38.676-73.932,52.975c-24.603,12.966-50.397,22.451-77.222,29.399c-1.446,0.372-2.924,0.62-4.387,0.927
			c-2.913,0.577-2.832-1.451-3.02-3.335c-0.987-9.918-1.625-19.889-3.09-29.736c-3.188-21.42-8.299-42.395-15.175-62.965
			c-5.655-16.918-12.401-33.367-20.049-49.45c-8.51-17.896-18.516-34.98-29.34-51.553c-11.65-17.838-24.633-34.738-38.701-50.713
			c-17.284-19.626-35.997-37.836-56.173-54.553c-24.684-20.452-51.158-38.203-79.467-53.145
			c-27.449-14.488-56.217-25.719-86.271-33.677c-22.43-5.939-45.237-9.321-68.32-10.984c-3.792-0.273-4.334-1.348-3.485-4.85
			c7.408-30.573,18.555-59.64,33.957-87.112c16.906-30.153,38.109-56.92,63.194-80.581c22-20.751,46.382-38.214,73.21-52.36
			c23.387-12.331,47.896-21.491,73.322-28.458c3.163-0.867,3.355,0.58,3.44,2.912c0.689,18.809,3.081,37.411,6.937,55.826
			c6.234,29.779,15.948,58.398,28.733,85.992c13.265,28.631,29.513,55.496,48.448,80.696c12.593,16.76,26.245,32.644,40.941,47.647
			c26.296,26.847,55.247,50.311,87.015,70.414c38.291,24.23,79.202,42.206,123.224,53.026c22.169,5.449,44.637,8.9,67.472,9.65
			C-523.786,463.22-523.236,464.331-524.286,467.947z M-550.105,397.081c10.75,1.064,21.491,2.471,32.327,2.081
			c3.152-0.113,3.594,0.897,3.591,4.013c-0.008,8.207-1.662,16.203-2.286,24.313c-0.277,3.604-2.489,3.758-5.192,3.709
			c-14.821-0.27-29.513-1.755-44.116-4.318c-24.495-4.299-48.282-11.067-71.298-20.455c-30.296-12.357-58.659-28.127-85.272-47.268
			c-22.916-16.481-44.146-34.78-63.597-55.153c-14.358-15.039-27.603-31.004-39.773-47.928
			c-14.025-19.504-26.451-39.904-36.892-61.491c-8.841-18.28-16.376-37.084-22.128-56.625
			c-7.881-26.772-12.725-53.975-13.756-81.882c-0.183-4.96,1.377-6.828,6.381-6.931c7.129-0.147,14.112-2.146,21.326-2.026
			c3.189,0.053,4.415,0.919,4.408,4.244c-0.052,24.971,4.38,49.327,11.083,73.243c7.619,27.182,18.754,52.962,32.816,77.458
			c16.459,28.669,35.869,55.127,59.022,78.783c2.431,2.484,4.741,5.086,7.191,7.55c6.316,6.35,16.133,6.623,22.473,0.678
			c6.418-6.018,7.014-15.217,0.911-21.852c-15.762-17.138-31.417-34.365-44.598-53.624c-13.549-19.796-25.461-40.505-34.669-62.74
			c-7.723-18.649-13.864-37.746-17.748-57.553c-2.626-13.393-4.375-26.878-4.622-40.564c-0.078-4.336,1.036-5.916,5.579-5.621
			c19.285,1.251,38.343,3.987,57.121,8.488c43.539,10.437,83.642,28.586,119.755,55.042c23.685,17.352,44.805,37.475,63.411,60.38
			c18.925,23.297,34.631,48.458,46.687,75.811c12.118,27.492,20.671,56.138,24.588,86.041c1.273,9.715,2.695,19.391,3.256,29.215
			c0.267,4.676-0.962,5.564-4.92,5.123c-1.316-0.147-2.663-0.023-3.996-0.023c-0.005,0.074-0.012,0.15-0.02,0.226
			c-8.437-0.763-16.879-1.468-25.309-2.304c-12.502-1.24-17.93,6.644-18.868,14.692
			C-568.221,388.24-560.361,396.066-550.105,397.081z"/>
		<path fill="#F0CCB2" d="M-651.624,331.119c8.709-0.027,16.091,7.097,16.124,15.561c0.034,8.718-7.314,16.072-16.209,16.224
			c-8.365,0.142-15.634-7.259-15.731-16.016C-667.536,338.218-660.443,331.146-651.624,331.119z"/>
	</g>
</g>
</svg>
