<?xml version="1.0" encoding="utf-8"?>
<!-- Generator: Adobe Illustrator 17.0.0, SVG Export Plug-In . SVG Version: 6.00 Build 0)  -->
<!DOCTYPE svg PUBLIC "-//W3C//DTD SVG 1.1//EN" "http://www.w3.org/Graphics/SVG/1.1/DTD/svg11.dtd">
<svg version="1.1" id="Layer_1" xmlns="http://www.w3.org/2000/svg" xmlns:xlink="http://www.w3.org/1999/xlink" x="0px" y="0px"
	 width="632.016px" height="568.058px" viewBox="-644.771 55.568 632.016 568.058"
	 enable-background="new -644.771 55.568 632.016 568.058" xml:space="preserve">
<g>
	<g>
		<path fill="#FCF7F3" d="M-344.821,56.507c0.006-0.313,0.011-0.626,0.013-0.939c10.332,0,20.664,0,30.996,0
			c0.002,0.313,0.006,0.627,0.013,0.939C-324.14,56.507-334.481,56.507-344.821,56.507z"/>
		<path fill="#F5DDCC" d="M-644.771,442.519c1.41,2,1.497,4,0,5.999C-644.771,446.519-644.771,444.519-644.771,442.519z"/>
		<path fill="#F0CCB2" d="M-14.016,422.546c-4.582-30.955-9.93-61.793-14.418-92.762c-4.866-33.581-11.532-66.879-14.812-100.718
			c-3.295-34.002-19.042-62.433-41.94-87.109c-24.245-26.129-54.007-44.324-86.649-57.784
			c-45.758-18.869-93.456-28.563-143.073-28.103c-9.661,0-19.329,0-29.002,0c-13.97,0.264-27.984,0.243-41.843,1.902
			c-29.021,3.474-57.394,9.988-84.918,19.949c-38.69,14.002-74.044,33.389-102.572,63.746
			c-18.578,19.768-32.209,42.355-39.082,68.771c-2.908,11.174-3.117,22.728-4.738,34.076c-4.094,28.667-8.774,57.249-13.266,85.858
			c-3.847,24.498-7.611,49.01-11.595,73.486c-1.335,8.199-0.858,16.567-2.847,24.663c0,4.666,0,9.332,0,13.998
			c0.794,2,0.794,4,0,5.999c0,0.667,0,1.333,0,2c1.409,5.31,0.824,10.895,2.157,16.203c3.904,15.526,10.717,29.752,19.737,42.911
			c20.782,30.318,49.23,51.641,81.266,68.619c28.441,15.073,58.722,25.197,89.951,32.604c26.444,6.272,53.205,10.677,80.366,12.068
			c20.959,1.074,41.956,0.617,62.937,0.545c11.308-0.039,22.666-0.136,33.885-1.351c18.854-2.042,37.639-4.726,56.217-8.737
			c38.143-8.236,74.9-20.252,109.022-39.513c27.407-15.47,51.991-34.358,70.462-60.233C-19.315,486.38-8.996,456.457-14.016,422.546
			z M-573.002,192.809c15.739-30.618,40.929-51.628,70.223-68.213c34.171-19.347,71.235-30.141,109.86-36.105
			c21.079-3.252,42.28-4.744,63.084-4.989c42.695,0.394,84.086,5.94,124.226,19.313c27.662,9.216,53.772,21.599,76.769,39.785
			c26.687,21.104,47.019,46.599,53.953,80.905c5.32,26.32,0.185,50.985-12.752,74.114c-16.74,29.926-42.297,50.622-71.9,66.656
			c-33.438,18.111-69.418,28.598-106.898,34.27c-23.565,3.567-47.276,5.475-71.084,4.775c-25.099-0.737-50.031-3.243-74.724-8.295
			c-30.886-6.319-60.439-16.204-88.082-31.362c-32.347-17.737-59.71-40.818-75.397-75.171
			C-590.414,256.319-589.167,224.259-573.002,192.809z M-52.711,478.1c-9.847,20.755-24.975,37.251-42.883,51.23
			c-31.085,24.265-66.717,39.019-104.407,49.524c-22.493,6.269-45.362,10.548-68.466,13.337
			c-27.287,3.295-54.771,4.368-82.229,3.107c-43.013-1.976-85.355-8.347-126.395-21.873c-32.959-10.863-63.959-25.555-90.912-47.833
			c-17.445-14.419-31.476-31.598-40.391-52.536c-7.286-17.112-8.678-34.68-5.205-53.208c5.079-27.092,8.633-54.469,12.89-81.716
			c1.331-8.52,2.835-17.013,4.406-26.391c3.794,5.544,7.096,10.597,10.625,15.487c15.843,21.957,36.359,38.721,59.107,52.988
			c34.03,21.342,71.449,33.918,110.496,41.83c21.817,4.421,43.953,6.663,66.267,7.827c17.859,0.932,35.646,0.633,53.356-0.62
			c30.899-2.186,61.339-7.468,91.057-16.612c28.975-8.915,56.448-20.933,81.674-37.867c24.219-16.258,44.735-36.132,59.825-61.3
			c1.189-0.602,1.495,0.412,1.987,1.085c3.144,20.192,6.271,40.387,9.438,60.575c3.142,20.024,6.994,39.966,9.271,60.087
			C-41.497,450.266-46.289,464.564-52.711,478.1z"/>
		<path fill="#F9EBE1" d="M-61.909,314.559c-0.662-0.361-1.324-0.722-1.987-1.083c0.148-0.622,0.372-1.44,1.083-1.285
			C-61.516,312.472-61.982,313.67-61.909,314.559z"/>
		<path fill="#F0CCB2" d="M-280.957,511.283c-7.276-21.903-22.388-38.744-38.631-54.412c-6.197-5.978-14.977-4.961-21.145,1.169
			c-3.89,3.866-7.563,7.962-11.183,12.087c-9.362,10.666-18.03,21.82-23.716,34.985c-2.531,5.859-4.596,11.916-3.977,18.354
			c2.455,25.525,23.846,44.91,56.779,45.04c9.325-0.02,23.232-6.378,33.604-19.323C-280.356,538.11-276.381,525.059-280.957,511.283
			z M-320.337,539.323c-13.542,6.16-30.373-3.505-30.472-17.933c-0.148-1.701,0.349-3.439,1.125-5.134
			c4.408-9.638,10.755-17.953,17.533-25.999c1.913-2.271,3.353-2.78,5.436-0.171c5.609,7.028,10.885,14.254,15.68,21.888
			C-303.807,523.481-311.302,535.214-320.337,539.323z"/>
		<path fill="#F0CCB2" d="M-106.766,215.319c-7.714-21.599-22.301-38.027-40.147-51.731c-22.307-17.13-47.451-28.76-74.222-36.998
			c-29.72-9.146-60.112-14.107-91.223-15.233c-11.653-0.422-23.227-0.37-34.869,0.02c-15.33,0.514-30.545,1.994-45.608,4.541
			c-35.197,5.951-68.946,16.353-99.877,34.663c-20.448,12.105-38.323,27.075-51.04,47.487
			c-11.059,17.75-15.538,37.065-12.372,57.808c4.071,26.674,19.367,46.726,39.327,63.506c21.559,18.124,46.554,30.206,73.154,38.953
			c36.963,12.154,74.975,17.773,116.857,17.287c19.908,0.842,42.594-1.486,65.026-5.493c31.104-5.557,61.07-14.869,88.982-30.099
			c20.383-11.123,38.711-24.739,52.546-43.654C-102.166,271.675-96.24,244.793-106.766,215.319z M-144.86,282.312
			c-9.171,11.668-20.384,20.971-32.942,28.695c-30.125,18.529-63.235,28.359-97.944,33.662c-17.801,2.72-35.659,4.11-48.693,3.985
			c-47.848,0.125-89.448-6.823-129.158-23.345c-19.022-7.914-36.405-18.69-51.56-32.808c-1.449-1.35-2.569-3.047-3.884-4.545
			c-8.517-9.7-8.735-6.788,0.634-17.166c16.798-18.607,38.365-30.147,61.306-39.187c27.257-10.741,55.69-16.375,84.831-19.275
			c44.626-4.441,88.37-0.198,131.215,12.53c25.684,7.629,49.843,18.783,70.711,36.077c5.782,4.792,10.814,10.349,15.547,16.181
			C-143.291,278.972-143.306,280.336-144.86,282.312z M-131.52,248.79c-1.169,0.534-1.797-0.501-2.482-1.158
			c-27.696-26.551-61.579-41.226-97.916-51.372c-24.291-6.783-49.015-10.207-74.144-11.919c-38.162-2.6-75.797,0.661-112.825,9.635
			c-30.714,7.444-59.954,18.889-86.121,37.158c-6.556,4.577-12.536,9.863-18.664,14.973c-1.163,0.969-2.042,3.416-3.828,2.376
			c-1.621-0.945-1.259-3.304-1.157-5.119c0.851-15.091,6.049-28.44,15.677-40.17c17.683-21.542,41.135-34.469,66.428-44.511
			c24.557-9.75,50.148-15.355,76.401-18.292c13.43-1.501,26.854-2.018,40.331-1.956c36.743-0.566,72.631,4.628,107.439,16.489
			c23.968,8.168,46.496,19.261,65.407,36.406c12.625,11.446,22.572,24.896,25.703,42.307c0.774,4.304,0.47,8.629,0.497,12.95
			C-130.769,247.375-130.62,248.379-131.52,248.79z"/>
		<path fill="#F0CCB2" d="M-275.003,301.605c-17.154,0-34.309,0.03-51.463-0.016c-5.934-0.016-10.247-2.823-12.454-8.321
			c-2.018-5.028-1.389-9.887,2.436-13.913c2.99-3.148,6.855-4.728,11.204-4.732c33.643-0.034,67.286-0.086,100.928,0.025
			c8.497,0.028,15.262,6.278,15.259,13.457c-0.004,7.734-6.483,13.484-15.445,13.514c-16.821,0.056-33.643,0.016-50.464,0.016
			C-275.003,301.624-275.003,301.615-275.003,301.605z"/>
		<path fill="#F0CCB2" d="M-395.993,301.588c-3.688,0.096-7.395,0.115-10.489-2.331c-3.845-3.041-6.643-6.878-5.905-11.956
			c0.783-5.387,3.55-9.634,9.121-11.488c5.438-1.809,10.823-1.933,16.041,0.576c5.829,2.803,8.564,8.603,7.285,14.952
			c-1.152,5.719-6.262,9.9-12.556,10.238C-393.658,301.642-394.827,301.588-395.993,301.588z"/>
	</g>
</g>
</svg>
