<?xml version="1.0" encoding="utf-8"?>
<!-- Generator: Adobe Illustrator 17.0.0, SVG Export Plug-In . SVG Version: 6.00 Build 0)  -->
<!DOCTYPE svg PUBLIC "-//W3C//DTD SVG 1.1//EN" "http://www.w3.org/Graphics/SVG/1.1/DTD/svg11.dtd">
<svg version="1.1" id="Layer_1" xmlns="http://www.w3.org/2000/svg" xmlns:xlink="http://www.w3.org/1999/xlink" x="0px" y="0px"
	 width="452.99px" height="718.435px" viewBox="-471 -0.01 452.99 718.435" enable-background="new -471 -0.01 452.99 718.435"
	 xml:space="preserve">
<g>
	<g>
		<path fill="#F4DBCA" d="M-471,363.944c1.566,1.694,0.983,3.792,0.983,5.729c0.021,97.413,0.013,194.826,0.008,292.239
			c-0.334,0.632-0.664,0.63-0.991-0.005C-471,562.586-471,463.265-471,363.944z"/>
		<path fill="#FBF4EE" d="M-471,355.945c0.3-0.012,0.6-0.022,0.899-0.029c0.002,1.73,0.598,3.566-0.899,5.028
			C-471,359.278-471,357.612-471,355.945z"/>
		<path fill="#F7E6D9" d="M-471,661.907c0.331-0.001,0.662,0.001,0.992,0.005c-0.005,1.671-0.01,3.343-0.016,5.015
			c-0.326-0.017-0.651-0.024-0.976-0.02C-471,665.24-471,663.574-471,661.907z"/>
		<path fill="#F0CCB2" d="M-18.104,359.976c-0.014-14.827-1.664-29.508-5.427-43.934c-5.67-21.738-12.323-43.192-18.411-64.807
			c-11.276-40.035-22.945-79.957-34.549-119.897c-2.947-10.144-4.751-20.232-4.611-30.895c0.366-27.818,0.22-55.644,0.072-83.467
			C-81.082,7.219-84.426,2.713-93.047-0.01c-100.987,0-201.975,0-302.962,0c-7.71,1.358-11.06,6.443-12.178,13.756
			c-0.532,3.477-0.861,6.925-0.86,10.427c0.004,27.98-0.078,55.961,0.065,83.94c0.033,6.413-0.942,12.544-2.699,18.668
			c-15.787,55.015-31.737,109.984-47.623,164.971c-6.019,20.833-11.417,41.699-11.194,63.598c-0.239,1.86,0.529,3.808-0.502,5.594
			c0,1,0,2,0,3c0.971,1.894,0.476,3.927,0.477,5.886c0.028,97.16,0.025,194.32,0.026,291.481c0,1.908,0,3.814,0,5.721
			c-0.208,3.018,0.345,5.978,0.716,8.944c3.07,24.575,22.615,42.357,47.273,42.377c118.623,0.099,237.246,0.026,355.869,0.072
			c12.54,0.005,23.677-3.219,32.288-12.838c10.62-11.862,16.355-25.561,16.341-41.723C-18.1,562.568-18.012,461.272-18.104,359.976z
			 M-374.312,33.928c43.138,0.146,86.277,0.088,129.415,0.088c42.972,0,85.943,0.079,128.914-0.108
			c4.914-0.021,6.142,1.483,6.079,6.217c-0.252,18.818-0.238,37.642-0.006,56.46c0.055,4.469-1.366,5.601-5.697,5.595
			c-86.276-0.114-172.552-0.118-258.829,0.008c-4.513,0.007-5.61-1.444-5.563-5.732c0.205-18.985,0.225-37.976-0.012-56.96
			C-380.067,35.003-378.628,33.913-374.312,33.928z M-249.754,616.549c0.583,9.099,4.171,17.406,17.503,17.372
			c59.818-0.156,119.637-0.069,179.455-0.067c6.792,0,6.801,0.008,6.799,6.819c-0.003,6.498-0.015,12.997-0.045,19.495
			c-0.023,4.961-1.394,9.59-4.084,13.7c-3.984,6.087-9.336,9.283-17.067,9.255c-52.32-0.193-104.64-0.1-156.96-0.1
			c-6.834-0.001-13.665-0.001-20.497-0.001c-58.652,0-117.304,0.003-175.956-0.002c-13.441-0.001-20.901-6.865-22.551-20.112
			c-0.663-5.322-0.761-10.61-0.761-15.93c-0.008-89.478,0.021-178.955-0.032-268.433c-0.016-26.884,5.239-52.806,12.963-78.443
			c9.6-31.862,18.547-63.921,27.764-95.899c6.128-21.261,12.258-42.522,18.318-63.802c0.703-2.469,1.967-3.729,4.591-3.501
			c0.992,0.086,1.998,0.009,2.998,0.009c88.311,0,176.623,0.04,264.934-0.106c5.012-0.008,7.11,1.348,8.531,6.396
			c10.415,36.995,21.429,73.821,31.854,110.814c7.578,26.89,16.475,53.423,22.338,80.782c2.339,10.914,3.587,21.998,3.595,33.165
			c0.061,75.481,0.013,150.962,0.168,226.443c0.009,4.631-1.644,5.48-5.813,5.472c-60.318-0.113-120.636-0.079-180.955-0.076
			C-243.581,599.8-250.424,606.083-249.754,616.549z"/>
		<path fill="#F0CCB2" d="M-296.657,633.842c-8.546-0.078-15.455-8.105-15.206-17.665c0.265-10.17,6.476-16.506,16.055-16.376
			c8.528,0.116,14.734,7.215,14.64,16.746C-281.266,626.563-287.857,633.923-296.657,633.842z"/>
		<path fill="#F0CCB2" d="M-157.041,457.215c-3.662-20.215-12.287-37.624-29.478-49.683c-3.588-2.517-5.694-4.976-6.425-9.245
			c-2.84-16.586-10.262-30.829-22.628-42.341c-17.976-16.735-43.792-17.936-63.048-3.033
			c-14.525,11.241-22.548,26.416-26.266,44.039c-0.969,4.593-2.016,8.414-6.808,10.661c-2.911,1.365-5.35,3.941-7.693,6.282
			c-12.728,12.716-19.714,28.273-21.826,45.982c-3.103,26.019,2.287,49.561,20.642,69.31c16.442,17.69,40.98,21.685,61.251,9.192
			c7.085-4.366,13.277-4.526,20.393-0.139c19.123,11.79,40.966,9.455,57.643-5.448c17.997-16.082,24.813-36.77,25.357-60.123
			C-155.739,467.446-156.118,462.304-157.041,457.215z M-195.767,504.156c-8.099,7.8-21.379,9.5-30.949,3.577
			c-13.968-8.645-28.084-9.832-42.395-1.167c-19.574,11.852-36.814-0.594-42.821-16.791c-2.098-5.65-3.707-11.414-3.255-17.671
			c1.163-17.711,7.256-32.155,25.507-38.893c7.791-2.876,9.431-9.763,9.617-17.085c0.242-9.541,2.373-18.548,7.936-26.354
			c6.523-9.153,15.346-14.521,26.935-12.704c11.313,1.774,18.562,9.135,23.091,19.279c2.876,6.443,4.157,13.246,4.11,20.364
			c-0.061,9.264,3.464,14.012,11.993,17.446c13.788,5.552,20.484,16.781,22.56,30.638
			C-181.217,479.627-184.473,493.278-195.767,504.156z"/>
		<path fill="#F0CCB2" d="M-216.887,215.075c-15.619-21.978-42.752-23.937-60.659-4.205c-19.911,21.94-20.4,60.345-1.055,82.845
			c15.894,18.486,40.661,19.395,57.41,1.777c11.346-11.934,15.664-26.751,16.164-43.62
			C-205.623,239.015-208.864,226.362-216.887,215.075z M-237.951,268.683c-9.131,9.818-22.839,5.237-26.918-8.859
			c-2.324-8.032-0.977-15.444,4.01-22.163c6.073-8.183,17.819-8.093,23.788,0.183c3.301,4.576,4.953,9.707,5.065,15.289
			C-232.22,259.048-233.999,264.434-237.951,268.683z"/>
		<path fill="#F0CCB2" d="M-311.982,280.169c-15.83-20.795-42.198-22.772-59.541-3.958c-19.918,21.607-20.937,58.514-2.903,81.67
			c16.789,21.557,45.099,21.627,61.868,0.131c8.952-11.474,12.866-24.601,12.695-39.831
			C-299.611,304.682-303.3,291.574-311.982,280.169z M-331.619,333.907c-5.981,7.751-16.406,8.108-22.986,0.837
			c-5.844-6.458-7.297-19.544-3.032-27.293c3.998-7.264,10.536-10.986,16.926-9.637c6.766,1.428,12.88,8.874,13.644,16.711
			c0.145,1.483,0.021,2.993,0.021,4.228C-326.449,324.624-328.244,329.534-331.619,333.907z"/>
		<path fill="#F0CCB2" d="M-123.08,280.139c-14.604-20.24-41.463-22.502-58.871-4.625c-11.622,11.936-16.308,26.749-16.238,45.353
			c-0.44,7.913,1.867,17.4,6.126,26.376c5.374,11.327,13.179,20.413,25.372,24.728c17.31,6.125,33.995-1.006,44.736-16.356
			C-106.639,333.727-107.251,302.079-123.08,280.139z M-142.641,333.426c-5.749,8.015-15.94,8.753-22.798,1.597
			c-7.357-7.676-7.778-23.416-0.84-31.389c7.829-8.997,19.181-7.917,25.218,2.442c2.225,3.819,3.454,7.93,3.017,12.287
			C-137.593,324.077-139.428,328.946-142.641,333.426z"/>
	</g>
</g>
</svg>
