<?xml version="1.0" encoding="utf-8"?>
<!-- Generator: Adobe Illustrator 17.0.0, SVG Export Plug-In . SVG Version: 6.00 Build 0)  -->
<!DOCTYPE svg PUBLIC "-//W3C//DTD SVG 1.1//EN" "http://www.w3.org/Graphics/SVG/1.1/DTD/svg11.dtd">
<svg version="1.1" id="Layer_1" xmlns="http://www.w3.org/2000/svg" xmlns:xlink="http://www.w3.org/1999/xlink" x="0px" y="0px"
	 width="607.114px" height="682.918px" viewBox="-748.112 1 607.114 682.918" enable-background="new -748.112 1 607.114 682.918"
	 xml:space="preserve">
<g>
	<g>
		<path fill="#F0CCB2" d="M-147.159,227.532c-15.259-11.745-30.601-23.383-45.832-35.165c-28.76-22.248-57.441-44.597-86.198-66.849
			c-31.916-24.696-63.853-49.366-95.832-73.981C-396.982,34.633-419.03,17.842-441.039,1c-2.666,0-5.332,0-8,0.001
			c-9.104,7.185-18.14,14.459-27.324,21.541c-28.277,21.807-56.664,43.471-84.908,65.32c-36.38,28.143-72.629,56.456-109.002,84.609
			c-23.891,18.492-47.925,36.799-71.842,55.256c-6.66,5.139-7.883,12.45-3.118,19.407c11.357,16.582,22.694,33.184,34.406,49.515
			c9.411,13.122,13.162,13.459,26.19,4.156c1.787-1.277,3.173-4.64,5.535-3.331c2.332,1.292,0.956,4.593,0.957,6.969
			c0.06,121.477,0.052,242.955,0.061,364.433c0.001,9.685,4.866,15.024,13.81,15.025c146.806,0.017,293.613,0.011,440.419,0.017
			c2.009,0,3.931-0.141,5.835-1.006c6.428-2.922,8.003-8.284,8.001-14.744c-0.035-121.477-0.025-242.955-0.025-364.433
			c0-1.333,0.011-2.666,0.003-3.999c-0.016-2.452,0.72-3.121,2.857-1.4c2.455,1.977,5.046,3.783,7.566,5.68
			c6.363,4.789,13.754,3.84,18.253-2.616c12.532-17.984,25.013-36.005,37.399-54.091
			C-139.053,240.135-140.323,232.794-147.159,227.532z M-234.981,638.073c-0.497,4.949-0.257,9.993-0.054,14.984
			c0.128,3.134-1.12,4.247-4.088,3.925c-0.988-0.107-1.998-0.016-2.997-0.016c-134.634,0-269.269,0.004-403.904-0.01
			c-7.745-0.001-7.012,0.836-7.013-6.901c-0.01-118.805-0.007-237.61-0.005-356.415c0-6.719,0.005-6.722,6.707-6.723
			c95.311-0.001,190.621,0.002,285.932-0.004c10.126-0.001,15.421-4.669,15.41-13.514c-0.01-7.803-4.535-12.705-12.412-13.37
			c-1.49-0.126-2.998-0.037-4.497-0.037c-87.646-0.001-175.291-0.001-262.937-0.001c-1.771,0-3.543,0-5.314,0
			c-0.111-0.395-0.224-0.791-0.337-1.186c10.868-8.442,21.729-16.894,32.606-25.325c22.173-17.186,44.334-34.389,66.54-51.531
			c18.923-14.608,37.915-29.126,56.854-43.714c8.682-6.688,17.404-13.33,25.909-20.238c2.967-2.409,5.029-2.389,8.058-0.029
			c23.048,17.959,46.248,35.724,69.365,53.595c28.372,21.934,56.698,43.926,85.065,65.866
			c15.494,11.983,30.999,23.954,46.577,35.827c3.166,2.413,4.528,5.095,4.523,9.242c-0.119,105.308-0.094,210.616-0.095,315.924
			c0,6.543-0.004,6.549-6.388,6.549c-96.31,0.001-192.621-0.001-288.931,0.003c-9.055,0-13.328,2.598-15.641,9.449
			c-2.721,8.061,2.774,16.62,11.255,17.447c1.651,0.161,3.33,0.05,4.996,0.05c96.144,0.001,192.287,0.039,288.431-0.108
			C-236.434,631.804-234.452,632.814-234.981,638.073z M-173.769,245.537c-6.278,8.578-12.519,17.206-18.25,26.151
			c-2.531,3.951-4.225,2.063-6.467,0.337c-13.023-10.026-26.052-20.043-39.07-30.075c-31.818-24.521-63.655-49.017-95.439-73.583
			c-34.283-26.498-68.531-53.043-102.734-79.645c-2.612-2.034-5.445-3.078-8.606-3.745c-3.145,0.472-6.039,1.425-8.646,3.453
			c-24.11,18.758-48.263,37.462-72.413,56.169c-26.379,20.434-52.753,40.876-79.159,61.274
			c-17.735,13.699-35.528,27.323-53.285,40.993c-11.049,8.506-22.129,16.973-33.085,25.598c-2.58,2.031-3.961,2.465-6.093-0.791
			c-5.821-8.892-11.998-17.558-18.277-26.136c-2.092-2.858-1.678-4.397,1.023-6.467c36.764-28.168,73.488-56.39,110.16-84.678
			c39.709-30.63,79.363-61.33,119.021-92.025c12.477-9.658,24.932-19.345,37.296-29.147c2.397-1.901,4.095-1.888,6.515-0.012
			c43.972,34.087,87.993,68.11,132.027,102.117c30.349,23.439,60.74,46.823,91.098,70.25c14.458,11.157,28.842,22.413,43.362,33.489
			C-172.089,241.125-171.674,242.674-173.769,245.537z"/>
		<path fill="#F0CCB3" d="M-592.046,618.383c0.02-7.32,5.354-13.25,12.003-13.343c6.885-0.097,13.104,6.407,13.005,13.599
			c-0.1,7.197-5.848,13.172-12.763,13.265C-586.524,631.994-592.066,625.874-592.046,618.383z"/>
		<path fill="#F0CCB3" d="M-324.097,273.195c0.068-7.489,5.824-13.409,12.798-13.164c6.66,0.234,12.18,6.261,12.219,13.342
			c0.038,6.854-6.38,13.671-12.723,13.514C-318.862,286.712-324.167,280.804-324.097,273.195z"/>
		<path fill="#F0CCB2" d="M-293.056,402.885c2.437-13.556,3.688-27.27,4.763-40.969c0.633-8.069,1.205-16.286-0.794-24.355
			c-5.22-21.073-26.954-34.835-47.354-29.487c-20.77,5.445-40.991,12.548-60.624,21.308c-4.271,1.905-8.233,4.221-13.688,3.008
			c-22.505-5.002-45.156-4.849-67.708-0.043c-3.137,0.668-5.741,0.456-8.629-0.852c-16.221-7.345-32.795-13.823-49.864-18.907
			c-7.137-2.125-14.149-5.182-21.658-5.552c-23.488-1.156-42.52,16.991-42.43,40.531c0.088,23.125,3.242,45.939,7.485,68.645
			c1.182,6.328,3.179,12.465,0.699,19.435c-6.296,17.697-8.794,36-6.244,54.875c3.79,28.052,17.099,50.906,38.44,68.836
			c21.422,17.998,46.798,25.744,74.699,25.528c13.829-0.107,27.659-0.018,41.489-0.019c15.663-0.001,31.332,0.299,46.987-0.085
			c16.08-0.395,31.606-3.733,46.221-10.739c18.277-8.762,32.855-21.691,44.241-38.446c11.132-16.382,16.984-34.432,17.95-54.107
			c0.81-16.486-2.274-32.401-7.633-47.921c-0.941-2.725-1.206-5.256-0.534-8.213C-295.555,417.932-294.405,410.385-293.056,402.885z
			 M-322.4,436.426c4.795,13.696,8.818,27.621,8.219,42.276c-0.748,18.302-7.032,34.657-18.869,48.783
			c-14.818,17.685-34.026,27.581-56.628,30.088c-12.016,1.333-24.292,0.338-36.451,0.377c-5.995,0.02-11.992,0.003-17.988,0.001
			c-15.825-0.002-31.661,0.386-47.472-0.083c-32.222-0.956-57.236-15.194-73.269-43.179c-11.31-19.742-12.947-41.226-6.456-63.152
			c1.271-4.294,2.423-8.678,4.249-12.742c3.936-8.755,0.027-16.982-1.33-25.323c-2.767-17.009-6.039-33.928-6.764-51.218
			c-0.187-4.456-1.021-8.895-0.896-13.398c0.285-10.288,8.743-17.09,18.634-14.508c17.874,4.666,35.254,10.831,52.253,18.062
			c1.071,0.456,2.252,0.778,3.171,1.45c11.89,8.685,24.533,5.838,37.533,3.199c18.174-3.689,36.337-1.896,54.165,2.782
			c5.05,1.325,9.319,0.51,13.867-1.659c20.6-9.824,41.919-17.761,63.998-23.582c10.892-2.872,19.611,3.709,19.357,14.877
			c-0.439,19.264-2.936,38.329-6.407,57.266c-1.344,7.333-2.848,14.636-4.326,21.944
			C-324.375,431.479-323.275,433.926-322.4,436.426z"/>
		<path fill="#F0CCB2" d="M-467.292,523.954c-7.614-0.02-13.163-5.026-13.679-12.342c-0.493-6.991,4.877-13.277,12.41-14.527
			c8.001-1.328,10.834-4.37,11.491-12.34c0.625-7.583,5.839-12.875,12.633-12.824c6.768,0.051,11.749,5.266,12.439,13.022
			c0.6,6.746,4.927,11.155,11.765,11.988c7.595,0.925,13.237,7.895,12.032,14.863c-1.406,8.129-8.374,12.893-16.276,11.552
			c-5.997-1.017-11.742-2.553-16.48-6.459c-2.66-2.193-4.546-1.558-6.924,0.342C-453.206,521.485-460.771,523.971-467.292,523.954z"
			/>
		<path fill="#F0CCB2" d="M-544.004,446.161c0.499-3.907,2.201-8.296,7.011-10.673c6.697-3.309,13.488-6.426,20.224-9.656
			c3.533-1.694,6.838-0.627,10.051,0.844c5.735,2.626,11.439,5.322,17.107,8.088c5.154,2.515,8.986,8.832,8.438,13.65
			c-0.659,5.793-4.911,10.764-10.278,12.174c-3.681,0.967-7.207,0.013-9.962-2.009c-7.906-5.802-15.207-4.913-23.204,0.061
			C-534.688,464.906-544.201,456.804-544.004,446.161z"/>
		<path fill="#F0CCB2" d="M-345.039,446.367c-0.048,10.561-8.989,17.583-16.655,13.243c-10.142-5.742-18.817-6.088-28.854,0.041
			c-5.988,3.656-13.181-0.175-15.92-6.617c-2.93-6.893-0.154-14.632,6.745-18.123c5.922-2.996,11.964-5.758,17.99-8.543
			c3.834-1.772,7.534-1.715,11.434,0.351c5.713,3.027,11.631,5.679,17.525,8.352C-347.188,437.603-345.381,442.286-345.039,446.367z
			"/>
	</g>
</g>
</svg>
