<?xml version="1.0" encoding="utf-8"?>
<!-- Generator: Adobe Illustrator 17.0.0, SVG Export Plug-In . SVG Version: 6.00 Build 0)  -->
<!DOCTYPE svg PUBLIC "-//W3C//DTD SVG 1.1//EN" "http://www.w3.org/Graphics/SVG/1.1/DTD/svg11.dtd">
<svg version="1.1" id="Layer_1" xmlns="http://www.w3.org/2000/svg" xmlns:xlink="http://www.w3.org/1999/xlink" x="0px" y="0px"
	 width="776.51px" height="573.504px" viewBox="0 0 776.51 573.504" enable-background="new 0 0 776.51 573.504"
	 xml:space="preserve">
<g>
	<path display="none" fill="#FEFEFE" d="M2.016,489.938c4.538,18.363,12.543,34.928,25.525,48.869
		c15.902,17.077,35.353,27.724,58.298,31.995c8.39,1.561,16.869,1.772,25.365,1.772c185.094,0,370.188-0.056,555.282,0.064
		c25.642,0.017,49.031-6.467,69.184-22.491c20.964-16.668,34.169-38.266,38.211-64.97c3.409-22.523,1.588-45.234,1.63-67.853
		c0.194-103.122,0.082-206.244,0.053-309.366c-0.01-33.338-12.189-61.332-37.746-82.892c-16.824-14.192-36.595-21.936-58.604-23.818
		c-1.438-0.123-3.416,0.998-4.298-1.248c32.829,0,65.659,0.05,98.487-0.085c2.984-0.012,3.582,0.603,3.581,3.584
		c-0.09,188.976-0.09,377.953,0,566.929c0.001,2.981-0.599,3.581-3.58,3.58c-256.635-0.087-513.269-0.087-769.904,0
		c-2.981,0.001-3.6-0.596-3.585-3.581C0.057,541.933,0,513.436,0,484.939C3.223,485.576,0.325,488.683,2.016,489.938z"/>
	<path display="none" fill="#FEFEFE" d="M99.987,0c-4.53,2.689-9.761,1.852-14.632,2.728C43.215,10.301,9.207,44.197,1.887,86.288
		C1.694,87.395,2.263,89.243,0,88.989C0,60.401,0.051,31.814-0.081,3.227C-0.094,0.429,0.52-0.087,3.256-0.076
		C35.499,0.043,67.744,0,99.987,0z"/>
	<path display="none" fill="#DADADA" d="M672.916,0c-0.969,2.214-2.909,1.065-4.335,1.066C481.5,1.124,294.42,1.124,107.34,1.067
		c-1.436,0-3.365,1.104-4.353-1.067C292.963,0,482.94,0,672.916,0z"/>
	<path display="none" fill="#E3E3E3" d="M2.016,489.938c-1.682-1.259-0.475-3.683-2.016-4.998c0-0.667,0-1.333,0-2
		C2.903,484.63,1.779,487.48,2.016,489.938z"/>
	<path display="none" fill="#929292" d="M0,92.988c1.425,0.667,1.095,1.333,0,2C0,94.322,0,93.655,0,92.988z"/>
	<path fill="#292929" d="M776.289,106.413c-0.014-9.583,0.093-19.329-2.46-28.746c-6.755-24.921-20.722-44.85-41.884-59.613
		c-13.007-9.074-27.138-15.516-43.198-16.896c-4.61-0.396-9.263-0.269-13.831-1.158c-0.667,0-1.333,0-2,0
		c-1.726,0.941-3.597,0.479-5.393,0.48c-186.381,0.024-372.762,0.024-559.142,0c-1.796,0-3.668,0.461-5.393-0.48c-1,0-2,0-3,0
		c-0.844,0.765-1.883,0.431-2.847,0.5c-9.09,0.65-18.208,0.94-26.914,4.23c-15.27,5.77-29.278,13.628-40.694,25.404
		C14.166,45.985,2.852,64.035,0.963,86.757C0.891,87.625,0.586,88.359,0,88.989c0,1.333,0,2.666,0,4c0.616,0.667,0.616,1.333,0,2
		C0,224.305,0,353.622,0,482.94c1.752,2.501,0.576,5.434,1.193,8.097c0.508,3.271,0.675,6.595,1.762,9.783
		c8.125,23.827,22.465,42.876,43.55,56.744c18.317,12.047,38.651,15.956,60.298,15.94c187.442-0.136,374.885-0.054,562.328-0.159
		c8.45-0.005,17.038,0.182,25.353-1.573c21.852-4.613,40.191-15.515,55.277-31.938c18.714-20.372,26.807-44.439,26.749-72.032
		C776.255,347.34,776.459,226.876,776.289,106.413z M746.302,466.526c-0.008,25.848-10.289,46.696-31.064,62.182
		c-11.513,8.582-24.66,12.833-38.885,13.93c-2.321,0.179-4.663,0.129-6.995,0.129c-187.455,0.005-374.91,0.014-562.365-0.005
		c-29.543-0.003-52.143-12.595-67.273-38.001c-6.775-11.376-9.539-23.943-9.533-37.207c0.051-120.468-0.058-240.936,0.11-361.403
		c0.045-32.5,15.803-55.483,44.81-69.392c10.028-4.808,20.974-6.038,32.114-6.029c93.645,0.077,187.289,0.044,280.934,0.044
		c93.978,0,187.956-0.005,281.934,0.003c29.9,0.003,52.23,13.276,67.179,38.929c5.513,9.461,8.086,19.988,8.891,30.908
		c0.159,2.157,0.154,4.33,0.154,6.495C746.319,226.915,746.338,346.721,746.302,466.526z"/>
	<path fill="#292929" d="M582.932,203.956c-1.725-0.19-2.65,1.029-3.79,2.013c-34.496,29.767-87.826,17.404-105.882-24.524
		c-16.191-37.596,6.59-82.272,46.651-91.293c22.298-5.021,42.117,0.227,59.457,15.005c1.447,1.233,2.701,2.388,4.569,0.855
		c2.487-0.682,4.691-0.273,6.166,1.978c1.561,2.381,1.271,4.725-0.586,6.871c-2.226,1.167-3.444-0.628-4.632-1.829
		c-2.393-2.421-4.301-1.85-6.2,0.51c-8.677,10.786-13.989,22.951-14.905,36.853c-1.193,18.108,4.055,34.136,15.807,47.996
		c0.89,1.658,2.478,2.74,3.547,4.253C583.269,203.112,583.2,203.55,582.932,203.956z"/>
	<path fill="#292929" d="M588.927,114.984c1.964-5.008-0.107-7.771-4.989-8.971c12.983-12.624,28.85-18.218,46.606-17.607
		c38.491,1.324,67.16,33.106,65.172,71.578c-1.451,28.078-23.139,53.742-50.672,60.262c-21.646,5.126-41.114,0.783-58.582-12.848
		c-1.288-1.005-2.358-2.288-3.53-3.441c-0.005-0.34-0.011-0.681-0.016-1.021c-0.788-1.775,0.54-2.964,1.184-4.348
		c11.292-13.466,16.756-28.886,15.979-46.542c-0.472-10.734-3.599-20.571-8.908-29.823
		C589.9,120.009,587.646,118.02,588.927,114.984z"/>
	<path fill="#292929" d="M197.009,132.881c-37.315,0-74.631-0.101-111.944,0.128c-4.635,0.028-5.41-1.373-5.307-5.559
		c0.285-11.653,0.233-23.321,0.006-34.977c-0.07-3.573,1.06-4.376,4.489-4.372c74.797,0.096,149.593,0.095,224.39,0.004
		c3.512-0.004,5.005,0.565,4.913,4.564c-0.274,11.988-0.243,23.989-0.012,35.978c0.071,3.686-1.281,4.309-4.589,4.3
		C271.64,132.843,234.325,132.881,197.009,132.881z"/>
	<path fill="#292929" d="M469.794,443.843c-19.155,0-38.311-0.086-57.465,0.08c-3.403,0.03-4.544-0.691-4.471-4.315
		c0.243-12.155,0.225-24.319,0.007-36.475c-0.061-3.427,1.115-4.067,4.246-4.059c38.477,0.096,76.954,0.096,115.43,0.001
		c3.142-0.008,4.361,0.654,4.303,4.092c-0.206,12.156-0.232,24.32,0.011,36.475c0.075,3.732-1.32,4.292-4.596,4.268
		C508.104,443.773,488.949,443.843,469.794,443.843z"/>
	<path fill="#292929" d="M634.429,399.136c18.991,0,37.982,0.081,56.971-0.075c3.41-0.028,4.584,0.764,4.516,4.377
		c-0.229,12.156-0.173,24.32-0.026,36.478c0.036,2.941-0.592,4.01-3.815,4c-38.814-0.116-77.628-0.1-116.442-0.021
		c-2.742,0.006-3.749-0.616-3.711-3.561c0.159-12.491,0.193-24.988-0.01-37.478c-0.054-3.296,1.168-3.792,4.046-3.777
		C595.448,399.187,614.939,399.136,634.429,399.136z"/>
	<path fill="#292929" d="M305.746,399.136c19.137,0,38.275,0.075,57.411-0.07c3.381-0.026,4.624,0.771,4.56,4.382
		c-0.215,12.143-0.162,24.293-0.029,36.439c0.032,2.919-0.604,4.039-3.834,4.029c-38.773-0.113-77.547-0.1-116.321-0.016
		c-2.776,0.006-3.709-0.665-3.674-3.569c0.153-12.479,0.175-24.962-0.011-37.44c-0.048-3.193,1.012-3.839,3.987-3.82
		C267.138,399.198,286.442,399.136,305.746,399.136z"/>
	<path fill="#292929" d="M141.541,443.843c-18.987,0-37.975-0.135-56.958,0.107c-4.1,0.052-4.89-1.254-4.817-5.017
		c0.23-11.987,0.188-23.982,0.017-35.97c-0.044-3.096,0.895-3.898,3.935-3.89c38.639,0.097,77.279,0.1,115.918-0.002
		c3.181-0.008,3.926,1.071,3.892,4.037c-0.137,12.157-0.196,24.318,0.028,36.472c0.067,3.639-1.203,4.361-4.555,4.335
		C179.848,443.767,160.694,443.843,141.541,443.843z"/>
	<path fill="#292929" d="M141.447,176.81c19.146,0,38.293,0.106,57.436-0.092c3.706-0.038,4.837,0.86,4.756,4.65
		c-0.248,11.647-0.205,23.304-0.028,34.954c0.053,3.506-0.633,4.926-4.614,4.909c-38.291-0.158-76.583-0.146-114.874-0.012
		c-3.625,0.013-4.399-1.138-4.344-4.522c0.196-11.983,0.231-23.974-0.013-35.956c-0.071-3.505,1.193-4.011,4.244-3.992
		C103.155,176.869,122.301,176.81,141.447,176.81z"/>
	<path display="none" fill="#FEFEFE" d="M588.927,114.984c9.639,13.773,14.419,28.969,12.976,45.831
		c-1.277,14.92-6.516,28.212-17.08,39.127c-1.93,2.012-3.86,2.013-5.79,0c-15.339-16.616-19.841-36.262-15.933-58.101
		c2.095-11.709,7.718-21.782,15.251-30.906c2.568-3.111,4.612-3.559,7.058-0.052C586.433,112.353,587.745,113.623,588.927,114.984z"
		/>
	<path display="none" fill="#FEFEFE" d="M579.032,199.942c1.93,0.759,3.86,0.758,5.79,0c-0.636,0.998-1.271,1.995-1.907,2.993
		C580.695,203.14,579.876,201.525,579.032,199.942z"/>
</g>
</svg>
