<?xml version="1.0" encoding="utf-8"?>
<!-- Generator: Adobe Illustrator 17.0.0, SVG Export Plug-In . SVG Version: 6.00 Build 0)  -->
<!DOCTYPE svg PUBLIC "-//W3C//DTD SVG 1.1//EN" "http://www.w3.org/Graphics/SVG/1.1/DTD/svg11.dtd">
<svg version="1.1" id="Layer_1" xmlns="http://www.w3.org/2000/svg" xmlns:xlink="http://www.w3.org/1999/xlink" x="0px" y="0px"
	 width="807.398px" height="517.435px" viewBox="-901.457 -44.641 807.398 517.435"
	 enable-background="new -901.457 -44.641 807.398 517.435" xml:space="preserve">
<g>
	<g>
		<path fill="#F0CCB2" d="M-94.061-28.668c-0.001-10.374-3.573-14.553-13.616-15.97c-259.998-0.006-519.996-0.001-780.004-0.003
			c-8.936,0.31-11.096,1.957-13.776,10.497c0,165.313,0,330.626,0,495.938c2.964,9.373,5.14,10.97,14.996,10.998
			c1.499,0.004,2.999,0.001,4.498,0.001c73.138,0,146.276,0,219.414,0c183.928,0,367.856,0.002,551.784-0.004
			c11.727-0.001,16.705-4.982,16.705-16.647C-94.059,294.539-94.059,132.935-94.061-28.668z M-852.75-16.033
			c0.661-1.821,2.954-0.929,4.516-0.94c10.498-0.07,20.996-0.036,31.495-0.036c106.15,0,212.3,0,318.45,0
			c115.482,0,230.964,0,346.446,0c1.333,0,2.672-0.073,3.998,0.022c1.26,0.091,3.011-0.609,3.603,0.884
			c0.578,1.457-1.09,2.249-1.97,3.145c-18.793,19.133-37.574,38.28-56.436,57.345c-15.939,16.111-32.197,31.913-47.893,48.254
			c-10.04,10.453-20.402,20.586-30.344,31.122c-3.24,3.434-5.172,3.059-8.448,0.017c-6.441-5.979-12.738-12.245-20.774-16.245
			c-15.807-7.868-30.799-6.419-45.22,3.593c-7.013,4.869-13.21,10.704-19.27,16.59c-6.838,6.641-14.934,10.356-23.774,13.118
			c-11.434,3.572-23.177,6.627-32.55,14.671c-8.432,7.236-13.414,16.198-13.771,27.697c-0.309,9.959,1.155,19.644,3.683,29.115
			c3.19,11.949,2.756,23.603-0.246,35.469c-3.118,12.321-5.135,24.814-1.888,37.486c0.522,2.037-0.522,3.116-1.712,4.312
			c-16.933,17.002-33.893,33.977-50.758,51.047c-2.315,2.343-3.824,2.227-6.116-0.098c-21.762-22.067-43.875-43.793-65.403-66.085
			c-29.396-30.44-59.859-59.82-89.227-90.274c-26.257-27.229-53.523-53.451-79.733-80.711
			c-26.68-27.748-54.254-54.599-81.199-82.077c-10.952-11.167-21.868-22.369-32.756-33.597
			C-851.153-13.35-853.363-14.343-852.75-16.033z M-244.818,255.631c1.401,5.466,2.258,11.033,2.433,16.739
			c0.177,5.787-2.492,9.467-7.3,11.983c-6.98,3.653-14.574,5.719-22.054,7.921c-13.794,4.061-25.316,11.604-35.361,21.642
			c-4.013,4.011-8.194,7.802-12.928,10.944c-7.961,5.284-12.996,5.255-20.463-0.602c-4.832-3.791-9.7-7.647-13.934-12.066
			c-11.503-12.008-26.038-18.091-41.587-22.546c-4.453-1.276-8.816-3.052-12.992-5.069c-7.22-3.488-9.525-8.401-8.084-16.339
			c1.811-9.971,4.011-19.882,5.476-29.901c1.783-12.194-0.693-24.129-3.251-36.005c-0.874-4.059-1.604-8.151-2.306-12.244
			c-1.278-7.457,1.274-12.484,8.047-15.995c5.504-2.852,11.405-4.788,17.342-6.28c17.083-4.293,30.642-14.106,42.929-26.167
			c2.603-2.555,5.415-4.932,8.326-7.132c7.98-6.032,12.554-6.084,20.827-0.457c7.465,5.077,13.475,11.843,20.328,17.638
			c6.849,5.791,14.436,10.071,22.841,13.01c8.168,2.856,16.421,5.483,24.506,8.554c7.488,2.844,9.625,6.413,9.565,14.452
			c-0.046,6.716-1.605,13.232-3.304,19.622C-250.083,223.583-248.931,239.586-244.818,255.631z M-873.23,422.869
			c0-139.388,0-278.651,0-417.913c0.366-0.189,0.735-0.378,1.103-0.567c7.329,7.479,14.674,14.941,21.982,22.441
			c8.939,9.174,17.772,18.454,26.783,27.556c16.642,16.809,33.651,33.262,50.017,50.335c27.895,29.099,56.898,57.093,84.977,86.002
			c6.491,6.683,12.802,13.554,19.517,20.012c2.699,2.595,2.013,4.115-0.278,6.423c-30.858,31.082-61.927,61.963-92.348,93.468
			c-26.493,27.437-53.945,53.915-80.341,81.441c-8.977,9.362-18.169,18.519-27.304,27.728
			C-870.238,420.92-871.048,422.522-873.23,422.869z M-144.314,443.906c-0.599,1.212-2.092,0.672-3.207,0.734
			c-1.329,0.074-2.665,0.019-3.997,0.019c-115.626,0.001-231.25,0.001-346.874,0.001c-116.124,0-232.248,0.006-348.372-0.047
			c-2.041-0.001-5.119,1.203-5.916-0.982c-0.717-1.966,2.241-3.361,3.707-4.845c34.769-35.193,69.847-70.085,104.303-105.582
			c28.776-29.646,58.261-58.578,87.19-88.066c2.677-2.729,5.311-5.522,7.725-8.481c2.413-2.958,4.153-2.631,6.748,0.03
			c13.952,14.303,28.107,28.408,42.159,42.614c18.741,18.946,37.474,37.9,56.165,56.895c11.211,11.393,22.492,22.724,33.448,34.359
			c8.319,8.834,17.845,7.909,25.786-0.436c19.046-20.016,38.769-39.388,58.121-59.115c2.193-2.236,3.928-2.86,6.84-1.251
			c5.258,2.906,10.956,5.018,16.78,6.347c15.565,3.551,27.696,12.399,38.623,23.541c6.83,6.965,14.892,12.38,24.365,15.1
			c16.812,4.827,30.615-1.581,43.056-12.281c6.051-5.205,11.925-10.616,17.885-15.927c0.497-0.443,1.021-0.859,1.562-1.246
			c9.842-7.036,11.842-7.067,19.98,1.537c27.13,28.686,55.756,55.893,83.124,84.342c9.577,9.955,19.376,19.695,29.028,29.579
			C-145.244,441.606-143.53,442.32-144.314,443.906z M-123.736,424.032c-5.186-5.201-9.76-9.603-14.128-14.201
			c-24.437-25.725-49.863-50.472-74.79-75.712c-7.367-7.459-14.646-15.005-22.045-22.432c-1.832-1.84-2.152-2.969,0.394-4.521
			c18.503-11.279,22.069-28.327,18.323-48.111c-1.485-7.842-3.189-15.645-4.523-23.512c-1.804-10.638,1.681-20.74,3.578-30.985
			c1.853-10.008,3.588-19.988,0.724-30.111c-4.344-15.354-15.93-23.141-29.781-28.533c-3.256-1.268-6.617-2.268-9.932-3.383
			c-2.331-0.784-3.038-1.962-0.983-3.863c0.489-0.452,0.939-0.945,1.408-1.419c34.683-35.042,69.284-70.165,104.105-105.069
			c9.029-9.054,18.746-17.42,27.65-25.64C-123.736,144.156-123.736,283.367-123.736,424.032z"/>
		<path fill="#F0CCB2" d="M-330.222,159.183c-39.753,0.265-69.58,30.925-69.781,70.068c-0.207,40.385,32.54,70.219,70.1,70.443
			c38.522,0.229,70.326-31.756,70.344-70.255C-260.026,190.631-289.664,158.913-330.222,159.183z M-329.735,271.865
			c-23.393,0.026-42.736-19.17-42.774-42.447c-0.038-23.206,19.394-42.622,42.65-42.617c23.7,0.005,42.406,18.73,42.42,42.464
			C-287.425,253.039-306.091,271.839-329.735,271.865z"/>
	</g>
</g>
</svg>
