<?xml version="1.0" encoding="utf-8"?>
<!-- Generator: Adobe Illustrator 17.0.0, SVG Export Plug-In . SVG Version: 6.00 Build 0)  -->
<!DOCTYPE svg PUBLIC "-//W3C//DTD SVG 1.1//EN" "http://www.w3.org/Graphics/SVG/1.1/DTD/svg11.dtd">
<svg version="1.1" id="Layer_1" xmlns="http://www.w3.org/2000/svg" xmlns:xlink="http://www.w3.org/1999/xlink" x="0px" y="0px"
	 width="627.013px" height="481.483px" viewBox="-587 -151 627.013 481.483" enable-background="new -587 -151 627.013 481.483"
	 xml:space="preserve">
<g>
	<g>
		<path fill="#F9EAE0" d="M-254.011-150.076c-13.353-0.003-26.707-0.007-40.06-0.01c-0.382-0.218-0.503-0.425-0.366-0.624
			c0.133-0.193,0.266-0.29,0.401-0.29c13.332,0,26.663,0,39.995,0c0.399,0.192,0.535,0.393,0.412,0.603
			C-253.754-150.184-253.881-150.076-254.011-150.076z"/>
		<path fill="#FCF6F1" d="M-294.037-151c-0.004,0.305-0.015,0.61-0.034,0.914c-4.992,0.012-9.984,0.024-14.976,0.036
			c0.007-0.317,0.011-0.634,0.012-0.95C-304.035-151-299.036-151-294.037-151z"/>
		<path fill="#FCF6F1" d="M-254.011-150.076c-0.018-0.308-0.028-0.616-0.03-0.924c4.333,0,8.666,0,12.998,0
			c0.003,0.311,0.008,0.621,0.017,0.932C-245.355-150.072-249.683-150.074-254.011-150.076z"/>
		<path fill="#F4DAC7" d="M-587-57.012c0.313-0.035,0.627-0.064,0.94-0.089c-0.036,1.747,0.512,3.602-0.94,5.088
			C-587-53.679-587-55.345-587-57.012z"/>
		<path fill="#F0CCB2" d="M39.935-50.354c0.008-9.66-2.717-18.285-8.715-25.957C24.042-85.493,15.35-92.886,5.475-98.95
			c-18.88-11.594-39.315-19.637-60.47-25.856c-60.954-17.919-123.34-25.609-186.755-25.693c-4.246,0-8.496,0-12.744,0
			c-13.081,0-26.164,0-39.251,0c-4.864,0-9.726,0-14.593,0c-7.658-0.203-15.293,0.426-22.936,0.607
			c-10.293,0.243-20.64,0.083-30.876,1.162c-23.639,2.492-47.232,5.322-70.646,9.61c-29.195,5.347-57.935,12.24-85.656,22.995
			c-18.559,7.201-36.515,15.599-51.304,29.275c-8.57,7.924-16.867,16.35-16.742,29.389c-0.239,1.811,0.528,3.712-0.502,5.448
			c0,42.995,0,85.989,0,128.984c0.712,12.174,7.489,21.077,15.966,28.886c11.76,10.841,25.519,18.588,40.031,25.107
			c26.125,11.736,53.612,19.074,81.504,24.964c20.516,4.332,41.242,7.498,62.065,10.077c17.839,2.21,35.764,3.466,53.663,4.735
			c13.412,0.951,26.91,1.938,40.406,1.221c3.795-0.201,5.426,1.191,5.357,5.164c-0.166,9.494-0.14,18.994-0.011,28.489
			c0.051,3.809-1.328,5.416-5.249,5.358c-9.661-0.143-19.327-0.11-28.989-0.011c-3.324,0.034-5.159-1.275-6.323-4.397
			c-2.112-5.668-5.323-10.711-9.553-15.098c-21.257-22.043-56.628-24.373-80.378-5.003c-8.448,6.89-14.41,15.556-16.577,26.58
			c-2.486,12.646-0.09,24.225,7.286,34.658c2.323,3.287,2.366,5.867-0.012,8.917c-1.428,1.832-2.502,3.941-3.506,6.046
			c-7.939,16.65-6.092,32.491,4.854,47.013c16.319,21.651,43.504,24.425,67.098,17.3c14.87-4.49,25.44-14.892,31.132-29.664
			c1.181-3.064,3.041-4.375,6.365-4.371c31.822,0.036,63.645,0.045,95.468-0.007c3.316-0.006,5.182,1.238,6.372,4.325
			c2.354,6.104,5.908,11.435,10.242,16.424c18.686,21.511,58.511,19.841,76.142,7.441c21.935-15.426,27.99-41.743,13.608-63.485
			c-2.835-4.287-2.423-7.088,0.237-11.046c14.784-21.994,7.209-46.385-10.548-60.535c-12.57-10.016-27.018-13.874-43.013-12.187
			c-21.615,2.279-37.599,12.517-46.453,32.769c-1.315,3.008-3.019,4.378-6.362,4.332c-9.495-0.131-18.994-0.142-28.489,0.001
			c-3.774,0.057-5.458-1.191-5.395-5.169c0.149-9.494,0.173-18.995-0.009-28.488c-0.082-4.264,1.805-5.393,5.727-5.393
			c9.479,0,18.949-0.28,28.434-0.727c25.275-1.19,50.465-3.178,75.524-6.529c38.507-5.149,76.543-12.566,113.242-25.725
			c21.439-7.687,42.089-16.992,59.204-32.454c10.667-9.636,18.055-21.007,17.952-36.383C39.742,29.954,39.903-10.201,39.935-50.354z
			 M-555.989-65.503c6.758-7.558,14.971-13.132,23.777-17.972c19.692-10.823,40.907-17.558,62.459-23.402
			c25.398-6.887,51.272-11.416,77.315-14.839c20.09-2.641,40.295-4.281,60.549-5.465c19.278-1.126,38.541-1.968,59.962-1.761
			c19.875-0.645,41.815,0.673,63.721,2.124c40.011,2.651,79.752,7.689,118.769,17.112c27.857,6.728,55.301,14.944,80.057,30.075
			c6.122,3.742,11.809,8.094,16.584,13.513c9.035,10.252,9.145,21.635,0.248,31.942c-5.39,6.245-12.068,10.908-19.042,15.2
			c-1.469,0.904-2.708,0.85-4.199,0.15c-31.606-14.852-65.253-22.743-99.371-28.948c-24.206-4.402-48.606-7.359-73.131-9.327
			c-17.9-1.437-35.832-2.217-53.76-3.171c-17.824-0.948-35.649-1.115-53.421-0.463c-27.72,1.017-55.429,2.409-83.064,5.38
			c-32.45,3.49-64.575,8.57-96.229,16.445c-19.235,4.786-38.096,10.839-56.049,19.367c-2.748,1.305-4.649,1.209-7.281-0.344
			c-6.819-4.023-12.799-8.97-18.046-14.827C-564.329-43.853-564.18-56.343-555.989-65.503z M-40.727-5.656
			c-3.66,2.481-7.489,3.387-11.104,4.614c-25.577,8.685-51.825,14.642-78.461,18.974c-19.189,3.121-38.474,5.347-57.832,7.254
			c-35.675,3.513-71.416,4.243-107.19,3.634c-24.922-0.424-49.793-2.025-74.629-4.552c-26.829-2.729-53.423-6.692-79.753-12.379
			c-18.222-3.936-36.149-9.048-53.741-15.266c-1.225-0.434-2.353-1.143-4.388-2.15c18.619-7.316,36.864-12.307,55.396-16.446
			c26.8-5.985,53.919-10.01,81.193-12.719c16.682-1.657,33.454-2.683,50.227-3.565c24.481-1.288,48.952-0.921,73.417-0.655
			c27.595,0.299,55.082,2.632,82.529,5.678c30.298,3.363,60.205,8.649,89.707,16.229C-63.763-14.027-52.353-10.397-40.727-5.656z
			 M-212.105,234.946c10.683,0.034,16.391-4.649,16.199-14.791c-0.168-8.859,7.272-18.998,21.42-22.583
			c12.775-3.237,27.934,3.147,33.583,14.649c4.682,9.532,1.502,22.359-7.106,28.662c-12.256,8.974-12.335,13.493-0.395,22.447
			c14.255,10.689,12.539,31.066-3.402,40.394c-12.79,7.484-29.94,4.322-39.309-7.217c-3.268-4.024-4.962-8.538-5.021-13.77
			c-0.098-8.719-4.212-12.822-12.945-12.83c-43.311-0.042-86.622-0.042-129.933-0.001c-8.949,0.008-12.668,3.816-13.03,12.729
			c-0.451,11.115-6.841,18.097-16.406,22.448c-16.972,7.72-37.306-1.576-40.867-18.755c-2.156-10.402,2.885-18.076,10.853-23.994
			c9.638-7.159,9.759-12.934,0.046-20.227c-12.267-9.211-14.903-22.053-6.875-33.496c5.125-7.308,14.497-11.744,24.749-11.716
			c16.566,0.045,27.52,10.364,28.529,26.878c0.279,4.562,2.308,7.862,6.693,9.612c3.002,1.198,6.075,1.535,9.281,1.532
			C-294.729,234.881-253.417,234.816-212.105,234.946z M-257.687,144.402c-13.786,8.895-34.75,4.413-42.64-9.534
			c-10.31-18.224,5.693-35.052,20.572-36.863c1.805-0.22,3.659-0.03,5.491-0.03c12.428-0.663,21.73,4.736,27.332,15.582
			C-241.348,124.368-246.052,136.895-257.687,144.402z M14.113,67.345C14.331,79.592,7.412,87.19-1.124,93.902
			c-13.501,10.617-29.138,17.252-45.159,23.003c-34.288,12.309-69.776,19.353-105.79,24.18c-21.256,2.849-42.536,5.271-63.985,6.004
			c-2.483,0.085-4.957,0.503-7.432,0.795c-3.687,0.436-4.61-0.71-2.472-3.984c3.834-5.871,5.212-12.521,5.84-19.373
			c0.091-0.991,0.041-1.999-0.002-2.997c-0.36-8.382-0.331-7.981,8.493-8.714c16.551-1.374,33.087-3.021,49.577-4.997
			c20.634-2.472,41.096-6.058,61.337-10.824c2.428-0.572,4.829-1.257,7.236-1.911c6.375-1.732,10.115-6.664,8.964-11.802
			c-1.34-5.981-8.027-10.316-14.209-8.897c-15.067,3.457-30.154,6.799-45.444,9.139c-17.738,2.714-35.51,5.125-53.413,6.537
			c-10.441,0.824-20.868,1.727-31.347,2.019c-3.248,0.091-5.739-0.929-8.183-2.884c-22.902-18.328-53.556-17.699-76.069,1.503
			c-1.001,0.853-1.864,1.888-3.408,1.802c-10.625-0.593-21.279-0.851-31.871-1.798c-14.554-1.301-29.07-3.049-43.586-4.742
			c-5.771-0.673-11.514-1.626-17.242-2.616c-2.883-0.498-5.68-0.497-8.32,0.724c-4.034,1.865-7.021,4.974-7.109,9.484
			c-0.088,4.504,2.555,7.741,6.821,9.54c6.411,2.704,13.336,2.742,20.038,3.663c22.057,3.032,44.174,5.636,66.464,6.313
			c1.975,0.06,4.096-0.089,4.092,3.004c-0.019,16.574,0.012,16.574,6.659,31.758c-8.123-0.357-15.765-0.399-23.349-1.086
			c-15.546-1.409-31.105-2.826-46.58-4.84c-41.644-5.42-82.765-13.254-121.947-29.004c-15.019-6.037-29.387-13.239-41.155-24.869
			c-6.233-6.159-9.136-13.384-9.163-21.892c-0.072-22.825-0.025-45.65-0.023-68.475c0-2.002,0.119-3.983,1.409-6.106
			c16.285,11.584,34.27,19.632,52.984,26.236c22.646,7.992,45.894,13.588,69.424,18.229c21.54,4.249,43.282,7.073,65.058,9.6
			c13.36,1.551,26.806,2.468,40.238,3.266c30.276,1.798,60.598,1.52,90.896,1.003c29.253-0.499,58.389-2.953,87.436-6.668
			c26.082-3.335,51.96-7.626,77.442-14.115c32.054-8.162,63.386-18.151,90.93-37.388c1.789,1.351,0.989,3.153,0.993,4.651
			C14.008,20.031,13.692,43.694,14.113,67.345z"/>
		<path fill="#F0CCB3" d="M-439.454,86.089c-0.117,5.686-6.058,10.78-12.356,10.593c-6.478-0.193-12.22-5.385-12.077-10.919
			c0.142-5.505,6.212-10.725,12.401-10.666C-445.196,75.157-439.339,80.508-439.454,86.089z"/>
		<path fill="#F0CCB2" d="M-268.575-107.046c15.899-0.544,34.728-0.089,53.47,1.264c21.352,1.541,42.756,2.923,63.924,6.47
			c5.569,0.933,11.193,1.537,16.76,2.485c3.683,0.627,7.077,1.991,9.157,5.43c4.082,6.752-0.489,14.825-8.797,15.422
			c-7.215,0.519-14.231-1.274-21.285-2.255c-15.142-2.107-30.326-3.657-45.558-4.877c-29.542-2.366-59.141-3.532-88.748-2.67
			c-24.399,0.71-48.79,1.734-73.121,4.415c-21.821,2.405-43.488,5.566-65.063,9.479c-6.209,1.126-12.319,2.79-18.488,4.143
			c-1.773,0.389-3.593,0.763-5.395,0.781c-6.373,0.063-11.454-4.028-12.16-9.609c-0.613-4.844,3.322-9.804,9.351-11.295
			c14.846-3.67,29.835-6.669,44.938-9.078c24.786-3.954,49.719-6.468,74.757-8.27C-313.73-106.73-292.627-107.157-268.575-107.046z"
			/>
		<path fill="#F0CCB3" d="M-96.378-67.972c-6.979,0.05-12.542-4.504-12.505-10.238c0.039-6.014,5.236-10.655,12.074-10.782
			c6.597-0.122,12.359,4.651,12.501,10.356C-84.16-72.679-89.431-68.023-96.378-67.972z"/>
	</g>
</g>
</svg>
