<?xml version="1.0" encoding="utf-8"?>
<!-- Generator: Adobe Illustrator 17.0.0, SVG Export Plug-In . SVG Version: 6.00 Build 0)  -->
<!DOCTYPE svg PUBLIC "-//W3C//DTD SVG 1.1//EN" "http://www.w3.org/Graphics/SVG/1.1/DTD/svg11.dtd">
<svg version="1.1" id="Layer_1" xmlns="http://www.w3.org/2000/svg" xmlns:xlink="http://www.w3.org/1999/xlink" x="0px" y="0px"
	 width="231.971px" height="101.987px" viewBox="0 0 231.971 101.987" enable-background="new 0 0 231.971 101.987"
	 xml:space="preserve">
<g>
	<g>
		<path d="M50.298,98.769C33.907,82.215,18.273,66.426,2.85,50.85c15.249-15.379,30.9-31.163,47.448-47.852
			c0,3.824-0.001,6.858,0,9.892c0.002,5.996,0.115,11.995-0.04,17.987c-0.079,3.034,1.028,4.311,4.066,3.997
			c1.318-0.136,2.663-0.019,3.995-0.019c54.964,0,109.928,0,164.892,0c2.148,0,4.295,0,6.879,0c0,10.744,0,21.115,0,32.276
			c-2.118,0-4.203,0-6.288,0c-49.801,0-99.602-0.025-149.402,0.026c-7.781,0.008-15.563,0.357-23.344,0.549
			c-0.253,7.766-0.522,15.531-0.747,23.298C50.242,93.314,50.298,95.627,50.298,98.769z"/>
	</g>
</g>
</svg>
