<?xml version="1.0" encoding="utf-8"?>
<!-- Generator: Adobe Illustrator 17.0.0, SVG Export Plug-In . SVG Version: 6.00 Build 0)  -->
<!DOCTYPE svg PUBLIC "-//W3C//DTD SVG 1.1//EN" "http://www.w3.org/Graphics/SVG/1.1/DTD/svg11.dtd">
<svg version="1.1" id="Layer_1" xmlns="http://www.w3.org/2000/svg" xmlns:xlink="http://www.w3.org/1999/xlink" x="0px" y="0px"
	 width="229.516px" height="95.805px" viewBox="-95.991 -95.407 229.516 95.805"
	 enable-background="new -95.991 -95.407 229.516 95.805" xml:space="preserve">
<g>
	<g>
		<path d="M-95.991-63.619c34.1-0.047,68.199-0.107,102.299-0.137c24.359-0.022,48.718-0.004,73.077-0.004c1.995,0,3.99,0,6.763,0
			c0-10.663,0-20.935,0-31.647c16.33,16.587,32.042,32.546,47.377,48.122C118.51-32.122,102.67-16.125,86.309,0.398
			c0-10.535,0-20.67,0-31.601c-2.716,0-4.82,0-6.924,0c-55.942,0-111.883,0.002-167.825-0.006c-2.517,0-5.034-0.088-7.551-0.135
			C-95.991-42.103-95.991-52.861-95.991-63.619z"/>
	</g>
</g>
</svg>
