<?xml version="1.0" encoding="utf-8"?>
<!-- Generator: Adobe Illustrator 17.0.0, SVG Export Plug-In . SVG Version: 6.00 Build 0)  -->
<!DOCTYPE svg PUBLIC "-//W3C//DTD SVG 1.1//EN" "http://www.w3.org/Graphics/SVG/1.1/DTD/svg11.dtd">
<svg version="1.1" id="Layer_1" xmlns="http://www.w3.org/2000/svg" xmlns:xlink="http://www.w3.org/1999/xlink" x="0px" y="0px"
	 width="719.134px" height="577.936px" viewBox="-793 65.368 719.134 577.936" enable-background="new -793 65.368 719.134 577.936"
	 xml:space="preserve">
<g>
	<g>
		<path fill="#F7E4D6" d="M-793,500c1.477,2,1.577,3.999,0,5.999C-793,504-793,502-793,500z"/>
		<path fill="#FBF3ED" d="M-792.003,199.037c-0.016,1.656-0.032,3.312-0.048,4.968c-0.3,0.477-0.617,0.488-0.949,0.033
			c0-1.666,0-3.333,0-4.999C-792.668,199.04-792.336,199.039-792.003,199.037z"/>
		<path fill="#F7E3D5" d="M-793,204.037c0.317-0.006,0.633-0.017,0.949-0.032c-0.149,1.709,0.693,3.604-0.949,5.032
			C-793,207.37-793,205.704-793,204.037z"/>
		<path fill="#F0CCB2" d="M-73.987,467.917c0.133-13.59-6.371-23.59-16.014-31.648c-13.57-11.339-29.739-18.006-46.47-23.323
			c-17.086-5.43-34.511-9.288-52.172-12.425c-23.744-4.218-47.691-6.537-71.69-7.275c-41.216-1.268-82.372-0.223-123.24,6.598
			c-21.332,3.56-42.351,8.052-62.738,15.289c-5.567,1.977-5.696,1.991-5.696-3.944c-0.002-64.647-0.028-129.294,0.031-193.941
			c0.007-8.005-0.653-15.886-2.032-23.781c-3.105-17.776-9.605-34.299-18.983-49.53c-9.109-14.793-20.766-27.554-34.248-38.637
			c-10.599-8.713-22.105-16.055-34.44-21.833c-18.728-8.772-38.368-14.357-59.102-16.837c-19.393-2.32-38.445-1.343-57.423,2.107
			c-18.379,3.341-35.852,9.593-52.344,18.534c-29.434,15.958-52.362,38.317-67.683,68.23c-7.032,13.729-11.108,28.414-13.772,43.536
			c-0.937,1.475-0.286,3.115-0.481,4.667c-0.242,1.771,0.535,3.64-0.516,5.332c0,96.988,0,193.976,0,290.964
			c0.817,2,0.817,3.999,0,5.999c0,1,0,2,0,3c1.484,1.127,1.6,2.91,1.848,4.471c4.838,30.436,19.232,56.071,40.319,77.928
			c17.167,17.794,37.956,30.593,61.009,39.426c33.014,12.65,67.019,15.625,101.803,9.187c19.895-3.682,38.775-10.174,56.448-20.177
			c12.506-7.078,23.769-15.775,34.362-25.382c1.968-1.785,3.087-2.314,5.159-0.138c14.109,14.819,32.419,22.329,51.289,28.465
			c23.874,7.764,48.406,12.547,73.374,15.501c19.626,2.322,39.249,4.384,58.997,4.619c30.749,0.367,61.463,0.275,92.093-3.695
			c15.628-2.026,31.192-4.304,46.615-7.385c10.875-2.173,21.554-5.276,32.171-8.635c15.953-5.048,31.292-11.292,44.655-21.434
			c12.04-9.138,19.337-20.58,18.979-36.868C-74.588,532.574-74.304,500.237-73.987,467.917z M-117.834,450.145
			c1.408-0.231,2.693,0.106,3.784,0.91c3.598,2.653,7.31,5.114,9.759,9.105c3.061,4.99,3.025,7.726-0.605,12.144
			c-6.543,7.962-15.285,12.725-24.521,16.597c-24.188,10.138-49.559,15.587-75.453,19.28c-18.924,2.699-37.911,3.853-56.951,5.062
			c-14.154,0.899-28.295,1.084-42.39,0.567c-37.306-1.368-74.47-4.326-112.036-14.521c16.974-2.881,32.632-5.596,48.31-8.184
			c17.487-2.887,34.995-5.643,52.489-8.484c23.708-3.851,47.416-7.705,71.117-11.602c19.126-3.145,38.237-6.375,57.361-9.529
			C-163.928,457.689-140.878,453.932-117.834,450.145z M-468.264,455.528c11.93-10.494,26.556-15.608,41.318-20.322
			c22.675-7.241,46.084-11.202,69.62-13.954c33.091-3.87,66.409-4.359,99.65-2.973c26.818,1.118,53.554,3.998,79.872,9.739
			c4.649,1.014,9.257,2.216,13.884,3.331c0.021,0.257,0.043,0.516,0.066,0.774c-6.773,1.269-13.523,2.679-20.324,3.777
			c-15.699,2.534-31.436,4.837-47.134,7.382c-19.461,3.155-38.897,6.463-58.345,9.697c-17.162,2.854-34.321,5.727-51.491,8.537
			c-23.546,3.853-47.102,7.647-70.651,11.482c-14.884,2.424-29.848,4.469-44.602,7.526c-5.736,1.189-8.855-1.557-12.202-4.637
			C-476.526,468.596-476.377,462.665-468.264,455.528z M-764.114,203.444c2.643-19.835,9.588-37.891,21.331-54.06
			c17.225-23.718,40.008-40.116,67.433-49.993c13.293-4.787,27.113-7.28,41.28-8.561c18.326-1.658,36.138,0.503,53.655,5.268
			c28.966,7.879,53.388,23.044,72.723,46.326c14.024,16.886,22.907,35.967,26.378,57.565c0.787,4.898,1.175,9.912,1.186,14.875
			c0.096,40.484-0.025,80.969,0.175,121.453c0.023,4.739-1.439,5.758-5.9,5.737c-36.15-0.17-72.304-0.097-108.456-0.097
			c-36.153,0-72.306-0.077-108.458,0.094c-4.725,0.022-6.306-1.229-6.282-6.141c0.184-38.818-0.066-77.638,0.161-116.455
			c0.153-26.05,11.338-46.451,32.384-61.855c15.893-11.633,33.824-17.231,53.033-17.277c28.861-0.069,53.73,10.45,72.087,33.27
			c9.518,11.832,15.137,25.956,15.123,41.377c-0.01,10.514,7.321,14.851,14.464,14.759c8.215-0.106,14.218-6.305,13.798-14.993
			c-1.244-25.783-11.321-47.569-29.511-65.565c-18.162-17.969-40.255-28.117-65.426-32.252
			c-26.868-4.414-52.472-0.286-76.346,12.025c-30.251,15.599-50.286,39.756-56.435,74.037c-0.874,4.874-1.163,9.911-1.175,14.874
			c-0.092,39.485-0.137,78.97,0.059,118.454c0.024,4.738-1.427,6.022-5.917,5.736c-5.642-0.359-11.337-0.329-16.983-0.005
			c-4.099,0.235-5.388-0.999-5.366-5.238c0.171-32.487-0.023-64.975,0.155-97.462C-764.878,227.379-765.709,215.411-764.114,203.444
			z M-484.689,435.028c-12.997,9.406-18.728,21.965-18.414,38.105c0.506,25.977-0.151,51.977,0.321,77.956
			c0.132,7.283-2.152,12.71-6.759,17.877c-15.098,16.933-33.182,29.67-54.114,38.21c-23.51,9.592-48.227,12.75-73.318,10.539
			c-27.064-2.385-52.137-11.234-74.363-27.317c-28.161-20.378-46.138-47.322-52.456-81.689c-0.835-4.545-1.136-9.245-1.146-13.875
			c-0.091-40.813,0.012-81.627-0.169-122.44c-0.02-4.454,1.189-5.845,5.594-5.531c5.304,0.379,10.655,0.088,15.986,0.09
			c6.578,0.003,6.583,0.005,6.584,6.361c0.003,19.49-0.054,38.981,0.023,58.471c0.043,10.928,8.347,17.169,18.74,14.268
			c5.638-1.574,9.21-6.372,9.22-12.641c0.034-20.323,0.144-40.648-0.089-60.969c-0.05-4.397,1.122-5.616,5.561-5.594
			c36.313,0.184,72.628,0.105,108.944,0.105c36.316,0,72.632,0.072,108.946-0.095c4.311-0.02,5.712,0.982,5.643,5.504
			c-0.27,17.654-0.283,35.317,0.009,52.97C-479.873,429.733-481.436,432.674-484.689,435.028z M-102.155,570.074
			c-0.033,5.095-3.713,8.592-7.291,11.409c-13.983,11.01-30.629,16.474-47.386,21.318c-12.728,3.679-25.751,6.303-38.875,8.341
			c-13.596,2.111-27.258,3.557-40.942,4.969c-23.072,2.381-46.186,1.873-69.297,1.83c-19.942-0.037-39.701-2.361-59.495-4.656
			c-19.517-2.263-38.669-6.112-57.502-11.414c-15.003-4.224-29.762-9.397-42.415-19.05c-6.272-4.785-9.99-10.473-9.765-18.996
			c0.479-18.148,0.143-36.317,0.149-54.478c0.002-5.476-0.011-5.427,4.666-3.032c22.235,11.387,46.013,18.043,70.421,22.615
			c21.842,4.091,43.822,6.902,66.054,8.328c21.273,1.365,42.544,2.365,63.795,1.51c24.334-0.979,48.636-2.56,72.802-6.345
			c22.689-3.554,44.992-8.348,66.749-15.604c5.972-1.992,11.681-4.794,17.453-7.354c3.462-1.537,6.81-3.324,10.939-5.358
			C-102.095,526.775-102.014,548.425-102.155,570.074z"/>
		<path fill="#F0CCB2" d="M-722.509,471.911c7.934,0.025,13.558,5.046,13.547,12.096c-0.01,7.188-5.765,12.125-14.079,12.078
			c-7.927-0.045-13.68-5.174-13.627-12.148C-736.613,476.789-730.839,471.885-722.509,471.911z"/>
	</g>
</g>
</svg>
