<?xml version="1.0" encoding="utf-8"?>
<!-- Generator: Adobe Illustrator 17.0.0, SVG Export Plug-In . SVG Version: 6.00 Build 0)  -->
<!DOCTYPE svg PUBLIC "-//W3C//DTD SVG 1.1//EN" "http://www.w3.org/Graphics/SVG/1.1/DTD/svg11.dtd">
<svg version="1.1" id="Layer_1" xmlns="http://www.w3.org/2000/svg" xmlns:xlink="http://www.w3.org/1999/xlink" x="0px" y="0px"
	 width="475.916px" height="713.893px" viewBox="-289.905 9.999 475.916 713.893"
	 enable-background="new -289.905 9.999 475.916 713.893" xml:space="preserve">
<g>
	<g>
		<path fill="#F0CCB2" d="M183.109,212.226c-4.547-31.188-15.174-60.14-31.412-87.043c-19.286-31.951-44.821-57.85-76.263-77.972
			C43.5,26.774,8.549,15.117-29.021,10.966c-2.212-1.232-4.814,0.371-7.009-0.967c-0.667,0-1.333,0-2,0
			c-3,0.804-5.999,0.804-8.999,0c-3.333,0-6.666,0-9.999,0c-3,0.804-5.999,0.804-8.999,0c-1,0-2,0-3,0
			c-1.848,1.293-4.147-0.224-6.011,0.966c-3.626,0.407-7.287,0.619-10.873,1.252c-21.47,3.787-42.369,9.34-62.411,18.252
			c-24.876,11.061-47.11,25.974-66.881,44.482c-14.57,13.639-26.898,29.162-37.772,46.044
			c-15.437,23.968-25.764,49.896-31.789,77.493c-5.517,25.27-6.46,50.867-3.469,76.719c3.149,27.218,10.321,53.177,22.763,77.449
			c12.574,24.529,26.162,48.542,39.458,72.697c14.097,25.609,28.386,51.112,42.567,76.675
			c20.22,36.449,40.469,72.883,60.613,109.375c18.883,34.21,37.589,68.518,56.52,102.701c2.975,5.372,7.212,9.663,14.039,9.785
			c7.087,0.127,11.412-4.278,14.538-9.788c9.837-17.34,19.434-34.815,29.089-52.258c12.624-22.807,25.211-45.635,37.82-68.45
			c15.676-28.364,31.376-56.716,47.034-85.091c14.854-26.917,29.683-53.849,44.491-80.791
			c11.996-21.826,23.843-43.735,35.939-65.505c18.172-32.707,27.377-67.896,29.169-105.094
			C186.527,241.956,185.274,227.073,183.109,212.226z M153.218,282.186c-4.327,26.252-13.715,50.433-26.923,73.415
			c-11.76,20.464-22.79,41.347-34.18,62.025C77.606,443.965,63.06,470.283,48.53,496.61c-13.89,25.169-27.731,50.365-41.682,75.5
			c-15.877,28.604-31.868,57.144-47.771,85.733c-3.223,5.794-6.265,11.689-9.418,17.523c-0.442,0.817-0.641,2.184-1.895,1.893
			c-0.602-0.14-1.078-1.151-1.464-1.849c-15.013-27.189-29.994-54.395-45.01-81.582c-13.163-23.832-26.35-47.65-39.546-71.463
			c-16.264-29.351-32.577-58.674-48.815-88.04c-11.734-21.222-23.407-42.479-35.055-63.749
			c-7.899-14.425-16.393-28.536-22.551-43.871c-6.33-15.764-11.037-31.938-13.324-48.798c-1.724-12.711-2.497-25.48-1.948-38.284
			c1.069-24.915,6.278-48.871,15.951-71.975c11.087-26.482,26.992-49.582,47.487-69.441c20.639-19.999,44.572-35.044,71.57-45.147
			c23.586-8.824,47.882-13.462,69.063-13.176c36.163-0.103,66.545,7.107,95.377,21.286c31.98,15.727,58.076,38.178,78.695,67.217
			c17.305,24.373,28.864,51.244,34.351,80.48C157.102,233.145,157.264,257.639,153.218,282.186z"/>
		<path fill="#F0CCB2" d="M-51.174,129.056c-66.144-0.432-119.647,53.419-119.825,118.488
			c-0.18,65.795,53.354,119.14,118.431,119.419c66.044,0.284,119.413-53.659,119.538-118.741
			C67.037,182.302,13.454,129.479-51.174,129.056z M-52.287,337.188c-48.511-0.105-89.478-40.94-88.787-89.297
			c-0.347-48.916,40.309-89.03,89.101-89.018c49.326,0.013,88.868,40.389,89.092,89.042
			C37.343,296.527-3.447,337.296-52.287,337.188z"/>
	</g>
</g>
</svg>
