<?xml version="1.0" encoding="utf-8"?>
<!-- Generator: Adobe Illustrator 17.0.0, SVG Export Plug-In . SVG Version: 6.00 Build 0)  -->
<!DOCTYPE svg PUBLIC "-//W3C//DTD SVG 1.1//EN" "http://www.w3.org/Graphics/SVG/1.1/DTD/svg11.dtd">
<svg version="1.1" id="Layer_1" xmlns="http://www.w3.org/2000/svg" xmlns:xlink="http://www.w3.org/1999/xlink" x="0px" y="0px"
	 width="706.99px" height="707.051px" viewBox="-1058.106 -18.112 706.99 707.051"
	 enable-background="new -1058.106 -18.112 706.99 707.051" xml:space="preserve">
<g>
	<g>
		<path fill="#F0CCB2" d="M-356.443,168.053c-57.384-57.374-114.725-114.79-172.17-172.103c-5.116-5.105-9.459-11.242-16.556-14.062
			c-2.333,0-4.666,0-6.999,0c-1.746,1.23-3.712,2.24-5.206,3.725c-16.659,16.555-33.302,33.129-49.818,49.827
			c-4.982,5.037-5.051,11.614-0.759,17.204c3.253,4.237,7.432,7.579,11.048,11.421c14.661,15.576,30.236,30.233,45.204,45.497
			c2.173,2.216,2.404,3.115,0.172,5.322c-16.582,16.397-33.053,32.906-49.481,49.457c-1.843,1.857-2.998,2.462-5.119,0.242
			c-6.168-6.456-12.536-12.723-18.898-18.99c-10.839-10.677-22.021-21.024-32.522-32.023c-10.055-10.531-20.467-20.693-30.717-31.02
			c-4.88-4.917-13.742-5.261-18.693-0.627c-7.145,6.688-13.982,13.71-20.885,20.654c-11.465,11.533-22.719,23.281-34.373,34.619
			c-7.095,6.902-7.653,14.777-0.812,21.707c4.761,4.824,9.265,9.915,14.203,14.546c2.591,2.431,1.901,3.723-0.244,5.855
			c-20.792,20.665-41.484,41.428-62.21,62.158c-54.054,54.064-108.069,108.166-162.214,162.138
			c-6.876,6.855-12.358,14.514-14.754,23.822c-3.616,14.047-3.222,27.849,4.122,41.042c5.786,10.395,14.6,17.997,22.797,26.175
			c2.949,2.941,3.533,4.757,0.198,7.93c-9.168,8.723-18.091,17.713-26.901,26.8c-7.261,7.489-7.175,15.641-0.044,22.894
			c6.373,6.481,12.538,13.217,19.39,19.155c4.159,3.604,3.189,5.433-0.129,8.722c-26.617,26.383-53.067,52.936-79.565,79.44
			c-3.509,3.509-7.254,6.816-9.728,11.224c0,2.666,0,5.332,0,7.999c8.686,12.845,16.106,13.41,27.411,2.099
			c20.616-20.624,41.237-41.244,61.857-61.864c7.07-7.069,14.129-14.15,21.23-21.188c1.356-1.345,2.442-3.137,4.786-0.649
			c6.689,7.102,13.669,13.931,20.543,20.858c3.629,3.657,7.617,6.229,13.184,5.871c4.334-0.279,7.534-2.216,10.44-5.136
			c9.166-9.213,18.41-18.349,27.52-27.618c2.31-2.35,3.914-3.111,6.245,0.103c1.925,2.654,4.675,4.695,6.946,7.114
			c13.629,14.516,29.107,24.411,50.293,22.619c12.018-1.016,22.631-5.068,30.927-13.299
			c52.28-51.871,104.258-104.047,156.339-156.12c23.801-23.798,47.636-47.563,71.371-71.427c2.345-2.358,3.77-3.481,6.584-0.351
			c4.522,5.029,9.63,9.531,14.484,14.263c5.798,5.652,14.026,6.115,19.707,0.674c6.707-6.423,13.08-13.191,19.637-19.77
			c11.844-11.882,23.616-23.839,35.621-35.556c5.707-5.57,6.835-13.556,1.698-19.61c-3.523-4.153-7.597-7.842-11.463-11.7
			c-7.137-7.121-14.334-14.18-21.446-21.325c-8.649-8.688-17.221-17.452-25.854-26.156c-8.031-8.096-16.066-16.188-24.178-24.203
			c-1.504-1.487-1.678-2.445-0.091-4.023c17.014-16.921,33.961-33.909,50.942-50.863c0.89-0.889,1.667-2.156,3.23-0.577
			c9.676,9.774,19.433,19.467,29.138,29.212c9.241,9.28,18.032,19.036,28.075,27.473c7.165,6.019,12.982,5.516,19.72-1.202
			c15.695-15.649,31.367-31.321,47.012-47.019C-349.298,182.51-349.466,175.029-356.443,168.053z M-786.447,255.529
			c5.797-5.506,11.522-11.106,16.959-16.964c2.395-2.58,3.609-2.034,5.794,0.171c19.356,19.523,38.847,38.912,58.261,58.377
			c4.833,4.846,10.042,8.279,17.267,5.61c5.213-1.925,8.878-7.123,8.987-13.297c-0.324-3.507-1.79-7.002-4.81-10.004
			c-19.853-19.733-39.548-39.626-59.495-59.262c-3.132-3.083-3.318-4.739,0.045-7.675c4.883-4.263,9.478-8.918,13.751-13.795
			c2.75-3.139,4.713-2.017,6.825,0.196c12.572,13.173,25.732,25.764,38.482,38.746c13.584,13.832,27.494,27.339,40.966,41.283
			c10.596,10.967,21.426,21.716,32.379,32.326c2.907,2.816,2.78,4.477-0.081,7.082c-12.402,11.293-23.633,23.78-35.81,35.328
			c-7.061,6.696-13.991,13.647-20.562,20.875c-2.453,2.698-3.957,2.539-6.407,0.082c-37.531-37.636-75.109-75.224-112.78-112.719
			C-789.319,259.259-788.842,257.803-786.447,255.529z M-890.392,571.559c-5.752,5.554-11.305,11.314-16.964,16.965
			c-0.799,0.799-1.746,1.448-2.78,2.293c-0.916-0.768-1.751-1.307-2.387-2.025c-10.1-11.396-21.522-21.495-32.083-32.446
			c-4.192-4.346-7.863-9.456-13.141-12.8c-2.653-1.681-2.3-3.461-0.101-5.547c6.025-5.717,11.975-11.519,17.769-17.468
			c1.875-1.925,2.97-1.921,4.83-0.028c14.873,15.134,29.754,30.262,44.854,45.168C-887.881,568.153-888.132,569.377-890.392,571.559
			z M-651.227,443.431c-20.458,20.535-40.962,41.025-61.467,61.513c-27.222,27.2-54.44,54.405-81.693,81.574
			c-9.15,9.122-24.793,9.582-34.512,1.072c-13.385-11.72-25.393-24.852-38.066-37.301c-14.328-14.074-28.548-28.262-42.602-42.609
			c-15.802-16.132-32.492-31.395-47.507-48.296c-8.296-9.338-7.714-25.196,1.109-34.139c5.85-5.93,11.836-11.729,17.568-17.77
			c2.109-2.223,3.341-2.238,5.522-0.005c10.126,10.37,20.379,20.618,30.717,30.778c7.864,7.729,18.884,5.494,23.135-4.654
			c2.429-5.799,0.46-10.711-3.757-14.935c-10.123-10.14-20.196-20.332-30.438-30.35c-2.249-2.2-2.649-3.534-0.154-5.88
			c6.066-5.704,11.893-11.664,17.726-17.609c1.732-1.765,2.613-2.074,4.664,0.06c7.551,7.858,15.546,15.287,23.24,23.01
			c8.408,8.439,16.605,17.087,25.016,25.521c4.901,4.914,9.844,9.822,15.134,14.3c4.693,3.973,13.36,2.868,17.836-1.713
			c4.647-4.757,5.083-12.59,0.676-17.687c-6.937-8.022-14.632-15.311-22.266-22.667c-7.376-7.108-14.337-14.643-21.567-21.905
			c-5.378-5.401-10.773-10.795-16.387-15.946c-4.304-3.948-4.488-4.874-0.387-8.937c4.97-4.925,10.061-9.744,14.765-14.914
			c2.754-3.027,4.489-3.202,7.464-0.114c9.938,10.317,20.18,20.341,30.338,30.444c3.729,3.708,10.587,5.182,15.207,2.823
			c4.829-2.465,8.263-6.19,7.836-12.351c0.428-4.579-1.742-8.166-4.944-11.356c-9.795-9.759-19.452-19.66-29.401-29.259
			c-2.776-2.679-2.616-4.159,0.083-6.67c5.484-5.103,10.766-10.443,15.862-15.935c2.577-2.778,4.123-2.528,6.734,0.098
			c31.115,31.295,62.357,62.463,93.564,93.666c6.479,6.479,12.842,13.08,19.49,19.381c2.446,2.319,1.731,3.473-0.295,5.46
			c-11.006,10.793-21.877,21.724-32.777,32.624c-12.1,12.101-24.183,24.219-36.27,36.332c-5.744,5.756-11.513,11.486-17.212,17.286
			c-6.396,6.508-6.679,13.732-0.872,19.878c5.307,5.616,13.948,5.717,20.062-0.174c8.145-7.848,16.017-15.978,24.017-23.977
			c10.805-10.804,21.659-21.559,32.416-32.41c8.999-9.078,17.876-18.277,26.844-27.386c1.272-1.292,2.909-2.239,4.106-3.587
			c1.506-1.696,2.554-1.439,4.028,0.065c6.18,6.306,12.369,12.609,18.739,18.721C-646.771,440.506-649.658,441.856-651.227,443.431z
			 M-567.608,359.832c-19.159,19.194-38.374,38.332-57.48,57.577c-2.246,2.262-3.661,2.537-5.994,0.071
			c-5.714-6.042-11.622-11.91-17.651-17.639c-2.12-2.015-1.917-3.262,0.003-5.162c7.291-7.216,14.423-14.592,21.688-21.833
			c12.091-12.05,24.309-23.972,36.293-36.127c2.019-2.048,2.599-2.661,5.064-0.242c5.781,5.674,10.966,11.973,17.378,17.014
			c1.131,0.887,1.805,2.35,2.615,3.446C-565.668,358.469-566.832,359.055-567.608,359.832z M-529.373,280.375
			c5.119,5.182,10.16,10.441,15.299,15.603c4.083,4.101,8.183,8.197,12.28,12.269c6.335,6.296,12.703,12.548,18.864,19.022
			c1.501,1.577,0.773,2.095-0.203,3.07c-6.573,6.572-13.217,13.076-19.677,19.757c-4.146,4.288-8.157,8.691-12.625,12.672
			c-1.742,1.552-2.703,1.775-4.412,0.045c-9.318-9.435-18.521-19.002-28.199-28.058c-8.472-7.927-16.442-16.333-24.649-24.51
			c-14.453-14.4-28.704-29.002-43.131-43.429c-14.559-14.559-29.287-28.949-43.837-43.517
			c-21.11-21.136-42.106-42.385-63.203-63.534c-3.157-3.165-6.769-5.853-9.516-9.464c-1.058-1.391-1.598-2.199-0.102-3.68
			c11.009-10.9,21.937-21.883,32.896-32.834c0.462-0.458,0.976-0.862,1.694-1.494c0.603,0.685,1.065,1.315,1.629,1.835
			c10.102,9.306,19.454,19.37,29.258,28.959c7.557,7.391,15.072,14.86,22.537,22.333c8.409,8.418,16.869,16.821,25.202,25.321
			c7.267,7.414,14.642,14.792,22.173,21.983c8.73,8.335,16.729,17.436,25.484,25.743c4.438,4.211,8.659,8.631,13.088,12.845
			c5.041,4.795,9.892,9.79,14.817,14.707C-538.921,270.797-534.125,275.565-529.373,280.375z M-503.8,162.979
			c-16.635,16.562-33.249,33.146-49.78,49.812c-1.794,1.808-2.755,1.353-4.449-0.062c-4.458-3.725-8.285-8.128-12.329-12.212
			c-3.817-3.855-8.05-7.371-11.533-11.609c-1.534-1.867-1.986-2.896-0.021-4.826c13.884-13.63,27.65-27.38,41.435-41.111
			c2.706-2.695,5.321-5.48,7.991-8.212c0.812-0.83,1.587-1.739,2.872-1.842c1.304,0.041,2.057,0.983,2.874,1.799
			c7.621,7.61,15.202,15.262,22.877,22.817C-501.896,159.469-501.817,161.005-503.8,162.979z M-386.936,181.149
			c-8.224,8.26-16.525,16.445-24.666,24.785c-2.135,2.187-3.409,1.554-5.257-0.304c-16.576-16.673-33.395-33.109-49.799-49.948
			c-10.844-11.132-21.874-22.09-32.819-33.112c-8.142-8.199-16.35-16.389-24.675-24.434c-11.293-10.913-21.783-22.662-33.151-33.492
			c-5.754-5.482-11.029-11.473-17.141-16.56c-3.013-2.508-2.523-4.186,0.094-6.698c7.806-7.494,15.445-15.169,22.962-22.954
			c2.387-2.472,3.841-2.539,6.34-0.028c31.36,31.512,62.833,62.91,94.27,94.346c20.84,20.839,41.668,41.69,62.494,62.543
			c1.044,1.043,2.012,2.16,2.847,3.063C-385.371,179.849-386.254,180.464-386.936,181.149z"/>
		<path fill="#F0CCB2" d="M-822.207,535.041c-0.023-8.102,5.236-13.314,13.41-13.292c8.105,0.022,13.374,5.334,13.742,13.187
			c0.415,8.858-7.249,13.78-13.797,13.861C-816.26,548.889-822.186,542.621-822.207,535.041z"/>
	</g>
</g>
</svg>
