<?xml version="1.0" encoding="utf-8"?>
<!-- Generator: Adobe Illustrator 17.0.0, SVG Export Plug-In . SVG Version: 6.00 Build 0)  -->
<!DOCTYPE svg PUBLIC "-//W3C//DTD SVG 1.1//EN" "http://www.w3.org/Graphics/SVG/1.1/DTD/svg11.dtd">
<svg version="1.1" id="Layer_1" xmlns="http://www.w3.org/2000/svg" xmlns:xlink="http://www.w3.org/1999/xlink" x="0px" y="0px"
	 width="772.675px" height="603.211px" viewBox="-501.798 -632.177 772.675 603.211"
	 enable-background="new -501.798 -632.177 772.675 603.211" xml:space="preserve">
<g>
	<g>
		<path fill="#F0CCB2" d="M269.468-466.161c-2.711-5.54-4.695-11.365-7.053-17.041c-12.752-30.69-25.679-61.306-38.426-91.997
			c-2.351-5.661-6.042-9.279-12.085-10.774c-20.43-5.055-40.848-10.163-61.217-15.456c-29.717-7.722-59.853-13.17-90.174-17.92
			c-27.213-4.262-54.584-6.926-81.961-9.512c-17.837-1.685-35.787-2.833-53.695-2.958c-35.434-0.247-70.884-1.189-106.304,1.546
			c-18.023,1.392-36.075,2.226-54.091,3.995c-20.303,1.993-40.556,4.377-60.684,7.488c-21.6,3.339-43.064,7.555-64.435,12.32
			c-27.534,6.139-54.653,13.835-82.032,20.535c-5.36,1.312-9.289,4.19-11.394,9.461c-2.403,6.018-4.996,11.96-7.492,17.941
			c-5.953,14.262-11.853,28.547-17.858,42.787c-7.41,17.574-14.906,35.112-22.365,52.665c0,2.333,0,4.666,0.002,6.996
			c0.295,0.39,0.71,0.736,0.868,1.175c6.401,17.803,12.754,35.623,19.182,53.416c1.043,2.887,3.124,4.802,5.813,6.495
			c5.63,3.546,10.951,1.006,16.39-0.054c24.075-4.692,48.149-9.387,72.216-14.115c18.539-3.642,37.077-7.29,55.598-11.021
			c14.626-2.946,29.25-5.913,43.826-9.092c6.145-1.34,9.855-5.746,10.933-11.695c2.926-16.137,5.461-32.344,8.126-48.528
			c2.046-12.424,4.141-24.841,6.023-37.29c0.539-3.565,1.971-5.578,5.689-6.279c10.746-2.025,21.432-4.337,32.202-6.289
			c30.298-5.49,60.936-7.174,91.576-8.466c15.088-0.636,30.247-0.472,45.405,0.51c18.709,1.213,37.439,1.939,56.072,4.212
			c19.1,2.33,38.019,5.584,56.824,9.68c4.77,1.039,6.535,3.119,7.235,7.637c2.436,15.717,5.159,31.39,7.815,47.072
			c1.992,11.764,4.279,23.483,5.999,35.285c1.249,8.571,4.117,12.572,12.553,14.375c15.557,3.324,31.176,6.357,46.764,9.535
			c18.517,3.775,37.013,7.661,55.549,11.344c24.546,4.877,49.138,9.523,73.668,14.479c3.841,0.777,7.121,0.495,10.543-1.314
			c4.94-2.611,6.419-7.457,8.113-12.09c5.363-14.665,10.542-29.398,15.818-44.095C270.781-456.15,271.92-461.151,269.468-466.161z
			 M-297.504-482.869c-1.613,9.847-2.979,18.521-4.487,27.17c-0.395,2.268-2.531,2.311-4.317,2.664
			c-15.117,2.987-30.235,5.966-45.346,8.978c-22.263,4.438-44.519,8.907-66.781,13.352c-12.51,2.498-25.028,4.958-37.536,7.469
			c-3.219,0.646-5.27-0.012-6.35-3.62c-1.945-6.5-4.322-12.877-6.668-19.25c-0.963-2.617-0.11-3.523,2.458-4.043
			c17.703-3.586,35.388-7.265,53.069-10.96c12.498-2.612,24.978-5.31,37.47-7.946c24.97-5.27,49.945-10.516,74.913-15.795
			C-298.332-485.431-296.711-485.029-297.504-482.869z M60.805-518.688c-1.049-8.536-3.178-16.932-4.558-25.435
			c-1.031-6.357-4.594-10.28-10.6-11.85c-22.8-5.962-45.915-10.2-69.298-13.268c-23.587-3.094-47.237-4.324-70.983-5.147
			c-11.143-0.386-22.303-0.97-33.403-0.492c-26.178,1.129-52.361,1.96-78.419,5.516c-22.706,3.098-45.139,7.293-67.424,12.486
			c-7.838,1.826-12.435,6.485-13.696,14.529c-1.283,8.186-3.042,16.306-4.058,24.522c-0.37,2.99-1.632,4.032-4.125,4.558
			c-23.687,4.995-47.326,10.232-71.072,14.93c-23.904,4.729-47.742,9.752-71.556,14.907c-8.726,1.885-17.526,3.429-27.418,5.349
			c4.216-10.041,8.146-19.349,12.036-28.674c6.904-16.552,13.975-33.039,20.534-49.727c1.55-3.944,4.18-5.209,7.579-6.086
			c12.688-3.275,25.4-6.46,38.086-9.742c28.746-7.436,57.767-13.664,87.051-18.45c21.575-3.526,43.275-6.365,65.073-8.398
			c25.623-2.39,51.264-4.068,76.986-5.158c25.983-1.102,51.952-1.019,77.895-0.454c19.542,0.425,39.102,1.822,58.639,3.276
			c16.059,1.195,32.022,3.129,48.038,4.587c12.032,1.095,23.999,3.086,35.927,5.086c18.623,3.124,37.295,6.096,55.749,10.057
			c18.156,3.897,36.03,9.089,54.099,13.417c7.414,1.776,14.608,4.371,22.186,5.563c3.594,0.565,6.346,2.1,8.078,6.248
			c9.152,21.924,18.647,43.704,27.292,65.841c1.566,4.009,3.499,7.875,5.584,12.525c-5.637-1.045-10.596-1.869-15.514-2.891
			c-28.726-5.968-57.443-11.978-86.162-17.983c-22.395-4.683-44.777-9.429-67.192-14.018
			C62.822-513.746,61.277-514.846,60.805-518.688z M238.225-445.984c-2.416,6.535-4.646,13.139-7.039,19.683
			c-0.695,1.901-1.531,3.903-4.308,3.429c-10.399-2.073-20.798-4.15-31.198-6.218c-25.189-5.009-50.38-10.004-75.566-15.023
			c-14.786-2.946-29.546-6.025-44.361-8.819c-3.447-0.65-4.451-2.135-4.798-5.572c-0.781-7.738-3.052-15.249-4.046-23.003
			c-0.487-3.803,0.744-3.902,3.584-3.295c15.396,3.288,30.793,6.569,46.201,9.803c33.254,6.98,66.514,13.933,99.773,20.89
			c6.487,1.357,12.963,2.778,19.48,3.977C238.698-449.627,239.13-448.432,238.225-445.984z"/>
		<path fill="#F0CCB2" d="M204.158-99.299c-0.002-1.486-0.097-3.006-0.413-4.452c-7.008-32.074-14.01-64.15-21.101-96.206
			c-7.558-34.169-15.216-68.315-22.811-102.476c-5.973-26.868-11.907-53.745-17.88-80.613c-1.567-7.045-5.923-11.391-12.982-12.884
			c-25.294-5.35-50.598-10.654-75.897-15.979c-4.525-0.952-10.064-0.642-13.299-3.219c-3.632-2.893-2.313-8.972-3.037-13.682
			c-2.919-18.993-5.856-37.984-8.646-56.996c-1.373-9.351-5.423-17.261-18.248-16.39c-9.123,0.619-18.323,0.011-27.484,0.178
			c-3.18,0.058-4.543-0.823-4.348-4.201c0.239-4.151,0.265-8.342-0.007-12.49c-0.587-8.938-6.549-14.7-14.577-14.398
			c-7.716,0.29-13.11,6.486-13.22,15.234c-0.042,3.332-0.269,6.691,0.059,9.991c0.443,4.46-0.926,5.999-5.694,5.924
			c-18.491-0.29-36.989-0.118-55.484-0.118c-21.827-0.001-43.655-0.064-65.482,0.065c-3.424,0.02-4.83-0.9-4.578-4.481
			c0.268-3.814,0.175-7.665,0.03-11.492c-0.35-9.23-6.216-15.337-14.375-15.126c-7.977,0.207-13.378,6.414-13.458,15.505
			c-0.032,3.665-0.19,7.343,0.051,10.993c0.226,3.414-0.859,4.692-4.452,4.609c-9.492-0.22-19.023,0.399-28.483-0.198
			c-10.972-0.693-15.901,6.767-17.129,15.384c-3.273,22.96-6.73,45.894-10.121,68.837c-0.314,2.124-1.105,3.44-3.643,3.936
			c-15.446,3.022-30.85,6.259-46.258,9.473c-13.63,2.843-27.253,5.723-40.868,8.639c-7.049,1.51-11.445,5.827-12.979,12.885
			c-4.507,20.738-8.854,41.512-13.463,62.227c-6.807,30.593-13.846,61.134-20.675,91.722c-7.118,31.881-14.142,63.784-21.13,95.694
			c-3.578,16.337-8.154,32.452-7.119,49.569c0.784,12.949,0.66,26.01-0.016,38.971c-0.475,9.115,6.275,15.925,15.993,15.898
			c101.14-0.277,202.28-0.171,303.42-0.171c69.481,0,138.963,0,208.447,0c32.491,0,64.983,0.016,97.474-0.011
			c8.194-0.007,13.847-5.532,13.876-13.666C204.217-61.642,204.184-80.471,204.158-99.299z M-341.85-58.087
			c-0.995,1.766-2.472,1.964-4.215,1.962c-19.326-0.017-38.652-0.048-57.978,0.032c-2.722,0.011-3.892-0.756-3.836-3.665
			c0.147-7.661,0.125-15.328,0.013-22.99c-0.039-2.674,1.094-3.425,3.587-3.42c25.809,0.053,51.62,0.033,78.403,0.033
			C-331.535-76.218-336.731-67.174-341.85-58.087z M-275.948-82.787c-4.642,8.05-9.27,16.109-13.86,24.189
			c-1.128,1.985-2.724,2.661-4.951,2.498c-2.153-0.156-4.324-0.033-6.978-0.033c-2.726-0.472-7.469,1.582-8.804-0.827
			c-1.273-2.295,2.509-5.645,4.04-8.524c3.113-5.855,6.745-11.433,9.931-17.252c1.251-2.286,2.586-3.581,5.369-3.454
			c4.316,0.197,8.649,0.127,12.972,0.024C-275.513-86.231-274.351-85.557-275.948-82.787z M-397.394-113.174
			c-7.1,0-7.352-0.416-5.779-7.357c7.04-31.056,14.062-62.115,21.02-93.189c5.073-22.657,10.176-45.308,15.015-68.015
			c6.119-28.715,12.424-57.384,19.119-85.971c0.567-2.423,1.394-3.062,3.704-3.548c28.072-5.901,56.097-12.021,84.16-17.964
			c12.804-2.712,15.258-5.667,17.361-20.447c2.894-20.342,6.066-40.643,9.104-60.965c0.441-2.953,1.486-4.543,5.078-4.538
			c75.487,0.115,150.975,0.132,226.463-0.034c4.224-0.009,4.603,2.35,5.033,5.075c2.476,15.714,4.846,31.445,7.247,47.171
			c1.025,6.716,1.916,13.454,3.086,20.145c1.281,7.331,5.585,11.262,12.781,12.791c28.868,6.136,57.699,12.452,86.579,18.531
			c3.096,0.652,4.323,1.905,4.994,4.978c5.377,24.626,10.95,49.21,16.48,73.803c6.909,30.73,14.058,61.409,20.684,92.2
			c5.792,26.916,11.597,53.826,17.929,80.621c1.434,6.069,0.875,6.713-5.649,6.713c-94.153,0.001-188.304,0.001-282.455,0.001
			C-209.425-113.173-303.409-113.173-397.394-113.174z M40.133-65.214c-3.362,8.664-9.229,9.239-17.102,9.221
			c-92.091-0.219-184.183-0.14-276.274-0.14c-1.825,0-3.65,0-6.201,0c2.167-6.17,6.679-10.646,8.698-16.276
			c4.224-11.776,12.309-14.139,24.432-14.058c90.755,0.605,181.516,0.329,272.275,0.329c1.767-0.001,3.532-0.001,6.21-0.001
			C47.763-78.658,42.9-72.343,40.133-65.214z M177.181-81.979c-0.21,7.326-0.143,14.664-0.024,21.994
			c0.043,2.654-0.602,3.905-3.589,3.899c-35.483-0.078-70.967-0.05-107.424-0.05c5.575-9.752,10.709-18.629,15.718-27.575
			c1.18-2.106,2.852-2.451,4.99-2.448c28.662,0.032,57.324,0.063,85.986-0.035C176.033-86.205,177.277-85.335,177.181-81.979z"/>
		<path fill="#F0CCB2" d="M-115.142-429.812c-81.353-0.139-145.282,65.147-145.596,144.959
			c-0.316,80.37,65.057,145.524,145.172,145.753c80.783-0.11,145.442-65.296,145.514-144.824
			C30.022-365.076-34.444-429.673-115.142-429.812z M-115.179-166.111c-65.919-0.745-118.3-52.222-118.379-118.044
			c-0.08-66.957,53.364-118.942,118.367-118.477c67.716,0.485,117.789,53.438,117.967,117.936
			C2.959-218.469-49.377-167.069-115.179-166.111z"/>
		<path fill="#F0CCB2" d="M-115.017-336.089c-28.464-0.069-51.833,23.159-51.848,51.536c-0.015,28.561,22.689,51.423,51.11,51.464
			c28.728,0.041,51.879-22.806,51.9-51.218C-63.834-312.511-87.063-336.021-115.017-336.089z M-115.178-260.093
			c-13.555,0.046-24.491-10.763-24.71-24.12c-0.2-12.211,9.682-24.923,24.731-24.624c14.881,0.296,23.752,11.051,24.21,24.089
			C-90.481-271.486-101.961-260.137-115.178-260.093z"/>
	</g>
</g>
</svg>
