<?xml version="1.0" encoding="utf-8"?>
<!-- Generator: Adobe Illustrator 17.0.0, SVG Export Plug-In . SVG Version: 6.00 Build 0)  -->
<!DOCTYPE svg PUBLIC "-//W3C//DTD SVG 1.1//EN" "http://www.w3.org/Graphics/SVG/1.1/DTD/svg11.dtd">
<svg version="1.1"
	 id="Слой_1" xmlns:sodipodi="http://sodipodi.sourceforge.net/DTD/sodipodi-0.dtd" xmlns:inkscape="http://www.inkscape.org/namespaces/inkscape" xmlns:dc="http://purl.org/dc/elements/1.1/" xmlns:cc="http://creativecommons.org/ns#" xmlns:rdf="http://www.w3.org/1999/02/22-rdf-syntax-ns#" xmlns:svg="http://www.w3.org/2000/svg" sodipodi:docname="sprite.svg" inkscape:version="0.92.4 (5da689c313, 2019-01-14)"
	 xmlns="http://www.w3.org/2000/svg" xmlns:xlink="http://www.w3.org/1999/xlink" x="0px" y="0px" width="500px" height="300px"
	 viewBox="0 0 500 300" enable-background="new 0 0 500 300" xml:space="preserve">
<sodipodi:namedview  inkscape:zoom="0.91077155" pagecolor="#ffffff" gridtolerance="10" objecttolerance="10" showgrid="false" bordercolor="#666666" inkscape:cx="268.34227" id="namedview3745" borderopacity="1" guidetolerance="10" inkscape:cy="23.041798" inkscape:pageopacity="0" inkscape:pageshadow="2" inkscape:window-width="1366" inkscape:window-height="706" inkscape:window-x="-8" inkscape:window-y="-8" inkscape:window-maximized="1" inkscape:current-layer="Слой_1" fit-margin-bottom="50">
	</sodipodi:namedview>
<g id="g3736" transform="translate(0.36,5.1690003)">
	<path id="path3732" inkscape:connector-curvature="0" fill="#191136" d="M26.64,26.2c0-0.056,0-0.112,0-0.168
		c0.021-0.022,0.021-0.045,0-0.067c0-0.325,0-0.651,0-0.976c0.043-0.241,0.039-0.487,0.104-0.726
		c0.369-1.373,1.172-2.414,2.391-3.139c0.52-0.31,1.084-0.51,1.673-0.641c0.223-0.05,0.454-0.034,0.68-0.071
		c0.269,0,0.539,0,0.808,0c0.022,0.021,0.045,0.021,0.067,0c0.045,0,0.09,0,0.135,0c0.17,0.032,0.344,0.017,0.514,0.042
		c1,0.151,1.88,0.566,2.654,1.212c0.791,0.659,1.271,1.523,1.626,2.468c0.1,0.266,0.189,0.537,0.221,0.822c0,0.404,0,0.808,0,1.212
		c-0.077,0.992-0.58,1.81-1.083,2.625c-0.479,0.777-0.961,1.557-1.481,2.305c-0.965,1.387-1.768,2.871-2.663,4.299
		c-0.054,0.086-0.106,0.172-0.192,0.23c-0.011,0-0.022,0-0.034,0c-0.081-0.055-0.134-0.133-0.186-0.214
		c-1.079-1.691-2.162-3.379-3.217-5.085c-0.418-0.676-0.871-1.332-1.255-2.029c-0.26-0.472-0.49-0.957-0.652-1.473
		C26.686,26.619,26.686,26.406,26.64,26.2z"/>
	<path id="path3734" inkscape:connector-curvature="0" fill="#FEFEFE" d="M30.146,25.535c-0.006-0.213-0.007-0.428,0.044-0.636
		c0.178-0.716,0.676-1.096,1.359-1.268c0.977-0.247,1.949,0.182,2.357,1.033c0.549,1.144-0.144,2.493-1.411,2.745
		c-0.997,0.199-1.871-0.249-2.267-1.163c-0.02-0.046-0.041-0.093-0.05-0.142C30.142,25.917,30.141,25.726,30.146,25.535z"/>
</g>
<path id="path3738" inkscape:connector-curvature="0" fill="#00A551" d="M132.513,17.381c0.32,0.022,0.495,0.278,0.709,0.457
	c3.868,3.227,7.024,7.079,9.796,11.258c3.968,5.981,7.105,12.381,9.574,19.115c0.092,0.251,0.219,0.499,0.163,0.782
	c-0.036,0-0.072,0-0.108,0c-2.127-0.74-4.162-1.705-6.248-2.547c-1.754-0.707-3.484-1.474-5.237-2.185
	c-0.499-0.202-0.77-0.52-0.925-1.029c-1.931-6.341-3.875-12.679-5.826-19.014c-0.604-1.962-1.217-3.923-1.788-5.895
	C132.533,18.019,132.409,17.711,132.513,17.381z"/>
<path id="path3740" inkscape:connector-curvature="0" fill="#191136" d="M62.745,26.621c0.22,0.074,0.359,0.231,0.464,0.431
	c0.423,0.81,0.851,1.618,1.277,2.427c0.175,0.332,0.128,0.65-0.137,0.919c-0.185,0.187-0.369,0.375-0.558,0.557
	c-0.104,0.1-0.128,0.208-0.088,0.346c0.107,0.365,0.287,0.694,0.507,0.999c0.725,1.008,1.588,1.875,2.647,2.535
	c0.216,0.135,0.446,0.247,0.699,0.301c0.126,0.027,0.226,0,0.316-0.095c0.209-0.22,0.422-0.435,0.636-0.65
	c0.266-0.269,0.658-0.322,0.984-0.131c0.788,0.464,1.574,0.932,2.364,1.394c0.167,0.098,0.28,0.235,0.356,0.409
	c0,0.073,0,0.146,0,0.219c-0.017,0.16-0.1,0.283-0.212,0.393c-0.241,0.238-0.472,0.486-0.721,0.716
	c-0.34,0.314-0.657,0.651-0.991,0.971c-0.171,0.164-0.384,0.242-0.618,0.265c-0.183,0-0.365,0-0.548,0
	c-0.278-0.032-0.557-0.054-0.828-0.128c-0.605-0.165-1.18-0.401-1.73-0.701c-0.533-0.29-1.048-0.607-1.533-0.972
	c-0.458-0.345-0.891-0.719-1.296-1.125c-0.211-0.212-0.424-0.423-0.635-0.635c-0.479-0.482-0.911-1.004-1.304-1.56
	c-0.376-0.532-0.711-1.087-0.99-1.675c-0.269-0.567-0.464-1.157-0.572-1.776c-0.016-0.093-0.008-0.188-0.031-0.28
	c0-0.146,0-0.292,0-0.438c0.018-0.018,0.009-0.041,0.011-0.061c-0.001-0.017,0.003-0.035-0.011-0.048c0-0.037,0-0.073,0-0.11
	c0.043-0.286,0.189-0.509,0.395-0.71c0.543-0.531,1.077-1.071,1.612-1.61c0.09-0.091,0.188-0.158,0.316-0.178
	C62.599,26.621,62.672,26.621,62.745,26.621L62.745,26.621z"/>
<path id="path3742" inkscape:connector-curvature="0" fill="#00A551" d="M113.423,17.372c-0.32,0.022-0.495,0.278-0.71,0.457
	c-3.873,3.229-7.032,7.083-9.808,11.264c-3.972,5.984-7.114,12.388-9.585,19.125c-0.092,0.251-0.219,0.499-0.163,0.782
	c0.036,0,0.072,0,0.108,0c2.13-0.74,4.167-1.706,6.256-2.548c1.756-0.708,3.488-1.475,5.243-2.186c0.5-0.203,0.771-0.52,0.926-1.029
	c1.933-6.345,3.879-12.686,5.833-19.025c0.605-1.964,1.218-3.925,1.79-5.898C113.402,18.01,113.527,17.702,113.423,17.372z"/>
<g id="g3774" transform="translate(178.36433,6.9871577)">
	<path id="path3751" inkscape:connector-curvature="0" fill="none" stroke="#ADADAD" d="M50.5,23.5L30.5,10L10,23.5v8L30.5,45
		l20-13.5V23.5z"/>
	<path id="path3753" inkscape:connector-curvature="0" fill="none" stroke="#ADADAD" d="M50.5,24l-20,13L10,24"/>
	<path id="path3755" inkscape:connector-curvature="0" fill="none" stroke="#ADADAD" d="M15.5,27.5l15-10l14.5,10"/>
	<path id="path3757" inkscape:connector-curvature="0" fill="none" stroke="#ADADAD" d="M30.5,10.5V18"/>
	<path id="path3759" inkscape:connector-curvature="0" fill="none" stroke="#ADADAD" d="M30.5,37v8"/>
</g>
<g>
	<path fill="#5E5872" d="M247.132,34.861c0.187-0.106,0.332-0.265,0.499-0.397c1.147-0.91,2.373-1.682,3.753-2.192
		c0.369-0.137,0.747-0.251,1.146-0.261c0.386-0.01,0.618,0.15,0.747,0.516c0.126,0.358,0.11,0.728,0.068,1.095
		c-0.098,0.859-0.367,1.682-0.568,2.519c-0.261,1.089-0.538,2.175-0.806,3.262c-0.042,0.17-0.06,0.344-0.049,0.519
		c0.014,0.232,0.108,0.307,0.33,0.249c0.554-0.146,1.032-0.441,1.492-0.769c0.024-0.017,0.048-0.036,0.072-0.053
		c0.205-0.154,0.202-0.151,0.36,0.061c0.105,0.142,0.185,0.304,0.322,0.422c0,0.02,0,0.04,0,0.06
		c-0.033,0.062-0.076,0.115-0.126,0.165c-0.742,0.745-1.558,1.395-2.472,1.918c-0.516,0.295-1.055,0.54-1.624,0.716
		c-0.196,0.061-0.398,0.075-0.598,0.104c-0.16,0-0.319,0-0.479,0c-0.572-0.108-0.857-0.493-0.881-1.15
		c-0.024-0.647,0.108-1.269,0.252-1.892c0.344-1.487,0.686-2.974,1.025-4.463c0.022-0.097,0.038-0.196,0.049-0.295
		c0.028-0.242-0.027-0.295-0.265-0.225c-0.433,0.127-0.839,0.317-1.233,0.535c-0.148,0.082-0.294,0.168-0.438,0.258
		c-0.137,0.086-0.179,0.077-0.264-0.064c-0.114-0.187-0.233-0.371-0.31-0.578C247.132,34.901,247.132,34.881,247.132,34.861z"/>
	<path fill="#5E5872" d="M253.029,26.179c0.082,0.051,0.179,0.044,0.268,0.071c0.761,0.23,1.126,0.922,1.065,1.674
		c-0.106,1.31-1.337,2.201-2.616,1.91c-0.598-0.136-0.941-0.524-1.064-1.119c-0.214-1.035,0.404-2.113,1.396-2.434
		c0.116-0.038,0.242-0.041,0.352-0.102c0.03,0,0.06,0,0.09,0c0.06,0.024,0.12,0.024,0.18,0
		C252.81,26.179,252.92,26.179,253.029,26.179z"/>
</g>
<g>
	<path fill="#C7C5CE" d="M266.884,34.798c0.707-0.606,1.452-1.159,2.255-1.632c0.845-0.498,1.718-0.932,2.68-1.155
		c0.212-0.049,0.43-0.096,0.649-0.045c0.379,0.09,0.587,0.417,0.617,0.89c0.046,0.727-0.13,1.418-0.304,2.111
		c-0.342,1.359-0.684,2.717-1.025,4.076c-0.061,0.241-0.116,0.483-0.101,0.735c0.015,0.24,0.09,0.306,0.325,0.255
		c0.381-0.083,0.72-0.268,1.049-0.468c0.207-0.126,0.403-0.27,0.596-0.417c0.094-0.072,0.143-0.064,0.209,0.035
		c0.121,0.182,0.257,0.354,0.386,0.529c0,0.012,0,0.024,0,0.036c-0.149,0.24-0.364,0.421-0.57,0.607
		c-0.787,0.71-1.644,1.322-2.605,1.777c-0.498,0.236-1.007,0.442-1.562,0.502c-0.202,0-0.404,0-0.605,0
		c-0.568-0.171-0.814-0.534-0.831-1.239c-0.013-0.55,0.098-1.085,0.222-1.616c0.354-1.506,0.694-3.016,1.047-4.522
		c0.027-0.115,0.048-0.232,0.062-0.35c0.024-0.199-0.05-0.266-0.247-0.213c-0.293,0.079-0.569,0.203-0.843,0.331
		c-0.274,0.128-0.539,0.274-0.795,0.435c-0.177,0.111-0.215,0.102-0.325-0.075c-0.109-0.176-0.222-0.35-0.285-0.55
		C266.884,34.822,266.884,34.81,266.884,34.798z"/>
	<path fill="#C7C5CE" d="M272.796,26.179c0.138,0.046,0.283,0.079,0.414,0.14c0.561,0.259,0.823,0.717,0.871,1.319
		c0.089,1.123-0.769,2.047-1.823,2.196c-0.521,0.074-1.036,0.01-1.442-0.384c-0.367-0.357-0.466-0.819-0.434-1.304
		c0.036-0.55,0.263-1.025,0.665-1.41c0.286-0.274,0.632-0.433,1.014-0.519c0.034-0.008,0.072-0.001,0.094-0.037
		C272.369,26.179,272.583,26.179,272.796,26.179z"/>
</g>
<g>
	<path fill="#FFFFFF" d="M285.217,34.798c0.707-0.606,1.452-1.159,2.255-1.632c0.845-0.498,1.718-0.932,2.68-1.155
		c0.212-0.049,0.43-0.096,0.649-0.045c0.379,0.09,0.587,0.417,0.617,0.89c0.046,0.727-0.13,1.418-0.304,2.111
		c-0.342,1.359-0.684,2.717-1.025,4.076c-0.061,0.241-0.116,0.483-0.101,0.735c0.015,0.24,0.09,0.306,0.325,0.255
		c0.381-0.083,0.72-0.268,1.049-0.468c0.207-0.126,0.403-0.27,0.596-0.417c0.094-0.072,0.143-0.064,0.209,0.035
		c0.121,0.182,0.257,0.354,0.386,0.529c0,0.012,0,0.024,0,0.036c-0.149,0.24-0.364,0.421-0.57,0.607
		c-0.787,0.71-1.644,1.322-2.605,1.777c-0.498,0.236-1.007,0.442-1.562,0.502c-0.202,0-0.404,0-0.605,0
		c-0.568-0.171-0.814-0.534-0.831-1.239c-0.013-0.55,0.098-1.085,0.222-1.616c0.354-1.506,0.694-3.016,1.047-4.522
		c0.027-0.115,0.048-0.232,0.062-0.35c0.024-0.199-0.05-0.266-0.247-0.213c-0.293,0.079-0.569,0.203-0.843,0.331
		c-0.274,0.128-0.539,0.274-0.795,0.435c-0.177,0.111-0.215,0.103-0.325-0.075c-0.109-0.176-0.223-0.35-0.285-0.55
		C285.217,34.822,285.217,34.81,285.217,34.798z"/>
	<path fill="#FFFFFF" d="M291.13,26.179c0.138,0.046,0.283,0.079,0.414,0.14c0.561,0.259,0.823,0.717,0.871,1.319
		c0.089,1.123-0.769,2.047-1.823,2.196c-0.521,0.074-1.036,0.01-1.442-0.384c-0.367-0.357-0.466-0.819-0.434-1.304
		c0.036-0.55,0.263-1.025,0.665-1.41c0.286-0.274,0.632-0.433,1.014-0.519c0.034-0.008,0.072-0.001,0.094-0.037
		C290.702,26.179,290.916,26.179,291.13,26.179z"/>
</g>
<g>
	<path d="M312.442,23.385c0.066-0.192,0.106-0.398,0.201-0.575c0.517-0.964,1.813-1.181,2.638-0.441
		c1.074,0.964,2.14,1.937,3.209,2.906c2.501,2.268,5.002,4.537,7.503,6.806c0.041,0.038,0.085,0.072,0.167,0.14
		c0.042-0.06,0.074-0.123,0.121-0.172c3.347-3.413,6.695-6.824,10.042-10.237c0.465-0.474,1.018-0.662,1.665-0.518
		c0.615,0.137,1.041,0.51,1.223,1.119c0.181,0.606,0.017,1.136-0.422,1.584c-3.136,3.196-6.271,6.393-9.41,9.586
		c-0.267,0.272-0.555,0.524-0.846,0.797c0.136,0.125,0.227,0.209,0.318,0.292c3.494,3.169,6.987,6.338,10.482,9.506
		c0.715,0.648,0.804,1.598,0.207,2.283c-0.602,0.692-1.687,0.782-2.386,0.173c-0.718-0.626-1.416-1.275-2.121-1.914
		c-2.877-2.609-5.754-5.219-8.631-7.829c-0.046-0.042-0.094-0.081-0.145-0.124c-0.787,0.802-1.566,1.595-2.345,2.389
		c-2.621,2.671-5.241,5.342-7.863,8.012c-0.572,0.582-1.382,0.718-2.069,0.355c-0.972-0.515-1.171-1.744-0.402-2.531
		c1.139-1.168,2.284-2.33,3.427-3.494c2.233-2.276,4.467-4.551,6.7-6.827c0.035-0.036,0.068-0.074,0.11-0.121
		c-0.05-0.047-0.095-0.089-0.141-0.13c-3.549-3.219-7.097-6.439-10.648-9.655c-0.324-0.294-0.505-0.652-0.584-1.073
		C312.442,23.591,312.442,23.488,312.442,23.385z"/>
</g>
<path fill="#D91C40" d="M364.28,39.181c0,0.126,0,0.253,0,0.379c-0.049,0.254-0.201,0.406-0.455,0.455c-0.126,0-0.253,0-0.379,0
	c-0.296-0.085-0.567-0.216-0.751-0.473c-0.325-0.454-0.738-0.829-1.112-1.236c-0.69-0.752-1.364-1.52-2.073-2.255
	c-0.208-0.216-0.344-0.22-0.549,0.001c-1.045,1.127-2.093,2.253-3.105,3.41c-0.23,0.263-0.488,0.469-0.831,0.554
	c-0.126,0-0.253,0-0.379,0c-0.254-0.049-0.406-0.201-0.455-0.455c0-0.152,0-0.303,0-0.455c0.125-0.687,0.699-1.057,1.115-1.527
	c0.86-0.971,1.742-1.924,2.63-2.871c0.132-0.141,0.13-0.241,0-0.383c-0.817-0.892-1.633-1.784-2.454-2.672
	c-0.342-0.37-0.654-0.768-1.028-1.109c-0.181-0.165-0.154-0.419-0.262-0.615c0-0.152,0-0.303,0-0.455
	c0.197-0.564,0.851-0.693,1.319-0.24c0.435,0.421,0.825,0.885,1.235,1.33c0.734,0.797,1.465,1.598,2.198,2.397
	c0.212,0.232,0.376,0.23,0.587-0.001c0.739-0.81,1.479-1.618,2.219-2.427c0.382-0.419,0.754-0.847,1.149-1.255
	c0.265-0.274,0.591-0.315,0.94-0.292c0.352,0.023,0.377,0.311,0.441,0.564c0,0.126,0,0.253,0,0.379
	c-0.116,0.695-0.705,1.056-1.119,1.526c-0.841,0.956-1.714,1.885-2.576,2.823c-0.164,0.178-0.162,0.301,0.002,0.479
	c0.862,0.938,1.723,1.877,2.584,2.816c0.281,0.307,0.551,0.625,0.846,0.918C364.21,38.682,364.19,38.952,364.28,39.181z"/>
<path fill="#00A849" d="M375.334,34.116l1.188-1.188l3.291,3.228l5.51-5.416l1.148,1.148l-6.682,6.682L375.334,34.116z"/>
<path fill="#9A9EAF" d="M397.959,33.948l1.188-1.188l3.291,3.228l5.51-5.416l1.148,1.148l-6.682,6.682L397.959,33.948z"/>
<g>
	<path fill="#FFFFFF" d="M312.442,57.231c0.038-0.111,0.061-0.23,0.116-0.331c0.298-0.556,1.045-0.681,1.521-0.254
		c0.619,0.556,1.234,1.117,1.85,1.676c1.442,1.308,2.884,2.616,4.327,3.925c0.024,0.022,0.049,0.042,0.096,0.081
		c0.024-0.035,0.043-0.071,0.07-0.099c1.93-1.968,3.861-3.935,5.791-5.903c0.268-0.273,0.587-0.382,0.96-0.299
		c0.355,0.079,0.6,0.294,0.705,0.645c0.104,0.349,0.01,0.655-0.243,0.913c-1.808,1.843-3.616,3.686-5.426,5.528
		c-0.154,0.157-0.32,0.302-0.488,0.459c0.078,0.072,0.131,0.121,0.183,0.168c2.015,1.827,4.029,3.655,6.045,5.482
		c0.412,0.374,0.464,0.921,0.119,1.317c-0.347,0.399-0.973,0.451-1.376,0.1c-0.414-0.361-0.816-0.735-1.223-1.104
		c-1.659-1.505-3.318-3.01-4.977-4.514c-0.026-0.024-0.054-0.046-0.083-0.072c-0.454,0.462-0.903,0.92-1.352,1.378
		c-1.511,1.54-3.022,3.081-4.534,4.62c-0.33,0.336-0.797,0.414-1.193,0.204c-0.56-0.297-0.675-1.006-0.232-1.46
		c0.657-0.673,1.317-1.343,1.976-2.015c1.288-1.312,2.576-2.625,3.864-3.937c0.02-0.021,0.039-0.043,0.064-0.07
		c-0.029-0.027-0.055-0.051-0.081-0.075c-2.046-1.856-4.092-3.713-6.14-5.567c-0.187-0.169-0.291-0.376-0.336-0.619
		C312.442,57.349,312.442,57.29,312.442,57.231z"/>
</g>
<path fill="#FEFEFE" d="M27,109.75c7.565-13.92,12.231-30.402,13.406-46.117l0,0c1.064,15.372,2.128,30.745,3.192,46.117
	C38.065,109.75,32.533,109.75,27,109.75z"/>
</svg>
