<svg width="0" height="0" class="hidden">
  <symbol xmlns="http://www.w3.org/2000/svg" viewBox="-644.771 55.568 632.016 568.058" id="bowl">
    <path fill="#FCF7F3" d="M-344.821 56.507c.006-.313.011-.626.013-.939h30.996c.002.313.006.627.013.939h-31.022z"></path>
    <path fill="#F5DDCC" d="M-644.771 442.519c1.41 2 1.497 4 0 5.999v-5.999z"></path>
    <path fill="#F0CCB2" d="M-14.016 422.546c-4.582-30.955-9.93-61.793-14.418-92.762-4.866-33.581-11.532-66.879-14.812-100.718-3.295-34.002-19.042-62.433-41.94-87.109-24.245-26.129-54.007-44.324-86.649-57.784-45.758-18.869-93.456-28.563-143.073-28.103h-29.002c-13.97.264-27.984.243-41.843 1.902-29.021 3.474-57.394 9.988-84.918 19.949-38.69 14.002-74.044 33.389-102.572 63.746-18.578 19.768-32.209 42.355-39.082 68.771-2.908 11.174-3.117 22.728-4.738 34.076-4.094 28.667-8.774 57.249-13.266 85.858-3.847 24.498-7.611 49.01-11.595 73.486-1.335 8.199-.858 16.567-2.847 24.663v13.998c.794 2 .794 4 0 5.999v2c1.409 5.31.824 10.895 2.157 16.203 3.904 15.526 10.717 29.752 19.737 42.911 20.782 30.318 49.23 51.641 81.266 68.619 28.441 15.073 58.722 25.197 89.951 32.604 26.444 6.272 53.205 10.677 80.366 12.068 20.959 1.074 41.956.617 62.937.545 11.308-.039 22.666-.136 33.885-1.351 18.854-2.042 37.639-4.726 56.217-8.737 38.143-8.236 74.9-20.252 109.022-39.513 27.407-15.47 51.991-34.358 70.462-60.233 19.456-27.254 29.775-57.177 24.755-91.088zm-558.986-229.737c15.739-30.618 40.929-51.628 70.223-68.213 34.171-19.347 71.235-30.141 109.86-36.105 21.079-3.252 42.28-4.744 63.084-4.989 42.695.394 84.086 5.94 124.226 19.313 27.662 9.216 53.772 21.599 76.769 39.785 26.687 21.104 47.019 46.599 53.953 80.905 5.32 26.32.185 50.985-12.752 74.114-16.74 29.926-42.297 50.622-71.9 66.656-33.438 18.111-69.418 28.598-106.898 34.27-23.565 3.567-47.276 5.475-71.084 4.775-25.099-.737-50.031-3.243-74.724-8.295-30.886-6.319-60.439-16.204-88.082-31.362-32.347-17.737-59.71-40.818-75.397-75.171-14.69-32.173-13.443-64.233 2.722-95.683zM-52.711 478.1c-9.847 20.755-24.975 37.251-42.883 51.23-31.085 24.265-66.717 39.019-104.407 49.524-22.493 6.269-45.362 10.548-68.466 13.337-27.287 3.295-54.771 4.368-82.229 3.107-43.013-1.976-85.355-8.347-126.395-21.873-32.959-10.863-63.959-25.555-90.912-47.833-17.445-14.419-31.476-31.598-40.391-52.536-7.286-17.112-8.678-34.68-5.205-53.208 5.079-27.092 8.633-54.469 12.89-81.716 1.331-8.52 2.835-17.013 4.406-26.391 3.794 5.544 7.096 10.597 10.625 15.487 15.843 21.957 36.359 38.721 59.107 52.988 34.03 21.342 71.449 33.918 110.496 41.83 21.817 4.421 43.953 6.663 66.267 7.827 17.859.932 35.646.633 53.356-.62 30.899-2.186 61.339-7.468 91.057-16.612 28.975-8.915 56.448-20.933 81.674-37.867 24.219-16.258 44.735-36.132 59.825-61.3 1.189-.602 1.495.412 1.987 1.085 3.144 20.192 6.271 40.387 9.438 60.575 3.142 20.024 6.994 39.966 9.271 60.087 1.703 15.045-3.089 29.343-9.511 42.879z"></path>
    <path fill="#F9EBE1" d="M-61.909 314.559l-1.987-1.083c.148-.622.372-1.44 1.083-1.285 1.297.281.831 1.479.904 2.368z"></path>
    <path fill="#F0CCB2" d="M-280.957 511.283c-7.276-21.903-22.388-38.744-38.631-54.412-6.197-5.978-14.977-4.961-21.145 1.169-3.89 3.866-7.563 7.962-11.183 12.087-9.362 10.666-18.03 21.82-23.716 34.985-2.531 5.859-4.596 11.916-3.977 18.354 2.455 25.525 23.846 44.91 56.779 45.04 9.325-.02 23.232-6.378 33.604-19.323 8.87-11.073 12.845-24.124 8.269-37.9zm-39.38 28.04c-13.542 6.16-30.373-3.505-30.472-17.933-.148-1.701.349-3.439 1.125-5.134 4.408-9.638 10.755-17.953 17.533-25.999 1.913-2.271 3.353-2.78 5.436-.171 5.609 7.028 10.885 14.254 15.68 21.888 7.228 11.507-.267 23.24-9.302 27.349zm213.571-324.004c-7.714-21.599-22.301-38.027-40.147-51.731-22.307-17.13-47.451-28.76-74.222-36.998-29.72-9.146-60.112-14.107-91.223-15.233-11.653-.422-23.227-.37-34.869.02-15.33.514-30.545 1.994-45.608 4.541-35.197 5.951-68.946 16.353-99.877 34.663-20.448 12.105-38.323 27.075-51.04 47.487-11.059 17.75-15.538 37.065-12.372 57.808 4.071 26.674 19.367 46.726 39.327 63.506 21.559 18.124 46.554 30.206 73.154 38.953 36.963 12.154 74.975 17.773 116.857 17.287 19.908.842 42.594-1.486 65.026-5.493 31.104-5.557 61.07-14.869 88.982-30.099 20.383-11.123 38.711-24.739 52.546-43.654 18.066-24.701 23.992-51.583 13.466-81.057zm-38.094 66.993c-9.171 11.668-20.384 20.971-32.942 28.695-30.125 18.529-63.235 28.359-97.944 33.662-17.801 2.72-35.659 4.11-48.693 3.985-47.848.125-89.448-6.823-129.158-23.345-19.022-7.914-36.405-18.69-51.56-32.808-1.449-1.35-2.569-3.047-3.884-4.545-8.517-9.7-8.735-6.788.634-17.166 16.798-18.607 38.365-30.147 61.306-39.187 27.257-10.741 55.69-16.375 84.831-19.275 44.626-4.441 88.37-.198 131.215 12.53 25.684 7.629 49.843 18.783 70.711 36.077 5.782 4.792 10.814 10.349 15.547 16.181 1.506 1.856 1.491 3.22-.063 5.196zm13.34-33.522c-1.169.534-1.797-.501-2.482-1.158-27.696-26.551-61.579-41.226-97.916-51.372-24.291-6.783-49.015-10.207-74.144-11.919-38.162-2.6-75.797.661-112.825 9.635-30.714 7.444-59.954 18.889-86.121 37.158-6.556 4.577-12.536 9.863-18.664 14.973-1.163.969-2.042 3.416-3.828 2.376-1.621-.945-1.259-3.304-1.157-5.119.851-15.091 6.049-28.44 15.677-40.17 17.683-21.542 41.135-34.469 66.428-44.511 24.557-9.75 50.148-15.355 76.401-18.292 13.43-1.501 26.854-2.018 40.331-1.956 36.743-.566 72.631 4.628 107.439 16.489 23.968 8.168 46.496 19.261 65.407 36.406 12.625 11.446 22.572 24.896 25.703 42.307.774 4.304.47 8.629.497 12.95.005.788.154 1.792-.746 2.203z"></path>
    <path fill="#F0CCB2" d="M-275.003 301.605c-17.154 0-34.309.03-51.463-.016-5.934-.016-10.247-2.823-12.454-8.321-2.018-5.028-1.389-9.887 2.436-13.913 2.99-3.148 6.855-4.728 11.204-4.732 33.643-.034 67.286-.086 100.928.025 8.497.028 15.262 6.278 15.259 13.457-.004 7.734-6.483 13.484-15.445 13.514-16.821.056-33.643.016-50.464.016l-.001-.03zm-120.99-.017c-3.688.096-7.395.115-10.489-2.331-3.845-3.041-6.643-6.878-5.905-11.956.783-5.387 3.55-9.634 9.121-11.488 5.438-1.809 10.823-1.933 16.041.576 5.829 2.803 8.564 8.603 7.285 14.952-1.152 5.719-6.262 9.9-12.556 10.238-1.162.063-2.331.009-3.497.009z"></path>
  </symbol>
  <symbol xmlns="http://www.w3.org/2000/svg" viewBox="-748.112 1 607.114 682.918" id="cat">
    <path fill="#F0CCB2" d="M-147.159 227.532c-15.259-11.745-30.601-23.383-45.832-35.165-28.76-22.248-57.441-44.597-86.198-66.849a47611.46 47611.46 0 0 0-95.832-73.981C-396.982 34.633-419.03 17.842-441.039 1l-8 .001c-9.104 7.185-18.14 14.459-27.324 21.541-28.277 21.807-56.664 43.471-84.908 65.32-36.38 28.143-72.629 56.456-109.002 84.609-23.891 18.492-47.925 36.799-71.842 55.256-6.66 5.139-7.883 12.45-3.118 19.407 11.357 16.582 22.694 33.184 34.406 49.515 9.411 13.122 13.162 13.459 26.19 4.156 1.787-1.277 3.173-4.64 5.535-3.331 2.332 1.292.956 4.593.957 6.969.06 121.477.052 242.955.061 364.433.001 9.685 4.866 15.024 13.81 15.025 146.806.017 293.613.011 440.419.017 2.009 0 3.931-.141 5.835-1.006 6.428-2.922 8.003-8.284 8.001-14.744-.035-121.477-.025-242.955-.025-364.433 0-1.333.011-2.666.003-3.999-.016-2.452.72-3.121 2.857-1.4 2.455 1.977 5.046 3.783 7.566 5.68 6.363 4.789 13.754 3.84 18.253-2.616a8093.887 8093.887 0 0 0 37.399-54.091c4.913-7.174 3.643-14.515-3.193-19.777zm-87.822 410.541c-.497 4.949-.257 9.993-.054 14.984.128 3.134-1.12 4.247-4.088 3.925-.988-.107-1.998-.016-2.997-.016-134.634 0-269.269.004-403.904-.01-7.745-.001-7.012.836-7.013-6.901-.01-118.805-.007-237.61-.005-356.415 0-6.719.005-6.722 6.707-6.723 95.311-.001 190.621.002 285.932-.004 10.126-.001 15.421-4.669 15.41-13.514-.01-7.803-4.535-12.705-12.412-13.37-1.49-.126-2.998-.037-4.497-.037l-262.937-.001h-5.314a263.39 263.39 0 0 0-.337-1.186c10.868-8.442 21.729-16.894 32.606-25.325 22.173-17.186 44.334-34.389 66.54-51.531 18.923-14.608 37.915-29.126 56.854-43.714 8.682-6.688 17.404-13.33 25.909-20.238 2.967-2.409 5.029-2.389 8.058-.029 23.048 17.959 46.248 35.724 69.365 53.595 28.372 21.934 56.698 43.926 85.065 65.866 15.494 11.983 30.999 23.954 46.577 35.827 3.166 2.413 4.528 5.095 4.523 9.242-.119 105.308-.094 210.616-.095 315.924 0 6.543-.004 6.549-6.388 6.549-96.31.001-192.621-.001-288.931.003-9.055 0-13.328 2.598-15.641 9.449-2.721 8.061 2.774 16.62 11.255 17.447 1.651.161 3.33.05 4.996.05 96.144.001 192.287.039 288.431-.108 4.932-.008 6.914 1.002 6.385 6.261zm61.212-392.536c-6.278 8.578-12.519 17.206-18.25 26.151-2.531 3.951-4.225 2.063-6.467.337-13.023-10.026-26.052-20.043-39.07-30.075-31.818-24.521-63.655-49.017-95.439-73.583a42928.035 42928.035 0 0 1-102.734-79.645c-2.612-2.034-5.445-3.078-8.606-3.745-3.145.472-6.039 1.425-8.646 3.453-24.11 18.758-48.263 37.462-72.413 56.169-26.379 20.434-52.753 40.876-79.159 61.274-17.735 13.699-35.528 27.323-53.285 40.993-11.049 8.506-22.129 16.973-33.085 25.598-2.58 2.031-3.961 2.465-6.093-.791-5.821-8.892-11.998-17.558-18.277-26.136-2.092-2.858-1.678-4.397 1.023-6.467a42558.503 42558.503 0 0 0 110.16-84.678c39.709-30.63 79.363-61.33 119.021-92.025 12.477-9.658 24.932-19.345 37.296-29.147 2.397-1.901 4.095-1.888 6.515-.012 43.972 34.087 87.993 68.11 132.027 102.117 30.349 23.439 60.74 46.823 91.098 70.25 14.458 11.157 28.842 22.413 43.362 33.489 2.702 2.061 3.117 3.61 1.022 6.473z"></path>
    <path fill="#F0CCB3" d="M-592.046 618.383c.02-7.32 5.354-13.25 12.003-13.343 6.885-.097 13.104 6.407 13.005 13.599-.1 7.197-5.848 13.172-12.763 13.265-6.723.09-12.265-6.03-12.245-13.521zm267.949-345.188c.068-7.489 5.824-13.409 12.798-13.164 6.66.234 12.18 6.261 12.219 13.342.038 6.854-6.38 13.671-12.723 13.514-7.059-.175-12.364-6.083-12.294-13.692z"></path>
    <path fill="#F0CCB2" d="M-293.056 402.885c2.437-13.556 3.688-27.27 4.763-40.969.633-8.069 1.205-16.286-.794-24.355-5.22-21.073-26.954-34.835-47.354-29.487a393.422 393.422 0 0 0-60.624 21.308c-4.271 1.905-8.233 4.221-13.688 3.008-22.505-5.002-45.156-4.849-67.708-.043-3.137.668-5.741.456-8.629-.852-16.221-7.345-32.795-13.823-49.864-18.907-7.137-2.125-14.149-5.182-21.658-5.552-23.488-1.156-42.52 16.991-42.43 40.531.088 23.125 3.242 45.939 7.485 68.645 1.182 6.328 3.179 12.465.699 19.435-6.296 17.697-8.794 36-6.244 54.875 3.79 28.052 17.099 50.906 38.44 68.836 21.422 17.998 46.798 25.744 74.699 25.528 13.829-.107 27.659-.018 41.489-.019 15.663-.001 31.332.299 46.987-.085 16.08-.395 31.606-3.733 46.221-10.739 18.277-8.762 32.855-21.691 44.241-38.446 11.132-16.382 16.984-34.432 17.95-54.107.81-16.486-2.274-32.401-7.633-47.921-.941-2.725-1.206-5.256-.534-8.213 1.687-7.424 2.837-14.971 4.186-22.471zm-29.344 33.541c4.795 13.696 8.818 27.621 8.219 42.276-.748 18.302-7.032 34.657-18.869 48.783-14.818 17.685-34.026 27.581-56.628 30.088-12.016 1.333-24.292.338-36.451.377-5.995.02-11.992.003-17.988.001-15.825-.002-31.661.386-47.472-.083-32.222-.956-57.236-15.194-73.269-43.179-11.31-19.742-12.947-41.226-6.456-63.152 1.271-4.294 2.423-8.678 4.249-12.742 3.936-8.755.027-16.982-1.33-25.323-2.767-17.009-6.039-33.928-6.764-51.218-.187-4.456-1.021-8.895-.896-13.398.285-10.288 8.743-17.09 18.634-14.508 17.874 4.666 35.254 10.831 52.253 18.062 1.071.456 2.252.778 3.171 1.45 11.89 8.685 24.533 5.838 37.533 3.199 18.174-3.689 36.337-1.896 54.165 2.782 5.05 1.325 9.319.51 13.867-1.659 20.6-9.824 41.919-17.761 63.998-23.582 10.892-2.872 19.611 3.709 19.357 14.877-.439 19.264-2.936 38.329-6.407 57.266-1.344 7.333-2.848 14.636-4.326 21.944-.565 2.792.535 5.239 1.41 7.739z"></path>
    <path fill="#F0CCB2" d="M-467.292 523.954c-7.614-.02-13.163-5.026-13.679-12.342-.493-6.991 4.877-13.277 12.41-14.527 8.001-1.328 10.834-4.37 11.491-12.34.625-7.583 5.839-12.875 12.633-12.824 6.768.051 11.749 5.266 12.439 13.022.6 6.746 4.927 11.155 11.765 11.988 7.595.925 13.237 7.895 12.032 14.863-1.406 8.129-8.374 12.893-16.276 11.552-5.997-1.017-11.742-2.553-16.48-6.459-2.66-2.193-4.546-1.558-6.924.342-5.325 4.256-12.89 6.742-19.411 6.725zm-76.712-77.793c.499-3.907 2.201-8.296 7.011-10.673 6.697-3.309 13.488-6.426 20.224-9.656 3.533-1.694 6.838-.627 10.051.844a769.047 769.047 0 0 1 17.107 8.088c5.154 2.515 8.986 8.832 8.438 13.65-.659 5.793-4.911 10.764-10.278 12.174-3.681.967-7.207.013-9.962-2.009-7.906-5.802-15.207-4.913-23.204.061-10.071 6.266-19.584-1.836-19.387-12.479zm198.965.206c-.048 10.561-8.989 17.583-16.655 13.243-10.142-5.742-18.817-6.088-28.854.041-5.988 3.656-13.181-.175-15.92-6.617-2.93-6.893-.154-14.632 6.745-18.123 5.922-2.996 11.964-5.758 17.99-8.543 3.834-1.772 7.534-1.715 11.434.351 5.713 3.027 11.631 5.679 17.525 8.352 5.586 2.532 7.393 7.215 7.735 11.296z"></path>
  </symbol>
  <symbol xmlns="http://www.w3.org/2000/svg" viewBox="-471 -0.01 452.99 718.435" id="cat-food">
    <path fill="#F4DBCA" d="M-471 363.944c1.566 1.694.983 3.792.983 5.729.021 97.413.013 194.826.008 292.239-.334.632-.664.63-.991-.005V363.944z"></path>
    <path fill="#FBF4EE" d="M-471 355.945c.3-.012.6-.022.899-.029.002 1.73.598 3.566-.899 5.028v-4.999z"></path>
    <path fill="#F7E6D9" d="M-471 661.907c.331-.001.662.001.992.005l-.016 5.015a15.148 15.148 0 0 0-.976-.02v-5z"></path>
    <path fill="#F0CCB2" d="M-18.104 359.976c-.014-14.827-1.664-29.508-5.427-43.934-5.67-21.738-12.323-43.192-18.411-64.807-11.276-40.035-22.945-79.957-34.549-119.897-2.947-10.144-4.751-20.232-4.611-30.895.366-27.818.22-55.644.072-83.467-.052-9.757-3.396-14.263-12.017-16.986h-302.962c-7.71 1.358-11.06 6.443-12.178 13.756-.532 3.477-.861 6.925-.86 10.427.004 27.98-.078 55.961.065 83.94.033 6.413-.942 12.544-2.699 18.668-15.787 55.015-31.737 109.984-47.623 164.971-6.019 20.833-11.417 41.699-11.194 63.598-.239 1.86.529 3.808-.502 5.594v3c.971 1.894.476 3.927.477 5.886.028 97.16.025 194.32.026 291.481v5.721c-.208 3.018.345 5.978.716 8.944 3.07 24.575 22.615 42.357 47.273 42.377 118.623.099 237.246.026 355.869.072 12.54.005 23.677-3.219 32.288-12.838 10.62-11.862 16.355-25.561 16.341-41.723-.09-101.296-.002-202.592-.094-303.888zM-374.312 33.928c43.138.146 86.277.088 129.415.088 42.972 0 85.943.079 128.914-.108 4.914-.021 6.142 1.483 6.079 6.217a2195.498 2195.498 0 0 0-.006 56.46c.055 4.469-1.366 5.601-5.697 5.595-86.276-.114-172.552-.118-258.829.008-4.513.007-5.61-1.444-5.563-5.732.205-18.985.225-37.976-.012-56.96-.056-4.493 1.383-5.583 5.699-5.568zm124.558 582.621c.583 9.099 4.171 17.406 17.503 17.372 59.818-.156 119.637-.069 179.455-.067 6.792 0 6.801.008 6.799 6.819a4692.08 4692.08 0 0 1-.045 19.495c-.023 4.961-1.394 9.59-4.084 13.7-3.984 6.087-9.336 9.283-17.067 9.255-52.32-.193-104.64-.1-156.96-.1l-20.497-.001c-58.652 0-117.304.003-175.956-.002-13.441-.001-20.901-6.865-22.551-20.112-.663-5.322-.761-10.61-.761-15.93-.008-89.478.021-178.955-.032-268.433-.016-26.884 5.239-52.806 12.963-78.443 9.6-31.862 18.547-63.921 27.764-95.899 6.128-21.261 12.258-42.522 18.318-63.802.703-2.469 1.967-3.729 4.591-3.501.992.086 1.998.009 2.998.009 88.311 0 176.623.04 264.934-.106 5.012-.008 7.11 1.348 8.531 6.396 10.415 36.995 21.429 73.821 31.854 110.814 7.578 26.89 16.475 53.423 22.338 80.782 2.339 10.914 3.587 21.998 3.595 33.165.061 75.481.013 150.962.168 226.443.009 4.631-1.644 5.48-5.813 5.472-60.318-.113-120.636-.079-180.955-.076-10.917.001-17.76 6.284-17.09 16.75z"></path>
    <path fill="#F0CCB2" d="M-296.657 633.842c-8.546-.078-15.455-8.105-15.206-17.665.265-10.17 6.476-16.506 16.055-16.376 8.528.116 14.734 7.215 14.64 16.746-.098 10.016-6.689 17.376-15.489 17.295zm139.616-176.627c-3.662-20.215-12.287-37.624-29.478-49.683-3.588-2.517-5.694-4.976-6.425-9.245-2.84-16.586-10.262-30.829-22.628-42.341-17.976-16.735-43.792-17.936-63.048-3.033-14.525 11.241-22.548 26.416-26.266 44.039-.969 4.593-2.016 8.414-6.808 10.661-2.911 1.365-5.35 3.941-7.693 6.282-12.728 12.716-19.714 28.273-21.826 45.982-3.103 26.019 2.287 49.561 20.642 69.31 16.442 17.69 40.98 21.685 61.251 9.192 7.085-4.366 13.277-4.526 20.393-.139 19.123 11.79 40.966 9.455 57.643-5.448 17.997-16.082 24.813-36.77 25.357-60.123a71.8 71.8 0 0 0-1.114-15.454zm-38.726 46.941c-8.099 7.8-21.379 9.5-30.949 3.577-13.968-8.645-28.084-9.832-42.395-1.167-19.574 11.852-36.814-.594-42.821-16.791-2.098-5.65-3.707-11.414-3.255-17.671 1.163-17.711 7.256-32.155 25.507-38.893 7.791-2.876 9.431-9.763 9.617-17.085.242-9.541 2.373-18.548 7.936-26.354 6.523-9.153 15.346-14.521 26.935-12.704 11.313 1.774 18.562 9.135 23.091 19.279 2.876 6.443 4.157 13.246 4.11 20.364-.061 9.264 3.464 14.012 11.993 17.446 13.788 5.552 20.484 16.781 22.56 30.638 2.221 14.832-1.035 28.483-12.329 39.361zm-21.12-289.081c-15.619-21.978-42.752-23.937-60.659-4.205-19.911 21.94-20.4 60.345-1.055 82.845 15.894 18.486 40.661 19.395 57.41 1.777 11.346-11.934 15.664-26.751 16.164-43.62-.596-12.857-3.837-25.51-11.86-36.797zm-21.064 53.608c-9.131 9.818-22.839 5.237-26.918-8.859-2.324-8.032-.977-15.444 4.01-22.163 6.073-8.183 17.819-8.093 23.788.183 3.301 4.576 4.953 9.707 5.065 15.289-.214 5.915-1.993 11.301-5.945 15.55zm-74.031 11.486c-15.83-20.795-42.198-22.772-59.541-3.958-19.918 21.607-20.937 58.514-2.903 81.67 16.789 21.557 45.099 21.627 61.868.131 8.952-11.474 12.866-24.601 12.695-39.831.252-13.499-3.437-26.607-12.119-38.012zm-19.637 53.738c-5.981 7.751-16.406 8.108-22.986.837-5.844-6.458-7.297-19.544-3.032-27.293 3.998-7.264 10.536-10.986 16.926-9.637 6.766 1.428 12.88 8.874 13.644 16.711.145 1.483.021 2.993.021 4.228.597 5.871-1.198 10.781-4.573 15.154zm208.539-53.768c-14.604-20.24-41.463-22.502-58.871-4.625-11.622 11.936-16.308 26.749-16.238 45.353-.44 7.913 1.867 17.4 6.126 26.376 5.374 11.327 13.179 20.413 25.372 24.728 17.31 6.125 33.995-1.006 44.736-16.356 15.316-21.888 14.704-53.536-1.125-75.476zm-19.561 53.287c-5.749 8.015-15.94 8.753-22.798 1.597-7.357-7.676-7.778-23.416-.84-31.389 7.829-8.997 19.181-7.917 25.218 2.442 2.225 3.819 3.454 7.93 3.017 12.287.451 5.714-1.384 10.583-4.597 15.063z"></path>
  </symbol>
  <symbol xmlns="http://www.w3.org/2000/svg" viewBox="0 0 776.51 573.504" id="credit-card">
    <g fill="#292929">
      <path d="M776.289 106.413c-.014-9.583.093-19.329-2.46-28.746-6.755-24.921-20.722-44.85-41.884-59.613-13.007-9.074-27.138-15.516-43.198-16.896-4.61-.396-9.263-.269-13.831-1.158h-2c-1.726.941-3.597.479-5.393.48-186.381.024-372.762.024-559.142 0-1.796 0-3.668.461-5.393-.48h-3c-.844.765-1.883.431-2.847.5-9.09.65-18.208.94-26.914 4.23-15.27 5.77-29.278 13.628-40.694 25.404C14.166 45.985 2.852 64.035.963 86.757c-.072.868-.377 1.602-.963 2.232v4c.616.667.616 1.333 0 2V482.94c1.752 2.501.576 5.434 1.193 8.097.508 3.271.675 6.595 1.762 9.783 8.125 23.827 22.465 42.876 43.55 56.744 18.317 12.047 38.651 15.956 60.298 15.94 187.442-.136 374.885-.054 562.328-.159 8.45-.005 17.038.182 25.353-1.573 21.852-4.613 40.191-15.515 55.277-31.938 18.714-20.372 26.807-44.439 26.749-72.032-.255-120.462-.051-240.926-.221-361.389zm-29.987 360.113c-.008 25.848-10.289 46.696-31.064 62.182-11.513 8.582-24.66 12.833-38.885 13.93-2.321.179-4.663.129-6.995.129-187.455.005-374.91.014-562.365-.005-29.543-.003-52.143-12.595-67.273-38.001-6.775-11.376-9.539-23.943-9.533-37.207.051-120.468-.058-240.936.11-361.403.045-32.5 15.803-55.483 44.81-69.392 10.028-4.808 20.974-6.038 32.114-6.029 93.645.077 187.289.044 280.934.044 93.978 0 187.956-.005 281.934.003 29.9.003 52.23 13.276 67.179 38.929 5.513 9.461 8.086 19.988 8.891 30.908.159 2.157.154 4.33.154 6.495.006 119.806.025 239.612-.011 359.417z"></path>
      <path d="M582.932 203.956c-1.725-.19-2.65 1.029-3.79 2.013-34.496 29.767-87.826 17.404-105.882-24.524-16.191-37.596 6.59-82.272 46.651-91.293 22.298-5.021 42.117.227 59.457 15.005 1.447 1.233 2.701 2.388 4.569.855 2.487-.682 4.691-.273 6.166 1.978 1.561 2.381 1.271 4.725-.586 6.871-2.226 1.167-3.444-.628-4.632-1.829-2.393-2.421-4.301-1.85-6.2.51-8.677 10.786-13.989 22.951-14.905 36.853-1.193 18.108 4.055 34.136 15.807 47.996.89 1.658 2.478 2.74 3.547 4.253.135.468.066.906-.202 1.312z"></path>
      <path d="M588.927 114.984c1.964-5.008-.107-7.771-4.989-8.971 12.983-12.624 28.85-18.218 46.606-17.607 38.491 1.324 67.16 33.106 65.172 71.578-1.451 28.078-23.139 53.742-50.672 60.262-21.646 5.126-41.114.783-58.582-12.848-1.288-1.005-2.358-2.288-3.53-3.441l-.016-1.021c-.788-1.775.54-2.964 1.184-4.348 11.292-13.466 16.756-28.886 15.979-46.542-.472-10.734-3.599-20.571-8.908-29.823-1.271-2.214-3.525-4.203-2.244-7.239zm-391.918 17.897c-37.315 0-74.631-.101-111.944.128-4.635.028-5.41-1.373-5.307-5.559.285-11.653.233-23.321.006-34.977-.07-3.573 1.06-4.376 4.489-4.372 74.797.096 149.593.095 224.39.004 3.512-.004 5.005.565 4.913 4.564-.274 11.988-.243 23.989-.012 35.978.071 3.686-1.281 4.309-4.589 4.3-37.315-.104-74.63-.066-111.946-.066zm272.785 310.962c-19.155 0-38.311-.086-57.465.08-3.403.03-4.544-.691-4.471-4.315.243-12.155.225-24.319.007-36.475-.061-3.427 1.115-4.067 4.246-4.059 38.477.096 76.954.096 115.43.001 3.142-.008 4.361.654 4.303 4.092-.206 12.156-.232 24.32.011 36.475.075 3.732-1.32 4.292-4.596 4.268-19.155-.137-38.31-.067-57.465-.067zm164.635-44.707c18.991 0 37.982.081 56.971-.075 3.41-.028 4.584.764 4.516 4.377-.229 12.156-.173 24.32-.026 36.478.036 2.941-.592 4.01-3.815 4-38.814-.116-77.628-.1-116.442-.021-2.742.006-3.749-.616-3.711-3.561.159-12.491.193-24.988-.01-37.478-.054-3.296 1.168-3.792 4.046-3.777 19.49.108 38.981.057 58.471.057zm-328.683 0c19.137 0 38.275.075 57.411-.07 3.381-.026 4.624.771 4.56 4.382-.215 12.143-.162 24.293-.029 36.439.032 2.919-.604 4.039-3.834 4.029-38.773-.113-77.547-.1-116.321-.016-2.776.006-3.709-.665-3.674-3.569.153-12.479.175-24.962-.011-37.44-.048-3.193 1.012-3.839 3.987-3.82 19.303.127 38.607.065 57.911.065zm-164.205 44.707c-18.987 0-37.975-.135-56.958.107-4.1.052-4.89-1.254-4.817-5.017.23-11.987.188-23.982.017-35.97-.044-3.096.895-3.898 3.935-3.89 38.639.097 77.279.1 115.918-.002 3.181-.008 3.926 1.071 3.892 4.037-.137 12.157-.196 24.318.028 36.472.067 3.639-1.203 4.361-4.555 4.335-19.153-.148-38.307-.072-57.46-.072zm-.094-267.033c19.146 0 38.293.106 57.436-.092 3.706-.038 4.837.86 4.756 4.65-.248 11.647-.205 23.304-.028 34.954.053 3.506-.633 4.926-4.614 4.909-38.291-.158-76.583-.146-114.874-.012-3.625.013-4.399-1.138-4.344-4.522.196-11.983.231-23.974-.013-35.956-.071-3.505 1.193-4.011 4.244-3.992 19.145.12 38.291.061 57.437.061z"></path>
    </g>
  </symbol>
  <symbol xmlns="http://www.w3.org/2000/svg" viewBox="-901.457 -44.641 807.398 517.435" id="envelope">
    <g fill="#F0CCB2">
      <path d="M-94.061-28.668c-.001-10.374-3.573-14.553-13.616-15.97-259.998-.006-519.996-.001-780.004-.003-8.936.31-11.096 1.957-13.776 10.497v495.938c2.964 9.373 5.14 10.97 14.996 10.998 1.499.004 2.999.001 4.498.001h219.414c183.928 0 367.856.002 551.784-.004 11.727-.001 16.705-4.982 16.705-16.647.001-161.603.001-323.207-.001-484.81zM-852.75-16.033c.661-1.821 2.954-.929 4.516-.94 10.498-.07 20.996-.036 31.495-.036h664.896c1.333 0 2.672-.073 3.998.022 1.26.091 3.011-.609 3.603.884.578 1.457-1.09 2.249-1.97 3.145-18.793 19.133-37.574 38.28-56.436 57.345-15.939 16.111-32.197 31.913-47.893 48.254-10.04 10.453-20.402 20.586-30.344 31.122-3.24 3.434-5.172 3.059-8.448.017-6.441-5.979-12.738-12.245-20.774-16.245-15.807-7.868-30.799-6.419-45.22 3.593-7.013 4.869-13.21 10.704-19.27 16.59-6.838 6.641-14.934 10.356-23.774 13.118-11.434 3.572-23.177 6.627-32.55 14.671-8.432 7.236-13.414 16.198-13.771 27.697-.309 9.959 1.155 19.644 3.683 29.115 3.19 11.949 2.756 23.603-.246 35.469-3.118 12.321-5.135 24.814-1.888 37.486.522 2.037-.522 3.116-1.712 4.312-16.933 17.002-33.893 33.977-50.758 51.047-2.315 2.343-3.824 2.227-6.116-.098-21.762-22.067-43.875-43.793-65.403-66.085-29.396-30.44-59.859-59.82-89.227-90.274-26.257-27.229-53.523-53.451-79.733-80.711-26.68-27.748-54.254-54.599-81.199-82.077a8301.342 8301.342 0 0 1-32.756-33.597c-1.106-1.141-3.316-2.134-2.703-3.824zm607.932 271.664c1.401 5.466 2.258 11.033 2.433 16.739.177 5.787-2.492 9.467-7.3 11.983-6.98 3.653-14.574 5.719-22.054 7.921-13.794 4.061-25.316 11.604-35.361 21.642-4.013 4.011-8.194 7.802-12.928 10.944-7.961 5.284-12.996 5.255-20.463-.602-4.832-3.791-9.7-7.647-13.934-12.066-11.503-12.008-26.038-18.091-41.587-22.546-4.453-1.276-8.816-3.052-12.992-5.069-7.22-3.488-9.525-8.401-8.084-16.339 1.811-9.971 4.011-19.882 5.476-29.901 1.783-12.194-.693-24.129-3.251-36.005-.874-4.059-1.604-8.151-2.306-12.244-1.278-7.457 1.274-12.484 8.047-15.995 5.504-2.852 11.405-4.788 17.342-6.28 17.083-4.293 30.642-14.106 42.929-26.167 2.603-2.555 5.415-4.932 8.326-7.132 7.98-6.032 12.554-6.084 20.827-.457 7.465 5.077 13.475 11.843 20.328 17.638 6.849 5.791 14.436 10.071 22.841 13.01 8.168 2.856 16.421 5.483 24.506 8.554 7.488 2.844 9.625 6.413 9.565 14.452-.046 6.716-1.605 13.232-3.304 19.622-4.321 16.25-3.169 32.253.944 48.298zM-873.23 422.869V4.956l1.103-.567c7.329 7.479 14.674 14.941 21.982 22.441 8.939 9.174 17.772 18.454 26.783 27.556 16.642 16.809 33.651 33.262 50.017 50.335 27.895 29.099 56.898 57.093 84.977 86.002 6.491 6.683 12.802 13.554 19.517 20.012 2.699 2.595 2.013 4.115-.278 6.423-30.858 31.082-61.927 61.963-92.348 93.468-26.493 27.437-53.945 53.915-80.341 81.441-8.977 9.362-18.169 18.519-27.304 27.728-1.116 1.125-1.926 2.727-4.108 3.074zm728.916 21.037c-.599 1.212-2.092.672-3.207.734-1.329.074-2.665.019-3.997.019l-346.874.001c-116.124 0-232.248.006-348.372-.047-2.041-.001-5.119 1.203-5.916-.982-.717-1.966 2.241-3.361 3.707-4.845 34.769-35.193 69.847-70.085 104.303-105.582 28.776-29.646 58.261-58.578 87.19-88.066 2.677-2.729 5.311-5.522 7.725-8.481 2.413-2.958 4.153-2.631 6.748.03 13.952 14.303 28.107 28.408 42.159 42.614 18.741 18.946 37.474 37.9 56.165 56.895 11.211 11.393 22.492 22.724 33.448 34.359 8.319 8.834 17.845 7.909 25.786-.436 19.046-20.016 38.769-39.388 58.121-59.115 2.193-2.236 3.928-2.86 6.84-1.251 5.258 2.906 10.956 5.018 16.78 6.347 15.565 3.551 27.696 12.399 38.623 23.541 6.83 6.965 14.892 12.38 24.365 15.1 16.812 4.827 30.615-1.581 43.056-12.281 6.051-5.205 11.925-10.616 17.885-15.927a18.7 18.7 0 0 1 1.562-1.246c9.842-7.036 11.842-7.067 19.98 1.537 27.13 28.686 55.756 55.893 83.124 84.342 9.577 9.955 19.376 19.695 29.028 29.579.841.861 2.555 1.575 1.771 3.161zm20.578-19.874c-5.186-5.201-9.76-9.603-14.128-14.201-24.437-25.725-49.863-50.472-74.79-75.712-7.367-7.459-14.646-15.005-22.045-22.432-1.832-1.84-2.152-2.969.394-4.521 18.503-11.279 22.069-28.327 18.323-48.111-1.485-7.842-3.189-15.645-4.523-23.512-1.804-10.638 1.681-20.74 3.578-30.985 1.853-10.008 3.588-19.988.724-30.111-4.344-15.354-15.93-23.141-29.781-28.533-3.256-1.268-6.617-2.268-9.932-3.383-2.331-.784-3.038-1.962-.983-3.863.489-.452.939-.945 1.408-1.419 34.683-35.042 69.284-70.165 104.105-105.069 9.029-9.054 18.746-17.42 27.65-25.64v417.492z"></path>
      <path d="M-330.222 159.183c-39.753.265-69.58 30.925-69.781 70.068-.207 40.385 32.54 70.219 70.1 70.443 38.522.229 70.326-31.756 70.344-70.255-.467-38.808-30.105-70.526-70.663-70.256zm.487 112.682c-23.393.026-42.736-19.17-42.774-42.447-.038-23.206 19.394-42.622 42.65-42.617 23.7.005 42.406 18.73 42.42 42.464.014 23.774-18.652 42.574-42.296 42.6z"></path>
    </g>
  </symbol>
  <symbol xmlns="http://www.w3.org/2000/svg" viewBox="-587 -151 627.013 481.483" id="leash">
    <path fill="#F9EAE0" d="M-254.011-150.076l-40.06-.01c-.382-.218-.503-.425-.366-.624.133-.193.266-.29.401-.29h39.995c.399.192.535.393.412.603-.125.213-.252.321-.382.321z"></path>
    <path fill="#FCF6F1" d="M-294.037-151c-.004.305-.015.61-.034.914l-14.976.036c.007-.317.011-.634.012-.95h14.998zm40.026.924a17.818 17.818 0 0 1-.03-.924h12.998c.003.311.008.621.017.932-4.329-.004-8.657-.006-12.985-.008z"></path>
    <path fill="#F4DAC7" d="M-587-57.012c.313-.035.627-.064.94-.089-.036 1.747.512 3.602-.94 5.088v-4.999z"></path>
    <path fill="#F0CCB2" d="M39.935-50.354c.008-9.66-2.717-18.285-8.715-25.957-7.178-9.182-15.87-16.575-25.745-22.639-18.88-11.594-39.315-19.637-60.47-25.856-60.954-17.919-123.34-25.609-186.755-25.693h-66.588c-7.658-.203-15.293.426-22.936.607-10.293.243-20.64.083-30.876 1.162-23.639 2.492-47.232 5.322-70.646 9.61-29.195 5.347-57.935 12.24-85.656 22.995-18.559 7.201-36.515 15.599-51.304 29.275-8.57 7.924-16.867 16.35-16.742 29.389-.239 1.811.528 3.712-.502 5.448V76.971c.712 12.174 7.489 21.077 15.966 28.886 11.76 10.841 25.519 18.588 40.031 25.107 26.125 11.736 53.612 19.074 81.504 24.964 20.516 4.332 41.242 7.498 62.065 10.077 17.839 2.21 35.764 3.466 53.663 4.735 13.412.951 26.91 1.938 40.406 1.221 3.795-.201 5.426 1.191 5.357 5.164-.166 9.494-.14 18.994-.011 28.489.051 3.809-1.328 5.416-5.249 5.358-9.661-.143-19.327-.11-28.989-.011-3.324.034-5.159-1.275-6.323-4.397-2.112-5.668-5.323-10.711-9.553-15.098-21.257-22.043-56.628-24.373-80.378-5.003-8.448 6.89-14.41 15.556-16.577 26.58-2.486 12.646-.09 24.225 7.286 34.658 2.323 3.287 2.366 5.867-.012 8.917-1.428 1.832-2.502 3.941-3.506 6.046-7.939 16.65-6.092 32.491 4.854 47.013 16.319 21.651 43.504 24.425 67.098 17.3 14.87-4.49 25.44-14.892 31.132-29.664 1.181-3.064 3.041-4.375 6.365-4.371 31.822.036 63.645.045 95.468-.007 3.316-.006 5.182 1.238 6.372 4.325 2.354 6.104 5.908 11.435 10.242 16.424 18.686 21.511 58.511 19.841 76.142 7.441 21.935-15.426 27.99-41.743 13.608-63.485-2.835-4.287-2.423-7.088.237-11.046 14.784-21.994 7.209-46.385-10.548-60.535-12.57-10.016-27.018-13.874-43.013-12.187-21.615 2.279-37.599 12.517-46.453 32.769-1.315 3.008-3.019 4.378-6.362 4.332a987.427 987.427 0 0 0-28.489.001c-3.774.057-5.458-1.191-5.395-5.169.149-9.494.173-18.995-.009-28.488-.082-4.264 1.805-5.393 5.727-5.393 9.479 0 18.949-.28 28.434-.727 25.275-1.19 50.465-3.178 75.524-6.529 38.507-5.149 76.543-12.566 113.242-25.725 21.439-7.687 42.089-16.992 59.204-32.454 10.667-9.636 18.055-21.007 17.952-36.383-.27-40.152-.109-80.307-.077-120.46zm-595.924-15.149c6.758-7.558 14.971-13.132 23.777-17.972 19.692-10.823 40.907-17.558 62.459-23.402 25.398-6.887 51.272-11.416 77.315-14.839 20.09-2.641 40.295-4.281 60.549-5.465 19.278-1.126 38.541-1.968 59.962-1.761 19.875-.645 41.815.673 63.721 2.124 40.011 2.651 79.752 7.689 118.769 17.112 27.857 6.728 55.301 14.944 80.057 30.075 6.122 3.742 11.809 8.094 16.584 13.513 9.035 10.252 9.145 21.635.248 31.942-5.39 6.245-12.068 10.908-19.042 15.2-1.469.904-2.708.85-4.199.15-31.606-14.852-65.253-22.743-99.371-28.948-24.206-4.402-48.606-7.359-73.131-9.327-17.9-1.437-35.832-2.217-53.76-3.171a595.076 595.076 0 0 0-53.421-.463c-27.72 1.017-55.429 2.409-83.064 5.38-32.45 3.49-64.575 8.57-96.229 16.445-19.235 4.786-38.096 10.839-56.049 19.367-2.748 1.305-4.649 1.209-7.281-.344-6.819-4.023-12.799-8.97-18.046-14.827-8.188-9.139-8.039-21.629.152-30.789zM-40.727-5.656c-3.66 2.481-7.489 3.387-11.104 4.614-25.577 8.685-51.825 14.642-78.461 18.974-19.189 3.121-38.474 5.347-57.832 7.254-35.675 3.513-71.416 4.243-107.19 3.634-24.922-.424-49.793-2.025-74.629-4.552-26.829-2.729-53.423-6.692-79.753-12.379-18.222-3.936-36.149-9.048-53.741-15.266-1.225-.434-2.353-1.143-4.388-2.15 18.619-7.316 36.864-12.307 55.396-16.446 26.8-5.985 53.919-10.01 81.193-12.719 16.682-1.657 33.454-2.683 50.227-3.565 24.481-1.288 48.952-.921 73.417-.655 27.595.299 55.082 2.632 82.529 5.678 30.298 3.363 60.205 8.649 89.707 16.229 11.593 2.978 23.003 6.608 34.629 11.349zm-171.378 240.602c10.683.034 16.391-4.649 16.199-14.791-.168-8.859 7.272-18.998 21.42-22.583 12.775-3.237 27.934 3.147 33.583 14.649 4.682 9.532 1.502 22.359-7.106 28.662-12.256 8.974-12.335 13.493-.395 22.447 14.255 10.689 12.539 31.066-3.402 40.394-12.79 7.484-29.94 4.322-39.309-7.217-3.268-4.024-4.962-8.538-5.021-13.77-.098-8.719-4.212-12.822-12.945-12.83a67801.56 67801.56 0 0 0-129.933-.001c-8.949.008-12.668 3.816-13.03 12.729-.451 11.115-6.841 18.097-16.406 22.448-16.972 7.72-37.306-1.576-40.867-18.755-2.156-10.402 2.885-18.076 10.853-23.994 9.638-7.159 9.759-12.934.046-20.227-12.267-9.211-14.903-22.053-6.875-33.496 5.125-7.308 14.497-11.744 24.749-11.716 16.566.045 27.52 10.364 28.529 26.878.279 4.562 2.308 7.862 6.693 9.612 3.002 1.198 6.075 1.535 9.281 1.532 41.312-.036 82.624-.101 123.936.029zm-45.582-90.544c-13.786 8.895-34.75 4.413-42.64-9.534-10.31-18.224 5.693-35.052 20.572-36.863 1.805-.22 3.659-.03 5.491-.03 12.428-.663 21.73 4.736 27.332 15.582 5.584 10.811.88 23.338-10.755 30.845zm271.8-77.057c.218 12.247-6.701 19.845-15.237 26.557-13.501 10.617-29.138 17.252-45.159 23.003-34.288 12.309-69.776 19.353-105.79 24.18-21.256 2.849-42.536 5.271-63.985 6.004-2.483.085-4.957.503-7.432.795-3.687.436-4.61-.71-2.472-3.984 3.834-5.871 5.212-12.521 5.84-19.373.091-.991.041-1.999-.002-2.997-.36-8.382-.331-7.981 8.493-8.714 16.551-1.374 33.087-3.021 49.577-4.997 20.634-2.472 41.096-6.058 61.337-10.824 2.428-.572 4.829-1.257 7.236-1.911 6.375-1.732 10.115-6.664 8.964-11.802-1.34-5.981-8.027-10.316-14.209-8.897-15.067 3.457-30.154 6.799-45.444 9.139-17.738 2.714-35.51 5.125-53.413 6.537-10.441.824-20.868 1.727-31.347 2.019-3.248.091-5.739-.929-8.183-2.884-22.902-18.328-53.556-17.699-76.069 1.503-1.001.853-1.864 1.888-3.408 1.802-10.625-.593-21.279-.851-31.871-1.798-14.554-1.301-29.07-3.049-43.586-4.742-5.771-.673-11.514-1.626-17.242-2.616-2.883-.498-5.68-.497-8.32.724-4.034 1.865-7.021 4.974-7.109 9.484-.088 4.504 2.555 7.741 6.821 9.54 6.411 2.704 13.336 2.742 20.038 3.663 22.057 3.032 44.174 5.636 66.464 6.313 1.975.06 4.096-.089 4.092 3.004-.019 16.574.012 16.574 6.659 31.758-8.123-.357-15.765-.399-23.349-1.086-15.546-1.409-31.105-2.826-46.58-4.84-41.644-5.42-82.765-13.254-121.947-29.004-15.019-6.037-29.387-13.239-41.155-24.869-6.233-6.159-9.136-13.384-9.163-21.892-.072-22.825-.025-45.65-.023-68.475 0-2.002.119-3.983 1.409-6.106 16.285 11.584 34.27 19.632 52.984 26.236 22.646 7.992 45.894 13.588 69.424 18.229 21.54 4.249 43.282 7.073 65.058 9.6 13.36 1.551 26.806 2.468 40.238 3.266 30.276 1.798 60.598 1.52 90.896 1.003 29.253-.499 58.389-2.953 87.436-6.668 26.082-3.335 51.96-7.626 77.442-14.115 32.054-8.162 63.386-18.151 90.93-37.388 1.789 1.351.989 3.153.993 4.651.059 23.658-.257 47.321.164 70.972z"></path>
    <path fill="#F0CCB3" d="M-439.454 86.089c-.117 5.686-6.058 10.78-12.356 10.593-6.478-.193-12.22-5.385-12.077-10.919.142-5.505 6.212-10.725 12.401-10.666 6.29.06 12.147 5.411 12.032 10.992z"></path>
    <path fill="#F0CCB2" d="M-268.575-107.046c15.899-.544 34.728-.089 53.47 1.264 21.352 1.541 42.756 2.923 63.924 6.47 5.569.933 11.193 1.537 16.76 2.485 3.683.627 7.077 1.991 9.157 5.43 4.082 6.752-.489 14.825-8.797 15.422-7.215.519-14.231-1.274-21.285-2.255-15.142-2.107-30.326-3.657-45.558-4.877-29.542-2.366-59.141-3.532-88.748-2.67-24.399.71-48.79 1.734-73.121 4.415a943.537 943.537 0 0 0-65.063 9.479c-6.209 1.126-12.319 2.79-18.488 4.143-1.773.389-3.593.763-5.395.781-6.373.063-11.454-4.028-12.16-9.609-.613-4.844 3.322-9.804 9.351-11.295 14.846-3.67 29.835-6.669 44.938-9.078 24.786-3.954 49.719-6.468 74.757-8.27 21.103-1.519 42.206-1.946 66.258-1.835z"></path>
    <path fill="#F0CCB3" d="M-96.378-67.972c-6.979.05-12.542-4.504-12.505-10.238.039-6.014 5.236-10.655 12.074-10.782 6.597-.122 12.359 4.651 12.501 10.356.148 5.957-5.123 10.613-12.07 10.664z"></path>
  </symbol>
  <symbol xmlns="http://www.w3.org/2000/svg" viewBox="0 0 231.971 101.987" id="long-left-arrow">
    <path d="M50.298 98.769L2.85 50.85 50.298 2.998v9.892c.002 5.996.115 11.995-.04 17.987-.079 3.034 1.028 4.311 4.066 3.997 1.318-.136 2.663-.019 3.995-.019H230.09v32.276h-6.288c-49.801 0-99.602-.025-149.402.026-7.781.008-15.563.357-23.344.549-.253 7.766-.522 15.531-.747 23.298-.067 2.31-.011 4.623-.011 7.765z"></path>
  </symbol>
  <symbol xmlns="http://www.w3.org/2000/svg" viewBox="-95.991 -95.407 229.516 95.805" id="long-right-arrow">
    <path d="M-95.991-63.619c34.1-.047 68.199-.107 102.299-.137 24.359-.022 48.718-.004 73.077-.004h6.763v-31.647l47.377 48.122L86.309.398v-31.601h-6.924c-55.942 0-111.883.002-167.825-.006-2.517 0-5.034-.088-7.551-.135v-32.275z"></path>
  </symbol>
  <symbol xmlns="http://www.w3.org/2000/svg" viewBox="-0.008 -0.427 23.137 20.99" id="menu-icon">
    <path fill="#FAFAFA" d="M-.003-.313l23.118-.113.008 2.887-23.118.112-.008-2.886zm0 9.049l23.123-.189v2.811l-23.121.189-.002-2.811zm-.005 8.926l23.128-.099.009 2.901-23.127.099-.01-2.901z"></path>
  </symbol>
  <symbol xmlns="http://www.w3.org/2000/svg" viewBox="-793 65.368 719.134 577.936" id="pills">
    <path fill="#F7E4D6" d="M-793 500c1.477 2 1.577 3.999 0 5.999V500z"></path>
    <path fill="#FBF3ED" d="M-792.003 199.037l-.048 4.968c-.3.477-.617.488-.949.033v-4.999c.332.001.664 0 .997-.002z"></path>
    <path fill="#F7E3D5" d="M-793 204.037c.317-.006.633-.017.949-.032-.149 1.709.693 3.604-.949 5.032v-5z"></path>
    <path fill="#F0CCB2" d="M-73.987 467.917c.133-13.59-6.371-23.59-16.014-31.648-13.57-11.339-29.739-18.006-46.47-23.323-17.086-5.43-34.511-9.288-52.172-12.425-23.744-4.218-47.691-6.537-71.69-7.275-41.216-1.268-82.372-.223-123.24 6.598-21.332 3.56-42.351 8.052-62.738 15.289-5.567 1.977-5.696 1.991-5.696-3.944-.002-64.647-.028-129.294.031-193.941a136.838 136.838 0 0 0-2.032-23.781c-3.105-17.776-9.605-34.299-18.983-49.53-9.109-14.793-20.766-27.554-34.248-38.637-10.599-8.713-22.105-16.055-34.44-21.833-18.728-8.772-38.368-14.357-59.102-16.837-19.393-2.32-38.445-1.343-57.423 2.107-18.379 3.341-35.852 9.593-52.344 18.534-29.434 15.958-52.362 38.317-67.683 68.23-7.032 13.729-11.108 28.414-13.772 43.536-.937 1.475-.286 3.115-.481 4.667-.242 1.771.535 3.64-.516 5.332V500c.817 2 .817 3.999 0 5.999v3c1.484 1.127 1.6 2.91 1.848 4.471 4.838 30.436 19.232 56.071 40.319 77.928 17.167 17.794 37.956 30.593 61.009 39.426 33.014 12.65 67.019 15.625 101.803 9.187 19.895-3.682 38.775-10.174 56.448-20.177 12.506-7.078 23.769-15.775 34.362-25.382 1.968-1.785 3.087-2.314 5.159-.138 14.109 14.819 32.419 22.329 51.289 28.465 23.874 7.764 48.406 12.547 73.374 15.501 19.626 2.322 39.249 4.384 58.997 4.619 30.749.367 61.463.275 92.093-3.695 15.628-2.026 31.192-4.304 46.615-7.385 10.875-2.173 21.554-5.276 32.171-8.635 15.953-5.048 31.292-11.292 44.655-21.434 12.04-9.138 19.337-20.58 18.979-36.868-.709-32.308-.425-64.645-.108-96.965zm-43.847-17.772a4.875 4.875 0 0 1 3.784.91c3.598 2.653 7.31 5.114 9.759 9.105 3.061 4.99 3.025 7.726-.605 12.144-6.543 7.962-15.285 12.725-24.521 16.597-24.188 10.138-49.559 15.587-75.453 19.28-18.924 2.699-37.911 3.853-56.951 5.062a423.616 423.616 0 0 1-42.39.567c-37.306-1.368-74.47-4.326-112.036-14.521 16.974-2.881 32.632-5.596 48.31-8.184 17.487-2.887 34.995-5.643 52.489-8.484 23.708-3.851 47.416-7.705 71.117-11.602 19.126-3.145 38.237-6.375 57.361-9.529 23.042-3.801 46.092-7.558 69.136-11.345zm-350.43 5.383c11.93-10.494 26.556-15.608 41.318-20.322 22.675-7.241 46.084-11.202 69.62-13.954 33.091-3.87 66.409-4.359 99.65-2.973 26.818 1.118 53.554 3.998 79.872 9.739 4.649 1.014 9.257 2.216 13.884 3.331l.066.774c-6.773 1.269-13.523 2.679-20.324 3.777-15.699 2.534-31.436 4.837-47.134 7.382-19.461 3.155-38.897 6.463-58.345 9.697-17.162 2.854-34.321 5.727-51.491 8.537-23.546 3.853-47.102 7.647-70.651 11.482-14.884 2.424-29.848 4.469-44.602 7.526-5.736 1.189-8.855-1.557-12.202-4.637-7.923-7.291-7.774-13.222.339-20.359zm-295.85-252.084c2.643-19.835 9.588-37.891 21.331-54.06 17.225-23.718 40.008-40.116 67.433-49.993 13.293-4.787 27.113-7.28 41.28-8.561 18.326-1.658 36.138.503 53.655 5.268 28.966 7.879 53.388 23.044 72.723 46.326 14.024 16.886 22.907 35.967 26.378 57.565a95.463 95.463 0 0 1 1.186 14.875c.096 40.484-.025 80.969.175 121.453.023 4.739-1.439 5.758-5.9 5.737-36.15-.17-72.304-.097-108.456-.097-36.153 0-72.306-.077-108.458.094-4.725.022-6.306-1.229-6.282-6.141.184-38.818-.066-77.638.161-116.455.153-26.05 11.338-46.451 32.384-61.855 15.893-11.633 33.824-17.231 53.033-17.277 28.861-.069 53.73 10.45 72.087 33.27 9.518 11.832 15.137 25.956 15.123 41.377-.01 10.514 7.321 14.851 14.464 14.759 8.215-.106 14.218-6.305 13.798-14.993-1.244-25.783-11.321-47.569-29.511-65.565-18.162-17.969-40.255-28.117-65.426-32.252-26.868-4.414-52.472-.286-76.346 12.025-30.251 15.599-50.286 39.756-56.435 74.037-.874 4.874-1.163 9.911-1.175 14.874-.092 39.485-.137 78.97.059 118.454.024 4.738-1.427 6.022-5.917 5.736-5.642-.359-11.337-.329-16.983-.005-4.099.235-5.388-.999-5.366-5.238.171-32.487-.023-64.975.155-97.462.066-11.961-.765-23.929.83-35.896zm279.425 231.584c-12.997 9.406-18.728 21.965-18.414 38.105.506 25.977-.151 51.977.321 77.956.132 7.283-2.152 12.71-6.759 17.877-15.098 16.933-33.182 29.67-54.114 38.21-23.51 9.592-48.227 12.75-73.318 10.539-27.064-2.385-52.137-11.234-74.363-27.317-28.161-20.378-46.138-47.322-52.456-81.689-.835-4.545-1.136-9.245-1.146-13.875-.091-40.813.012-81.627-.169-122.44-.02-4.454 1.189-5.845 5.594-5.531 5.304.379 10.655.088 15.986.09 6.578.003 6.583.005 6.584 6.361.003 19.49-.054 38.981.023 58.471.043 10.928 8.347 17.169 18.74 14.268 5.638-1.574 9.21-6.372 9.22-12.641.034-20.323.144-40.648-.089-60.969-.05-4.397 1.122-5.616 5.561-5.594 36.313.184 72.628.105 108.944.105s72.632.072 108.946-.095c4.311-.02 5.712.982 5.643 5.504-.27 17.654-.283 35.317.009 52.97.073 4.4-1.49 7.341-4.743 9.695zm382.534 135.046c-.033 5.095-3.713 8.592-7.291 11.409-13.983 11.01-30.629 16.474-47.386 21.318-12.728 3.679-25.751 6.303-38.875 8.341-13.596 2.111-27.258 3.557-40.942 4.969-23.072 2.381-46.186 1.873-69.297 1.83-19.942-.037-39.701-2.361-59.495-4.656-19.517-2.263-38.669-6.112-57.502-11.414-15.003-4.224-29.762-9.397-42.415-19.05-6.272-4.785-9.99-10.473-9.765-18.996.479-18.148.143-36.317.149-54.478.002-5.476-.011-5.427 4.666-3.032 22.235 11.387 46.013 18.043 70.421 22.615 21.842 4.091 43.822 6.902 66.054 8.328 21.273 1.365 42.544 2.365 63.795 1.51 24.334-.979 48.636-2.56 72.802-6.345 22.689-3.554 44.992-8.348 66.749-15.604 5.972-1.992 11.681-4.794 17.453-7.354 3.462-1.537 6.81-3.324 10.939-5.358 0 22.668.081 44.318-.06 65.967z"></path>
    <path fill="#F0CCB2" d="M-722.509 471.911c7.934.025 13.558 5.046 13.547 12.096-.01 7.188-5.765 12.125-14.079 12.078-7.927-.045-13.68-5.174-13.627-12.148.055-7.148 5.829-12.052 14.159-12.026z"></path>
  </symbol>
  <symbol xmlns="http://www.w3.org/2000/svg" viewBox="-289.905 9.999 475.916 713.893" id="pin">
    <g fill="#F0CCB2">
      <path d="M183.109 212.226c-4.547-31.188-15.174-60.14-31.412-87.043-19.286-31.951-44.821-57.85-76.263-77.972C43.5 26.774 8.549 15.117-29.021 10.966c-2.212-1.232-4.814.371-7.009-.967h-2c-3 .804-5.999.804-8.999 0h-9.999c-3 .804-5.999.804-8.999 0h-3c-1.848 1.293-4.147-.224-6.011.966-3.626.407-7.287.619-10.873 1.252-21.47 3.787-42.369 9.34-62.411 18.252-24.876 11.061-47.11 25.974-66.881 44.482-14.57 13.639-26.898 29.162-37.772 46.044-15.437 23.968-25.764 49.896-31.789 77.493-5.517 25.27-6.46 50.867-3.469 76.719 3.149 27.218 10.321 53.177 22.763 77.449 12.574 24.529 26.162 48.542 39.458 72.697 14.097 25.609 28.386 51.112 42.567 76.675 20.22 36.449 40.469 72.883 60.613 109.375 18.883 34.21 37.589 68.518 56.52 102.701 2.975 5.372 7.212 9.663 14.039 9.785 7.087.127 11.412-4.278 14.538-9.788 9.837-17.34 19.434-34.815 29.089-52.258 12.624-22.807 25.211-45.635 37.82-68.45 15.676-28.364 31.376-56.716 47.034-85.091a54161.264 54161.264 0 0 0 44.491-80.791c11.996-21.826 23.843-43.735 35.939-65.505 18.172-32.707 27.377-67.896 29.169-105.094.72-14.956-.533-29.839-2.698-44.686zm-29.891 69.96c-4.327 26.252-13.715 50.433-26.923 73.415-11.76 20.464-22.79 41.347-34.18 62.025-14.509 26.339-29.055 52.657-43.585 78.984-13.89 25.169-27.731 50.365-41.682 75.5-15.877 28.604-31.868 57.144-47.771 85.733-3.223 5.794-6.265 11.689-9.418 17.523-.442.817-.641 2.184-1.895 1.893-.602-.14-1.078-1.151-1.464-1.849-15.013-27.189-29.994-54.395-45.01-81.582a58403.421 58403.421 0 0 0-39.546-71.463c-16.264-29.351-32.577-58.674-48.815-88.04a17913.749 17913.749 0 0 1-35.055-63.749c-7.899-14.425-16.393-28.536-22.551-43.871-6.33-15.764-11.037-31.938-13.324-48.798-1.724-12.711-2.497-25.48-1.948-38.284 1.069-24.915 6.278-48.871 15.951-71.975 11.087-26.482 26.992-49.582 47.487-69.441 20.639-19.999 44.572-35.044 71.57-45.147 23.586-8.824 47.882-13.462 69.063-13.176 36.163-.103 66.545 7.107 95.377 21.286 31.98 15.727 58.076 38.178 78.695 67.217 17.305 24.373 28.864 51.244 34.351 80.48 4.557 24.278 4.719 48.772.673 73.319z"></path>
      <path d="M-51.174 129.056c-66.144-.432-119.647 53.419-119.825 118.488-.18 65.795 53.354 119.14 118.431 119.419 66.044.284 119.413-53.659 119.538-118.741.067-65.92-53.516-118.743-118.144-119.166zm-1.113 208.132c-48.511-.105-89.478-40.94-88.787-89.297-.347-48.916 40.309-89.03 89.101-89.018 49.326.013 88.868 40.389 89.092 89.042.224 48.612-40.566 89.381-89.406 89.273z"></path>
    </g>
  </symbol>
  <symbol xmlns="http://www.w3.org/2000/svg" viewBox="-484.012 -109.001 283.512 1048.384" id="shampoo">
    <g fill="#F0CCB2">
      <path d="M-200.569 370.195c-.005-11.291-.504-22.614-2.099-33.83-3.241-22.782-8.214-45.167-15.999-66.851-10.118-28.182-23.515-54.434-45.943-75.057-3.682-3.386-4.891-7.031-4.866-11.852.144-27.493.036-54.988.108-82.482.012-4.531-.369-9.004-1.342-13.381-1.584-7.125-4.563-13.333-12.467-15.394-7.2-1.878-7.222-1.84-7.223-9.44-.005-47.99-.001-95.98-.003-143.97 0-2.833.365-5.734-.167-8.484-1.43-7.398-1.69-15.626-10.921-18.455h-81.99c-4.829 1.061-7.003 4.665-8.585 8.884-1.836 4.902-2.506 9.946-2.5 15.182.052 44.992.033 89.985.029 134.977 0 5.332-.023 10.665-.001 15.997.012 2.924-.908 4.718-4.192 4.94-8.111.548-12.584 5.491-14.652 12.885-1.62 5.793-2.183 11.746-2.173 17.78.048 27.496-.029 54.991.082 82.486.016 3.973-1.112 6.91-4.107 9.6-19.142 17.19-31.832 38.824-41.462 62.277-15.537 37.84-23.307 77.293-22.926 118.269v546.252c-.179 2.349.207 4.651.629 6.935.36 1.951.486 3.939 1.358 5.808 2.672 5.726 7.705 6.113 13.065 6.112 84.316-.023 168.631-.016 252.947-.023 1.494 0 2.988-.097 4.481-.172 3.941-.199 6.452-2.308 8.292-5.56 2.482-4.386 2.687-9.201 2.687-14.049.006-183.128.032-366.256-.06-549.384zM-368.666-58.262c-.008-3.655 1.092-4.963 4.837-4.918 14.157.17 28.32.202 42.476-.016 4.067-.063 5.085 1.401 5.059 5.222-.142 21.155-.067 42.311-.067 63.467 0 20.656-.113 41.313.092 61.967.043 4.356-1.166 5.772-5.622 5.685-13.821-.268-27.651-.188-41.476-.038-3.672.04-5.337-.73-5.323-4.935.141-42.144.121-84.29.024-126.434zm-15.706 177.092c13.986.173 27.975.069 41.962.069s27.977.134 41.96-.084c4.02-.063 5.11 1.296 5.065 5.167-.181 15.65-.208 31.306.014 46.955.058 4.112-1.445 5.029-5.227 5.012-27.974-.123-55.949-.14-83.923.015-4.024.022-5.108-1.308-5.063-5.175.181-15.65.208-31.306-.014-46.955-.058-4.114 1.45-5.05 5.226-5.004zm159.817 514.851c0 84.152.001 168.304-.001 252.455 0 6.822-.006 6.829-6.764 6.829-74.154.002-148.307.002-222.461 0-6.622 0-6.634-.009-6.634-6.458.003-167.137-.315-334.275.245-501.41.137-40.788 7.985-80.44 27.639-116.914 8.305-15.411 18.672-29.139 33.767-38.707 8.673-5.497 18.17-8.292 28.353-8.396 17.162-.175 34.335.283 51.488-.133 22.258-.54 39.032 9.57 52.436 26.197 19.851 24.625 29.834 53.604 35.928 84.136 4.308 21.586 6.075 43.417 6.044 65.444-.107 78.985-.04 157.971-.04 236.957z"></path>
      <path d="M-430.567 602.299c0-69.32.005-138.639-.01-207.959-.001-5.509.013-10.956 2.187-16.206 2.599-6.279 6.16-9.062 12.875-9.068 48.657-.037 97.314-.047 145.971.004 8.857.009 14.622 6.708 14.978 17.681.313 9.655.155 19.327.156 28.991.003 24.662-.041 49.323-.019 73.985.005 5.488-1.34 10.565-4.365 15.119-4.301 6.473-10.66 6.33-14.602-.41-2.724-4.659-4.132-9.747-4.122-15.234.04-22.995-.092-45.991.074-68.986.03-4.139-1.189-5.382-5.352-5.367-39.825.14-79.651.145-119.476-.005-4.294-.016-5.247 1.462-5.244 5.468.09 121.643.094 243.285-.013 364.928-.004 4.309 1.051 5.714 5.554 5.695 39.658-.171 79.317-.17 118.975 0 4.5.019 5.576-1.38 5.56-5.693-.144-38.825-.059-77.651-.076-116.476-.002-5.453 1.193-10.603 3.824-15.337 4.146-7.458 11.165-7.464 15.431-.088 2.374 4.103 3.795 8.514 3.796 13.298.008 50.156.004 100.313.006 150.469 0 3.555-.889 6.908-2.199 10.183-2.401 6.002-6.179 8.897-13.266 8.852-47.489-.297-94.986-.569-142.467.101-14.051.198-16.079-7.217-17.949-17.006-.585-3.063-.221-6.315-.222-9.48-.007-69.153-.005-138.306-.005-207.459z"></path>
      <path d="M-254.408 580.729c.271 6.357-.491 13.376-5.435 19.239-3.711 4.401-8.009 4.526-11.836.301-3.11-3.433-4.727-7.61-5.254-12.147-1.101-9.481-1.644-18.948 3.942-27.449 4.276-6.507 10.484-6.278 14.569.41 2.762 4.523 4.022 10.397 4.014 19.646zm-39.124-77.456c-2.028-15.363-6.08-29.974-16-42.389-8.411-10.527-20.705-12.801-30.797-5.301-4.711 3.501-8.468 8.029-11.114 13.305-14.421 28.754-14.746 58.484-5.524 88.658 2.633 8.613 6.863 16.605 13.566 22.989 9.544 9.09 19.731 9.495 29.855 1.167 4.311-3.546 7.513-7.964 10.075-12.857 8.063-15.4 10.748-32.018 11.172-51.88.342-2.814-.516-8.259-1.233-13.692zm-28.542 35.745c-3.825 4.094-8.438 3.865-11.922-.386-7.414-9.046-7.379-29.606.066-38.555 4.242-5.1 10.627-4.013 14.075 2.537 2.765 5.253 4.103 10.871 3.442 16.089.224 7.895-.502 14.792-5.661 20.315zm-.537 108.814c-3.281-12.367-8.039-23.975-18.047-32.715-7.173-6.265-16.961-7.089-24.903-1.829-6.156 4.078-10.511 9.762-13.648 16.271-11.521 23.902-12.78 48.98-7.632 74.566 2.69 13.369 7.285 25.987 17.67 35.653 8.828 8.217 20.447 8.535 29.262.449 4.937-4.529 8.77-9.945 11.559-16.117 6.635-14.682 9.524-30.06 8.896-46.795.605-9.552-.542-19.628-3.157-29.483zm-24.843 48.46c-4.653 6.065-10.415 5.677-14.331-.964-2.581-4.376-3.182-6.611-4.114-17.528-.164-3.942.327-10.982 4.176-17.396 3.885-6.475 9.887-6.768 14.404-.69 6.291 8.466 6.218 28.297-.135 36.578z"></path>
    </g>
  </symbol>
  <symbol xmlns="http://www.w3.org/2000/svg" viewBox="-1058.106 -18.112 706.99 707.051" id="syringe">
    <g fill="#F0CCB2">
      <path d="M-356.443 168.053c-57.384-57.374-114.725-114.79-172.17-172.103-5.116-5.105-9.459-11.242-16.556-14.062h-6.999c-1.746 1.23-3.712 2.24-5.206 3.725-16.659 16.555-33.302 33.129-49.818 49.827-4.982 5.037-5.051 11.614-.759 17.204 3.253 4.237 7.432 7.579 11.048 11.421 14.661 15.576 30.236 30.233 45.204 45.497 2.173 2.216 2.404 3.115.172 5.322-16.582 16.397-33.053 32.906-49.481 49.457-1.843 1.857-2.998 2.462-5.119.242-6.168-6.456-12.536-12.723-18.898-18.99-10.839-10.677-22.021-21.024-32.522-32.023-10.055-10.531-20.467-20.693-30.717-31.02-4.88-4.917-13.742-5.261-18.693-.627-7.145 6.688-13.982 13.71-20.885 20.654-11.465 11.533-22.719 23.281-34.373 34.619-7.095 6.902-7.653 14.777-.812 21.707 4.761 4.824 9.265 9.915 14.203 14.546 2.591 2.431 1.901 3.723-.244 5.855-20.792 20.665-41.484 41.428-62.21 62.158-54.054 54.064-108.069 108.166-162.214 162.138-6.876 6.855-12.358 14.514-14.754 23.822-3.616 14.047-3.222 27.849 4.122 41.042 5.786 10.395 14.6 17.997 22.797 26.175 2.949 2.941 3.533 4.757.198 7.93-9.168 8.723-18.091 17.713-26.901 26.8-7.261 7.489-7.175 15.641-.044 22.894 6.373 6.481 12.538 13.217 19.39 19.155 4.159 3.604 3.189 5.433-.129 8.722-26.617 26.383-53.067 52.936-79.565 79.44-3.509 3.509-7.254 6.816-9.728 11.224v7.999c8.686 12.845 16.106 13.41 27.411 2.099 20.616-20.624 41.237-41.244 61.857-61.864 7.07-7.069 14.129-14.15 21.23-21.188 1.356-1.345 2.442-3.137 4.786-.649 6.689 7.102 13.669 13.931 20.543 20.858 3.629 3.657 7.617 6.229 13.184 5.871 4.334-.279 7.534-2.216 10.44-5.136 9.166-9.213 18.41-18.349 27.52-27.618 2.31-2.35 3.914-3.111 6.245.103 1.925 2.654 4.675 4.695 6.946 7.114 13.629 14.516 29.107 24.411 50.293 22.619 12.018-1.016 22.631-5.068 30.927-13.299 52.28-51.871 104.258-104.047 156.339-156.12 23.801-23.798 47.636-47.563 71.371-71.427 2.345-2.358 3.77-3.481 6.584-.351 4.522 5.029 9.63 9.531 14.484 14.263 5.798 5.652 14.026 6.115 19.707.674 6.707-6.423 13.08-13.191 19.637-19.77 11.844-11.882 23.616-23.839 35.621-35.556 5.707-5.57 6.835-13.556 1.698-19.61-3.523-4.153-7.597-7.842-11.463-11.7-7.137-7.121-14.334-14.18-21.446-21.325-8.649-8.688-17.221-17.452-25.854-26.156-8.031-8.096-16.066-16.188-24.178-24.203-1.504-1.487-1.678-2.445-.091-4.023 17.014-16.921 33.961-33.909 50.942-50.863.89-.889 1.667-2.156 3.23-.577 9.676 9.774 19.433 19.467 29.138 29.212 9.241 9.28 18.032 19.036 28.075 27.473 7.165 6.019 12.982 5.516 19.72-1.202a21050.897 21050.897 0 0 0 47.012-47.019c6.9-6.923 6.732-14.404-.245-21.38zm-430.004 87.476c5.797-5.506 11.522-11.106 16.959-16.964 2.395-2.58 3.609-2.034 5.794.171 19.356 19.523 38.847 38.912 58.261 58.377 4.833 4.846 10.042 8.279 17.267 5.61 5.213-1.925 8.878-7.123 8.987-13.297-.324-3.507-1.79-7.002-4.81-10.004-19.853-19.733-39.548-39.626-59.495-59.262-3.132-3.083-3.318-4.739.045-7.675 4.883-4.263 9.478-8.918 13.751-13.795 2.75-3.139 4.713-2.017 6.825.196 12.572 13.173 25.732 25.764 38.482 38.746 13.584 13.832 27.494 27.339 40.966 41.283 10.596 10.967 21.426 21.716 32.379 32.326 2.907 2.816 2.78 4.477-.081 7.082-12.402 11.293-23.633 23.78-35.81 35.328-7.061 6.696-13.991 13.647-20.562 20.875-2.453 2.698-3.957 2.539-6.407.082-37.531-37.636-75.109-75.224-112.78-112.719-2.643-2.63-2.166-4.086.229-6.36zm-103.945 316.03c-5.752 5.554-11.305 11.314-16.964 16.965-.799.799-1.746 1.448-2.78 2.293-.916-.768-1.751-1.307-2.387-2.025-10.1-11.396-21.522-21.495-32.083-32.446-4.192-4.346-7.863-9.456-13.141-12.8-2.653-1.681-2.3-3.461-.101-5.547 6.025-5.717 11.975-11.519 17.769-17.468 1.875-1.925 2.97-1.921 4.83-.028 14.873 15.134 29.754 30.262 44.854 45.168 2.514 2.482 2.263 3.706.003 5.888zm239.165-128.128c-20.458 20.535-40.962 41.025-61.467 61.513-27.222 27.2-54.44 54.405-81.693 81.574-9.15 9.122-24.793 9.582-34.512 1.072-13.385-11.72-25.393-24.852-38.066-37.301-14.328-14.074-28.548-28.262-42.602-42.609-15.802-16.132-32.492-31.395-47.507-48.296-8.296-9.338-7.714-25.196 1.109-34.139 5.85-5.93 11.836-11.729 17.568-17.77 2.109-2.223 3.341-2.238 5.522-.005 10.126 10.37 20.379 20.618 30.717 30.778 7.864 7.729 18.884 5.494 23.135-4.654 2.429-5.799.46-10.711-3.757-14.935-10.123-10.14-20.196-20.332-30.438-30.35-2.249-2.2-2.649-3.534-.154-5.88 6.066-5.704 11.893-11.664 17.726-17.609 1.732-1.765 2.613-2.074 4.664.06 7.551 7.858 15.546 15.287 23.24 23.01 8.408 8.439 16.605 17.087 25.016 25.521 4.901 4.914 9.844 9.822 15.134 14.3 4.693 3.973 13.36 2.868 17.836-1.713 4.647-4.757 5.083-12.59.676-17.687-6.937-8.022-14.632-15.311-22.266-22.667-7.376-7.108-14.337-14.643-21.567-21.905-5.378-5.401-10.773-10.795-16.387-15.946-4.304-3.948-4.488-4.874-.387-8.937 4.97-4.925 10.061-9.744 14.765-14.914 2.754-3.027 4.489-3.202 7.464-.114 9.938 10.317 20.18 20.341 30.338 30.444 3.729 3.708 10.587 5.182 15.207 2.823 4.829-2.465 8.263-6.19 7.836-12.351.428-4.579-1.742-8.166-4.944-11.356-9.795-9.759-19.452-19.66-29.401-29.259-2.776-2.679-2.616-4.159.083-6.67 5.484-5.103 10.766-10.443 15.862-15.935 2.577-2.778 4.123-2.528 6.734.098 31.115 31.295 62.357 62.463 93.564 93.666 6.479 6.479 12.842 13.08 19.49 19.381 2.446 2.319 1.731 3.473-.295 5.46-11.006 10.793-21.877 21.724-32.777 32.624-12.1 12.101-24.183 24.219-36.27 36.332-5.744 5.756-11.513 11.486-17.212 17.286-6.396 6.508-6.679 13.732-.872 19.878 5.307 5.616 13.948 5.717 20.062-.174 8.145-7.848 16.017-15.978 24.017-23.977 10.805-10.804 21.659-21.559 32.416-32.41 8.999-9.078 17.876-18.277 26.844-27.386 1.272-1.292 2.909-2.239 4.106-3.587 1.506-1.696 2.554-1.439 4.028.065 6.18 6.306 12.369 12.609 18.739 18.721 3.132 3.005.245 4.355-1.324 5.93zm83.619-83.599c-19.159 19.194-38.374 38.332-57.48 57.577-2.246 2.262-3.661 2.537-5.994.071-5.714-6.042-11.622-11.91-17.651-17.639-2.12-2.015-1.917-3.262.003-5.162 7.291-7.216 14.423-14.592 21.688-21.833 12.091-12.05 24.309-23.972 36.293-36.127 2.019-2.048 2.599-2.661 5.064-.242 5.781 5.674 10.966 11.973 17.378 17.014 1.131.887 1.805 2.35 2.615 3.446.024 1.532-1.14 2.118-1.916 2.895zm38.235-79.457c5.119 5.182 10.16 10.441 15.299 15.603 4.083 4.101 8.183 8.197 12.28 12.269 6.335 6.296 12.703 12.548 18.864 19.022 1.501 1.577.773 2.095-.203 3.07-6.573 6.572-13.217 13.076-19.677 19.757-4.146 4.288-8.157 8.691-12.625 12.672-1.742 1.552-2.703 1.775-4.412.045-9.318-9.435-18.521-19.002-28.199-28.058-8.472-7.927-16.442-16.333-24.649-24.51-14.453-14.4-28.704-29.002-43.131-43.429-14.559-14.559-29.287-28.949-43.837-43.517-21.11-21.136-42.106-42.385-63.203-63.534-3.157-3.165-6.769-5.853-9.516-9.464-1.058-1.391-1.598-2.199-.102-3.68 11.009-10.9 21.937-21.883 32.896-32.834.462-.458.976-.862 1.694-1.494.603.685 1.065 1.315 1.629 1.835 10.102 9.306 19.454 19.37 29.258 28.959a2728.081 2728.081 0 0 1 22.537 22.333c8.409 8.418 16.869 16.821 25.202 25.321 7.267 7.414 14.642 14.792 22.173 21.983 8.73 8.335 16.729 17.436 25.484 25.743 4.438 4.211 8.659 8.631 13.088 12.845 5.041 4.795 9.892 9.79 14.817 14.707 4.785 4.778 9.581 9.546 14.333 14.356zm25.573-117.396c-16.635 16.562-33.249 33.146-49.78 49.812-1.794 1.808-2.755 1.353-4.449-.062-4.458-3.725-8.285-8.128-12.329-12.212-3.817-3.855-8.05-7.371-11.533-11.609-1.534-1.867-1.986-2.896-.021-4.826 13.884-13.63 27.65-27.38 41.435-41.111 2.706-2.695 5.321-5.48 7.991-8.212.812-.83 1.587-1.739 2.872-1.842 1.304.041 2.057.983 2.874 1.799 7.621 7.61 15.202 15.262 22.877 22.817 1.967 1.936 2.046 3.472.063 5.446zm116.864 18.17c-8.224 8.26-16.525 16.445-24.666 24.785-2.135 2.187-3.409 1.554-5.257-.304-16.576-16.673-33.395-33.109-49.799-49.948-10.844-11.132-21.874-22.09-32.819-33.112-8.142-8.199-16.35-16.389-24.675-24.434-11.293-10.913-21.783-22.662-33.151-33.492-5.754-5.482-11.029-11.473-17.141-16.56-3.013-2.508-2.523-4.186.094-6.698 7.806-7.494 15.445-15.169 22.962-22.954 2.387-2.472 3.841-2.539 6.34-.028 31.36 31.512 62.833 62.91 94.27 94.346 20.84 20.839 41.668 41.69 62.494 62.543 1.044 1.043 2.012 2.16 2.847 3.063.066 1.493-.817 2.108-1.499 2.793z"></path>
      <path d="M-822.207 535.041c-.023-8.102 5.236-13.314 13.41-13.292 8.105.022 13.374 5.334 13.742 13.187.415 8.858-7.249 13.78-13.797 13.861-7.408.092-13.334-6.176-13.355-13.756z"></path>
    </g>
  </symbol>
  <symbol xmlns="http://www.w3.org/2000/svg" viewBox="-501.798 -632.177 772.675 603.211" id="telephone">
    <g fill="#F0CCB2">
      <path d="M269.468-466.161c-2.711-5.54-4.695-11.365-7.053-17.041-12.752-30.69-25.679-61.306-38.426-91.997-2.351-5.661-6.042-9.279-12.085-10.774-20.43-5.055-40.848-10.163-61.217-15.456-29.717-7.722-59.853-13.17-90.174-17.92-27.213-4.262-54.584-6.926-81.961-9.512-17.837-1.685-35.787-2.833-53.695-2.958-35.434-.247-70.884-1.189-106.304 1.546-18.023 1.392-36.075 2.226-54.091 3.995-20.303 1.993-40.556 4.377-60.684 7.488-21.6 3.339-43.064 7.555-64.435 12.32-27.534 6.139-54.653 13.835-82.032 20.535-5.36 1.312-9.289 4.19-11.394 9.461-2.403 6.018-4.996 11.96-7.492 17.941-5.953 14.262-11.853 28.547-17.858 42.787-7.41 17.574-14.906 35.112-22.365 52.665 0 2.333 0 4.666.002 6.996.295.39.71.736.868 1.175 6.401 17.803 12.754 35.623 19.182 53.416 1.043 2.887 3.124 4.802 5.813 6.495 5.63 3.546 10.951 1.006 16.39-.054 24.075-4.692 48.149-9.387 72.216-14.115 18.539-3.642 37.077-7.29 55.598-11.021 14.626-2.946 29.25-5.913 43.826-9.092 6.145-1.34 9.855-5.746 10.933-11.695 2.926-16.137 5.461-32.344 8.126-48.528 2.046-12.424 4.141-24.841 6.023-37.29.539-3.565 1.971-5.578 5.689-6.279 10.746-2.025 21.432-4.337 32.202-6.289 30.298-5.49 60.936-7.174 91.576-8.466a425.314 425.314 0 0 1 45.405.51c18.709 1.213 37.439 1.939 56.072 4.212 19.1 2.33 38.019 5.584 56.824 9.68 4.77 1.039 6.535 3.119 7.235 7.637 2.436 15.717 5.159 31.39 7.815 47.072 1.992 11.764 4.279 23.483 5.999 35.285 1.249 8.571 4.117 12.572 12.553 14.375 15.557 3.324 31.176 6.357 46.764 9.535 18.517 3.775 37.013 7.661 55.549 11.344 24.546 4.877 49.138 9.523 73.668 14.479 3.841.777 7.121.495 10.543-1.314 4.94-2.611 6.419-7.457 8.113-12.09 5.363-14.665 10.542-29.398 15.818-44.095 1.777-4.952 2.916-9.953.464-14.963zm-566.972-16.708c-1.613 9.847-2.979 18.521-4.487 27.17-.395 2.268-2.531 2.311-4.317 2.664-15.117 2.987-30.235 5.966-45.346 8.978-22.263 4.438-44.519 8.907-66.781 13.352-12.51 2.498-25.028 4.958-37.536 7.469-3.219.646-5.27-.012-6.35-3.62-1.945-6.5-4.322-12.877-6.668-19.25-.963-2.617-.11-3.523 2.458-4.043 17.703-3.586 35.388-7.265 53.069-10.96 12.498-2.612 24.978-5.31 37.47-7.946 24.97-5.27 49.945-10.516 74.913-15.795 2.747-.581 4.368-.179 3.575 1.981zm358.309-35.819c-1.049-8.536-3.178-16.932-4.558-25.435-1.031-6.357-4.594-10.28-10.6-11.85-22.8-5.962-45.915-10.2-69.298-13.268-23.587-3.094-47.237-4.324-70.983-5.147-11.143-.386-22.303-.97-33.403-.492-26.178 1.129-52.361 1.96-78.419 5.516-22.706 3.098-45.139 7.293-67.424 12.486-7.838 1.826-12.435 6.485-13.696 14.529-1.283 8.186-3.042 16.306-4.058 24.522-.37 2.99-1.632 4.032-4.125 4.558-23.687 4.995-47.326 10.232-71.072 14.93-23.904 4.729-47.742 9.752-71.556 14.907-8.726 1.885-17.526 3.429-27.418 5.349 4.216-10.041 8.146-19.349 12.036-28.674 6.904-16.552 13.975-33.039 20.534-49.727 1.55-3.944 4.18-5.209 7.579-6.086 12.688-3.275 25.4-6.46 38.086-9.742 28.746-7.436 57.767-13.664 87.051-18.45 21.575-3.526 43.275-6.365 65.073-8.398 25.623-2.39 51.264-4.068 76.986-5.158 25.983-1.102 51.952-1.019 77.895-.454 19.542.425 39.102 1.822 58.639 3.276 16.059 1.195 32.022 3.129 48.038 4.587 12.032 1.095 23.999 3.086 35.927 5.086 18.623 3.124 37.295 6.096 55.749 10.057 18.156 3.897 36.03 9.089 54.099 13.417 7.414 1.776 14.608 4.371 22.186 5.563 3.594.565 6.346 2.1 8.078 6.248 9.152 21.924 18.647 43.704 27.292 65.841 1.566 4.009 3.499 7.875 5.584 12.525-5.637-1.045-10.596-1.869-15.514-2.891-28.726-5.968-57.443-11.978-86.162-17.983-22.395-4.683-44.777-9.429-67.192-14.018-3.337-.682-4.882-1.782-5.354-5.624zm177.42 72.704c-2.416 6.535-4.646 13.139-7.039 19.683-.695 1.901-1.531 3.903-4.308 3.429-10.399-2.073-20.798-4.15-31.198-6.218-25.189-5.009-50.38-10.004-75.566-15.023-14.786-2.946-29.546-6.025-44.361-8.819-3.447-.65-4.451-2.135-4.798-5.572-.781-7.738-3.052-15.249-4.046-23.003-.487-3.803.744-3.902 3.584-3.295 15.396 3.288 30.793 6.569 46.201 9.803 33.254 6.98 66.514 13.933 99.773 20.89 6.487 1.357 12.963 2.778 19.48 3.977 2.751.505 3.183 1.7 2.278 4.148z"></path>
      <path d="M204.158-99.299c-.002-1.486-.097-3.006-.413-4.452-7.008-32.074-14.01-64.15-21.101-96.206-7.558-34.169-15.216-68.315-22.811-102.476-5.973-26.868-11.907-53.745-17.88-80.613-1.567-7.045-5.923-11.391-12.982-12.884-25.294-5.35-50.598-10.654-75.897-15.979-4.525-.952-10.064-.642-13.299-3.219-3.632-2.893-2.313-8.972-3.037-13.682-2.919-18.993-5.856-37.984-8.646-56.996-1.373-9.351-5.423-17.261-18.248-16.39-9.123.619-18.323.011-27.484.178-3.18.058-4.543-.823-4.348-4.201.239-4.151.265-8.342-.007-12.49-.587-8.938-6.549-14.7-14.577-14.398-7.716.29-13.11 6.486-13.22 15.234-.042 3.332-.269 6.691.059 9.991.443 4.46-.926 5.999-5.694 5.924-18.491-.29-36.989-.118-55.484-.118-21.827-.001-43.655-.064-65.482.065-3.424.02-4.83-.9-4.578-4.481.268-3.814.175-7.665.03-11.492-.35-9.23-6.216-15.337-14.375-15.126-7.977.207-13.378 6.414-13.458 15.505-.032 3.665-.19 7.343.051 10.993.226 3.414-.859 4.692-4.452 4.609-9.492-.22-19.023.399-28.483-.198-10.972-.693-15.901 6.767-17.129 15.384-3.273 22.96-6.73 45.894-10.121 68.837-.314 2.124-1.105 3.44-3.643 3.936-15.446 3.022-30.85 6.259-46.258 9.473a7804.33 7804.33 0 0 0-40.868 8.639c-7.049 1.51-11.445 5.827-12.979 12.885-4.507 20.738-8.854 41.512-13.463 62.227-6.807 30.593-13.846 61.134-20.675 91.722-7.118 31.881-14.142 63.784-21.13 95.694-3.578 16.337-8.154 32.452-7.119 49.569.784 12.949.66 26.01-.016 38.971-.475 9.115 6.275 15.925 15.993 15.898 101.14-.277 202.28-.171 303.42-.171H92.801c32.491 0 64.983.016 97.474-.011 8.194-.007 13.847-5.532 13.876-13.666.066-18.828.033-37.657.007-56.485zM-341.85-58.087c-.995 1.766-2.472 1.964-4.215 1.962-19.326-.017-38.652-.048-57.978.032-2.722.011-3.892-.756-3.836-3.665.147-7.661.125-15.328.013-22.99-.039-2.674 1.094-3.425 3.587-3.42 25.809.053 51.62.033 78.403.033-5.659 9.917-10.855 18.961-15.974 28.048zm65.902-24.7c-4.642 8.05-9.27 16.109-13.86 24.189-1.128 1.985-2.724 2.661-4.951 2.498-2.153-.156-4.324-.033-6.978-.033-2.726-.472-7.469 1.582-8.804-.827-1.273-2.295 2.509-5.645 4.04-8.524 3.113-5.855 6.745-11.433 9.931-17.252 1.251-2.286 2.586-3.581 5.369-3.454 4.316.197 8.649.127 12.972.024 2.716-.065 3.878.609 2.281 3.379zm-121.446-30.387c-7.1 0-7.352-.416-5.779-7.357a36235.57 36235.57 0 0 0 21.02-93.189c5.073-22.657 10.176-45.308 15.015-68.015 6.119-28.715 12.424-57.384 19.119-85.971.567-2.423 1.394-3.062 3.704-3.548 28.072-5.901 56.097-12.021 84.16-17.964 12.804-2.712 15.258-5.667 17.361-20.447 2.894-20.342 6.066-40.643 9.104-60.965.441-2.953 1.486-4.543 5.078-4.538 75.487.115 150.975.132 226.463-.034 4.224-.009 4.603 2.35 5.033 5.075 2.476 15.714 4.846 31.445 7.247 47.171 1.025 6.716 1.916 13.454 3.086 20.145 1.281 7.331 5.585 11.262 12.781 12.791 28.868 6.136 57.699 12.452 86.579 18.531 3.096.652 4.323 1.905 4.994 4.978 5.377 24.626 10.95 49.21 16.48 73.803 6.909 30.73 14.058 61.409 20.684 92.2 5.792 26.916 11.597 53.826 17.929 80.621 1.434 6.069.875 6.713-5.649 6.713l-282.455.001-281.954-.001zm437.527 47.96c-3.362 8.664-9.229 9.239-17.102 9.221-92.091-.219-184.183-.14-276.274-.14h-6.201c2.167-6.17 6.679-10.646 8.698-16.276 4.224-11.776 12.309-14.139 24.432-14.058 90.755.605 181.516.329 272.275.329l6.21-.001c-4.408 7.481-9.271 13.796-12.038 20.925zm137.048-16.765c-.21 7.326-.143 14.664-.024 21.994.043 2.654-.602 3.905-3.589 3.899-35.483-.078-70.967-.05-107.424-.05 5.575-9.752 10.709-18.629 15.718-27.575 1.18-2.106 2.852-2.451 4.99-2.448 28.662.032 57.324.063 85.986-.035 3.195-.011 4.439.859 4.343 4.215z"></path>
      <path d="M-115.142-429.812c-81.353-.139-145.282 65.147-145.596 144.959-.316 80.37 65.057 145.524 145.172 145.753 80.783-.11 145.442-65.296 145.514-144.824.074-81.152-64.392-145.749-145.09-145.888zm-.037 263.701c-65.919-.745-118.3-52.222-118.379-118.044-.08-66.957 53.364-118.942 118.367-118.477 67.716.485 117.789 53.438 117.967 117.936.183 66.227-52.153 117.627-117.955 118.585z"></path>
      <path d="M-115.017-336.089c-28.464-.069-51.833 23.159-51.848 51.536-.015 28.561 22.689 51.423 51.11 51.464 28.728.041 51.879-22.806 51.9-51.218.021-28.204-23.208-51.714-51.162-51.782zm-.161 75.996c-13.555.046-24.491-10.763-24.71-24.12-.2-12.211 9.682-24.923 24.731-24.624 14.881.296 23.752 11.051 24.21 24.089.466 13.262-11.014 24.611-24.231 24.655z"></path>
    </g>
  </symbol>
  <symbol xmlns="http://www.w3.org/2000/svg" viewBox="-1069.002 15 754.887 755.24" id="ambulance">
    <g fill="#F0CCB2">
      <path d="M-543.066 15c8.237 4.551 11 11.563 10.14 20.76-.585 6.258-.052 12.616-.134 18.927-.107 8.179-6.587 14.432-14.706 14.317-7.968-.113-14.184-6.211-14.298-14.205-.101-7.142.281-14.303-.111-21.425-.486-8.838 2.693-15.097 11.11-18.374h7.999zm51.92 68.779c-.057-3.932 1.475-7.609 4.136-9.892 7.653-6.566 15.413-13.079 23.934-18.533 6.394-4.093 13.638-2.785 18.185 2.932 5.179 6.511 5.285 13.847-.29 19.252-7.388 7.164-15.715 13.242-24.116 19.151-4.477 3.149-9.478 2.557-14.116.074-5.109-2.735-7.392-7.329-7.733-12.984zm-112.807-.768c-.187 6.889-3.334 10.955-7.859 13.716-4.485 2.737-9.662 3.161-14.07-.067-8.281-6.063-16.459-12.306-24.264-18.963-5.274-4.498-5.207-13.067-.667-19.141 4.211-5.634 12.693-7.657 18.751-3.381 8.503 6.002 16.602 12.631 24.445 19.482 2.472 2.157 4 5.734 3.664 8.354zm289.073 170.342c-1.065-13.856-3.247-27.345-8.373-40.251-9.433-23.752-28.845-38.602-55.657-38.206-25.822.382-51.654.083-77.482.083-8.549 0-8.542 0-8.655-8.325-.02-1.497.017-3.015-.214-4.486-3.199-20.33-11.749-37.736-27.444-51.501-17.19-15.077-37-22.163-59.82-20.74-20.133 1.255-37.551 8.584-52.173 22.728-15.904 15.383-24.594 33.876-25.387 56-.226 6.316-.089 6.323-6.67 6.324-33.16.007-66.32-.042-99.479.055-8.402.025-16.581 1.876-24.026 5.705-23.155 11.907-35.573 30.811-35.799 57.105-.182 21.161-.191 42.326.078 63.485.061 4.754-1.457 5.757-5.909 5.73-29.826-.179-59.654-.223-89.48-.014-11.089.077-21.01 4.14-30.029 10.573-12.05 8.595-17.558 21.179-21.859 34.674-7.256 22.769-14.675 45.486-22.158 68.182-8.059 24.444-16.754 48.692-24.166 73.328-2.795 9.29-7.906 13.919-16.861 15.443-.976.167-1.925.496-2.889.74-29.597 7.476-49.936 24.565-57.331 55.141-.418 1.729-.641 3.652-2.337 4.804 0 1 0 2-.002 2.999 1.085 2.291.265 4.72.515 7.067-.001 26.185.012 52.374-.025 78.564-.002 1.784.486 3.649-.49 5.357v2c1.86 2.068 2.103 4.815 2.926 7.284 5.667 16.997 23.855 31.359 42.77 30.914 20.484-.481 40.99.023 61.483-.212 4.235-.049 5.974 1.494 6.757 5.362 1.972 9.737 6.334 18.482 12.011 26.522 18.797 26.621 50.831 39.083 80.775 32.566 31.958-6.956 52.828-26.624 61.902-58.179 1.444-5.021 3.683-6.283 8.637-6.272 72.151.157 144.302.107 216.454.108 1.333.001 2.666-.009 3.999.019 2.897.061 4.538 1.506 5.212 4.366 4.013 17.027 12.749 31.101 26.211 42.346 23.636 19.743 50.455 24.514 78.887 14.22 26.218-9.492 43.418-28.684 50.298-56.171.996-3.976 2.729-4.9 6.476-4.855 14.162.17 28.33.235 42.489-.035 11.747-.224 21.974-4.674 30.696-12.534 12.222-11.015 16.809-25.302 16.822-41.175.095-117.475.096-234.951-.004-352.426-.013-14.798.46-29.589-.679-44.412zm-286.177-82.881c1.601-32.423 30.745-55.874 61.144-50.67 25.48 4.361 42.216 21.923 45.696 47.781.922 6.851.452 7.395-6.413 7.396-15.664.002-31.329.001-46.994.001-16.331 0-32.663-.093-48.993.072-3.556.036-4.611-1.116-4.44-4.58zm-359.299 327.851c9.958-29.897 19.759-59.846 29.62-89.776 6.232-18.916 12.509-37.816 18.723-56.738 2.753-8.385 13.615-15.728 24.011-15.757 28.984-.082 57.969.037 86.952-.103 4.116-.02 5.029 1.615 5.013 5.347-.114 26.152-.06 52.305-.06 78.457 0 25.986-.08 51.972.084 77.957.025 4.041-.958 5.413-5.23 5.402a28234.07 28234.07 0 0 0-155.915.002c-4.444.012-4.361-1.301-3.198-4.791zm82.483 242.19c-27.743.003-50.468-22.147-50.237-51.648.214-27.279 23.272-50.292 50.983-49.826 27.509.464 50.113 22.572 50.128 50.807-.356 28.126-21.724 50.664-50.874 50.667zm439.866-50.431c.572 28.243-22.553 50.862-50.673 50.408-29.415-.474-50.141-22.526-50.223-51.215-.082-28.871 23.79-50.444 51.221-50.205 27.87.244 50.772 23.92 49.675 51.012zm93.931-37.696c-.004 14.015-8.423 22.402-22.402 22.532-12.996.121-25.996-.114-38.989.126-3.47.064-4.443-1.368-5.23-4.329-8.467-31.873-29.12-52.004-60.911-59.191-26.372-5.962-50.428.862-70.709 19.209-12.019 10.872-20.062 24.239-23.661 40.096-.745 3.283-2.289 4.18-5.492 4.177-74.316-.074-148.632-.094-222.947.043-4.112.008-4.846-2.021-5.675-5.167-6.099-23.142-19.895-40.523-41.056-51.303-26.091-13.291-52.556-12.283-77.657 2.527-18.528 10.932-30.976 27.323-36.123 48.585-.929 3.839-2.28 5.426-6.555 5.37-19.659-.256-39.323-.096-58.985-.119-11.758-.013-18.564-6.797-18.581-18.621-.037-25.161-.065-50.322.021-75.482.069-20.107 13.658-36.573 33.363-41.048 5.157-1.171 10.229-2.867 15.179-4.747 3.484-1.323 6.889-2.138 10.64-2.136 87.981.053 175.961.041 263.94.041 88.146 0 176.292.002 264.438-.004 7.775-.001 12.974-3.249 15.393-9.532 3.803-9.88-3.355-19.396-15.349-20.36-1.49-.12-2.998-.031-4.498-.031l-304.428-.001c-6.623 0-6.625-.004-6.625-6.832-.001-85.147-.003-170.293.001-255.44.001-22.627 14.055-36.71 36.619-36.71h347.418c18.923 0 28.127 6.875 34.048 25.076 3.166 9.731 4.682 19.79 4.695 29.868.176 131.134.151 262.269.118 393.403z"></path>
      <path d="M-376.068 518.272c.042 8.203-6.195 14.612-14.286 14.68-8.431.071-14.773-6.225-14.746-14.638.026-8.134 6.335-14.443 14.46-14.457 8.119-.015 14.53 6.327 14.572 14.415zm-78.035-155.903c14.975-9.137 21.744-22.909 19.793-40.035-1.864-16.358-11.308-27.694-27.024-33.258-2.847-1.008-3.769-2.369-3.853-5.359-.382-13.628-5.556-25.179-15.883-34.215-8.894-7.783-19.55-11.577-31.143-11.118-13.447.533-25.054 5.976-33.751 16.635-1.43 1.752-2.249 1.363-3.445-.038-10.422-12.205-23.54-17.772-39.621-16.085-22.667 2.378-39.439 19.804-40.798 43.011-.28 4.774-1.874 6.445-6.017 7.962-11.072 4.054-18.926 12.135-22.817 22.993-7.106 19.83.113 38.73 18.151 49.796 2.376 1.457 2.491 2.339.808 4.512-9.301 12.009-13.068 25.892-13.379 38.661-.062 21.285 6.575 37.849 19.927 51.22 22.258 22.286 53.568 27.045 81.708 12.983 2.874-1.437 5.014-1.406 7.806.049 14.358 7.482 29.752 10.123 45.458 6.539 29.035-6.625 47.816-24.965 54.656-53.8 4.675-19.712.408-38.673-11.679-55.327-2.001-2.757-1.531-3.519 1.103-5.126zm-56.884-94.38c9.361.033 16.129 6.827 15.945 16.006-.185 9.216-7.464 16.135-16.831 15.999-8.807-.128-15.307-7.096-15.179-16.272.12-8.609 7.425-15.764 16.065-15.733zm-73.137 0c8.652-.008 15.92 7.114 16.049 15.726.136 9.143-6.728 16.251-15.724 16.284-9.299.034-16.254-6.98-16.286-16.426-.03-8.676 7.037-15.576 15.961-15.584zm-47.812 59.043c-.024-5.375 5.86-11.075 11.385-11.03 5.787.048 10.634 5.27 10.583 11.403-.058 6.956-3.866 10.678-10.873 10.627-6.198-.045-11.067-4.873-11.095-11zm125.405 120.979c-11.776 1.569-21.875-1.833-31.045-8.983-6.672-5.202-12.447-5.469-19.605-.229-6.576 4.814-13.469 8.297-21.677 9.263-13.569 1.597-24.953-2.869-34.053-12.601-19.349-20.692-11.601-52.836 12.256-63.543 7.893-3.542 12.061-8.793 13.682-17.366 3.036-16.058 12.906-26.399 28.596-31.389 21.041-6.692 46.867 8.524 50.035 30.396 1.36 9.388 6.004 14.713 14.288 18.556 15.463 7.173 21.748 20.519 22.921 36.826-1.517 21.489-16.247 36.519-35.398 39.07zm31.642-109.985c-6.647-.104-10.336-4.157-10.256-11.266.065-5.758 5.117-10.83 10.711-10.755 5.827.079 11.494 5.944 11.281 11.675-.219 5.875-5.402 10.445-11.736 10.346z"></path>
    </g>
  </symbol>
  <symbol xmlns="http://www.w3.org/2000/svg" viewBox="-1218.388 14.236 737.759 737.309" id="ball">
    <path fill="#F5DECD" d="M-1217.446 362.141c-.358 4.68 1.077 9.481-.942 14.05v-13.998c.285-.558.6-.55.942-.052z"></path>
    <path fill="#F4DBC9" d="M-1218.388 389.189c2.041 4.565.575 9.368.956 14.046-.349.594-.668.578-.956-.048v-13.998z"></path>
    <path fill="#F5DFCE" d="M-859.433 14.236c-3.538 1.961-7.363.608-11.04.954-.6-.345-.586-.663.042-.954h10.998zm30.038.954c-3.678-.346-7.502 1.007-11.04-.954h10.999c.627.291.64.609.041.954z"></path>
    <path fill="#FBF3EE" d="M-870.432 14.236c-.002.319-.015.637-.041.955l-8.959.042c.002-.332.002-.665.001-.997h8.999zm41.037.954a13.779 13.779 0 0 1-.042-.954h8.999c-.001.332-.001.665.001.997l-8.958-.043z"></path>
    <path fill="#FAF1EA" d="M-1217.446 362.141c-.314.019-.628.036-.942.051v-7.999l.975-.011-.033 7.959zm-.942 41.046a35657380436152244 35657380436152244 0 0 1 0 7.998v-7.998z"></path>
    <path fill="#F0CCB2" d="M-482.221 341.062c-2.921-34.92-12.179-68.482-25.701-100.806-15.689-37.507-36.928-71.537-63.95-101.99-23.146-26.085-49.116-48.85-78.461-67.666-32.787-21.023-68.084-36.397-105.778-46.332-21.337-5.624-42.93-9.173-65.012-9.53h-8.345c-3.651-.259-7.352.563-10.967-.502h-18.998c-3.632 1.065-7.351.243-11.02.503h-8.325c-17.324.555-34.423 2.521-51.388 6.334-25.79 5.797-50.723 14.013-74.675 25.096-38.429 17.782-72.822 41.456-103.111 71.13-20.675 20.255-39.07 42.322-54.615 66.732-21.473 33.718-37.002 70.024-46.794 108.762-5.151 20.379-8.351 41.06-8.525 62.135v7.502c-.282 4.581.595 9.207-.502 13.761v12.998c1.097 4.587.22 9.246.503 13.863v7.571c.257 7.475.634 14.941 1.322 22.385 1.601 17.317 5.642 34.143 10.325 50.84 12.707 45.309 33.561 86.517 62.16 123.857 15.251 19.912 32.553 37.865 51.324 54.456 22.723 20.084 47.709 36.826 74.661 50.652 24.709 12.675 50.59 22.325 77.504 29.112 19.397 4.892 39.052 8.514 59.097 9.155 18.292.585 36.589.571 54.905.219 24.323-.467 48.033-4.271 71.429-10.513 67.327-17.964 125.015-52.239 173.173-102.579 21.178-22.137 39.413-46.439 54.415-73.196 25.69-45.821 42.006-94.51 45.615-147.148 1.755-25.604 1.868-51.285-.266-76.801zm-398.805 376.523c-16.04-1.753-31.996-4.067-47.661-7.861-17.133-4.149-33.913-9.56-50.205-16.376-34.482-14.427-65.826-33.817-93.758-58.747-38.067-33.977-67.379-74.131-87.316-121.206-10.378-24.504-17.252-49.931-22.026-75.99-1.494-8.157-2.303-16.446-3.246-24.695-.719-6.294-.347-6.789 5.837-6.44 16.968.958 33.567 4.046 50.052 8.234 19.293 4.902 37.707 12.032 55.556 20.617 20.874 10.041 40.464 22.279 58.986 36.212 17.863 13.437 34.357 28.421 49.623 44.704 21.352 22.773 39.74 47.738 54.822 75.144 12.736 23.142 22.727 47.361 29.278 72.924 3.962 15.458 6.736 31.178 7.603 46.607.136 8.054.166 7.716-7.545 6.873zm64.566-.274c-6.779 1.186-13.651.181-20.375 1.584-3.186.665-4.539-.85-4.595-4.093-.31-18.032-3.11-35.771-7.253-53.252-3.799-16.026-9.083-31.605-15.212-46.944-8.931-22.351-20.144-43.451-33.237-63.565-10.617-16.312-22.434-31.748-35.288-46.387-12.753-14.523-26.356-28.21-40.966-40.83-19.916-17.203-41.136-32.656-64.051-45.691-24.531-13.954-50.252-25.135-77.397-32.934-21.648-6.219-43.686-10.255-66.239-10.923-4.226-.125-5.926-1.661-5.165-5.674 1.403-7.392.347-14.958 1.778-22.362.538-2.785.874-4.376 4.479-4.202 27.224 1.313 53.787 6.155 79.833 14.102 33.153 10.115 64.293 24.672 93.53 43.14 19.396 12.252 37.834 25.899 55.093 41.121 24.031 21.195 45.859 44.367 65.04 70.056 19.396 25.977 35.862 53.634 48.78 83.39 11.639 26.812 20.012 54.619 24.905 83.41 1.806 10.626 2.428 21.453 3.268 29.212.251 9.991.183 9.598-6.928 10.842zm292.174-249.364c-4.593 15.808-9.547 31.449-16.022 46.632-11.031 25.865-25.134 49.867-42.148 72.215a322.46 322.46 0 0 1-36.416 40.308c-22.33 20.874-46.801 38.676-73.932 52.975-24.603 12.966-50.397 22.451-77.222 29.399-1.446.372-2.924.62-4.387.927-2.913.577-2.832-1.451-3.02-3.335-.987-9.918-1.625-19.889-3.09-29.736-3.188-21.42-8.299-42.395-15.175-62.965-5.655-16.918-12.401-33.367-20.049-49.45-8.51-17.896-18.516-34.98-29.34-51.553-11.65-17.838-24.633-34.738-38.701-50.713-17.284-19.626-35.997-37.836-56.173-54.553-24.684-20.452-51.158-38.203-79.467-53.145a407.982 407.982 0 0 0-86.271-33.677c-22.43-5.939-45.237-9.321-68.32-10.984-3.792-.273-4.334-1.348-3.485-4.85 7.408-30.573 18.555-59.64 33.957-87.112 16.906-30.153 38.109-56.92 63.194-80.581 22-20.751 46.382-38.214 73.21-52.36 23.387-12.331 47.896-21.491 73.322-28.458 3.163-.867 3.355.58 3.44 2.912.689 18.809 3.081 37.411 6.937 55.826 6.234 29.779 15.948 58.398 28.733 85.992 13.265 28.631 29.513 55.496 48.448 80.696a480.591 480.591 0 0 0 40.941 47.647c26.296 26.847 55.247 50.311 87.015 70.414 38.291 24.23 79.202 42.206 123.224 53.026 22.169 5.449 44.637 8.9 67.472 9.65 3.825.126 4.375 1.237 3.325 4.853zm-25.819-70.866c10.75 1.064 21.491 2.471 32.327 2.081 3.152-.113 3.594.897 3.591 4.013-.008 8.207-1.662 16.203-2.286 24.313-.277 3.604-2.489 3.758-5.192 3.709-14.821-.27-29.513-1.755-44.116-4.318-24.495-4.299-48.282-11.067-71.298-20.455-30.296-12.357-58.659-28.127-85.272-47.268-22.916-16.481-44.146-34.78-63.597-55.153a448.33 448.33 0 0 1-39.773-47.928c-14.025-19.504-26.451-39.904-36.892-61.491-8.841-18.28-16.376-37.084-22.128-56.625-7.881-26.772-12.725-53.975-13.756-81.882-.183-4.96 1.377-6.828 6.381-6.931 7.129-.147 14.112-2.146 21.326-2.026 3.189.053 4.415.919 4.408 4.244-.052 24.971 4.38 49.327 11.083 73.243 7.619 27.182 18.754 52.962 32.816 77.458 16.459 28.669 35.869 55.127 59.022 78.783 2.431 2.484 4.741 5.086 7.191 7.55 6.316 6.35 16.133 6.623 22.473.678 6.418-6.018 7.014-15.217.911-21.852-15.762-17.138-31.417-34.365-44.598-53.624-13.549-19.796-25.461-40.505-34.669-62.74-7.723-18.649-13.864-37.746-17.748-57.553-2.626-13.393-4.375-26.878-4.622-40.564-.078-4.336 1.036-5.916 5.579-5.621 19.285 1.251 38.343 3.987 57.121 8.488 43.539 10.437 83.642 28.586 119.755 55.042 23.685 17.352 44.805 37.475 63.411 60.38 18.925 23.297 34.631 48.458 46.687 75.811 12.118 27.492 20.671 56.138 24.588 86.041 1.273 9.715 2.695 19.391 3.256 29.215.267 4.676-.962 5.564-4.92 5.123-1.316-.147-2.663-.023-3.996-.023-.005.074-.012.15-.02.226-8.437-.763-16.879-1.468-25.309-2.304-12.502-1.24-17.93 6.644-18.868 14.692-.982 8.427 6.878 16.253 17.134 17.268z"></path>
    <path fill="#F0CCB2" d="M-651.624 331.119c8.709-.027 16.091 7.097 16.124 15.561.034 8.718-7.314 16.072-16.209 16.224-8.365.142-15.634-7.259-15.731-16.016-.096-8.67 6.997-15.742 15.816-15.769z"></path>
  </symbol>
</svg>