<?xml version="1.0" standalone="no"?>
<!DOCTYPE svg PUBLIC "-//W3C//DTD SVG 20010904//EN"
 "http://www.w3.org/TR/2001/REC-SVG-20010904/DTD/svg10.dtd">
<svg version="1.0" xmlns="http://www.w3.org/2000/svg"
 width="236.000000pt" height="236.000000pt" viewBox="0 0 236.000000 236.000000"
 preserveAspectRatio="xMidYMid meet">
<metadata>
Created by potrace 1.11, written by Peter Selinger 2001-2013
</metadata>
<g transform="translate(0.000000,236.000000) scale(0.100000,-0.100000)"
fill="#000000" stroke="none">
<path d="M1095 2025 c-22 -11 -41 -23 -43 -27 -2 -5 -10 -8 -18 -8 -9 0 -12
-4 -9 -10 3 -5 -2 -10 -12 -10 -10 0 -25 -9 -33 -20 -8 -11 -19 -20 -25 -20
-6 0 -17 -9 -25 -20 -8 -11 -20 -20 -27 -20 -7 0 -13 -4 -13 -10 0 -5 -5 -10
-10 -10 -6 0 -23 -11 -38 -25 -15 -14 -33 -25 -40 -25 -7 0 -15 -7 -18 -15 -4
-8 -12 -15 -20 -15 -8 0 -14 -4 -14 -10 0 -5 -4 -10 -10 -10 -9 0 -71 -43
-123 -86 -9 -8 -20 -14 -23 -14 -3 0 -12 -7 -21 -15 -8 -8 -19 -12 -25 -9 -7
4 -8 2 -4 -4 4 -7 1 -12 -8 -12 -9 0 -16 -4 -16 -10 0 -5 -6 -10 -13 -10 -7 0
-19 -9 -27 -20 -8 -11 -20 -20 -27 -20 -7 0 -13 -4 -13 -10 0 -5 -5 -10 -10
-10 -12 0 -32 -15 -58 -42 -9 -10 -22 -18 -29 -18 -7 0 -27 -13 -45 -30 -17
-16 -37 -30 -44 -30 -8 0 -14 -5 -14 -11 0 -6 -7 -8 -16 -5 -8 3 -13 2 -10 -2
6 -11 -30 -42 -48 -42 -8 0 -18 -9 -21 -20 -4 -11 -10 -18 -15 -15 -5 3 -15
-2 -23 -10 -9 -8 -18 -15 -21 -15 -11 0 -65 -65 -66 -78 0 -7 -4 -11 -8 -8
-13 8 -5 -99 9 -125 6 -13 20 -31 30 -40 10 -9 16 -19 12 -23 -3 -3 5 -6 20
-6 14 0 29 -4 32 -10 9 -15 95 -13 95 3 0 9 2 9 9 -1 7 -11 10 -10 15 3 3 9
12 15 19 12 16 -5 20 -415 3 -436 -8 -10 -8 -13 0 -8 7 4 11 -14 10 -58 -1
-36 -5 -65 -11 -65 -6 0 -6 -3 1 -8 6 -4 11 -18 11 -32 0 -14 2 -32 4 -40 6
-22 61 -80 76 -80 8 0 12 -3 9 -8 -2 -4 24 -7 59 -7 37 -1 61 3 58 9 -4 5 3 7
15 4 12 -4 20 -2 17 2 -7 12 30 31 40 22 5 -4 5 -1 1 6 -5 8 -1 21 9 32 14 16
17 41 17 152 1 82 5 139 12 147 8 11 8 13 -1 8 -8 -5 -11 39 -9 177 1 102 4
188 8 191 4 4 13 -2 20 -14 7 -12 17 -21 23 -21 5 0 21 -10 35 -21 14 -11 52
-38 85 -61 33 -23 67 -50 76 -60 9 -10 21 -18 28 -18 6 0 11 -4 11 -10 0 -5 5
-10 11 -10 6 0 17 -6 24 -12 7 -7 32 -24 54 -38 23 -13 41 -30 41 -38 0 -7 4
-11 9 -7 5 3 16 -2 24 -10 9 -8 19 -15 23 -15 4 0 22 -11 41 -26 18 -14 33
-23 33 -20 0 3 11 1 25 -4 14 -5 25 -6 25 -1 0 5 8 8 18 6 9 -1 31 5 47 13 17
9 33 15 37 14 5 -1 7 2 5 7 -1 5 2 9 7 9 5 0 12 4 15 9 12 16 118 93 129 93 5
0 12 3 14 8 4 9 70 59 81 61 4 0 16 10 27 21 12 12 26 18 33 14 7 -4 9 -4 5 1
-5 5 9 20 30 34 20 14 46 33 56 43 11 10 26 18 33 18 7 0 13 4 13 10 0 5 8 14
18 19 16 9 18 0 17 -142 0 -84 -4 -158 -9 -166 -6 -9 -5 -12 0 -8 14 8 13
-156 -1 -165 -7 -5 -7 -8 1 -8 6 0 10 -29 10 -75 -1 -41 3 -75 8 -75 5 0 3 -7
-4 -16 -8 -8 -9 -14 -4 -12 6 2 25 -12 43 -29 36 -37 98 -57 142 -48 16 4 32
7 36 7 5 1 13 8 19 16 6 8 16 12 22 8 8 -4 10 -2 6 7 -3 8 2 17 10 20 9 4 16
14 16 22 0 9 4 14 8 11 5 -3 8 83 8 190 -1 120 3 196 9 198 7 3 7 5 0 5 -11 1
-13 236 -2 248 4 4 23 1 41 -5 37 -13 104 -13 112 0 3 4 13 8 24 8 10 0 21 8
24 17 6 15 9 15 17 3 9 -13 10 -13 6 0 -3 9 1 24 9 34 7 11 11 22 9 27 -3 4
-1 10 4 13 5 3 7 15 4 26 -3 11 0 20 6 20 6 0 11 5 11 11 0 5 -5 7 -11 4 -6
-4 -9 -1 -8 6 4 26 -30 101 -43 93 -4 -3 -8 -1 -8 5 0 5 -9 13 -20 16 -11 4
-17 11 -14 17 4 6 2 8 -3 5 -6 -4 -16 0 -23 8 -7 8 -17 15 -22 15 -12 0 -39
26 -33 32 2 2 -6 5 -18 5 -12 1 -23 7 -25 13 -2 5 -8 10 -13 10 -5 0 -18 8
-30 18 -11 9 -33 27 -47 39 -15 13 -33 23 -39 23 -7 0 -13 5 -13 10 0 6 -7 10
-16 10 -8 0 -12 5 -9 10 3 6 0 10 -7 10 -7 0 -29 14 -48 30 -19 16 -40 30 -45
30 -6 0 -17 9 -25 20 -8 11 -20 20 -28 20 -7 0 -10 5 -6 12 5 8 2 9 -10 5 -10
-4 -19 -1 -22 8 -4 8 -12 15 -20 15 -8 0 -19 9 -26 20 -7 11 -19 20 -26 20 -7
0 -10 5 -7 10 3 6 -2 10 -12 10 -25 1 -56 26 -48 39 3 6 0 9 -7 6 -8 -3 -23 4
-35 15 -12 11 -27 20 -33 20 -15 0 -41 26 -33 34 4 3 -2 6 -12 6 -10 0 -25 8
-34 18 -9 9 -28 23 -43 31 -15 8 -25 18 -22 23 3 5 2 8 -3 7 -21 -4 -34 2 -27
13 4 6 3 8 -4 4 -6 -3 -21 4 -34 16 -13 13 -35 29 -50 37 -16 8 -28 18 -28 23
0 4 -11 8 -25 8 -14 0 -25 4 -25 8 0 15 -66 7 -105 -13z m95 -355 c6 -11 17
-20 26 -20 8 0 24 -9 36 -20 12 -11 28 -20 35 -20 7 0 13 -4 13 -10 0 -5 6
-10 13 -10 7 0 19 -9 27 -20 8 -11 19 -20 25 -20 5 0 26 -14 45 -30 19 -16 40
-30 45 -30 6 0 17 -9 25 -20 8 -11 20 -20 27 -20 7 0 13 -4 13 -9 0 -5 16 -16
35 -25 19 -9 35 -21 35 -26 0 -5 9 -12 20 -15 30 -10 24 -28 -21 -61 -22 -16
-54 -40 -70 -52 -16 -13 -29 -20 -29 -16 0 4 -7 -1 -15 -12 -8 -10 -15 -15
-15 -10 0 6 -7 1 -15 -10 -8 -10 -15 -15 -15 -9 0 5 -7 -1 -16 -13 -8 -12 -19
-22 -24 -22 -5 0 -24 -14 -42 -30 -18 -17 -39 -28 -46 -25 -7 3 -10 1 -7 -5 6
-10 -28 -32 -39 -25 -3 3 -4 2 -1 -2 7 -9 -46 -43 -57 -37 -5 3 -7 0 -6 -8 2
-7 -5 -12 -14 -12 -10 1 -15 -2 -12 -7 10 -17 -8 -9 -40 16 -17 14 -65 50
-106 80 -41 30 -80 59 -87 65 -7 5 -16 10 -21 10 -5 0 -23 14 -40 30 -18 17
-35 30 -38 29 -7 -2 -144 101 -144 108 0 2 4 2 9 -2 5 -3 12 4 16 15 4 13 15
20 32 20 15 0 23 3 20 7 -9 9 13 34 24 27 5 -3 9 -1 9 4 0 9 109 86 120 85 3
0 11 8 18 18 7 11 17 19 22 19 6 0 19 8 30 18 11 9 23 16 25 15 3 -2 13 5 23
15 35 32 62 52 62 44 0 -4 5 1 11 11 5 9 17 17 24 17 8 0 15 5 15 10 0 18 29
11 40 -10z"/>
<path d="M890 1219 c0 -5 5 -7 10 -4 6 3 10 8 10 11 0 2 -4 4 -10 4 -5 0 -10
-5 -10 -11z"/>
<path d="M1050 1106 c0 -2 7 -7 16 -10 8 -3 12 -2 9 4 -6 10 -25 14 -25 6z"/>
</g>
</svg>
